<?xml version="1.0" encoding="UTF-8" standalone="no"?><svg xmlns="http://www.w3.org/2000/svg" xmlns:xlink="http://www.w3.org/1999/xlink" clip-rule="evenodd" stroke-miterlimit="4.00" viewBox="0 0 798 118"><desc>SVG generated by Keynote</desc><defs></defs><g transform="matrix(1.00, 0.00, -0.00, -1.00, 0.0, 118.0)"><text xml:space="preserve" font-family="ProximaNova-Light" font-size="27.0" fill="#FEFFFE" transform="matrix(1.00, 0.00, -0.00, -1.00, 0.1, 93.0)">•</text><text xml:space="preserve" font-family="ProximaNova-Light" font-size="36.0" fill="#FEFFFE" transform="matrix(1.00, 0.00, -0.00, -1.00, 35.0, 90.0)">S</text><text xml:space="preserve" font-family="ProximaNova-Light" font-size="36.0" fill="#FEFFFE" transform="matrix(1.00, 0.00, -0.00, -1.00, 55.9, 90.0)">e</text><text xml:space="preserve" font-family="ProximaNova-Light" font-size="36.0" fill="#FEFFFE" transform="matrix(1.00, 0.00, -0.00, -1.00, 76.3, 90.0)">a</text><text xml:space="preserve" font-family="ProximaNova-Light" font-size="36.0" fill="#FEFFFE" transform="matrix(1.00, 0.00, -0.00, -1.00, 95.1, 90.0)">r</text><text xml:space="preserve" font-family="ProximaNova-Light" font-size="36.0" fill="#FEFFFE" transform="matrix(1.00, 0.00, -0.00, -1.00, 106.5, 90.0)">c</text><text xml:space="preserve" font-family="ProximaNova-Light" font-size="36.0" fill="#FEFFFE" transform="matrix(1.00, 0.00, -0.00, -1.00, 124.3, 90.0)">h</text><text xml:space="preserve" font-family="ProximaNova-Light" font-size="36.0" fill="#FEFFFE" transform="matrix(1.00, 0.00, -0.00, -1.00, 143.7, 90.0)"> </text><text xml:space="preserve" font-family="ProximaNova-Light" font-size="36.0" fill="#FEFFFE" transform="matrix(1.00, 0.00, -0.00, -1.00, 153.0, 90.0)">r</text><text xml:space="preserve" font-family="ProximaNova-Light" font-size="36.0" fill="#FEFFFE" transform="matrix(1.00, 0.00, -0.00, -1.00, 164.5, 90.0)">e</text><text xml:space="preserve" font-family="ProximaNova-Light" font-size="36.0" fill="#FEFFFE" transform="matrix(1.00, 0.00, -0.00, -1.00, 184.9, 90.0)">s</text><text xml:space="preserve" font-family="ProximaNova-Light" font-size="36.0" fill="#FEFFFE" transform="matrix(1.00, 0.00, -0.00, -1.00, 201.4, 90.0)">u</text><text xml:space="preserve" font-family="ProximaNova-Light" font-size="36.0" fill="#FEFFFE" transform="matrix(1.00, 0.00, -0.00, -1.00, 220.8, 90.0)">l</text><text xml:space="preserve" font-family="ProximaNova-Light" font-size="36.0" fill="#FEFFFE" transform="matrix(1.00, 0.00, -0.00, -1.00, 228.5, 90.0)">t</text><text xml:space="preserve" font-family="ProximaNova-Light" font-size="36.0" fill="#FEFFFE" transform="matrix(1.00, 0.00, -0.00, -1.00, 238.4, 90.0)">s</text><text xml:space="preserve" font-family="ProximaNova-Light" font-size="36.0" fill="#FEFFFE" transform="matrix(1.00, 0.00, -0.00, -1.00, 255.0, 90.0)"> </text><text xml:space="preserve" font-family="ProximaNova-Light" font-size="36.0" fill="#FEFFFE" transform="matrix(1.00, 0.00, -0.00, -1.00, 264.3, 90.0)">f</text><text xml:space="preserve" font-family="ProximaNova-Light" font-size="36.0" fill="#FEFFFE" transform="matrix(1.00, 0.00, -0.00, -1.00, 273.8, 90.0)">o</text><text xml:space="preserve" font-family="ProximaNova-Light" font-size="36.0" fill="#FEFFFE" transform="matrix(1.00, 0.00, -0.00, -1.00, 294.4, 90.0)">r</text><text xml:space="preserve" font-family="ProximaNova-Light" font-size="36.0" fill="#FEFFFE" transform="matrix(1.00, 0.00, -0.00, -1.00, 305.8, 90.0)"> </text><text xml:space="preserve" font-family="ProximaNova-Light" font-size="36.0" fill="#FEFFFE" transform="matrix(1.00, 0.00, -0.00, -1.00, 315.1, 90.0)">j</text><text xml:space="preserve" font-family="ProximaNova-Light" font-size="36.0" fill="#FEFFFE" transform="matrix(1.00, 0.00, -0.00, -1.00, 322.8, 90.0)">o</text><text xml:space="preserve" font-family="ProximaNova-Light" font-size="36.0" fill="#FEFFFE" transform="matrix(1.00, 0.00, -0.00, -1.00, 343.4, 90.0)">b</text><text xml:space="preserve" font-family="ProximaNova-Light" font-size="36.0" fill="#FEFFFE" transform="matrix(1.00, 0.00, -0.00, -1.00, 363.9, 90.0)"> </text><text xml:space="preserve" font-family="ProximaNova-Light" font-size="36.0" fill="#FEFFFE" transform="matrix(1.00, 0.00, -0.00, -1.00, 373.3, 90.0)">p</text><text xml:space="preserve" font-family="ProximaNova-Light" font-size="36.0" fill="#FEFFFE" transform="matrix(1.00, 0.00, -0.00, -1.00, 393.7, 90.0)">r</text><text xml:space="preserve" font-family="ProximaNova-Light" font-size="36.0" fill="#FEFFFE" transform="matrix(1.00, 0.00, -0.00, -1.00, 405.1, 90.0)">o</text><text xml:space="preserve" font-family="ProximaNova-Light" font-size="36.0" fill="#FEFFFE" transform="matrix(1.00, 0.00, -0.00, -1.00, 425.6, 90.0)">v</text><text xml:space="preserve" font-family="ProximaNova-Light" font-size="36.0" fill="#FEFFFE" transform="matrix(1.00, 0.00, -0.00, -1.00, 443.0, 90.0)">i</text><text xml:space="preserve" font-family="ProximaNova-Light" font-size="36.0" fill="#FEFFFE" transform="matrix(1.00, 0.00, -0.00, -1.00, 450.7, 90.0)">d</text><text xml:space="preserve" font-family="ProximaNova-Light" font-size="36.0" fill="#FEFFFE" transform="matrix(1.00, 0.00, -0.00, -1.00, 471.2, 90.0)">e</text><text xml:space="preserve" font-family="ProximaNova-Light" font-size="36.0" fill="#FEFFFE" transform="matrix(1.00, 0.00, -0.00, -1.00, 491.6, 90.0)">r</text><text xml:space="preserve" font-family="ProximaNova-Light" font-size="36.0" fill="#FEFFFE" transform="matrix(1.00, 0.00, -0.00, -1.00, 503.0, 90.0)">s</text><text xml:space="preserve" font-family="ProximaNova-Light" font-size="36.0" fill="#FEFFFE" transform="matrix(1.00, 0.00, -0.00, -1.00, 519.6, 90.0)"> </text><text xml:space="preserve" font-family="ProximaNova-Light" font-size="36.0" fill="#FEFFFE" transform="matrix(1.00, 0.00, -0.00, -1.00, 528.9, 90.0)">w</text><text xml:space="preserve" font-family="ProximaNova-Light" font-size="36.0" fill="#FEFFFE" transform="matrix(1.00, 0.00, -0.00, -1.00, 554.8, 90.0)">i</text><text xml:space="preserve" font-family="ProximaNova-Light" font-size="36.0" fill="#FEFFFE" transform="matrix(1.00, 0.00, -0.00, -1.00, 562.5, 90.0)">l</text><text xml:space="preserve" font-family="ProximaNova-Light" font-size="36.0" fill="#FEFFFE" transform="matrix(1.00, 0.00, -0.00, -1.00, 570.2, 90.0)">l</text><text xml:space="preserve" font-family="ProximaNova-Light" font-size="36.0" fill="#FEFFFE" transform="matrix(1.00, 0.00, -0.00, -1.00, 577.9, 90.0)"> </text><text xml:space="preserve" font-family="ProximaNova-Light" font-size="36.0" fill="#FEFFFE" transform="matrix(1.00, 0.00, -0.00, -1.00, 587.2, 90.0)">b</text><text xml:space="preserve" font-family="ProximaNova-Light" font-size="36.0" fill="#FEFFFE" transform="matrix(1.00, 0.00, -0.00, -1.00, 607.8, 90.0)">e</text><text xml:space="preserve" font-family="ProximaNova-Light" font-size="36.0" fill="#FEFFFE" transform="matrix(1.00, 0.00, -0.00, -1.00, 628.2, 90.0)"> </text><text xml:space="preserve" font-family="ProximaNova-Light" font-size="36.0" fill="#FEFFFE" transform="matrix(1.00, 0.00, -0.00, -1.00, 637.5, 90.0)">p</text><text xml:space="preserve" font-family="ProximaNova-Light" font-size="36.0" fill="#FEFFFE" transform="matrix(1.00, 0.00, -0.00, -1.00, 657.9, 90.0)">o</text><text xml:space="preserve" font-family="ProximaNova-Light" font-size="36.0" fill="#FEFFFE" transform="matrix(1.00, 0.00, -0.00, -1.00, 678.5, 90.0)">p</text><text xml:space="preserve" font-family="ProximaNova-Light" font-size="36.0" fill="#FEFFFE" transform="matrix(1.00, 0.00, -0.00, -1.00, 698.9, 90.0)">u</text><text xml:space="preserve" font-family="ProximaNova-Light" font-size="36.0" fill="#FEFFFE" transform="matrix(1.00, 0.00, -0.00, -1.00, 718.3, 90.0)">l</text><text xml:space="preserve" font-family="ProximaNova-Light" font-size="36.0" fill="#FEFFFE" transform="matrix(1.00, 0.00, -0.00, -1.00, 726.0, 90.0)">a</text><text xml:space="preserve" font-family="ProximaNova-Light" font-size="36.0" fill="#FEFFFE" transform="matrix(1.00, 0.00, -0.00, -1.00, 744.8, 90.0)">t</text><text xml:space="preserve" font-family="ProximaNova-Light" font-size="36.0" fill="#FEFFFE" transform="matrix(1.00, 0.00, -0.00, -1.00, 754.7, 90.0)">e</text><text xml:space="preserve" font-family="ProximaNova-Light" font-size="36.0" fill="#FEFFFE" transform="matrix(1.00, 0.00, -0.00, -1.00, 775.1, 90.0)">d</text><text xml:space="preserve" font-family="ProximaNova-Light" font-size="36.0" fill="#FEFFFE" transform="matrix(1.00, 0.00, -0.00, -1.00, 795.6, 90.0)"> </text><text xml:space="preserve" font-family="ProximaNova-Light" font-size="36.0" fill="#FEFFFE" transform="matrix(1.00, 0.00, -0.00, -1.00, 35.0, 46.0)">b</text><text xml:space="preserve" font-family="ProximaNova-Light" font-size="36.0" fill="#FEFFFE" transform="matrix(1.00, 0.00, -0.00, -1.00, 55.6, 46.0)">y</text><text xml:space="preserve" font-family="ProximaNova-Light" font-size="36.0" fill="#FEFFFE" transform="matrix(1.00, 0.00, -0.00, -1.00, 72.9, 46.0)"> </text><text xml:space="preserve" font-family="ProximaNova-Light" font-size="36.0" fill="#FEFFFE" transform="matrix(1.00, 0.00, -0.00, -1.00, 82.2, 46.0)">k</text><text xml:space="preserve" font-family="ProximaNova-Light" font-size="36.0" fill="#FEFFFE" transform="matrix(1.00, 0.00, -0.00, -1.00, 100.3, 46.0)">e</text><text xml:space="preserve" font-family="ProximaNova-Light" font-size="36.0" fill="#FEFFFE" transform="matrix(1.00, 0.00, -0.00, -1.00, 120.8, 46.0)">y</text><text xml:space="preserve" font-family="ProximaNova-Light" font-size="36.0" fill="#FEFFFE" transform="matrix(1.00, 0.00, -0.00, -1.00, 138.1, 46.0)">w</text><text xml:space="preserve" font-family="ProximaNova-Light" font-size="36.0" fill="#FEFFFE" transform="matrix(1.00, 0.00, -0.00, -1.00, 164.0, 46.0)">o</text><text xml:space="preserve" font-family="ProximaNova-Light" font-size="36.0" fill="#FEFFFE" transform="matrix(1.00, 0.00, -0.00, -1.00, 184.5, 46.0)">r</text><text xml:space="preserve" font-family="ProximaNova-Light" font-size="36.0" fill="#FEFFFE" transform="matrix(1.00, 0.00, -0.00, -1.00, 195.9, 46.0)">d</text><text xml:space="preserve" font-family="ProximaNova-Light" font-size="36.0" fill="#FEFFFE" transform="matrix(1.00, 0.00, -0.00, -1.00, 216.5, 46.0)">s</text><text xml:space="preserve" font-family="ProximaNova-Light" font-size="36.0" fill="#FEFFFE" transform="matrix(1.00, 0.00, -0.00, -1.00, 233.0, 46.0)"> </text><text xml:space="preserve" font-family="ProximaNova-Light" font-size="36.0" fill="#FEFFFE" transform="matrix(1.00, 0.00, -0.00, -1.00, 242.3, 46.0)">f</text><text xml:space="preserve" font-family="ProximaNova-Light" font-size="36.0" fill="#FEFFFE" transform="matrix(1.00, 0.00, -0.00, -1.00, 251.9, 46.0)">o</text><text xml:space="preserve" font-family="ProximaNova-Light" font-size="36.0" fill="#FEFFFE" transform="matrix(1.00, 0.00, -0.00, -1.00, 272.4, 46.0)">u</text><text xml:space="preserve" font-family="ProximaNova-Light" font-size="36.0" fill="#FEFFFE" transform="matrix(1.00, 0.00, -0.00, -1.00, 291.9, 46.0)">n</text><text xml:space="preserve" font-family="ProximaNova-Light" font-size="36.0" fill="#FEFFFE" transform="matrix(1.00, 0.00, -0.00, -1.00, 311.3, 46.0)">d</text><text xml:space="preserve" font-family="ProximaNova-Light" font-size="36.0" fill="#FEFFFE" transform="matrix(1.00, 0.00, -0.00, -1.00, 331.9, 46.0)"> </text><text xml:space="preserve" font-family="ProximaNova-Light" font-size="36.0" fill="#FEFFFE" transform="matrix(1.00, 0.00, -0.00, -1.00, 341.2, 46.0)">i</text><text xml:space="preserve" font-family="ProximaNova-Light" font-size="36.0" fill="#FEFFFE" transform="matrix(1.00, 0.00, -0.00, -1.00, 348.9, 46.0)">n</text><text xml:space="preserve" font-family="ProximaNova-Light" font-size="36.0" fill="#FEFFFE" transform="matrix(1.00, 0.00, -0.00, -1.00, 368.3, 46.0)"> </text><text xml:space="preserve" font-family="ProximaNova-Light" font-size="36.0" fill="#FEFFFE" transform="matrix(1.00, 0.00, -0.00, -1.00, 377.6, 46.0)">t</text><text xml:space="preserve" font-family="ProximaNova-Light" font-size="36.0" fill="#FEFFFE" transform="matrix(1.00, 0.00, -0.00, -1.00, 387.5, 46.0)">h</text><text xml:space="preserve" font-family="ProximaNova-Light" font-size="36.0" fill="#FEFFFE" transform="matrix(1.00, 0.00, -0.00, -1.00, 407.0, 46.0)">e</text><text xml:space="preserve" font-family="ProximaNova-Light" font-size="36.0" fill="#FEFFFE" transform="matrix(1.00, 0.00, -0.00, -1.00, 427.4, 46.0)"> </text><text xml:space="preserve" font-family="ProximaNova-Regular" font-size="36.0" fill="#81F8A9" transform="matrix(1.00, 0.00, -0.00, -1.00, 436.7, 46.0)">j</text><text xml:space="preserve" font-family="ProximaNova-Regular" font-size="36.0" fill="#81F8A9" transform="matrix(1.00, 0.00, -0.00, -1.00, 444.8, 46.0)">o</text><text xml:space="preserve" font-family="ProximaNova-Regular" font-size="36.0" fill="#81F8A9" transform="matrix(1.00, 0.00, -0.00, -1.00, 465.4, 46.0)">b</text><text xml:space="preserve" font-family="ProximaNova-Regular" font-size="36.0" fill="#81F8A9" transform="matrix(1.00, 0.00, -0.00, -1.00, 486.1, 46.0)"> </text><text xml:space="preserve" font-family="ProximaNova-Regular" font-size="36.0" fill="#81F8A9" transform="matrix(1.00, 0.00, -0.00, -1.00, 495.4, 46.0)">s</text><text xml:space="preserve" font-family="ProximaNova-Regular" font-size="36.0" fill="#81F8A9" transform="matrix(1.00, 0.00, -0.00, -1.00, 512.1, 46.0)">e</text><text xml:space="preserve" font-family="ProximaNova-Regular" font-size="36.0" fill="#81F8A9" transform="matrix(1.00, 0.00, -0.00, -1.00, 532.4, 46.0)">e</text><text xml:space="preserve" font-family="ProximaNova-Regular" font-size="36.0" fill="#81F8A9" transform="matrix(1.00, 0.00, -0.00, -1.00, 552.7, 46.0)">k</text><text xml:space="preserve" font-family="ProximaNova-Regular" font-size="36.0" fill="#81F8A9" transform="matrix(1.00, 0.00, -0.00, -1.00, 571.1, 46.0)">e</text><text xml:space="preserve" font-family="ProximaNova-Regular" font-size="36.0" fill="#81F8A9" transform="matrix(1.00, 0.00, -0.00, -1.00, 591.3, 46.0)">r</text><text xml:space="preserve" font-family="ProximaNova-Regular" font-size="36.0" fill="#81F8A9" transform="matrix(1.00, 0.00, -0.00, -1.00, 603.2, 46.0)">’</text><text xml:space="preserve" font-family="ProximaNova-Regular" font-size="36.0" fill="#81F8A9" transform="matrix(1.00, 0.00, -0.00, -1.00, 610.4, 46.0)">s</text><text xml:space="preserve" font-family="ProximaNova-Regular" font-size="36.0" fill="#81F8A9" transform="matrix(1.00, 0.00, -0.00, -1.00, 627.2, 46.0)"> </text><text xml:space="preserve" font-family="ProximaNova-Regular" font-size="36.0" fill="#81F8A9" transform="matrix(1.00, 0.00, -0.00, -1.00, 636.5, 46.0)">p</text><text xml:space="preserve" font-family="ProximaNova-Regular" font-size="36.0" fill="#81F8A9" transform="matrix(1.00, 0.00, -0.00, -1.00, 657.0, 46.0)">r</text><text xml:space="preserve" font-family="ProximaNova-Regular" font-size="36.0" fill="#81F8A9" transform="matrix(1.00, 0.00, -0.00, -1.00, 668.9, 46.0)">o</text><text xml:space="preserve" font-family="ProximaNova-Regular" font-size="36.0" fill="#81F8A9" transform="matrix(1.00, 0.00, -0.00, -1.00, 689.5, 46.0)">ﬁ</text><text xml:space="preserve" font-family="ProximaNova-Regular" font-size="36.0" fill="#81F8A9" transform="matrix(1.00, 0.00, -0.00, -1.00, 707.8, 46.0)">l</text><text xml:space="preserve" font-family="ProximaNova-Regular" font-size="36.0" fill="#81F8A9" transform="matrix(1.00, 0.00, -0.00, -1.00, 715.9, 46.0)">e</text><text xml:space="preserve" font-family="ProximaNova-Regular" font-size="36.0" fill="#81F8A9" transform="matrix(1.00, 0.00, -0.00, -1.00, 736.2, 46.0)"> </text><text xml:space="preserve" font-family="ProximaNova-Regular" font-size="36.0" fill="#81F8A9" transform="matrix(1.00, 0.00, -0.00, -1.00, 745.5, 46.0)">o</text><text xml:space="preserve" font-family="ProximaNova-Regular" font-size="36.0" fill="#81F8A9" transform="matrix(1.00, 0.00, -0.00, -1.00, 766.1, 46.0)">r</text><text xml:space="preserve" font-family="ProximaNova-Regular" font-size="36.0" fill="#81F8A9" transform="matrix(1.00, 0.00, -0.00, -1.00, 778.0, 46.0)"> </text><text xml:space="preserve" font-family="ProximaNova-Regular" font-size="36.0" fill="#81F8A9" transform="matrix(1.00, 0.00, -0.00, -1.00, 35.0, 2.0)">r</text><text xml:space="preserve" font-family="ProximaNova-Regular" font-size="36.0" fill="#81F8A9" transform="matrix(1.00, 0.00, -0.00, -1.00, 46.9, 2.0)">e</text><text xml:space="preserve" font-family="ProximaNova-Regular" font-size="36.0" fill="#81F8A9" transform="matrix(1.00, 0.00, -0.00, -1.00, 67.1, 2.0)">s</text><text xml:space="preserve" font-family="ProximaNova-Regular" font-size="36.0" fill="#81F8A9" transform="matrix(1.00, 0.00, -0.00, -1.00, 83.9, 2.0)">u</text><text xml:space="preserve" font-family="ProximaNova-Regular" font-size="36.0" fill="#81F8A9" transform="matrix(1.00, 0.00, -0.00, -1.00, 103.7, 2.0)">m</text><text xml:space="preserve" font-family="ProximaNova-Regular" font-size="36.0" fill="#81F8A9" transform="matrix(1.00, 0.00, -0.00, -1.00, 132.8, 2.0)">é</text><text xml:space="preserve" font-family="ProximaNova-Regular" font-size="36.0" fill="#81F8A9" transform="matrix(1.00, 0.00, -0.00, -1.00, 152.8, 2.0)">.</text></g></svg>