<?xml version="1.0" encoding="UTF-8" standalone="no"?><svg xmlns="http://www.w3.org/2000/svg" xmlns:xlink="http://www.w3.org/1999/xlink" clip-rule="evenodd" stroke-miterlimit="4.00" viewBox="0 0 29 34"><desc>SVG generated by Keynote</desc><defs></defs><g transform="matrix(1.00, 0.00, -0.00, -1.00, 0.0, 34.0)"><g><clipPath id="clip-5127"><path d="M -21.3 90.1 L 405.3 90.1 L 405.3 -1140.8 L -21.3 -1140.8 Z M -21.3 90.1 "></path></clipPath><g clip-path="url(#clip-5127)"><g><clipPath id="clip-5128"><path d="M 2.0 1.0 L 27.0 1.0 L 27.0 32.0 L 2.0 32.0 Z M 2.0 1.0 "></path></clipPath><g clip-path="url(#clip-5128)"><text xml:space="preserve" font-family="ProximaNova-Regular" font-size="20.0" fill="#5C5C5C" transform="matrix(0.42, 0.00, -0.00, -0.44, 2.0, 1.9)">S</text><text xml:space="preserve" font-family="ProximaNova-Regular" font-size="20.0" fill="#5C5C5C" transform="matrix(0.42, 0.00, -0.00, -0.44, 6.9, 1.9)">e</text><text xml:space="preserve" font-family="ProximaNova-Regular" font-size="20.0" fill="#5C5C5C" transform="matrix(0.42, 0.00, -0.00, -0.44, 11.6, 1.9)">a</text><text xml:space="preserve" font-family="ProximaNova-Regular" font-size="20.0" fill="#5C5C5C" transform="matrix(0.42, 0.00, -0.00, -0.44, 16.0, 1.9)">r</text><text xml:space="preserve" font-family="ProximaNova-Regular" font-size="20.0" fill="#5C5C5C" transform="matrix(0.42, 0.00, -0.00, -0.44, 18.7, 1.9)">c</text><text xml:space="preserve" font-family="ProximaNova-Regular" font-size="20.0" fill="#5C5C5C" transform="matrix(0.42, 0.00, -0.00, -0.44, 22.8, 1.9)">h</text></g></g></g></g><g><clipPath id="clip-5129"><path d="M -21.3 90.1 L 405.3 90.1 L 405.3 -1140.8 L -21.3 -1140.8 Z M -21.3 90.1 "></path></clipPath><g clip-path="url(#clip-5129)"><g><clipPath id="clip-5130"><path d="M 19.6 20.7 C 19.3 21.0 19.0 21.0 18.7 20.7 L 18.3 20.3 L 17.1 21.4 C 18.0 22.5 18.6 24.0 18.6 25.5 C 18.6 29.1 15.8 32.0 12.4 32.0 C 8.9 32.0 6.2 29.1 6.2 25.5 C 6.2 22.0 8.9 19.1 12.4 19.1 C 13.9 19.1 15.2 19.6 16.3 20.6 L 17.4 19.4 L 17.0 18.9 C 16.7 18.7 16.7 18.3 17.0 18.0 L 22.3 12.5 C 22.4 12.4 22.5 12.3 22.7 12.3 C 22.8 12.3 23.0 12.4 23.1 12.5 L 24.9 14.4 C 25.1 14.6 25.1 15.0 24.9 15.2 L 19.6 20.7 L 19.6 20.7 Z M 7.3 25.5 C 7.3 28.4 9.6 30.8 12.4 30.8 C 15.1 30.8 17.4 28.4 17.4 25.5 C 17.4 22.7 15.1 20.3 12.4 20.3 C 9.6 20.3 7.3 22.7 7.3 25.5 L 7.3 25.5 Z M 22.7 13.8 L 18.2 18.5 L 19.1 19.4 L 23.6 14.8 L 22.7 13.8 L 22.7 13.8 Z M 22.7 13.8 "></path></clipPath><g clip-path="url(#clip-5130)"><g><clipPath id="clip-5131"><path d="M 2.0 1.0 L 27.0 1.0 L 27.0 32.0 L 2.0 32.0 Z M 2.0 1.0 "></path></clipPath><g clip-path="url(#clip-5131)"><path d="M 4.1 34.2 L 27.1 34.2 L 27.1 10.1 L 4.1 10.1 Z M 4.1 34.2 " fill="#000000"></path></g></g></g></g></g></g></g></svg>