<?xml version="1.0" encoding="UTF-8" standalone="no"?><svg xmlns="http://www.w3.org/2000/svg" xmlns:xlink="http://www.w3.org/1999/xlink" clip-rule="evenodd" stroke-miterlimit="4.00" viewBox="0 0 329 79"><desc>SVG generated by Keynote</desc><defs></defs><g transform="matrix(1.00, 0.00, -0.00, -1.00, 0.0, 79.0)"><text xml:space="preserve" font-family="LeagueGothic-Regular" font-size="80.0" fill="#FEFFFE" transform="matrix(1.00, 0.00, -0.00, -1.00, 1.0, 17.0)">T</text><text xml:space="preserve" font-family="LeagueGothic-Regular" font-size="80.0" fill="#FEFFFE" transform="matrix(1.00, 0.00, -0.00, -1.00, 26.3, 17.0)">h</text><text xml:space="preserve" font-family="LeagueGothic-Regular" font-size="80.0" fill="#FEFFFE" transform="matrix(1.00, 0.00, -0.00, -1.00, 53.2, 17.0)">e</text><text xml:space="preserve" font-family="LeagueGothic-Regular" font-size="80.0" fill="#FEFFFE" transform="matrix(1.00, 0.00, -0.00, -1.00, 79.0, 17.0)"> </text><text xml:space="preserve" font-family="LeagueGothic-Regular" font-size="80.0" fill="#FEFFFE" transform="matrix(1.00, 0.00, -0.00, -1.00, 91.3, 17.0)">W</text><text xml:space="preserve" font-family="LeagueGothic-Regular" font-size="80.0" fill="#FEFFFE" transform="matrix(1.00, 0.00, -0.00, -1.00, 131.8, 17.0)">a</text><text xml:space="preserve" font-family="LeagueGothic-Regular" font-size="80.0" fill="#FEFFFE" transform="matrix(1.00, 0.00, -0.00, -1.00, 157.3, 17.0)">y</text><text xml:space="preserve" font-family="LeagueGothic-Regular" font-size="80.0" fill="#FEFFFE" transform="matrix(1.00, 0.00, -0.00, -1.00, 182.1, 17.0)"> </text><text xml:space="preserve" font-family="LeagueGothic-Regular" font-size="80.0" fill="#FEFFFE" transform="matrix(1.00, 0.00, -0.00, -1.00, 194.4, 17.0)">A</text><text xml:space="preserve" font-family="LeagueGothic-Regular" font-size="80.0" fill="#FEFFFE" transform="matrix(1.00, 0.00, -0.00, -1.00, 224.4, 17.0)">h</text><text xml:space="preserve" font-family="LeagueGothic-Regular" font-size="80.0" fill="#FEFFFE" transform="matrix(1.00, 0.00, -0.00, -1.00, 251.3, 17.0)">e</text><text xml:space="preserve" font-family="LeagueGothic-Regular" font-size="80.0" fill="#FEFFFE" transform="matrix(1.00, 0.00, -0.00, -1.00, 276.7, 17.0)">a</text><text xml:space="preserve" font-family="LeagueGothic-Regular" font-size="80.0" fill="#FEFFFE" transform="matrix(1.00, 0.00, -0.00, -1.00, 302.5, 17.0)">d</text></g></svg>