<?xml version="1.0" encoding="UTF-8" standalone="no"?><svg xmlns="http://www.w3.org/2000/svg" xmlns:xlink="http://www.w3.org/1999/xlink" clip-rule="evenodd" stroke-miterlimit="4.00" viewBox="0 0 626 125"><desc>SVG generated by Keynote</desc><defs></defs><g transform="matrix(1.00, 0.00, -0.00, -1.00, 0.0, 125.0)"><text xml:space="preserve" font-family="ProximaNova-Light" font-size="27.0" fill="#FEFFFE" transform="matrix(1.00, 0.00, -0.00, -1.00, 0.1, 100.0)">•</text><text xml:space="preserve" font-family="ProximaNova-Light" font-size="36.0" fill="#FEFFFE" transform="matrix(1.00, 0.00, -0.00, -1.00, 35.0, 97.0)">M</text><text xml:space="preserve" font-family="ProximaNova-Light" font-size="36.0" fill="#FEFFFE" transform="matrix(1.00, 0.00, -0.00, -1.00, 63.4, 97.0)">e</text><text xml:space="preserve" font-family="ProximaNova-Light" font-size="36.0" fill="#FEFFFE" transform="matrix(1.00, 0.00, -0.00, -1.00, 83.9, 97.0)">s</text><text xml:space="preserve" font-family="ProximaNova-Light" font-size="36.0" fill="#FEFFFE" transform="matrix(1.00, 0.00, -0.00, -1.00, 100.4, 97.0)">s</text><text xml:space="preserve" font-family="ProximaNova-Light" font-size="36.0" fill="#FEFFFE" transform="matrix(1.00, 0.00, -0.00, -1.00, 116.9, 97.0)">a</text><text xml:space="preserve" font-family="ProximaNova-Light" font-size="36.0" fill="#FEFFFE" transform="matrix(1.00, 0.00, -0.00, -1.00, 135.7, 97.0)">g</text><text xml:space="preserve" font-family="ProximaNova-Light" font-size="36.0" fill="#FEFFFE" transform="matrix(1.00, 0.00, -0.00, -1.00, 156.2, 97.0)">e</text><text xml:space="preserve" font-family="ProximaNova-Light" font-size="36.0" fill="#FEFFFE" transform="matrix(1.00, 0.00, -0.00, -1.00, 176.6, 97.0)">s</text><text xml:space="preserve" font-family="ProximaNova-Light" font-size="36.0" fill="#FEFFFE" transform="matrix(1.00, 0.00, -0.00, -1.00, 193.1, 97.0)"> </text><text xml:space="preserve" font-family="ProximaNova-Light" font-size="36.0" fill="#FEFFFE" transform="matrix(1.00, 0.00, -0.00, -1.00, 202.4, 97.0)">a</text><text xml:space="preserve" font-family="ProximaNova-Light" font-size="36.0" fill="#FEFFFE" transform="matrix(1.00, 0.00, -0.00, -1.00, 221.2, 97.0)">r</text><text xml:space="preserve" font-family="ProximaNova-Light" font-size="36.0" fill="#FEFFFE" transform="matrix(1.00, 0.00, -0.00, -1.00, 232.6, 97.0)">e</text><text xml:space="preserve" font-family="ProximaNova-Light" font-size="36.0" fill="#FEFFFE" transform="matrix(1.00, 0.00, -0.00, -1.00, 253.0, 97.0)"> </text><text xml:space="preserve" font-family="ProximaNova-Light" font-size="36.0" fill="#FEFFFE" transform="matrix(1.00, 0.00, -0.00, -1.00, 262.3, 97.0)">a</text><text xml:space="preserve" font-family="ProximaNova-Light" font-size="36.0" fill="#FEFFFE" transform="matrix(1.00, 0.00, -0.00, -1.00, 281.1, 97.0)">l</text><text xml:space="preserve" font-family="ProximaNova-Light" font-size="36.0" fill="#FEFFFE" transform="matrix(1.00, 0.00, -0.00, -1.00, 288.8, 97.0)">w</text><text xml:space="preserve" font-family="ProximaNova-Light" font-size="36.0" fill="#FEFFFE" transform="matrix(1.00, 0.00, -0.00, -1.00, 314.7, 97.0)">a</text><text xml:space="preserve" font-family="ProximaNova-Light" font-size="36.0" fill="#FEFFFE" transform="matrix(1.00, 0.00, -0.00, -1.00, 333.4, 97.0)">y</text><text xml:space="preserve" font-family="ProximaNova-Light" font-size="36.0" fill="#FEFFFE" transform="matrix(1.00, 0.00, -0.00, -1.00, 350.8, 97.0)">s</text><text xml:space="preserve" font-family="ProximaNova-Light" font-size="36.0" fill="#FEFFFE" transform="matrix(1.00, 0.00, -0.00, -1.00, 367.3, 97.0)"> </text><text xml:space="preserve" font-family="ProximaNova-Light" font-size="36.0" fill="#FEFFFE" transform="matrix(1.00, 0.00, -0.00, -1.00, 376.6, 97.0)">e</text><text xml:space="preserve" font-family="ProximaNova-Light" font-size="36.0" fill="#FEFFFE" transform="matrix(1.00, 0.00, -0.00, -1.00, 397.0, 97.0)">a</text><text xml:space="preserve" font-family="ProximaNova-Light" font-size="36.0" fill="#FEFFFE" transform="matrix(1.00, 0.00, -0.00, -1.00, 415.8, 97.0)">s</text><text xml:space="preserve" font-family="ProximaNova-Light" font-size="36.0" fill="#FEFFFE" transform="matrix(1.00, 0.00, -0.00, -1.00, 432.3, 97.0)">y</text><text xml:space="preserve" font-family="ProximaNova-Light" font-size="36.0" fill="#FEFFFE" transform="matrix(1.00, 0.00, -0.00, -1.00, 449.6, 97.0)"> </text><text xml:space="preserve" font-family="ProximaNova-Light" font-size="36.0" fill="#FEFFFE" transform="matrix(1.00, 0.00, -0.00, -1.00, 458.9, 97.0)">t</text><text xml:space="preserve" font-family="ProximaNova-Light" font-size="36.0" fill="#FEFFFE" transform="matrix(1.00, 0.00, -0.00, -1.00, 468.8, 97.0)">o</text><text xml:space="preserve" font-family="ProximaNova-Light" font-size="36.0" fill="#FEFFFE" transform="matrix(1.00, 0.00, -0.00, -1.00, 489.4, 97.0)"> </text><text xml:space="preserve" font-family="ProximaNova-Light" font-size="36.0" fill="#FEFFFE" transform="matrix(1.00, 0.00, -0.00, -1.00, 498.7, 97.0)">ﬁ</text><text xml:space="preserve" font-family="ProximaNova-Light" font-size="36.0" fill="#FEFFFE" transform="matrix(1.00, 0.00, -0.00, -1.00, 515.9, 97.0)">n</text><text xml:space="preserve" font-family="ProximaNova-Light" font-size="36.0" fill="#FEFFFE" transform="matrix(1.00, 0.00, -0.00, -1.00, 535.4, 97.0)">d</text><text xml:space="preserve" font-family="ProximaNova-Light" font-size="36.0" fill="#FEFFFE" transform="matrix(1.00, 0.00, -0.00, -1.00, 555.9, 97.0)"> </text><text xml:space="preserve" font-family="ProximaNova-Light" font-size="36.0" fill="#FEFFFE" transform="matrix(1.00, 0.00, -0.00, -1.00, 565.2, 97.0)">a</text><text xml:space="preserve" font-family="ProximaNova-Light" font-size="36.0" fill="#FEFFFE" transform="matrix(1.00, 0.00, -0.00, -1.00, 584.0, 97.0)">n</text><text xml:space="preserve" font-family="ProximaNova-Light" font-size="36.0" fill="#FEFFFE" transform="matrix(1.00, 0.00, -0.00, -1.00, 603.4, 97.0)">d</text><text xml:space="preserve" font-family="ProximaNova-Light" font-size="36.0" fill="#FEFFFE" transform="matrix(1.00, 0.00, -0.00, -1.00, 624.0, 97.0)"> </text><text xml:space="preserve" font-family="ProximaNova-Light" font-size="36.0" fill="#FEFFFE" transform="matrix(1.00, 0.00, -0.00, -1.00, 35.0, 53.0)">c</text><text xml:space="preserve" font-family="ProximaNova-Light" font-size="36.0" fill="#FEFFFE" transform="matrix(1.00, 0.00, -0.00, -1.00, 52.8, 53.0)">o</text><text xml:space="preserve" font-family="ProximaNova-Light" font-size="36.0" fill="#FEFFFE" transform="matrix(1.00, 0.00, -0.00, -1.00, 73.3, 53.0)">n</text><text xml:space="preserve" font-family="ProximaNova-Light" font-size="36.0" fill="#FEFFFE" transform="matrix(1.00, 0.00, -0.00, -1.00, 92.8, 53.0)">v</text><text xml:space="preserve" font-family="ProximaNova-Light" font-size="36.0" fill="#FEFFFE" transform="matrix(1.00, 0.00, -0.00, -1.00, 110.1, 53.0)">e</text><text xml:space="preserve" font-family="ProximaNova-Light" font-size="36.0" fill="#FEFFFE" transform="matrix(1.00, 0.00, -0.00, -1.00, 130.5, 53.0)">r</text><text xml:space="preserve" font-family="ProximaNova-Light" font-size="36.0" fill="#FEFFFE" transform="matrix(1.00, 0.00, -0.00, -1.00, 141.9, 53.0)">s</text><text xml:space="preserve" font-family="ProximaNova-Light" font-size="36.0" fill="#FEFFFE" transform="matrix(1.00, 0.00, -0.00, -1.00, 158.4, 53.0)">a</text><text xml:space="preserve" font-family="ProximaNova-Light" font-size="36.0" fill="#FEFFFE" transform="matrix(1.00, 0.00, -0.00, -1.00, 177.2, 53.0)">t</text><text xml:space="preserve" font-family="ProximaNova-Light" font-size="36.0" fill="#FEFFFE" transform="matrix(1.00, 0.00, -0.00, -1.00, 187.1, 53.0)">i</text><text xml:space="preserve" font-family="ProximaNova-Light" font-size="36.0" fill="#FEFFFE" transform="matrix(1.00, 0.00, -0.00, -1.00, 194.8, 53.0)">o</text><text xml:space="preserve" font-family="ProximaNova-Light" font-size="36.0" fill="#FEFFFE" transform="matrix(1.00, 0.00, -0.00, -1.00, 215.4, 53.0)">n</text><text xml:space="preserve" font-family="ProximaNova-Light" font-size="36.0" fill="#FEFFFE" transform="matrix(1.00, 0.00, -0.00, -1.00, 234.8, 53.0)">s</text><text xml:space="preserve" font-family="ProximaNova-Light" font-size="36.0" fill="#FEFFFE" transform="matrix(1.00, 0.00, -0.00, -1.00, 251.3, 53.0)"> </text><text xml:space="preserve" font-family="ProximaNova-Light" font-size="36.0" fill="#FEFFFE" transform="matrix(1.00, 0.00, -0.00, -1.00, 260.6, 53.0)">c</text><text xml:space="preserve" font-family="ProximaNova-Light" font-size="36.0" fill="#FEFFFE" transform="matrix(1.00, 0.00, -0.00, -1.00, 278.4, 53.0)">a</text><text xml:space="preserve" font-family="ProximaNova-Light" font-size="36.0" fill="#FEFFFE" transform="matrix(1.00, 0.00, -0.00, -1.00, 297.2, 53.0)">n</text><text xml:space="preserve" font-family="ProximaNova-Light" font-size="36.0" fill="#FEFFFE" transform="matrix(1.00, 0.00, -0.00, -1.00, 316.6, 53.0)"> </text><text xml:space="preserve" font-family="ProximaNova-Light" font-size="36.0" fill="#FEFFFE" transform="matrix(1.00, 0.00, -0.00, -1.00, 326.0, 53.0)">b</text><text xml:space="preserve" font-family="ProximaNova-Light" font-size="36.0" fill="#FEFFFE" transform="matrix(1.00, 0.00, -0.00, -1.00, 346.5, 53.0)">e</text><text xml:space="preserve" font-family="ProximaNova-Light" font-size="36.0" fill="#FEFFFE" transform="matrix(1.00, 0.00, -0.00, -1.00, 366.9, 53.0)"> </text><text xml:space="preserve" font-family="ProximaNova-Light" font-size="36.0" fill="#FEFFFE" transform="matrix(1.00, 0.00, -0.00, -1.00, 376.2, 53.0)">s</text><text xml:space="preserve" font-family="ProximaNova-Light" font-size="36.0" fill="#FEFFFE" transform="matrix(1.00, 0.00, -0.00, -1.00, 392.8, 53.0)">t</text><text xml:space="preserve" font-family="ProximaNova-Light" font-size="36.0" fill="#FEFFFE" transform="matrix(1.00, 0.00, -0.00, -1.00, 402.7, 53.0)">a</text><text xml:space="preserve" font-family="ProximaNova-Light" font-size="36.0" fill="#FEFFFE" transform="matrix(1.00, 0.00, -0.00, -1.00, 421.4, 53.0)">r</text><text xml:space="preserve" font-family="ProximaNova-Light" font-size="36.0" fill="#FEFFFE" transform="matrix(1.00, 0.00, -0.00, -1.00, 432.8, 53.0)">t</text><text xml:space="preserve" font-family="ProximaNova-Light" font-size="36.0" fill="#FEFFFE" transform="matrix(1.00, 0.00, -0.00, -1.00, 442.7, 53.0)">e</text><text xml:space="preserve" font-family="ProximaNova-Light" font-size="36.0" fill="#FEFFFE" transform="matrix(1.00, 0.00, -0.00, -1.00, 463.1, 53.0)">d</text><text xml:space="preserve" font-family="ProximaNova-Light" font-size="36.0" fill="#FEFFFE" transform="matrix(1.00, 0.00, -0.00, -1.00, 483.7, 53.0)"> </text><text xml:space="preserve" font-family="ProximaNova-Light" font-size="36.0" fill="#FEFFFE" transform="matrix(1.00, 0.00, -0.00, -1.00, 493.0, 53.0)">f</text><text xml:space="preserve" font-family="ProximaNova-Light" font-size="36.0" fill="#FEFFFE" transform="matrix(1.00, 0.00, -0.00, -1.00, 502.6, 53.0)">r</text><text xml:space="preserve" font-family="ProximaNova-Light" font-size="36.0" fill="#FEFFFE" transform="matrix(1.00, 0.00, -0.00, -1.00, 514.0, 53.0)">o</text><text xml:space="preserve" font-family="ProximaNova-Light" font-size="36.0" fill="#FEFFFE" transform="matrix(1.00, 0.00, -0.00, -1.00, 534.5, 53.0)">m</text><text xml:space="preserve" font-family="ProximaNova-Light" font-size="36.0" fill="#FEFFFE" transform="matrix(1.00, 0.00, -0.00, -1.00, 562.9, 53.0)"> </text><text xml:space="preserve" font-family="ProximaNova-Light" font-size="36.0" fill="#FEFFFE" transform="matrix(1.00, 0.00, -0.00, -1.00, 35.0, 9.0)">a</text><text xml:space="preserve" font-family="ProximaNova-Light" font-size="36.0" fill="#FEFFFE" transform="matrix(1.00, 0.00, -0.00, -1.00, 53.8, 9.0)">n</text><text xml:space="preserve" font-family="ProximaNova-Light" font-size="36.0" fill="#FEFFFE" transform="matrix(1.00, 0.00, -0.00, -1.00, 73.2, 9.0)">y</text><text xml:space="preserve" font-family="ProximaNova-Light" font-size="36.0" fill="#FEFFFE" transform="matrix(1.00, 0.00, -0.00, -1.00, 90.5, 9.0)">w</text><text xml:space="preserve" font-family="ProximaNova-Light" font-size="36.0" fill="#FEFFFE" transform="matrix(1.00, 0.00, -0.00, -1.00, 116.4, 9.0)">h</text><text xml:space="preserve" font-family="ProximaNova-Light" font-size="36.0" fill="#FEFFFE" transform="matrix(1.00, 0.00, -0.00, -1.00, 135.8, 9.0)">e</text><text xml:space="preserve" font-family="ProximaNova-Light" font-size="36.0" fill="#FEFFFE" transform="matrix(1.00, 0.00, -0.00, -1.00, 156.2, 9.0)">r</text><text xml:space="preserve" font-family="ProximaNova-Light" font-size="36.0" fill="#FEFFFE" transform="matrix(1.00, 0.00, -0.00, -1.00, 167.7, 9.0)">e</text><text xml:space="preserve" font-family="ProximaNova-Light" font-size="36.0" fill="#FEFFFE" transform="matrix(1.00, 0.00, -0.00, -1.00, 188.1, 9.0)"> </text><text xml:space="preserve" font-family="ProximaNova-Light" font-size="36.0" fill="#FEFFFE" transform="matrix(1.00, 0.00, -0.00, -1.00, 197.4, 9.0)">o</text><text xml:space="preserve" font-family="ProximaNova-Light" font-size="36.0" fill="#FEFFFE" transform="matrix(1.00, 0.00, -0.00, -1.00, 218.0, 9.0)">n</text><text xml:space="preserve" font-family="ProximaNova-Light" font-size="36.0" fill="#FEFFFE" transform="matrix(1.00, 0.00, -0.00, -1.00, 237.4, 9.0)"> </text><text xml:space="preserve" font-family="ProximaNova-Light" font-size="36.0" fill="#FEFFFE" transform="matrix(1.00, 0.00, -0.00, -1.00, 246.7, 9.0)">t</text><text xml:space="preserve" font-family="ProximaNova-Light" font-size="36.0" fill="#FEFFFE" transform="matrix(1.00, 0.00, -0.00, -1.00, 256.6, 9.0)">h</text><text xml:space="preserve" font-family="ProximaNova-Light" font-size="36.0" fill="#FEFFFE" transform="matrix(1.00, 0.00, -0.00, -1.00, 276.1, 9.0)">e</text><text xml:space="preserve" font-family="ProximaNova-Light" font-size="36.0" fill="#FEFFFE" transform="matrix(1.00, 0.00, -0.00, -1.00, 296.5, 9.0)"> </text><text xml:space="preserve" font-family="ProximaNova-Light" font-size="36.0" fill="#FEFFFE" transform="matrix(1.00, 0.00, -0.00, -1.00, 305.8, 9.0)">w</text><text xml:space="preserve" font-family="ProximaNova-Light" font-size="36.0" fill="#FEFFFE" transform="matrix(1.00, 0.00, -0.00, -1.00, 331.7, 9.0)">e</text><text xml:space="preserve" font-family="ProximaNova-Light" font-size="36.0" fill="#FEFFFE" transform="matrix(1.00, 0.00, -0.00, -1.00, 352.1, 9.0)">b</text><text xml:space="preserve" font-family="ProximaNova-Light" font-size="36.0" fill="#FEFFFE" transform="matrix(1.00, 0.00, -0.00, -1.00, 372.6, 9.0)"> </text><text xml:space="preserve" font-family="ProximaNova-Light" font-size="36.0" fill="#FEFFFE" transform="matrix(1.00, 0.00, -0.00, -1.00, 382.0, 9.0)">a</text><text xml:space="preserve" font-family="ProximaNova-Light" font-size="36.0" fill="#FEFFFE" transform="matrix(1.00, 0.00, -0.00, -1.00, 400.7, 9.0)">p</text><text xml:space="preserve" font-family="ProximaNova-Light" font-size="36.0" fill="#FEFFFE" transform="matrix(1.00, 0.00, -0.00, -1.00, 421.1, 9.0)">p</text><text xml:space="preserve" font-family="ProximaNova-Light" font-size="36.0" fill="#FEFFFE" transform="matrix(1.00, 0.00, -0.00, -1.00, 441.2, 9.0)">.</text></g></svg>