<?xml version="1.0" encoding="UTF-8" standalone="no"?><svg xmlns="http://www.w3.org/2000/svg" xmlns:xlink="http://www.w3.org/1999/xlink" clip-rule="evenodd" stroke-miterlimit="4.00" viewBox="0 0 324 244"><desc>SVG generated by Keynote</desc><defs></defs><g transform="matrix(1.00, 0.00, -0.00, -1.00, 0.0, 244.0)"><g><clipPath id="clip-2729"><path d="M 0.9 0.7 L 323.2 0.7 L 323.2 243.6 L 0.9 243.6 Z M 0.9 0.7 "></path></clipPath><g clip-path="url(#clip-2729)"><path d="M 1.9 242.6 L 322.2 242.6 L 322.2 1.7 L 1.9 1.7 Z M 1.9 242.6 " fill="#FEFFFE" fill-opacity="1.00"></path></g></g><g><clipPath id="clip-2730"><path d="M -187.1 393.3 L 479.0 393.3 L 479.0 -488.5 L -187.1 -488.5 Z M -187.1 393.3 "></path></clipPath><g clip-path="url(#clip-2730)"><g><clipPath id="clip-2731"><path d="M 10.2 32.0 L 305.8 32.0 L 305.8 234.0 L 10.2 234.0 Z M 10.2 32.0 "></path></clipPath><g clip-path="url(#clip-2731)"><text xml:space="preserve" font-family="ProximaNova-Light" font-size="18.0" fill="#ABABAB" transform="matrix(0.65, 0.00, -0.00, -0.65, 10.3, 136.2)">W</text><text xml:space="preserve" font-family="ProximaNova-Light" font-size="18.0" fill="#ABABAB" transform="matrix(0.65, 0.00, -0.00, -0.65, 20.0, 136.2)">e</text><text xml:space="preserve" font-family="ProximaNova-Light" font-size="18.0" fill="#ABABAB" transform="matrix(0.65, 0.00, -0.00, -0.65, 26.6, 136.2)">’</text><text xml:space="preserve" font-family="ProximaNova-Light" font-size="18.0" fill="#ABABAB" transform="matrix(0.65, 0.00, -0.00, -0.65, 29.2, 136.2)">r</text><text xml:space="preserve" font-family="ProximaNova-Light" font-size="18.0" fill="#ABABAB" transform="matrix(0.65, 0.00, -0.00, -0.65, 32.9, 136.2)">e</text><text xml:space="preserve" font-family="ProximaNova-Light" font-size="18.0" fill="#ABABAB" transform="matrix(0.65, 0.00, -0.00, -0.65, 39.6, 136.2)"> </text><text xml:space="preserve" font-family="ProximaNova-Light" font-size="18.0" fill="#ABABAB" transform="matrix(0.65, 0.00, -0.00, -0.65, 42.6, 136.2)">h</text><text xml:space="preserve" font-family="ProximaNova-Light" font-size="18.0" fill="#ABABAB" transform="matrix(0.65, 0.00, -0.00, -0.65, 48.9, 136.2)">e</text><text xml:space="preserve" font-family="ProximaNova-Light" font-size="18.0" fill="#ABABAB" transform="matrix(0.65, 0.00, -0.00, -0.65, 55.5, 136.2)">r</text><text xml:space="preserve" font-family="ProximaNova-Light" font-size="18.0" fill="#ABABAB" transform="matrix(0.65, 0.00, -0.00, -0.65, 59.3, 136.2)">e</text><text xml:space="preserve" font-family="ProximaNova-Light" font-size="18.0" fill="#ABABAB" transform="matrix(0.65, 0.00, -0.00, -0.65, 65.9, 136.2)"> </text><text xml:space="preserve" font-family="ProximaNova-Light" font-size="18.0" fill="#ABABAB" transform="matrix(0.65, 0.00, -0.00, -0.65, 68.9, 136.2)">t</text><text xml:space="preserve" font-family="ProximaNova-Light" font-size="18.0" fill="#ABABAB" transform="matrix(0.65, 0.00, -0.00, -0.65, 72.2, 136.2)">o</text><text xml:space="preserve" font-family="ProximaNova-Light" font-size="18.0" fill="#ABABAB" transform="matrix(0.65, 0.00, -0.00, -0.65, 78.8, 136.2)"> </text><text xml:space="preserve" font-family="ProximaNova-Light" font-size="18.0" fill="#ABABAB" transform="matrix(0.65, 0.00, -0.00, -0.65, 81.9, 136.2)">g</text><text xml:space="preserve" font-family="ProximaNova-Light" font-size="18.0" fill="#ABABAB" transform="matrix(0.65, 0.00, -0.00, -0.65, 88.5, 136.2)">u</text><text xml:space="preserve" font-family="ProximaNova-Light" font-size="18.0" fill="#ABABAB" transform="matrix(0.65, 0.00, -0.00, -0.65, 94.9, 136.2)">i</text><text xml:space="preserve" font-family="ProximaNova-Light" font-size="18.0" fill="#ABABAB" transform="matrix(0.65, 0.00, -0.00, -0.65, 97.4, 136.2)">d</text><text xml:space="preserve" font-family="ProximaNova-Light" font-size="18.0" fill="#ABABAB" transform="matrix(0.65, 0.00, -0.00, -0.65, 104.1, 136.2)">e</text><text xml:space="preserve" font-family="ProximaNova-Light" font-size="18.0" fill="#ABABAB" transform="matrix(0.65, 0.00, -0.00, -0.65, 110.7, 136.2)"> </text><text xml:space="preserve" font-family="ProximaNova-Light" font-size="18.0" fill="#ABABAB" transform="matrix(0.65, 0.00, -0.00, -0.65, 113.7, 136.2)">y</text><text xml:space="preserve" font-family="ProximaNova-Light" font-size="18.0" fill="#ABABAB" transform="matrix(0.65, 0.00, -0.00, -0.65, 119.4, 136.2)">o</text><text xml:space="preserve" font-family="ProximaNova-Light" font-size="18.0" fill="#ABABAB" transform="matrix(0.65, 0.00, -0.00, -0.65, 126.1, 136.2)">u</text><text xml:space="preserve" font-family="ProximaNova-Light" font-size="18.0" fill="#ABABAB" transform="matrix(0.65, 0.00, -0.00, -0.65, 132.4, 136.2)"> </text><text xml:space="preserve" font-family="ProximaNova-Light" font-size="18.0" fill="#ABABAB" transform="matrix(0.65, 0.00, -0.00, -0.65, 135.4, 136.2)">t</text><text xml:space="preserve" font-family="ProximaNova-Light" font-size="18.0" fill="#ABABAB" transform="matrix(0.65, 0.00, -0.00, -0.65, 138.6, 136.2)">h</text><text xml:space="preserve" font-family="ProximaNova-Light" font-size="18.0" fill="#ABABAB" transform="matrix(0.65, 0.00, -0.00, -0.65, 145.0, 136.2)">r</text><text xml:space="preserve" font-family="ProximaNova-Light" font-size="18.0" fill="#ABABAB" transform="matrix(0.65, 0.00, -0.00, -0.65, 148.7, 136.2)">o</text><text xml:space="preserve" font-family="ProximaNova-Light" font-size="18.0" fill="#ABABAB" transform="matrix(0.65, 0.00, -0.00, -0.65, 155.4, 136.2)">u</text><text xml:space="preserve" font-family="ProximaNova-Light" font-size="18.0" fill="#ABABAB" transform="matrix(0.65, 0.00, -0.00, -0.65, 161.7, 136.2)">g</text><text xml:space="preserve" font-family="ProximaNova-Light" font-size="18.0" fill="#ABABAB" transform="matrix(0.65, 0.00, -0.00, -0.65, 168.3, 136.2)">h</text><text xml:space="preserve" font-family="ProximaNova-Light" font-size="18.0" fill="#ABABAB" transform="matrix(0.65, 0.00, -0.00, -0.65, 174.7, 136.2)"> </text><text xml:space="preserve" font-family="ProximaNova-Light" font-size="18.0" fill="#ABABAB" transform="matrix(0.65, 0.00, -0.00, -0.65, 177.7, 136.2)">t</text><text xml:space="preserve" font-family="ProximaNova-Light" font-size="18.0" fill="#ABABAB" transform="matrix(0.65, 0.00, -0.00, -0.65, 180.9, 136.2)">h</text><text xml:space="preserve" font-family="ProximaNova-Light" font-size="18.0" fill="#ABABAB" transform="matrix(0.65, 0.00, -0.00, -0.65, 187.2, 136.2)">e</text><text xml:space="preserve" font-family="ProximaNova-Light" font-size="18.0" fill="#ABABAB" transform="matrix(0.65, 0.00, -0.00, -0.65, 193.9, 136.2)"> </text><text xml:space="preserve" font-family="ProximaNova-Light" font-size="18.0" fill="#ABABAB" transform="matrix(0.65, 0.00, -0.00, -0.65, 196.9, 136.2)">p</text><text xml:space="preserve" font-family="ProximaNova-Light" font-size="18.0" fill="#ABABAB" transform="matrix(0.65, 0.00, -0.00, -0.65, 203.6, 136.2)">r</text><text xml:space="preserve" font-family="ProximaNova-Light" font-size="18.0" fill="#ABABAB" transform="matrix(0.65, 0.00, -0.00, -0.65, 207.3, 136.2)">o</text><text xml:space="preserve" font-family="ProximaNova-Light" font-size="18.0" fill="#ABABAB" transform="matrix(0.65, 0.00, -0.00, -0.65, 214.0, 136.2)">c</text><text xml:space="preserve" font-family="ProximaNova-Light" font-size="18.0" fill="#ABABAB" transform="matrix(0.65, 0.00, -0.00, -0.65, 219.7, 136.2)">e</text><text xml:space="preserve" font-family="ProximaNova-Light" font-size="18.0" fill="#ABABAB" transform="matrix(0.65, 0.00, -0.00, -0.65, 226.4, 136.2)">s</text><text xml:space="preserve" font-family="ProximaNova-Light" font-size="18.0" fill="#ABABAB" transform="matrix(0.65, 0.00, -0.00, -0.65, 231.8, 136.2)">s</text><text xml:space="preserve" font-family="ProximaNova-Light" font-size="18.0" fill="#ABABAB" transform="matrix(0.65, 0.00, -0.00, -0.65, 237.1, 136.2)"> </text><text xml:space="preserve" font-family="ProximaNova-Light" font-size="18.0" fill="#ABABAB" transform="matrix(0.65, 0.00, -0.00, -0.65, 240.2, 136.2)">o</text><text xml:space="preserve" font-family="ProximaNova-Light" font-size="18.0" fill="#ABABAB" transform="matrix(0.65, 0.00, -0.00, -0.65, 246.9, 136.2)">f</text><text xml:space="preserve" font-family="ProximaNova-Light" font-size="18.0" fill="#ABABAB" transform="matrix(0.65, 0.00, -0.00, -0.65, 250.0, 136.2)"> </text><text xml:space="preserve" font-family="ProximaNova-Light" font-size="18.0" fill="#ABABAB" transform="matrix(0.65, 0.00, -0.00, -0.65, 253.0, 136.2)">ﬁ</text><text xml:space="preserve" font-family="ProximaNova-Light" font-size="18.0" fill="#ABABAB" transform="matrix(0.65, 0.00, -0.00, -0.65, 258.6, 136.2)">n</text><text xml:space="preserve" font-family="ProximaNova-Light" font-size="18.0" fill="#ABABAB" transform="matrix(0.65, 0.00, -0.00, -0.65, 264.9, 136.2)">d</text><text xml:space="preserve" font-family="ProximaNova-Light" font-size="18.0" fill="#ABABAB" transform="matrix(0.65, 0.00, -0.00, -0.65, 271.6, 136.2)">i</text><text xml:space="preserve" font-family="ProximaNova-Light" font-size="18.0" fill="#ABABAB" transform="matrix(0.65, 0.00, -0.00, -0.65, 274.1, 136.2)">n</text><text xml:space="preserve" font-family="ProximaNova-Light" font-size="18.0" fill="#ABABAB" transform="matrix(0.65, 0.00, -0.00, -0.65, 280.4, 136.2)">g</text><text xml:space="preserve" font-family="ProximaNova-Light" font-size="18.0" fill="#ABABAB" transform="matrix(0.65, 0.00, -0.00, -0.65, 287.1, 136.2)"> </text><text xml:space="preserve" font-family="ProximaNova-Light" font-size="18.0" fill="#ABABAB" transform="matrix(0.65, 0.00, -0.00, -0.65, 290.1, 136.2)">t</text><text xml:space="preserve" font-family="ProximaNova-Light" font-size="18.0" fill="#ABABAB" transform="matrix(0.65, 0.00, -0.00, -0.65, 293.4, 136.2)">h</text><text xml:space="preserve" font-family="ProximaNova-Light" font-size="18.0" fill="#ABABAB" transform="matrix(0.65, 0.00, -0.00, -0.65, 299.7, 136.2)">e</text><text xml:space="preserve" font-family="ProximaNova-Light" font-size="18.0" fill="#ABABAB" transform="matrix(0.65, 0.00, -0.00, -0.65, 306.3, 136.2)"> </text><text xml:space="preserve" font-family="ProximaNova-Light" font-size="18.0" fill="#ABABAB" transform="matrix(0.65, 0.00, -0.00, -0.65, 87.1, 118.1)">p</text><text xml:space="preserve" font-family="ProximaNova-Light" font-size="18.0" fill="#ABABAB" transform="matrix(0.65, 0.00, -0.00, -0.65, 93.7, 118.1)">e</text><text xml:space="preserve" font-family="ProximaNova-Light" font-size="18.0" fill="#ABABAB" transform="matrix(0.65, 0.00, -0.00, -0.65, 100.4, 118.1)">r</text><text xml:space="preserve" font-family="ProximaNova-Light" font-size="18.0" fill="#ABABAB" transform="matrix(0.65, 0.00, -0.00, -0.65, 104.1, 118.1)">f</text><text xml:space="preserve" font-family="ProximaNova-Light" font-size="18.0" fill="#ABABAB" transform="matrix(0.65, 0.00, -0.00, -0.65, 107.2, 118.1)">e</text><text xml:space="preserve" font-family="ProximaNova-Light" font-size="18.0" fill="#ABABAB" transform="matrix(0.65, 0.00, -0.00, -0.65, 113.8, 118.1)">c</text><text xml:space="preserve" font-family="ProximaNova-Light" font-size="18.0" fill="#ABABAB" transform="matrix(0.65, 0.00, -0.00, -0.65, 119.6, 118.1)">t</text><text xml:space="preserve" font-family="ProximaNova-Light" font-size="18.0" fill="#ABABAB" transform="matrix(0.65, 0.00, -0.00, -0.65, 122.8, 118.1)"> </text><text xml:space="preserve" font-family="ProximaNova-Light" font-size="18.0" fill="#ABABAB" transform="matrix(0.65, 0.00, -0.00, -0.65, 125.9, 118.1)">j</text><text xml:space="preserve" font-family="ProximaNova-Light" font-size="18.0" fill="#ABABAB" transform="matrix(0.65, 0.00, -0.00, -0.65, 128.4, 118.1)">o</text><text xml:space="preserve" font-family="ProximaNova-Light" font-size="18.0" fill="#ABABAB" transform="matrix(0.65, 0.00, -0.00, -0.65, 135.1, 118.1)">b</text><text xml:space="preserve" font-family="ProximaNova-Light" font-size="18.0" fill="#ABABAB" transform="matrix(0.65, 0.00, -0.00, -0.65, 141.7, 118.1)">.</text><text xml:space="preserve" font-family="ProximaNova-Light" font-size="18.0" fill="#ABABAB" transform="matrix(0.65, 0.00, -0.00, -0.65, 144.2, 118.1)"> </text><text xml:space="preserve" font-family="ProximaNova-Light" font-size="18.0" fill="#ABABAB" transform="matrix(0.65, 0.00, -0.00, -0.65, 147.2, 118.1)">A</text><text xml:space="preserve" font-family="ProximaNova-Light" font-size="18.0" fill="#ABABAB" transform="matrix(0.65, 0.00, -0.00, -0.65, 154.8, 118.1)">s</text><text xml:space="preserve" font-family="ProximaNova-Light" font-size="18.0" fill="#ABABAB" transform="matrix(0.65, 0.00, -0.00, -0.65, 160.2, 118.1)">k</text><text xml:space="preserve" font-family="ProximaNova-Light" font-size="18.0" fill="#ABABAB" transform="matrix(0.65, 0.00, -0.00, -0.65, 166.1, 118.1)"> </text><text xml:space="preserve" font-family="ProximaNova-Light" font-size="18.0" fill="#ABABAB" transform="matrix(0.65, 0.00, -0.00, -0.65, 169.1, 118.1)">u</text><text xml:space="preserve" font-family="ProximaNova-Light" font-size="18.0" fill="#ABABAB" transform="matrix(0.65, 0.00, -0.00, -0.65, 175.5, 118.1)">s</text><text xml:space="preserve" font-family="ProximaNova-Light" font-size="18.0" fill="#ABABAB" transform="matrix(0.65, 0.00, -0.00, -0.65, 180.8, 118.1)"> </text><text xml:space="preserve" font-family="ProximaNova-Light" font-size="18.0" fill="#ABABAB" transform="matrix(0.65, 0.00, -0.00, -0.65, 183.9, 118.1)">a</text><text xml:space="preserve" font-family="ProximaNova-Light" font-size="18.0" fill="#ABABAB" transform="matrix(0.65, 0.00, -0.00, -0.65, 190.0, 118.1)">n</text><text xml:space="preserve" font-family="ProximaNova-Light" font-size="18.0" fill="#ABABAB" transform="matrix(0.65, 0.00, -0.00, -0.65, 196.3, 118.1)">y</text><text xml:space="preserve" font-family="ProximaNova-Light" font-size="18.0" fill="#ABABAB" transform="matrix(0.65, 0.00, -0.00, -0.65, 201.9, 118.1)">t</text><text xml:space="preserve" font-family="ProximaNova-Light" font-size="18.0" fill="#ABABAB" transform="matrix(0.65, 0.00, -0.00, -0.65, 205.2, 118.1)">h</text><text xml:space="preserve" font-family="ProximaNova-Light" font-size="18.0" fill="#ABABAB" transform="matrix(0.65, 0.00, -0.00, -0.65, 211.5, 118.1)">i</text><text xml:space="preserve" font-family="ProximaNova-Light" font-size="18.0" fill="#ABABAB" transform="matrix(0.65, 0.00, -0.00, -0.65, 214.0, 118.1)">n</text><text xml:space="preserve" font-family="ProximaNova-Light" font-size="18.0" fill="#ABABAB" transform="matrix(0.65, 0.00, -0.00, -0.65, 220.3, 118.1)">g</text><text xml:space="preserve" font-family="ProximaNova-Light" font-size="18.0" fill="#ABABAB" transform="matrix(0.65, 0.00, -0.00, -0.65, 227.0, 118.1)">!</text><text xml:space="preserve" font-family="ProximaNova-Bold" font-weight="bold" font-size="20.0" fill="#5C5C5C" transform="matrix(0.65, 0.00, -0.00, -0.65, 16.9, 224.3)">L</text><text xml:space="preserve" font-family="ProximaNova-Bold" font-weight="bold" font-size="20.0" fill="#5C5C5C" transform="matrix(0.65, 0.00, -0.00, -0.65, 23.4, 224.3)">O</text><text xml:space="preserve" font-family="ProximaNova-Bold" font-weight="bold" font-size="20.0" fill="#5C5C5C" transform="matrix(0.65, 0.00, -0.00, -0.65, 33.3, 224.3)">O</text><text xml:space="preserve" font-family="ProximaNova-Bold" font-weight="bold" font-size="20.0" fill="#5C5C5C" transform="matrix(0.65, 0.00, -0.00, -0.65, 43.3, 224.3)">K</text><text xml:space="preserve" font-family="ProximaNova-Bold" font-weight="bold" font-size="20.0" fill="#5C5C5C" transform="matrix(0.65, 0.00, -0.00, -0.65, 51.6, 224.3)"> </text><text xml:space="preserve" font-family="ProximaNova-Bold" font-weight="bold" font-size="20.0" fill="#5C5C5C" transform="matrix(0.65, 0.00, -0.00, -0.65, 54.9, 224.3)">F</text><text xml:space="preserve" font-family="ProximaNova-Bold" font-weight="bold" font-size="20.0" fill="#5C5C5C" transform="matrix(0.65, 0.00, -0.00, -0.65, 62.3, 224.3)">O</text><text xml:space="preserve" font-family="ProximaNova-Bold" font-weight="bold" font-size="20.0" fill="#5C5C5C" transform="matrix(0.65, 0.00, -0.00, -0.65, 72.3, 224.3)">R</text><text xml:space="preserve" font-family="ProximaNova-Bold" font-weight="bold" font-size="20.0" fill="#5C5C5C" transform="matrix(0.65, 0.00, -0.00, -0.65, 80.6, 224.3)"> </text><text xml:space="preserve" font-family="ProximaNova-Bold" font-weight="bold" font-size="20.0" fill="#5C5C5C" transform="matrix(0.65, 0.00, -0.00, -0.65, 84.0, 224.3)">A</text><text xml:space="preserve" font-family="ProximaNova-Bold" font-weight="bold" font-size="20.0" fill="#5C5C5C" transform="matrix(0.65, 0.00, -0.00, -0.65, 92.9, 224.3)"> </text><text xml:space="preserve" font-family="ProximaNova-Bold" font-weight="bold" font-size="20.0" fill="#5C5C5C" transform="matrix(0.65, 0.00, -0.00, -0.65, 96.2, 224.3)">C</text><text xml:space="preserve" font-family="ProximaNova-Bold" font-weight="bold" font-size="20.0" fill="#5C5C5C" transform="matrix(0.65, 0.00, -0.00, -0.65, 105.1, 224.3)">O</text><text xml:space="preserve" font-family="ProximaNova-Bold" font-weight="bold" font-size="20.0" fill="#5C5C5C" transform="matrix(0.65, 0.00, -0.00, -0.65, 115.1, 224.3)">N</text><text xml:space="preserve" font-family="ProximaNova-Bold" font-weight="bold" font-size="20.0" fill="#5C5C5C" transform="matrix(0.65, 0.00, -0.00, -0.65, 124.6, 224.3)">F</text><text xml:space="preserve" font-family="ProximaNova-Bold" font-weight="bold" font-size="20.0" fill="#5C5C5C" transform="matrix(0.65, 0.00, -0.00, -0.65, 132.0, 224.3)">I</text><text xml:space="preserve" font-family="ProximaNova-Bold" font-weight="bold" font-size="20.0" fill="#5C5C5C" transform="matrix(0.65, 0.00, -0.00, -0.65, 135.6, 224.3)">R</text><text xml:space="preserve" font-family="ProximaNova-Bold" font-weight="bold" font-size="20.0" fill="#5C5C5C" transform="matrix(0.65, 0.00, -0.00, -0.65, 143.9, 224.3)">M</text><text xml:space="preserve" font-family="ProximaNova-Bold" font-weight="bold" font-size="20.0" fill="#5C5C5C" transform="matrix(0.65, 0.00, -0.00, -0.65, 155.1, 224.3)">A</text><text xml:space="preserve" font-family="ProximaNova-Bold" font-weight="bold" font-size="20.0" fill="#5C5C5C" transform="matrix(0.65, 0.00, -0.00, -0.65, 163.1, 224.3)">T</text><text xml:space="preserve" font-family="ProximaNova-Bold" font-weight="bold" font-size="20.0" fill="#5C5C5C" transform="matrix(0.65, 0.00, -0.00, -0.65, 170.7, 224.3)">I</text><text xml:space="preserve" font-family="ProximaNova-Bold" font-weight="bold" font-size="20.0" fill="#5C5C5C" transform="matrix(0.65, 0.00, -0.00, -0.65, 174.3, 224.3)">O</text><text xml:space="preserve" font-family="ProximaNova-Bold" font-weight="bold" font-size="20.0" fill="#5C5C5C" transform="matrix(0.65, 0.00, -0.00, -0.65, 184.2, 224.3)">N</text><text xml:space="preserve" font-family="ProximaNova-Bold" font-weight="bold" font-size="20.0" fill="#5C5C5C" transform="matrix(0.65, 0.00, -0.00, -0.65, 193.7, 224.3)"> </text><text xml:space="preserve" font-family="ProximaNova-Bold" font-weight="bold" font-size="20.0" fill="#5C5C5C" transform="matrix(0.65, 0.00, -0.00, -0.65, 197.0, 224.3)">E</text><text xml:space="preserve" font-family="ProximaNova-Bold" font-weight="bold" font-size="20.0" fill="#5C5C5C" transform="matrix(0.65, 0.00, -0.00, -0.65, 204.6, 224.3)">M</text><text xml:space="preserve" font-family="ProximaNova-Bold" font-weight="bold" font-size="20.0" fill="#5C5C5C" transform="matrix(0.65, 0.00, -0.00, -0.65, 215.7, 224.3)">A</text><text xml:space="preserve" font-family="ProximaNova-Bold" font-weight="bold" font-size="20.0" fill="#5C5C5C" transform="matrix(0.65, 0.00, -0.00, -0.65, 224.6, 224.3)">I</text><text xml:space="preserve" font-family="ProximaNova-Bold" font-weight="bold" font-size="20.0" fill="#5C5C5C" transform="matrix(0.65, 0.00, -0.00, -0.65, 228.2, 224.3)">L</text><text xml:space="preserve" font-family="ProximaNova-Bold" font-weight="bold" font-size="20.0" fill="#5C5C5C" transform="matrix(0.65, 0.00, -0.00, -0.65, 235.0, 224.3)"> </text><text xml:space="preserve" font-family="ProximaNova-Bold" font-weight="bold" font-size="20.0" fill="#5C5C5C" transform="matrix(0.65, 0.00, -0.00, -0.65, 238.3, 224.3)">F</text><text xml:space="preserve" font-family="ProximaNova-Bold" font-weight="bold" font-size="20.0" fill="#5C5C5C" transform="matrix(0.65, 0.00, -0.00, -0.65, 245.8, 224.3)">R</text><text xml:space="preserve" font-family="ProximaNova-Bold" font-weight="bold" font-size="20.0" fill="#5C5C5C" transform="matrix(0.65, 0.00, -0.00, -0.65, 254.1, 224.3)">O</text><text xml:space="preserve" font-family="ProximaNova-Bold" font-weight="bold" font-size="20.0" fill="#5C5C5C" transform="matrix(0.65, 0.00, -0.00, -0.65, 264.1, 224.3)">M</text><text xml:space="preserve" font-family="ProximaNova-Bold" font-weight="bold" font-size="20.0" fill="#5C5C5C" transform="matrix(0.65, 0.00, -0.00, -0.65, 275.2, 224.3)"> </text><text xml:space="preserve" font-family="ProximaNova-Bold" font-weight="bold" font-size="20.0" fill="#5C5C5C" transform="matrix(0.65, 0.00, -0.00, -0.65, 278.5, 224.3)">V</text><text xml:space="preserve" font-family="ProximaNova-Bold" font-weight="bold" font-size="20.0" fill="#5C5C5C" transform="matrix(0.65, 0.00, -0.00, -0.65, 286.2, 224.3)">J</text><text xml:space="preserve" font-family="ProximaNova-Bold" font-weight="bold" font-size="20.0" fill="#5C5C5C" transform="matrix(0.65, 0.00, -0.00, -0.65, 292.5, 224.3)">S</text><text xml:space="preserve" font-family="ProximaNova-Bold" font-weight="bold" font-size="20.0" fill="#5C5C5C" transform="matrix(0.65, 0.00, -0.00, -0.65, 300.3, 224.3)">.</text><text xml:space="preserve" font-family="ProximaNova-Light" font-size="40.0" fill="#5C5C5C" transform="matrix(0.65, 0.00, -0.00, -0.65, 57.7, 180.9)">T</text><text xml:space="preserve" font-family="ProximaNova-Light" font-size="40.0" fill="#5C5C5C" transform="matrix(0.65, 0.00, -0.00, -0.65, 72.4, 180.9)">h</text><text xml:space="preserve" font-family="ProximaNova-Light" font-size="40.0" fill="#5C5C5C" transform="matrix(0.65, 0.00, -0.00, -0.65, 86.5, 180.9)">a</text><text xml:space="preserve" font-family="ProximaNova-Light" font-size="40.0" fill="#5C5C5C" transform="matrix(0.65, 0.00, -0.00, -0.65, 100.0, 180.9)">n</text><text xml:space="preserve" font-family="ProximaNova-Light" font-size="40.0" fill="#5C5C5C" transform="matrix(0.65, 0.00, -0.00, -0.65, 114.1, 180.9)">k</text><text xml:space="preserve" font-family="ProximaNova-Light" font-size="40.0" fill="#5C5C5C" transform="matrix(0.65, 0.00, -0.00, -0.65, 127.2, 180.9)">s</text><text xml:space="preserve" font-family="ProximaNova-Light" font-size="40.0" fill="#5C5C5C" transform="matrix(0.65, 0.00, -0.00, -0.65, 139.1, 180.9)"> </text><text xml:space="preserve" font-family="ProximaNova-Light" font-size="40.0" fill="#5C5C5C" transform="matrix(0.65, 0.00, -0.00, -0.65, 145.9, 180.9)">f</text><text xml:space="preserve" font-family="ProximaNova-Light" font-size="40.0" fill="#5C5C5C" transform="matrix(0.65, 0.00, -0.00, -0.65, 152.8, 180.9)">o</text><text xml:space="preserve" font-family="ProximaNova-Light" font-size="40.0" fill="#5C5C5C" transform="matrix(0.65, 0.00, -0.00, -0.65, 167.6, 180.9)">r</text><text xml:space="preserve" font-family="ProximaNova-Light" font-size="40.0" fill="#5C5C5C" transform="matrix(0.65, 0.00, -0.00, -0.65, 175.9, 180.9)"> </text><text xml:space="preserve" font-family="ProximaNova-Light" font-size="40.0" fill="#5C5C5C" transform="matrix(0.65, 0.00, -0.00, -0.65, 182.6, 180.9)">j</text><text xml:space="preserve" font-family="ProximaNova-Light" font-size="40.0" fill="#5C5C5C" transform="matrix(0.65, 0.00, -0.00, -0.65, 188.2, 180.9)">o</text><text xml:space="preserve" font-family="ProximaNova-Light" font-size="40.0" fill="#5C5C5C" transform="matrix(0.65, 0.00, -0.00, -0.65, 203.1, 180.9)">i</text><text xml:space="preserve" font-family="ProximaNova-Light" font-size="40.0" fill="#5C5C5C" transform="matrix(0.65, 0.00, -0.00, -0.65, 208.6, 180.9)">n</text><text xml:space="preserve" font-family="ProximaNova-Light" font-size="40.0" fill="#5C5C5C" transform="matrix(0.65, 0.00, -0.00, -0.65, 222.7, 180.9)">i</text><text xml:space="preserve" font-family="ProximaNova-Light" font-size="40.0" fill="#5C5C5C" transform="matrix(0.65, 0.00, -0.00, -0.65, 228.2, 180.9)">n</text><text xml:space="preserve" font-family="ProximaNova-Light" font-size="40.0" fill="#5C5C5C" transform="matrix(0.65, 0.00, -0.00, -0.65, 242.3, 180.9)">g</text><text xml:space="preserve" font-family="ProximaNova-Light" font-size="40.0" fill="#5C5C5C" transform="matrix(0.65, 0.00, -0.00, -0.65, 257.1, 180.9)">!</text><text xml:space="preserve" font-family="ProximaNova-Light" font-size="20.0" fill="#FEFFFF" transform="matrix(0.65, 0.00, -0.00, -0.65, 129.3, 60.2)">T</text><text xml:space="preserve" font-family="ProximaNova-Light" font-size="20.0" fill="#FEFFFF" transform="matrix(0.65, 0.00, -0.00, -0.65, 135.3, 60.2)">a</text><text xml:space="preserve" font-family="ProximaNova-Light" font-size="20.0" fill="#FEFFFF" transform="matrix(0.65, 0.00, -0.00, -0.65, 142.1, 60.2)">k</text><text xml:space="preserve" font-family="ProximaNova-Light" font-size="20.0" fill="#FEFFFF" transform="matrix(0.65, 0.00, -0.00, -0.65, 148.6, 60.2)">e</text><text xml:space="preserve" font-family="ProximaNova-Light" font-size="20.0" fill="#FEFFFF" transform="matrix(0.65, 0.00, -0.00, -0.65, 156.0, 60.2)"> </text><text xml:space="preserve" font-family="ProximaNova-Light" font-size="20.0" fill="#FEFFFF" transform="matrix(0.65, 0.00, -0.00, -0.65, 159.4, 60.2)">a</text><text xml:space="preserve" font-family="ProximaNova-Light" font-size="20.0" fill="#FEFFFF" transform="matrix(0.65, 0.00, -0.00, -0.65, 166.2, 60.2)"> </text><text xml:space="preserve" font-family="ProximaNova-Light" font-size="20.0" fill="#FEFFFF" transform="matrix(0.65, 0.00, -0.00, -0.65, 169.5, 60.2)">T</text><text xml:space="preserve" font-family="ProximaNova-Light" font-size="20.0" fill="#FEFFFF" transform="matrix(0.65, 0.00, -0.00, -0.65, 175.3, 60.2)">o</text><text xml:space="preserve" font-family="ProximaNova-Light" font-size="20.0" fill="#FEFFFF" transform="matrix(0.65, 0.00, -0.00, -0.65, 182.7, 60.2)">u</text><text xml:space="preserve" font-family="ProximaNova-Light" font-size="20.0" fill="#FEFFFF" transform="matrix(0.65, 0.00, -0.00, -0.65, 189.7, 60.2)">r</text><text xml:space="preserve" font-family="ProximaNova-Bold" font-weight="bold" font-size="14.0" fill="#6CCEAC" transform="matrix(0.65, 0.00, -0.00, -0.65, 133.3, 33.0)">C</text><text xml:space="preserve" font-family="ProximaNova-Bold" font-weight="bold" font-size="14.0" fill="#6CCEAC" transform="matrix(0.65, 0.00, -0.00, -0.65, 139.5, 33.0)">O</text><text xml:space="preserve" font-family="ProximaNova-Bold" font-weight="bold" font-size="14.0" fill="#6CCEAC" transform="matrix(0.65, 0.00, -0.00, -0.65, 146.5, 33.0)">N</text><text xml:space="preserve" font-family="ProximaNova-Bold" font-weight="bold" font-size="14.0" fill="#6CCEAC" transform="matrix(0.65, 0.00, -0.00, -0.65, 153.1, 33.0)">T</text><text xml:space="preserve" font-family="ProximaNova-Bold" font-weight="bold" font-size="14.0" fill="#6CCEAC" transform="matrix(0.65, 0.00, -0.00, -0.65, 157.8, 33.0)">A</text><text xml:space="preserve" font-family="ProximaNova-Bold" font-weight="bold" font-size="14.0" fill="#6CCEAC" transform="matrix(0.65, 0.00, -0.00, -0.65, 163.8, 33.0)">C</text><text xml:space="preserve" font-family="ProximaNova-Bold" font-weight="bold" font-size="14.0" fill="#6CCEAC" transform="matrix(0.65, 0.00, -0.00, -0.65, 170.0, 33.0)">T</text><text xml:space="preserve" font-family="ProximaNova-Light" font-size="14.0" fill="#5C5C5C" transform="matrix(0.65, 0.00, -0.00, -0.65, 175.3, 33.0)"> </text><text xml:space="preserve" font-family="ProximaNova-Light" font-size="14.0" fill="#5C5C5C" transform="matrix(0.65, 0.00, -0.00, -0.65, 177.7, 33.0)">U</text><text xml:space="preserve" font-family="ProximaNova-Light" font-size="14.0" fill="#5C5C5C" transform="matrix(0.65, 0.00, -0.00, -0.65, 183.9, 33.0)">S</text><text xml:space="preserve" font-family="ProximaNova-Light" font-size="14.0" fill="#5C5C5C" transform="matrix(0.65, 0.00, -0.00, -0.65, 189.2, 33.0)">.</text></g></g></g></g><g><clipPath id="clip-2732"><path d="M -185.9 397.3 L 478.1 397.3 L 478.1 -491.0 L -185.9 -491.0 Z M -185.9 397.3 "></path></clipPath><g clip-path="url(#clip-2732)"><g><clipPath id="clip-2733"><path d="M 32.0 80.7 L 291.4 80.7 L 291.4 51.3 L 32.0 51.3 L 32.0 80.7 Z M 32.0 80.7 "></path></clipPath><g clip-path="url(#clip-2733)"><g><clipPath id="clip-2734"><path d="M 32.0 51.1 L 292.0 51.1 L 292.0 80.9 L 32.0 80.9 Z M 32.0 51.1 "></path></clipPath><g clip-path="url(#clip-2734)"><path d="M 28.8 83.9 L 294.6 83.9 L 294.6 48.1 L 28.8 48.1 Z M 28.8 83.9 " fill="#5DC69C"></path></g></g></g></g></g></g><g><clipPath id="clip-2735"><path d="M -185.9 397.3 L 478.1 397.3 L 478.1 -491.0 L -185.9 -491.0 Z M -185.9 397.3 "></path></clipPath><g clip-path="url(#clip-2735)"><g><clipPath id="clip-2736"><path d="M 32.0 51.1 L 292.0 51.1 L 292.0 80.9 L 32.0 80.9 Z M 32.0 51.1 "></path></clipPath><g clip-path="url(#clip-2736)"><text xml:space="preserve" font-family="ProximaNova-Light" font-size="20.0" fill="#FEFFFF" transform="matrix(0.65, 0.00, -0.00, -0.65, 129.5, 61.8)">T</text><text xml:space="preserve" font-family="ProximaNova-Light" font-size="20.0" fill="#FEFFFF" transform="matrix(0.65, 0.00, -0.00, -0.65, 135.5, 61.8)">a</text><text xml:space="preserve" font-family="ProximaNova-Light" font-size="20.0" fill="#FEFFFF" transform="matrix(0.65, 0.00, -0.00, -0.65, 142.3, 61.8)">k</text><text xml:space="preserve" font-family="ProximaNova-Light" font-size="20.0" fill="#FEFFFF" transform="matrix(0.65, 0.00, -0.00, -0.65, 148.8, 61.8)">e</text><text xml:space="preserve" font-family="ProximaNova-Light" font-size="20.0" fill="#FEFFFF" transform="matrix(0.65, 0.00, -0.00, -0.65, 156.1, 61.8)"> </text><text xml:space="preserve" font-family="ProximaNova-Light" font-size="20.0" fill="#FEFFFF" transform="matrix(0.65, 0.00, -0.00, -0.65, 159.5, 61.8)">a</text><text xml:space="preserve" font-family="ProximaNova-Light" font-size="20.0" fill="#FEFFFF" transform="matrix(0.65, 0.00, -0.00, -0.65, 166.3, 61.8)"> </text><text xml:space="preserve" font-family="ProximaNova-Light" font-size="20.0" fill="#FEFFFF" transform="matrix(0.65, 0.00, -0.00, -0.65, 169.6, 61.8)">T</text><text xml:space="preserve" font-family="ProximaNova-Light" font-size="20.0" fill="#FEFFFF" transform="matrix(0.65, 0.00, -0.00, -0.65, 175.3, 61.8)">o</text><text xml:space="preserve" font-family="ProximaNova-Light" font-size="20.0" fill="#FEFFFF" transform="matrix(0.65, 0.00, -0.00, -0.65, 182.7, 61.8)">u</text><text xml:space="preserve" font-family="ProximaNova-Light" font-size="20.0" fill="#FEFFFF" transform="matrix(0.65, 0.00, -0.00, -0.65, 189.7, 61.8)">r</text></g></g></g></g></g></svg>