<?xml version="1.0" encoding="UTF-8" standalone="no"?><svg xmlns="http://www.w3.org/2000/svg" xmlns:xlink="http://www.w3.org/1999/xlink" clip-rule="evenodd" stroke-miterlimit="4.00" viewBox="0 0 172 183"><desc>SVG generated by Keynote</desc><defs></defs><g transform="matrix(1.00, 0.00, -0.00, -1.00, 0.0, 183.0)"><g><clipPath id="clip-7319"><path d="M 0.4 11.3 L 171.6 11.3 L 171.6 182.4 L 0.4 182.4 Z M 0.4 11.3 "></path></clipPath><g clip-path="url(#clip-7319)"><path d="M 142.6 24.5 C 175.3 57.1 175.3 110.0 142.6 142.6 C 110.0 175.3 57.1 175.3 24.5 142.6 C -8.2 110.0 -8.2 57.1 24.5 24.5 C 57.1 -8.2 110.0 -8.2 142.6 24.5 Z M 142.6 24.5 " fill="none" stroke="#FEFFFE" stroke-width="2.00" transform="matrix(1.00, 0.00, 0.00, -1.00, 2.4, 180.4)"></path></g></g><g><clipPath id="clip-7320"><path d="M 44.9 -11.2 L 188.0 -11.2 L 188.0 145.8 L 44.9 145.8 Z M 44.9 -11.2 "></path></clipPath><g clip-path="url(#clip-7320)"><text xml:space="preserve" font-family="AlternateGotNo1D" font-size="38.0" fill="#FEFFFE" transform="matrix(1.00, 0.00, -0.00, -1.00, 70.0, 111.0)">J</text><text xml:space="preserve" font-family="AlternateGotNo1D" font-size="38.0" fill="#FEFFFE" transform="matrix(1.00, 0.00, -0.00, -1.00, 77.7, 111.0)">o</text><text xml:space="preserve" font-family="AlternateGotNo1D" font-size="38.0" fill="#FEFFFE" transform="matrix(1.00, 0.00, -0.00, -1.00, 89.4, 111.0)">b</text><text xml:space="preserve" font-family="AlternateGotNo1D" font-size="38.0" fill="#FEFFFE" transform="matrix(1.00, 0.00, -0.00, -1.00, 101.1, 111.0)"> </text><text xml:space="preserve" font-family="AlternateGotNo1D" font-size="38.0" fill="#FEFFFE" transform="matrix(1.00, 0.00, -0.00, -1.00, 58.0, 65.0)">S</text><text xml:space="preserve" font-family="AlternateGotNo1D" font-size="38.0" fill="#FEFFFE" transform="matrix(1.00, 0.00, -0.00, -1.00, 70.6, 65.0)">c</text><text xml:space="preserve" font-family="AlternateGotNo1D" font-size="38.0" fill="#FEFFFE" transform="matrix(1.00, 0.00, -0.00, -1.00, 82.1, 65.0)">o</text><text xml:space="preserve" font-family="AlternateGotNo1D" font-size="38.0" fill="#FEFFFE" transform="matrix(1.00, 0.00, -0.00, -1.00, 93.8, 65.0)">u</text><text xml:space="preserve" font-family="AlternateGotNo1D" font-size="38.0" fill="#FEFFFE" transform="matrix(1.00, 0.00, -0.00, -1.00, 105.6, 65.0)">t</text><text xml:space="preserve" font-family="AlternateGotNo1D" font-size="38.0" fill="#FEFFFE" transform="matrix(1.00, 0.00, -0.00, -1.00, 113.7, 65.0)"> </text></g></g></g></svg>