<?xml version="1.0" encoding="UTF-8" standalone="no"?><svg xmlns="http://www.w3.org/2000/svg" xmlns:xlink="http://www.w3.org/1999/xlink" clip-rule="evenodd" stroke-miterlimit="4.00" viewBox="0 0 82 76"><desc>SVG generated by Keynote</desc><defs></defs><g transform="matrix(1.00, 0.00, -0.00, -1.00, 0.0, 76.0)"><text xml:space="preserve" font-family="AlternateGotNo1D" font-size="38.0" fill="#FEFFFE" transform="matrix(1.00, 0.00, -0.00, -1.00, 25.0, 49.0)">J</text><text xml:space="preserve" font-family="AlternateGotNo1D" font-size="38.0" fill="#FEFFFE" transform="matrix(1.00, 0.00, -0.00, -1.00, 32.7, 49.0)">o</text><text xml:space="preserve" font-family="AlternateGotNo1D" font-size="38.0" fill="#FEFFFE" transform="matrix(1.00, 0.00, -0.00, -1.00, 44.4, 49.0)">b</text><text xml:space="preserve" font-family="AlternateGotNo1D" font-size="38.0" fill="#FEFFFE" transform="matrix(1.00, 0.00, -0.00, -1.00, 56.1, 49.0)"> </text><text xml:space="preserve" font-family="AlternateGotNo1D" font-size="38.0" fill="#FEFFFE" transform="matrix(1.00, 0.00, -0.00, -1.00, 1.0, 3.0)">S</text><text xml:space="preserve" font-family="AlternateGotNo1D" font-size="38.0" fill="#FEFFFE" transform="matrix(1.00, 0.00, -0.00, -1.00, 13.6, 3.0)">e</text><text xml:space="preserve" font-family="AlternateGotNo1D" font-size="38.0" fill="#FEFFFE" transform="matrix(1.00, 0.00, -0.00, -1.00, 25.3, 3.0)">e</text><text xml:space="preserve" font-family="AlternateGotNo1D" font-size="38.0" fill="#FEFFFE" transform="matrix(1.00, 0.00, -0.00, -1.00, 37.0, 3.0)">k</text><text xml:space="preserve" font-family="AlternateGotNo1D" font-size="38.0" fill="#FEFFFE" transform="matrix(1.00, 0.00, -0.00, -1.00, 48.6, 3.0)">e</text><text xml:space="preserve" font-family="AlternateGotNo1D" font-size="38.0" fill="#FEFFFE" transform="matrix(1.00, 0.00, -0.00, -1.00, 60.4, 3.0)">r</text><text xml:space="preserve" font-family="AlternateGotNo1D" font-size="38.0" fill="#FEFFFE" transform="matrix(1.00, 0.00, -0.00, -1.00, 69.2, 3.0)">s</text><text xml:space="preserve" font-family="AlternateGotNo1D" font-size="38.0" fill="#FEFFFE" transform="matrix(1.00, 0.00, -0.00, -1.00, 79.6, 3.0)"> </text></g></svg>