<?xml version="1.0" encoding="UTF-8" standalone="no"?><svg xmlns="http://www.w3.org/2000/svg" xmlns:xlink="http://www.w3.org/1999/xlink" clip-rule="evenodd" stroke-miterlimit="4.00" viewBox="0 0 197 284"><desc>SVG generated by Keynote</desc><defs></defs><g transform="matrix(1.00, 0.00, -0.00, -1.00, 0.0, 284.0)"><g><clipPath id="clip-5637"><path d="M -36.4 382.7 L 230.9 382.7 L 230.9 -1774.8 L -36.4 -1774.8 Z M -36.4 382.7 "></path></clipPath><g clip-path="url(#clip-5637)"><g><clipPath id="clip-5638"><path d="M 2.0 1.0 L 195.0 1.0 L 195.0 282.0 L 2.0 282.0 Z M 2.0 1.0 "></path></clipPath><g clip-path="url(#clip-5638)"><text xml:space="preserve" font-family="ProximaNova-Bold" font-weight="bold" font-size="14.0" fill="#5C5C5C" transform="matrix(0.84, 0.00, -0.00, -0.84, 57.0, 273.6)">W</text><text xml:space="preserve" font-family="ProximaNova-Bold" font-weight="bold" font-size="14.0" fill="#5C5C5C" transform="matrix(0.84, 0.00, -0.00, -0.84, 67.8, 273.6)">E</text><text xml:space="preserve" font-family="ProximaNova-Bold" font-weight="bold" font-size="14.0" fill="#5C5C5C" transform="matrix(0.84, 0.00, -0.00, -0.84, 74.6, 273.6)">L</text><text xml:space="preserve" font-family="ProximaNova-Bold" font-weight="bold" font-size="14.0" fill="#5C5C5C" transform="matrix(0.84, 0.00, -0.00, -0.84, 80.7, 273.6)">C</text><text xml:space="preserve" font-family="ProximaNova-Bold" font-weight="bold" font-size="14.0" fill="#5C5C5C" transform="matrix(0.84, 0.00, -0.00, -0.84, 88.8, 273.6)">O</text><text xml:space="preserve" font-family="ProximaNova-Bold" font-weight="bold" font-size="14.0" fill="#5C5C5C" transform="matrix(0.84, 0.00, -0.00, -0.84, 97.7, 273.6)">M</text><text xml:space="preserve" font-family="ProximaNova-Bold" font-weight="bold" font-size="14.0" fill="#5C5C5C" transform="matrix(0.84, 0.00, -0.00, -0.84, 107.7, 273.6)">E</text><text xml:space="preserve" font-family="ProximaNova-Bold" font-weight="bold" font-size="14.0" fill="#5C5C5C" transform="matrix(0.84, 0.00, -0.00, -0.84, 114.5, 273.6)"> </text><text xml:space="preserve" font-family="ProximaNova-Bold" font-weight="bold" font-size="14.0" fill="#5C5C5C" transform="matrix(0.84, 0.00, -0.00, -0.84, 117.5, 273.6)">T</text><text xml:space="preserve" font-family="ProximaNova-Bold" font-weight="bold" font-size="14.0" fill="#5C5C5C" transform="matrix(0.84, 0.00, -0.00, -0.84, 124.3, 273.6)">O</text><text xml:space="preserve" font-family="ProximaNova-Bold" font-weight="bold" font-size="14.0" fill="#5C5C5C" transform="matrix(0.84, 0.00, -0.00, -0.84, 133.3, 273.6)"> </text><text xml:space="preserve" font-family="ProximaNova-Bold" font-weight="bold" font-size="14.0" fill="#5C5C5C" transform="matrix(0.84, 0.00, -0.00, -0.84, 37.2, 258.5)">V</text><text xml:space="preserve" font-family="ProximaNova-Bold" font-weight="bold" font-size="14.0" fill="#5C5C5C" transform="matrix(0.84, 0.00, -0.00, -0.84, 45.2, 258.5)">I</text><text xml:space="preserve" font-family="ProximaNova-Bold" font-weight="bold" font-size="14.0" fill="#5C5C5C" transform="matrix(0.84, 0.00, -0.00, -0.84, 48.4, 258.5)">R</text><text xml:space="preserve" font-family="ProximaNova-Bold" font-weight="bold" font-size="14.0" fill="#5C5C5C" transform="matrix(0.84, 0.00, -0.00, -0.84, 55.9, 258.5)">T</text><text xml:space="preserve" font-family="ProximaNova-Bold" font-weight="bold" font-size="14.0" fill="#5C5C5C" transform="matrix(0.84, 0.00, -0.00, -0.84, 62.7, 258.5)">U</text><text xml:space="preserve" font-family="ProximaNova-Bold" font-weight="bold" font-size="14.0" fill="#5C5C5C" transform="matrix(0.84, 0.00, -0.00, -0.84, 71.3, 258.5)">A</text><text xml:space="preserve" font-family="ProximaNova-Bold" font-weight="bold" font-size="14.0" fill="#5C5C5C" transform="matrix(0.84, 0.00, -0.00, -0.84, 79.3, 258.5)">L</text><text xml:space="preserve" font-family="ProximaNova-Bold" font-weight="bold" font-size="14.0" fill="#5C5C5C" transform="matrix(0.84, 0.00, -0.00, -0.84, 85.4, 258.5)"> </text><text xml:space="preserve" font-family="ProximaNova-Bold" font-weight="bold" font-size="14.0" fill="#5C5C5C" transform="matrix(0.84, 0.00, -0.00, -0.84, 88.4, 258.5)">J</text><text xml:space="preserve" font-family="ProximaNova-Bold" font-weight="bold" font-size="14.0" fill="#5C5C5C" transform="matrix(0.84, 0.00, -0.00, -0.84, 94.1, 258.5)">O</text><text xml:space="preserve" font-family="ProximaNova-Bold" font-weight="bold" font-size="14.0" fill="#5C5C5C" transform="matrix(0.84, 0.00, -0.00, -0.84, 103.0, 258.5)">B</text><text xml:space="preserve" font-family="ProximaNova-Bold" font-weight="bold" font-size="14.0" fill="#5C5C5C" transform="matrix(0.84, 0.00, -0.00, -0.84, 110.8, 258.5)"> </text><text xml:space="preserve" font-family="ProximaNova-Bold" font-weight="bold" font-size="14.0" fill="#5C5C5C" transform="matrix(0.84, 0.00, -0.00, -0.84, 113.8, 258.5)">S</text><text xml:space="preserve" font-family="ProximaNova-Bold" font-weight="bold" font-size="14.0" fill="#5C5C5C" transform="matrix(0.84, 0.00, -0.00, -0.84, 120.8, 258.5)">C</text><text xml:space="preserve" font-family="ProximaNova-Bold" font-weight="bold" font-size="14.0" fill="#5C5C5C" transform="matrix(0.84, 0.00, -0.00, -0.84, 128.8, 258.5)">O</text><text xml:space="preserve" font-family="ProximaNova-Bold" font-weight="bold" font-size="14.0" fill="#5C5C5C" transform="matrix(0.84, 0.00, -0.00, -0.84, 137.8, 258.5)">U</text><text xml:space="preserve" font-family="ProximaNova-Bold" font-weight="bold" font-size="14.0" fill="#5C5C5C" transform="matrix(0.84, 0.00, -0.00, -0.84, 146.3, 258.5)">T</text><text xml:space="preserve" font-family="ProximaNova-Light" font-size="30.0" fill="#5C5C5C" transform="matrix(0.84, 0.00, -0.00, -0.84, 43.0, 212.4)">A</text><text xml:space="preserve" font-family="ProximaNova-Light" font-size="30.0" fill="#5C5C5C" transform="matrix(0.84, 0.00, -0.00, -0.84, 59.2, 212.4)">r</text><text xml:space="preserve" font-family="ProximaNova-Light" font-size="30.0" fill="#5C5C5C" transform="matrix(0.84, 0.00, -0.00, -0.84, 67.2, 212.4)">e</text><text xml:space="preserve" font-family="ProximaNova-Light" font-size="30.0" fill="#5C5C5C" transform="matrix(0.84, 0.00, -0.00, -0.84, 81.4, 212.4)"> </text><text xml:space="preserve" font-family="ProximaNova-Light" font-size="30.0" fill="#5C5C5C" transform="matrix(0.84, 0.00, -0.00, -0.84, 87.9, 212.4)">y</text><text xml:space="preserve" font-family="ProximaNova-Light" font-size="30.0" fill="#5C5C5C" transform="matrix(0.84, 0.00, -0.00, -0.84, 99.9, 212.4)">o</text><text xml:space="preserve" font-family="ProximaNova-Light" font-size="30.0" fill="#5C5C5C" transform="matrix(0.84, 0.00, -0.00, -0.84, 114.2, 212.4)">u</text><text xml:space="preserve" font-family="ProximaNova-Light" font-size="30.0" fill="#5C5C5C" transform="matrix(0.84, 0.00, -0.00, -0.84, 127.8, 212.4)"> </text><text xml:space="preserve" font-family="ProximaNova-Light" font-size="30.0" fill="#5C5C5C" transform="matrix(0.84, 0.00, -0.00, -0.84, 134.3, 212.4)">a</text><text xml:space="preserve" font-family="ProximaNova-Light" font-size="30.0" fill="#5C5C5C" transform="matrix(0.84, 0.00, -0.00, -0.84, 147.3, 212.4)"> </text><text xml:space="preserve" font-family="ProximaNova-Light" font-size="30.0" fill="#5C5C5C" transform="matrix(0.84, 0.00, -0.00, -0.84, 37.5, 182.2)">j</text><text xml:space="preserve" font-family="ProximaNova-Light" font-size="30.0" fill="#5C5C5C" transform="matrix(0.84, 0.00, -0.00, -0.84, 42.9, 182.2)">o</text><text xml:space="preserve" font-family="ProximaNova-Light" font-size="30.0" fill="#5C5C5C" transform="matrix(0.84, 0.00, -0.00, -0.84, 57.2, 182.2)">b</text><text xml:space="preserve" font-family="ProximaNova-Light" font-size="30.0" fill="#5C5C5C" transform="matrix(0.84, 0.00, -0.00, -0.84, 71.5, 182.2)"> </text><text xml:space="preserve" font-family="ProximaNova-Light" font-size="30.0" fill="#5C5C5C" transform="matrix(0.84, 0.00, -0.00, -0.84, 78.0, 182.2)">s</text><text xml:space="preserve" font-family="ProximaNova-Light" font-size="30.0" fill="#5C5C5C" transform="matrix(0.84, 0.00, -0.00, -0.84, 89.5, 182.2)">e</text><text xml:space="preserve" font-family="ProximaNova-Light" font-size="30.0" fill="#5C5C5C" transform="matrix(0.84, 0.00, -0.00, -0.84, 103.7, 182.2)">e</text><text xml:space="preserve" font-family="ProximaNova-Light" font-size="30.0" fill="#5C5C5C" transform="matrix(0.84, 0.00, -0.00, -0.84, 118.0, 182.2)">k</text><text xml:space="preserve" font-family="ProximaNova-Light" font-size="30.0" fill="#5C5C5C" transform="matrix(0.84, 0.00, -0.00, -0.84, 130.6, 182.2)">e</text><text xml:space="preserve" font-family="ProximaNova-Light" font-size="30.0" fill="#5C5C5C" transform="matrix(0.84, 0.00, -0.00, -0.84, 144.8, 182.2)">r</text><text xml:space="preserve" font-family="ProximaNova-Light" font-size="30.0" fill="#5C5C5C" transform="matrix(0.84, 0.00, -0.00, -0.84, 152.8, 182.2)"> </text><text xml:space="preserve" font-family="ProximaNova-Light" font-size="30.0" fill="#5C5C5C" transform="matrix(0.84, 0.00, -0.00, -0.84, 9.5, 152.0)">o</text><text xml:space="preserve" font-family="ProximaNova-Light" font-size="30.0" fill="#5C5C5C" transform="matrix(0.84, 0.00, -0.00, -0.84, 23.9, 152.0)">r</text><text xml:space="preserve" font-family="ProximaNova-Light" font-size="30.0" fill="#5C5C5C" transform="matrix(0.84, 0.00, -0.00, -0.84, 31.8, 152.0)"> </text><text xml:space="preserve" font-family="ProximaNova-Light" font-size="30.0" fill="#5C5C5C" transform="matrix(0.84, 0.00, -0.00, -0.84, 38.3, 152.0)">j</text><text xml:space="preserve" font-family="ProximaNova-Light" font-size="30.0" fill="#5C5C5C" transform="matrix(0.84, 0.00, -0.00, -0.84, 43.7, 152.0)">o</text><text xml:space="preserve" font-family="ProximaNova-Light" font-size="30.0" fill="#5C5C5C" transform="matrix(0.84, 0.00, -0.00, -0.84, 58.0, 152.0)">b</text><text xml:space="preserve" font-family="ProximaNova-Light" font-size="30.0" fill="#5C5C5C" transform="matrix(0.84, 0.00, -0.00, -0.84, 72.3, 152.0)"> </text><text xml:space="preserve" font-family="ProximaNova-Light" font-size="30.0" fill="#5C5C5C" transform="matrix(0.84, 0.00, -0.00, -0.84, 78.8, 152.0)">p</text><text xml:space="preserve" font-family="ProximaNova-Light" font-size="30.0" fill="#5C5C5C" transform="matrix(0.84, 0.00, -0.00, -0.84, 93.0, 152.0)">r</text><text xml:space="preserve" font-family="ProximaNova-Light" font-size="30.0" fill="#5C5C5C" transform="matrix(0.84, 0.00, -0.00, -0.84, 100.9, 152.0)">o</text><text xml:space="preserve" font-family="ProximaNova-Light" font-size="30.0" fill="#5C5C5C" transform="matrix(0.84, 0.00, -0.00, -0.84, 115.2, 152.0)">v</text><text xml:space="preserve" font-family="ProximaNova-Light" font-size="30.0" fill="#5C5C5C" transform="matrix(0.84, 0.00, -0.00, -0.84, 127.3, 152.0)">i</text><text xml:space="preserve" font-family="ProximaNova-Light" font-size="30.0" fill="#5C5C5C" transform="matrix(0.84, 0.00, -0.00, -0.84, 132.7, 152.0)">d</text><text xml:space="preserve" font-family="ProximaNova-Light" font-size="30.0" fill="#5C5C5C" transform="matrix(0.84, 0.00, -0.00, -0.84, 147.0, 152.0)">e</text><text xml:space="preserve" font-family="ProximaNova-Light" font-size="30.0" fill="#5C5C5C" transform="matrix(0.84, 0.00, -0.00, -0.84, 161.2, 152.0)">r</text><text xml:space="preserve" font-family="ProximaNova-Light" font-size="30.0" fill="#5C5C5C" transform="matrix(0.84, 0.00, -0.00, -0.84, 169.1, 152.0)">?</text></g></g></g></g><g><clipPath id="clip-5639"><path d="M -36.4 382.7 L 230.9 382.7 L 230.9 -1774.8 L -36.4 -1774.8 Z M -36.4 382.7 "></path></clipPath><g clip-path="url(#clip-5639)"><g><clipPath id="clip-5640"><path d="M 2.0 122.2 L 195.0 122.2 L 195.0 84.5 L 2.0 84.5 L 2.0 122.2 Z M 2.0 122.2 "></path></clipPath><g clip-path="url(#clip-5640)"><g><clipPath id="clip-5641"><path d="M 2.0 1.0 L 195.0 1.0 L 195.0 282.0 L 2.0 282.0 Z M 2.0 1.0 "></path></clipPath><g clip-path="url(#clip-5641)"><path d="M 0.0 0.0 L 230.9 0.0 L 230.9 45.0 L 0.0 45.0 L 0.0 0.0 Z M 0.0 0.0 " fill="none" stroke="#969696" stroke-width="2.00" stroke-miterlimit="0.00" transform="matrix(0.84, 0.00, 0.00, -0.84, 2.0, 122.2)"></path></g></g></g></g></g></g><g><clipPath id="clip-5642"><path d="M -36.4 382.7 L 230.9 382.7 L 230.9 -1774.8 L -36.4 -1774.8 Z M -36.4 382.7 "></path></clipPath><g clip-path="url(#clip-5642)"><g><clipPath id="clip-5643"><path d="M 2.0 1.0 L 195.0 1.0 L 195.0 282.0 L 2.0 282.0 Z M 2.0 1.0 "></path></clipPath><g clip-path="url(#clip-5643)"><text xml:space="preserve" font-family="ProximaNova-Light" font-size="20.0" fill="#5C5C5C" transform="matrix(0.84, 0.00, -0.00, -0.84, 15.4, 97.9)">I</text><text xml:space="preserve" font-family="ProximaNova-Light" font-size="20.0" fill="#5C5C5C" transform="matrix(0.84, 0.00, -0.00, -0.84, 19.1, 97.9)"> </text><text xml:space="preserve" font-family="ProximaNova-Light" font-size="20.0" fill="#5C5C5C" transform="matrix(0.84, 0.00, -0.00, -0.84, 23.4, 97.9)">a</text><text xml:space="preserve" font-family="ProximaNova-Light" font-size="20.0" fill="#5C5C5C" transform="matrix(0.84, 0.00, -0.00, -0.84, 32.1, 97.9)">m</text><text xml:space="preserve" font-family="ProximaNova-Light" font-size="20.0" fill="#5C5C5C" transform="matrix(0.84, 0.00, -0.00, -0.84, 45.3, 97.9)"> </text><text xml:space="preserve" font-family="ProximaNova-Light" font-size="20.0" fill="#5C5C5C" transform="matrix(0.84, 0.00, -0.00, -0.84, 49.6, 97.9)">a</text><text xml:space="preserve" font-family="ProximaNova-Light" font-size="20.0" fill="#5C5C5C" transform="matrix(0.84, 0.00, -0.00, -0.84, 58.3, 97.9)"> </text><text xml:space="preserve" font-family="ProximaNova-Light" font-size="20.0" fill="#5C5C5C" transform="matrix(0.84, 0.00, -0.00, -0.84, 62.7, 97.9)">j</text><text xml:space="preserve" font-family="ProximaNova-Light" font-size="20.0" fill="#5C5C5C" transform="matrix(0.84, 0.00, -0.00, -0.84, 66.2, 97.9)">o</text><text xml:space="preserve" font-family="ProximaNova-Light" font-size="20.0" fill="#5C5C5C" transform="matrix(0.84, 0.00, -0.00, -0.84, 75.8, 97.9)">b</text><text xml:space="preserve" font-family="ProximaNova-Light" font-size="20.0" fill="#5C5C5C" transform="matrix(0.84, 0.00, -0.00, -0.84, 85.3, 97.9)"> </text><text xml:space="preserve" font-family="ProximaNova-Light" font-size="20.0" fill="#5C5C5C" transform="matrix(0.84, 0.00, -0.00, -0.84, 89.7, 97.9)">s</text><text xml:space="preserve" font-family="ProximaNova-Light" font-size="20.0" fill="#5C5C5C" transform="matrix(0.84, 0.00, -0.00, -0.84, 97.3, 97.9)">e</text><text xml:space="preserve" font-family="ProximaNova-Light" font-size="20.0" fill="#5C5C5C" transform="matrix(0.84, 0.00, -0.00, -0.84, 106.8, 97.9)">e</text><text xml:space="preserve" font-family="ProximaNova-Light" font-size="20.0" fill="#5C5C5C" transform="matrix(0.84, 0.00, -0.00, -0.84, 116.3, 97.9)">k</text><text xml:space="preserve" font-family="ProximaNova-Light" font-size="20.0" fill="#5C5C5C" transform="matrix(0.84, 0.00, -0.00, -0.84, 124.7, 97.9)">e</text><text xml:space="preserve" font-family="ProximaNova-Light" font-size="20.0" fill="#5C5C5C" transform="matrix(0.84, 0.00, -0.00, -0.84, 134.2, 97.9)">r</text><text xml:space="preserve" font-family="ProximaNova-Light" font-size="20.0" fill="#5C5C5C" transform="matrix(0.84, 0.00, -0.00, -0.84, 138.1, 97.9)">.</text></g></g></g></g><g><clipPath id="clip-5644"><path d="M -36.4 382.7 L 230.9 382.7 L 230.9 -1774.8 L -36.4 -1774.8 Z M -36.4 382.7 "></path></clipPath><g clip-path="url(#clip-5644)"><g><clipPath id="clip-5645"><path d="M 182.4 104.4 L 178.3 100.0 L 174.2 104.4 C 174.0 104.6 173.7 104.6 173.4 104.4 C 173.2 104.2 173.2 103.9 173.4 103.7 L 177.9 98.9 C 178.0 98.8 178.1 98.7 178.3 98.7 C 178.4 98.7 178.6 98.8 178.7 98.9 L 183.2 103.7 C 183.4 103.9 183.3 104.2 183.1 104.4 C 182.9 104.6 182.6 104.6 182.4 104.4 "></path></clipPath><g clip-path="url(#clip-5645)"><g><clipPath id="clip-5646"><path d="M 2.0 1.0 L 195.0 1.0 L 195.0 282.0 L 2.0 282.0 Z M 2.0 1.0 "></path></clipPath><g clip-path="url(#clip-5646)"><path d="M 169.1 108.8 L 187.5 108.8 L 187.5 94.5 L 169.1 94.5 Z M 169.1 108.8 " fill="#D7D7D7"></path></g></g></g></g></g></g><g><clipPath id="clip-5647"><path d="M -36.4 382.7 L 230.9 382.7 L 230.9 -1774.8 L -36.4 -1774.8 Z M -36.4 382.7 "></path></clipPath><g clip-path="url(#clip-5647)"><g><clipPath id="clip-5648"><path d="M 15.4 56.4 L 182.5 56.4 L 182.5 24.5 L 15.4 24.5 L 15.4 56.4 Z M 15.4 56.4 "></path></clipPath><g clip-path="url(#clip-5648)"><g><clipPath id="clip-5649"><path d="M 2.0 1.0 L 195.0 1.0 L 195.0 282.0 L 2.0 282.0 Z M 2.0 1.0 "></path></clipPath><g clip-path="url(#clip-5649)"><path d="M 11.2 60.6 L 186.6 60.6 L 186.6 20.3 L 11.2 20.3 Z M 11.2 60.6 " fill="#5DC69C"></path></g></g></g></g></g></g><g><clipPath id="clip-5650"><path d="M -36.4 382.7 L 230.9 382.7 L 230.9 -1774.8 L -36.4 -1774.8 Z M -36.4 382.7 "></path></clipPath><g clip-path="url(#clip-5650)"><g><clipPath id="clip-5651"><path d="M 2.0 1.0 L 195.0 1.0 L 195.0 282.0 L 2.0 282.0 Z M 2.0 1.0 "></path></clipPath><g clip-path="url(#clip-5651)"><text xml:space="preserve" font-family="ProximaNova-Light" font-size="17.0" fill="#FEFFFF" transform="matrix(0.84, 0.00, -0.00, -0.84, 70.7, 35.6)">C</text><text xml:space="preserve" font-family="ProximaNova-Light" font-size="17.0" fill="#FEFFFF" transform="matrix(0.84, 0.00, -0.00, -0.84, 80.2, 35.6)">o</text><text xml:space="preserve" font-family="ProximaNova-Light" font-size="17.0" fill="#FEFFFF" transform="matrix(0.84, 0.00, -0.00, -0.84, 88.3, 35.6)">n</text><text xml:space="preserve" font-family="ProximaNova-Light" font-size="17.0" fill="#FEFFFF" transform="matrix(0.84, 0.00, -0.00, -0.84, 96.0, 35.6)">t</text><text xml:space="preserve" font-family="ProximaNova-Light" font-size="17.0" fill="#FEFFFF" transform="matrix(0.84, 0.00, -0.00, -0.84, 99.9, 35.6)">i</text><text xml:space="preserve" font-family="ProximaNova-Light" font-size="17.0" fill="#FEFFFF" transform="matrix(0.84, 0.00, -0.00, -0.84, 102.9, 35.6)">n</text><text xml:space="preserve" font-family="ProximaNova-Light" font-size="17.0" fill="#FEFFFF" transform="matrix(0.84, 0.00, -0.00, -0.84, 110.6, 35.6)">u</text><text xml:space="preserve" font-family="ProximaNova-Light" font-size="17.0" fill="#FEFFFF" transform="matrix(0.84, 0.00, -0.00, -0.84, 118.3, 35.6)">e</text><text xml:space="preserve" font-family="ProximaNova-Bold" font-weight="bold" font-size="11.9" fill="#6CCEAC" transform="matrix(0.84, 0.00, -0.00, -0.84, 61.2, 2.0)">S</text><text xml:space="preserve" font-family="ProximaNova-Bold" font-weight="bold" font-size="11.9" fill="#6CCEAC" transform="matrix(0.84, 0.00, -0.00, -0.84, 67.2, 2.0)">K</text><text xml:space="preserve" font-family="ProximaNova-Bold" font-weight="bold" font-size="11.9" fill="#6CCEAC" transform="matrix(0.84, 0.00, -0.00, -0.84, 73.5, 2.0)">I</text><text xml:space="preserve" font-family="ProximaNova-Bold" font-weight="bold" font-size="11.9" fill="#6CCEAC" transform="matrix(0.84, 0.00, -0.00, -0.84, 76.2, 2.0)">P</text><text xml:space="preserve" font-family="ProximaNova-Light" font-size="11.9" fill="#5C5C5C" transform="matrix(0.84, 0.00, -0.00, -0.84, 82.4, 2.0)"> </text><text xml:space="preserve" font-family="ProximaNova-Light" font-size="11.9" fill="#5C5C5C" transform="matrix(0.84, 0.00, -0.00, -0.84, 85.0, 2.0)">T</text><text xml:space="preserve" font-family="ProximaNova-Light" font-size="11.9" fill="#5C5C5C" transform="matrix(0.84, 0.00, -0.00, -0.84, 90.6, 2.0)">H</text><text xml:space="preserve" font-family="ProximaNova-Light" font-size="11.9" fill="#5C5C5C" transform="matrix(0.84, 0.00, -0.00, -0.84, 97.6, 2.0)">I</text><text xml:space="preserve" font-family="ProximaNova-Light" font-size="11.9" fill="#5C5C5C" transform="matrix(0.84, 0.00, -0.00, -0.84, 99.8, 2.0)">S</text><text xml:space="preserve" font-family="ProximaNova-Light" font-size="11.9" fill="#5C5C5C" transform="matrix(0.84, 0.00, -0.00, -0.84, 105.6, 2.0)"> </text><text xml:space="preserve" font-family="ProximaNova-Light" font-size="11.9" fill="#5C5C5C" transform="matrix(0.84, 0.00, -0.00, -0.84, 108.1, 2.0)">S</text><text xml:space="preserve" font-family="ProximaNova-Light" font-size="11.9" fill="#5C5C5C" transform="matrix(0.84, 0.00, -0.00, -0.84, 113.9, 2.0)">T</text><text xml:space="preserve" font-family="ProximaNova-Light" font-size="11.9" fill="#5C5C5C" transform="matrix(0.84, 0.00, -0.00, -0.84, 119.5, 2.0)">E</text><text xml:space="preserve" font-family="ProximaNova-Light" font-size="11.9" fill="#5C5C5C" transform="matrix(0.84, 0.00, -0.00, -0.84, 125.1, 2.0)">P</text><text xml:space="preserve" font-family="ProximaNova-Light" font-size="11.9" fill="#5C5C5C" transform="matrix(0.84, 0.00, -0.00, -0.84, 130.8, 2.0)"> </text></g></g></g></g></g></svg>