<?xml version="1.0" encoding="UTF-8" standalone="no"?><svg xmlns="http://www.w3.org/2000/svg" xmlns:xlink="http://www.w3.org/1999/xlink" clip-rule="evenodd" stroke-miterlimit="4.00" viewBox="0 0 29 29"><desc>SVG generated by Keynote</desc><defs></defs><g transform="matrix(1.00, 0.00, -0.00, -1.00, 0.0, 29.0)"><g><clipPath id="clip-2891"><path d="M -412.8 483.2 L 38.5 483.2 L 38.5 -109.5 L -412.8 -109.5 Z M -412.8 483.2 "></path></clipPath><g clip-path="url(#clip-2891)"><g><clipPath id="clip-2892"><path d="M 14.0 2.0 C 21.2 2.0 27.0 7.8 27.0 15.0 C 27.0 22.2 21.2 28.0 14.0 28.0 C 6.8 28.0 1.0 22.2 1.0 15.0 C 1.0 7.8 6.8 2.0 14.0 2.0 Z M 14.0 2.0 "></path></clipPath><g clip-path="url(#clip-2892)"><g><clipPath id="clip-2893"><path d="M 1.0 2.0 L 27.0 2.0 L 27.0 28.0 L 1.0 28.0 Z M 1.0 2.0 "></path></clipPath><g clip-path="url(#clip-2893)"><path d="M -1.2 30.2 L 29.2 30.2 L 29.2 -0.2 L -1.2 -0.2 Z M -1.2 30.2 " fill="#5DC69D"></path></g></g></g></g></g></g><g><clipPath id="clip-2894"><path d="M -412.8 483.2 L 38.5 483.2 L 38.5 -109.5 L -412.8 -109.5 Z M -412.8 483.2 "></path></clipPath><g clip-path="url(#clip-2894)"><g><clipPath id="clip-2895"><path d="M 8.9 17.2 L 18.6 17.2 C 18.9 17.2 19.1 17.4 19.1 17.6 C 19.1 17.9 18.9 18.1 18.6 18.1 L 8.9 18.1 C 8.7 18.1 8.5 17.9 8.5 17.6 C 8.5 17.4 8.7 17.2 8.9 17.2 "></path></clipPath><g clip-path="url(#clip-2895)"><g><clipPath id="clip-2896"><path d="M 1.0 2.0 L 27.0 2.0 L 27.0 28.0 L 1.0 28.0 Z M 1.0 2.0 "></path></clipPath><g clip-path="url(#clip-2896)"><path d="M 6.3 20.3 L 21.3 20.3 L 21.3 15.0 L 6.3 15.0 Z M 6.3 20.3 " fill="#FFFFFF"></path></g></g></g></g></g></g><g><clipPath id="clip-2897"><path d="M -412.8 483.2 L 38.5 483.2 L 38.5 -109.5 L -412.8 -109.5 Z M -412.8 483.2 "></path></clipPath><g clip-path="url(#clip-2897)"><g><clipPath id="clip-2898"><path d="M 8.9 15.0 L 18.6 15.0 C 18.9 15.0 19.1 15.2 19.1 15.4 C 19.1 15.7 18.9 15.9 18.6 15.9 L 8.9 15.9 C 8.7 15.9 8.5 15.7 8.5 15.4 C 8.5 15.2 8.7 15.0 8.9 15.0 "></path></clipPath><g clip-path="url(#clip-2898)"><g><clipPath id="clip-2899"><path d="M 1.0 2.0 L 27.0 2.0 L 27.0 28.0 L 1.0 28.0 Z M 1.0 2.0 "></path></clipPath><g clip-path="url(#clip-2899)"><path d="M 6.3 18.1 L 21.3 18.1 L 21.3 12.8 L 6.3 12.8 Z M 6.3 18.1 " fill="#FFFFFF"></path></g></g></g></g></g></g><g><clipPath id="clip-2900"><path d="M -412.8 483.2 L 38.5 483.2 L 38.5 -109.5 L -412.8 -109.5 Z M -412.8 483.2 "></path></clipPath><g clip-path="url(#clip-2900)"><g><clipPath id="clip-2901"><path d="M 19.1 13.2 C 19.1 13.5 18.9 13.7 18.6 13.7 L 8.9 13.7 C 8.7 13.7 8.5 13.5 8.5 13.2 C 8.5 13.0 8.7 12.8 8.9 12.8 L 18.6 12.8 C 18.9 12.8 19.1 13.0 19.1 13.2 "></path></clipPath><g clip-path="url(#clip-2901)"><g><clipPath id="clip-2902"><path d="M 1.0 2.0 L 27.0 2.0 L 27.0 28.0 L 1.0 28.0 Z M 1.0 2.0 "></path></clipPath><g clip-path="url(#clip-2902)"><path d="M 6.3 15.9 L 21.3 15.9 L 21.3 10.6 L 6.3 10.6 Z M 6.3 15.9 " fill="#FFFFFF"></path></g></g></g></g></g></g><g><clipPath id="clip-2903"><path d="M -412.8 483.2 L 38.5 483.2 L 38.5 -109.5 L -412.8 -109.5 Z M -412.8 483.2 "></path></clipPath><g clip-path="url(#clip-2903)"><g><clipPath id="clip-2904"><path d="M 6.7 10.8 C 6.7 10.6 6.9 10.4 7.2 10.4 L 10.3 10.4 L 10.3 8.2 C 10.3 8.0 10.4 7.9 10.5 7.8 C 10.6 7.8 10.6 7.7 10.7 7.7 C 10.8 7.7 10.9 7.8 11.0 7.8 L 13.9 10.4 L 20.4 10.4 C 20.6 10.4 20.8 10.6 20.8 10.8 L 20.8 20.1 C 20.8 20.3 20.6 20.5 20.4 20.5 L 7.2 20.5 C 6.9 20.5 6.7 20.3 6.7 20.1 L 6.7 10.8 L 6.7 10.8 Z M 7.6 19.6 L 19.9 19.6 L 19.9 11.3 L 13.8 11.3 C 13.7 11.3 13.6 11.2 13.5 11.2 L 11.1 9.1 L 11.1 10.8 C 11.1 11.1 10.9 11.3 10.7 11.3 L 7.6 11.3 L 7.6 19.6 L 7.6 19.6 Z M 7.6 19.6 "></path></clipPath><g clip-path="url(#clip-2904)"><g><clipPath id="clip-2905"><path d="M 1.0 2.0 L 27.0 2.0 L 27.0 28.0 L 1.0 28.0 Z M 1.0 2.0 "></path></clipPath><g clip-path="url(#clip-2905)"><path d="M 4.5 22.7 L 23.0 22.7 L 23.0 5.5 L 4.5 5.5 Z M 4.5 22.7 " fill="#FFFFFF"></path></g></g></g></g></g></g></g></svg>