<?xml version="1.0" encoding="UTF-8" standalone="no"?><svg xmlns="http://www.w3.org/2000/svg" xmlns:xlink="http://www.w3.org/1999/xlink" clip-rule="evenodd" stroke-miterlimit="4.00" viewBox="0 0 408 312"><desc>SVG generated by Keynote</desc><defs></defs><g transform="matrix(1.00, 0.00, -0.00, -1.00, 0.0, 312.0)"><image xlink:href="../../D051E3A7-E019-4788-B6C2-099EF52AA3D2/assets/6412EC959D7321523D6E71AD4A876F6A.png" width="404.00" height="308.00" transform="matrix(1.00, 0.00, -0.00, -1.00, 2.0, 310.0)"></image><g><clipPath id="clip-2858"><path d="M -139.5 413.7 L 519.2 413.7 L 519.2 -463.9 L -139.5 -463.9 Z M -139.5 413.7 "></path></clipPath><g clip-path="url(#clip-2858)"><g><clipPath id="clip-2859"><path d="M 2.0 2.0 L 406.0 2.0 L 406.0 310.0 L 2.0 310.0 Z M 2.0 2.0 "></path></clipPath><g clip-path="url(#clip-2859)"><path d="M -887.1 302.3 L -501.1 302.3 L -501.1 12.3 L -887.1 12.3 L -887.1 302.3 Z M -887.1 302.3 " fill="#919191"></path></g></g></g></g><g><clipPath id="clip-2860"><path d="M -139.5 413.7 L 519.2 413.7 L 519.2 -463.9 L -139.5 -463.9 Z M -139.5 413.7 "></path></clipPath><g clip-path="url(#clip-2860)"><g><clipPath id="clip-2861"><path d="M 11.0 302.3 L 397.0 302.3 L 397.0 12.3 L 11.0 12.3 L 11.0 302.3 Z M 11.0 302.3 "></path></clipPath><g clip-path="url(#clip-2861)"><g><clipPath id="clip-2862"><path d="M 2.0 2.0 L 406.0 2.0 L 406.0 310.0 L 2.0 310.0 Z M 2.0 2.0 "></path></clipPath><g clip-path="url(#clip-2862)"><path d="M 7.8 305.5 L 400.2 305.5 L 400.2 9.1 L 7.8 9.1 Z M 7.8 305.5 " fill="#FFFFFF"></path></g></g></g></g></g></g><g><clipPath id="clip-2863"><path d="M -139.5 413.7 L 519.2 413.7 L 519.2 -463.9 L -139.5 -463.9 Z M -139.5 413.7 "></path></clipPath><g clip-path="url(#clip-2863)"><g><clipPath id="clip-2864"><path d="M 375.3 279.7 C 375.5 279.5 375.6 279.5 375.8 279.5 C 376.0 279.5 376.2 279.5 376.3 279.7 L 380.3 283.7 L 384.2 279.7 C 384.4 279.5 384.6 279.5 384.7 279.5 C 384.9 279.5 385.1 279.5 385.2 279.7 C 385.5 280.0 385.5 280.4 385.2 280.7 L 381.2 284.7 L 385.2 288.8 C 385.5 289.1 385.5 289.5 385.2 289.8 C 384.9 290.0 384.5 290.0 384.2 289.8 L 380.3 285.7 L 376.3 289.8 C 376.0 290.0 375.6 290.0 375.3 289.8 C 375.1 289.5 375.1 289.1 375.3 288.8 L 379.3 284.7 L 375.3 280.7 C 375.1 280.4 375.1 280.0 375.3 279.7 "></path></clipPath><g clip-path="url(#clip-2864)"><g><clipPath id="clip-2865"><path d="M 2.0 2.0 L 406.0 2.0 L 406.0 310.0 L 2.0 310.0 Z M 2.0 2.0 "></path></clipPath><g clip-path="url(#clip-2865)"><path d="M 371.9 293.2 L 388.6 293.2 L 388.6 276.3 L 371.9 276.3 Z M 371.9 293.2 " fill="#D7D7D7"></path></g></g></g></g></g></g><g><clipPath id="clip-2866"><path d="M -139.5 413.7 L 519.2 413.7 L 519.2 -463.9 L -139.5 -463.9 Z M -139.5 413.7 "></path></clipPath><g clip-path="url(#clip-2866)"><g><clipPath id="clip-2867"><path d="M 2.0 2.0 L 406.0 2.0 L 406.0 310.0 L 2.0 310.0 Z M 2.0 2.0 "></path></clipPath><g clip-path="url(#clip-2867)"><text xml:space="preserve" font-family="ProximaNova-Bold" font-weight="bold" font-size="20.0" fill="#5C5C5C" transform="matrix(0.64, 0.00, -0.00, -0.64, 99.3, 245.6)">T</text><text xml:space="preserve" font-family="ProximaNova-Bold" font-weight="bold" font-size="20.0" fill="#5C5C5C" transform="matrix(0.64, 0.00, -0.00, -0.64, 106.8, 245.6)">H</text><text xml:space="preserve" font-family="ProximaNova-Bold" font-weight="bold" font-size="20.0" fill="#5C5C5C" transform="matrix(0.64, 0.00, -0.00, -0.64, 116.2, 245.6)">I</text><text xml:space="preserve" font-family="ProximaNova-Bold" font-weight="bold" font-size="20.0" fill="#5C5C5C" transform="matrix(0.64, 0.00, -0.00, -0.64, 119.7, 245.6)">S</text><text xml:space="preserve" font-family="ProximaNova-Bold" font-weight="bold" font-size="20.0" fill="#5C5C5C" transform="matrix(0.64, 0.00, -0.00, -0.64, 127.4, 245.6)"> </text><text xml:space="preserve" font-family="ProximaNova-Bold" font-weight="bold" font-size="20.0" fill="#5C5C5C" transform="matrix(0.64, 0.00, -0.00, -0.64, 130.7, 245.6)">F</text><text xml:space="preserve" font-family="ProximaNova-Bold" font-weight="bold" font-size="20.0" fill="#5C5C5C" transform="matrix(0.64, 0.00, -0.00, -0.64, 138.1, 245.6)">E</text><text xml:space="preserve" font-family="ProximaNova-Bold" font-weight="bold" font-size="20.0" fill="#5C5C5C" transform="matrix(0.64, 0.00, -0.00, -0.64, 145.6, 245.6)">A</text><text xml:space="preserve" font-family="ProximaNova-Bold" font-weight="bold" font-size="20.0" fill="#5C5C5C" transform="matrix(0.64, 0.00, -0.00, -0.64, 153.6, 245.6)">T</text><text xml:space="preserve" font-family="ProximaNova-Bold" font-weight="bold" font-size="20.0" fill="#5C5C5C" transform="matrix(0.64, 0.00, -0.00, -0.64, 161.1, 245.6)">U</text><text xml:space="preserve" font-family="ProximaNova-Bold" font-weight="bold" font-size="20.0" fill="#5C5C5C" transform="matrix(0.64, 0.00, -0.00, -0.64, 170.5, 245.6)">R</text><text xml:space="preserve" font-family="ProximaNova-Bold" font-weight="bold" font-size="20.0" fill="#5C5C5C" transform="matrix(0.64, 0.00, -0.00, -0.64, 178.8, 245.6)">E</text><text xml:space="preserve" font-family="ProximaNova-Bold" font-weight="bold" font-size="20.0" fill="#5C5C5C" transform="matrix(0.64, 0.00, -0.00, -0.64, 186.3, 245.6)"> </text><text xml:space="preserve" font-family="ProximaNova-Bold" font-weight="bold" font-size="20.0" fill="#5C5C5C" transform="matrix(0.64, 0.00, -0.00, -0.64, 189.6, 245.6)">R</text><text xml:space="preserve" font-family="ProximaNova-Bold" font-weight="bold" font-size="20.0" fill="#5C5C5C" transform="matrix(0.64, 0.00, -0.00, -0.64, 197.8, 245.6)">E</text><text xml:space="preserve" font-family="ProximaNova-Bold" font-weight="bold" font-size="20.0" fill="#5C5C5C" transform="matrix(0.64, 0.00, -0.00, -0.64, 205.3, 245.6)">Q</text><text xml:space="preserve" font-family="ProximaNova-Bold" font-weight="bold" font-size="20.0" fill="#5C5C5C" transform="matrix(0.64, 0.00, -0.00, -0.64, 215.2, 245.6)">U</text><text xml:space="preserve" font-family="ProximaNova-Bold" font-weight="bold" font-size="20.0" fill="#5C5C5C" transform="matrix(0.64, 0.00, -0.00, -0.64, 224.6, 245.6)">I</text><text xml:space="preserve" font-family="ProximaNova-Bold" font-weight="bold" font-size="20.0" fill="#5C5C5C" transform="matrix(0.64, 0.00, -0.00, -0.64, 228.1, 245.6)">R</text><text xml:space="preserve" font-family="ProximaNova-Bold" font-weight="bold" font-size="20.0" fill="#5C5C5C" transform="matrix(0.64, 0.00, -0.00, -0.64, 236.4, 245.6)">E</text><text xml:space="preserve" font-family="ProximaNova-Bold" font-weight="bold" font-size="20.0" fill="#5C5C5C" transform="matrix(0.64, 0.00, -0.00, -0.64, 243.9, 245.6)">S</text><text xml:space="preserve" font-family="ProximaNova-Bold" font-weight="bold" font-size="20.0" fill="#5C5C5C" transform="matrix(0.64, 0.00, -0.00, -0.64, 251.6, 245.6)"> </text><text xml:space="preserve" font-family="ProximaNova-Bold" font-weight="bold" font-size="20.0" fill="#5C5C5C" transform="matrix(0.64, 0.00, -0.00, -0.64, 254.9, 245.6)">A</text><text xml:space="preserve" font-family="ProximaNova-Bold" font-weight="bold" font-size="20.0" fill="#5C5C5C" transform="matrix(0.64, 0.00, -0.00, -0.64, 263.7, 245.6)"> </text><text xml:space="preserve" font-family="ProximaNova-Bold" font-weight="bold" font-size="20.0" fill="#5C5C5C" transform="matrix(0.64, 0.00, -0.00, -0.64, 267.0, 245.6)">L</text><text xml:space="preserve" font-family="ProximaNova-Bold" font-weight="bold" font-size="20.0" fill="#5C5C5C" transform="matrix(0.64, 0.00, -0.00, -0.64, 273.4, 245.6)">O</text><text xml:space="preserve" font-family="ProximaNova-Bold" font-weight="bold" font-size="20.0" fill="#5C5C5C" transform="matrix(0.64, 0.00, -0.00, -0.64, 283.2, 245.6)">G</text><text xml:space="preserve" font-family="ProximaNova-Bold" font-weight="bold" font-size="20.0" fill="#5C5C5C" transform="matrix(0.64, 0.00, -0.00, -0.64, 292.5, 245.6)">I</text><text xml:space="preserve" font-family="ProximaNova-Bold" font-weight="bold" font-size="20.0" fill="#5C5C5C" transform="matrix(0.64, 0.00, -0.00, -0.64, 296.0, 245.6)">N</text><text xml:space="preserve" font-family="ProximaNova-Bold" font-weight="bold" font-size="20.0" fill="#5C5C5C" transform="matrix(0.64, 0.00, -0.00, -0.64, 305.4, 245.6)">.</text><text xml:space="preserve" font-family="ProximaNova-Light" font-size="40.0" fill="#5C5C5C" transform="matrix(0.64, 0.00, -0.00, -0.64, 136.3, 202.4)">G</text><text xml:space="preserve" font-family="ProximaNova-Light" font-size="40.0" fill="#5C5C5C" transform="matrix(0.64, 0.00, -0.00, -0.64, 154.6, 202.4)">e</text><text xml:space="preserve" font-family="ProximaNova-Light" font-size="40.0" fill="#5C5C5C" transform="matrix(0.64, 0.00, -0.00, -0.64, 169.2, 202.4)">t</text><text xml:space="preserve" font-family="ProximaNova-Light" font-size="40.0" fill="#5C5C5C" transform="matrix(0.64, 0.00, -0.00, -0.64, 176.2, 202.4)"> </text><text xml:space="preserve" font-family="ProximaNova-Light" font-size="40.0" fill="#5C5C5C" transform="matrix(0.64, 0.00, -0.00, -0.64, 182.9, 202.4)">n</text><text xml:space="preserve" font-family="ProximaNova-Light" font-size="40.0" fill="#5C5C5C" transform="matrix(0.64, 0.00, -0.00, -0.64, 196.8, 202.4)">o</text><text xml:space="preserve" font-family="ProximaNova-Light" font-size="40.0" fill="#5C5C5C" transform="matrix(0.64, 0.00, -0.00, -0.64, 211.5, 202.4)">t</text><text xml:space="preserve" font-family="ProximaNova-Light" font-size="40.0" fill="#5C5C5C" transform="matrix(0.64, 0.00, -0.00, -0.64, 218.6, 202.4)">i</text><text xml:space="preserve" font-family="ProximaNova-Light" font-size="40.0" fill="#5C5C5C" transform="matrix(0.64, 0.00, -0.00, -0.64, 224.1, 202.4)">c</text><text xml:space="preserve" font-family="ProximaNova-Light" font-size="40.0" fill="#5C5C5C" transform="matrix(0.64, 0.00, -0.00, -0.64, 236.8, 202.4)">e</text><text xml:space="preserve" font-family="ProximaNova-Light" font-size="40.0" fill="#5C5C5C" transform="matrix(0.64, 0.00, -0.00, -0.64, 251.4, 202.4)">d</text><text xml:space="preserve" font-family="ProximaNova-Light" font-size="40.0" fill="#5C5C5C" transform="matrix(0.64, 0.00, -0.00, -0.64, 266.1, 202.4)">.</text></g></g></g></g><g><clipPath id="clip-2868"><path d="M -139.5 413.7 L 519.2 413.7 L 519.2 -463.9 L -139.5 -463.9 Z M -139.5 413.7 "></path></clipPath><g clip-path="url(#clip-2868)"><g><clipPath id="clip-2869"><path d="M 59.9 179.8 L 352.0 179.8 L 352.0 150.8 L 59.9 150.8 L 59.9 179.8 Z M 59.9 179.8 "></path></clipPath><g clip-path="url(#clip-2869)"><g><clipPath id="clip-2870"><path d="M 2.0 2.0 L 406.0 2.0 L 406.0 310.0 L 2.0 310.0 Z M 2.0 2.0 "></path></clipPath><g clip-path="url(#clip-2870)"><path d="M 0.0 0.0 L 454.0 0.0 L 454.0 45.0 L 0.0 45.0 L 0.0 0.0 Z M 0.0 0.0 " fill="none" stroke="#969696" stroke-width="2.00" stroke-miterlimit="0.00" transform="matrix(0.64, 0.00, 0.00, -0.64, 59.9, 179.8)"></path></g></g></g></g></g></g><g><clipPath id="clip-2871"><path d="M -139.5 413.7 L 519.2 413.7 L 519.2 -463.9 L -139.5 -463.9 Z M -139.5 413.7 "></path></clipPath><g clip-path="url(#clip-2871)"><g><clipPath id="clip-2872"><path d="M 59.9 147.3 L 352.0 147.3 L 352.0 118.3 L 59.9 118.3 L 59.9 147.3 Z M 59.9 147.3 "></path></clipPath><g clip-path="url(#clip-2872)"><g><clipPath id="clip-2873"><path d="M 2.0 2.0 L 406.0 2.0 L 406.0 310.0 L 2.0 310.0 Z M 2.0 2.0 "></path></clipPath><g clip-path="url(#clip-2873)"><path d="M 0.0 0.0 L 454.0 0.0 L 454.0 45.0 L 0.0 45.0 L 0.0 0.0 Z M 0.0 0.0 " fill="none" stroke="#969696" stroke-width="2.00" stroke-miterlimit="0.00" transform="matrix(0.64, 0.00, 0.00, -0.64, 59.9, 147.3)"></path></g></g></g></g></g></g><g><clipPath id="clip-2874"><path d="M -139.5 413.7 L 519.2 413.7 L 519.2 -463.9 L -139.5 -463.9 Z M -139.5 413.7 "></path></clipPath><g clip-path="url(#clip-2874)"><g><clipPath id="clip-2875"><path d="M 2.0 2.0 L 406.0 2.0 L 406.0 310.0 L 2.0 310.0 Z M 2.0 2.0 "></path></clipPath><g clip-path="url(#clip-2875)"><text xml:space="preserve" font-family="ProximaNova-Light" font-size="20.0" fill="#5C5C5C" transform="matrix(0.64, 0.00, -0.00, -0.64, 74.1, 161.2)">E</text><text xml:space="preserve" font-family="ProximaNova-Light" font-size="20.0" fill="#5C5C5C" transform="matrix(0.64, 0.00, -0.00, -0.64, 81.3, 161.2)">n</text><text xml:space="preserve" font-family="ProximaNova-Light" font-size="20.0" fill="#5C5C5C" transform="matrix(0.64, 0.00, -0.00, -0.64, 88.3, 161.2)">t</text><text xml:space="preserve" font-family="ProximaNova-Light" font-size="20.0" fill="#5C5C5C" transform="matrix(0.64, 0.00, -0.00, -0.64, 91.8, 161.2)">e</text><text xml:space="preserve" font-family="ProximaNova-Light" font-size="20.0" fill="#5C5C5C" transform="matrix(0.64, 0.00, -0.00, -0.64, 99.1, 161.2)">r</text><text xml:space="preserve" font-family="ProximaNova-Light" font-size="20.0" fill="#5C5C5C" transform="matrix(0.64, 0.00, -0.00, -0.64, 103.2, 161.2)"> </text><text xml:space="preserve" font-family="ProximaNova-Light" font-size="20.0" fill="#5C5C5C" transform="matrix(0.64, 0.00, -0.00, -0.64, 106.5, 161.2)">Y</text><text xml:space="preserve" font-family="ProximaNova-Light" font-size="20.0" fill="#5C5C5C" transform="matrix(0.64, 0.00, -0.00, -0.64, 112.8, 161.2)">o</text><text xml:space="preserve" font-family="ProximaNova-Light" font-size="20.0" fill="#5C5C5C" transform="matrix(0.64, 0.00, -0.00, -0.64, 120.1, 161.2)">u</text><text xml:space="preserve" font-family="ProximaNova-Light" font-size="20.0" fill="#5C5C5C" transform="matrix(0.64, 0.00, -0.00, -0.64, 127.1, 161.2)">r</text><text xml:space="preserve" font-family="ProximaNova-Light" font-size="20.0" fill="#5C5C5C" transform="matrix(0.64, 0.00, -0.00, -0.64, 131.2, 161.2)"> </text><text xml:space="preserve" font-family="ProximaNova-Light" font-size="20.0" fill="#5C5C5C" transform="matrix(0.64, 0.00, -0.00, -0.64, 134.5, 161.2)">E</text><text xml:space="preserve" font-family="ProximaNova-Light" font-size="20.0" fill="#5C5C5C" transform="matrix(0.64, 0.00, -0.00, -0.64, 141.8, 161.2)">m</text><text xml:space="preserve" font-family="ProximaNova-Light" font-size="20.0" fill="#5C5C5C" transform="matrix(0.64, 0.00, -0.00, -0.64, 151.9, 161.2)">a</text><text xml:space="preserve" font-family="ProximaNova-Light" font-size="20.0" fill="#5C5C5C" transform="matrix(0.64, 0.00, -0.00, -0.64, 158.6, 161.2)">i</text><text xml:space="preserve" font-family="ProximaNova-Light" font-size="20.0" fill="#5C5C5C" transform="matrix(0.64, 0.00, -0.00, -0.64, 161.4, 161.2)">l</text><text xml:space="preserve" font-family="ProximaNova-Light" font-size="20.0" fill="#5C5C5C" transform="matrix(0.64, 0.00, -0.00, -0.64, 74.1, 128.6)">E</text><text xml:space="preserve" font-family="ProximaNova-Light" font-size="20.0" fill="#5C5C5C" transform="matrix(0.64, 0.00, -0.00, -0.64, 81.3, 128.6)">n</text><text xml:space="preserve" font-family="ProximaNova-Light" font-size="20.0" fill="#5C5C5C" transform="matrix(0.64, 0.00, -0.00, -0.64, 88.3, 128.6)">t</text><text xml:space="preserve" font-family="ProximaNova-Light" font-size="20.0" fill="#5C5C5C" transform="matrix(0.64, 0.00, -0.00, -0.64, 91.8, 128.6)">e</text><text xml:space="preserve" font-family="ProximaNova-Light" font-size="20.0" fill="#5C5C5C" transform="matrix(0.64, 0.00, -0.00, -0.64, 99.1, 128.6)">r</text><text xml:space="preserve" font-family="ProximaNova-Light" font-size="20.0" fill="#5C5C5C" transform="matrix(0.64, 0.00, -0.00, -0.64, 103.2, 128.6)"> </text><text xml:space="preserve" font-family="ProximaNova-Light" font-size="20.0" fill="#5C5C5C" transform="matrix(0.64, 0.00, -0.00, -0.64, 106.5, 128.6)">Y</text><text xml:space="preserve" font-family="ProximaNova-Light" font-size="20.0" fill="#5C5C5C" transform="matrix(0.64, 0.00, -0.00, -0.64, 112.8, 128.6)">o</text><text xml:space="preserve" font-family="ProximaNova-Light" font-size="20.0" fill="#5C5C5C" transform="matrix(0.64, 0.00, -0.00, -0.64, 120.1, 128.6)">u</text><text xml:space="preserve" font-family="ProximaNova-Light" font-size="20.0" fill="#5C5C5C" transform="matrix(0.64, 0.00, -0.00, -0.64, 127.1, 128.6)">r</text><text xml:space="preserve" font-family="ProximaNova-Light" font-size="20.0" fill="#5C5C5C" transform="matrix(0.64, 0.00, -0.00, -0.64, 131.2, 128.6)"> </text><text xml:space="preserve" font-family="ProximaNova-Light" font-size="20.0" fill="#5C5C5C" transform="matrix(0.64, 0.00, -0.00, -0.64, 134.5, 128.6)">P</text><text xml:space="preserve" font-family="ProximaNova-Light" font-size="20.0" fill="#5C5C5C" transform="matrix(0.64, 0.00, -0.00, -0.64, 141.6, 128.6)">a</text><text xml:space="preserve" font-family="ProximaNova-Light" font-size="20.0" fill="#5C5C5C" transform="matrix(0.64, 0.00, -0.00, -0.64, 148.3, 128.6)">s</text><text xml:space="preserve" font-family="ProximaNova-Light" font-size="20.0" fill="#5C5C5C" transform="matrix(0.64, 0.00, -0.00, -0.64, 154.2, 128.6)">s</text><text xml:space="preserve" font-family="ProximaNova-Light" font-size="20.0" fill="#5C5C5C" transform="matrix(0.64, 0.00, -0.00, -0.64, 160.1, 128.6)">w</text><text xml:space="preserve" font-family="ProximaNova-Light" font-size="20.0" fill="#5C5C5C" transform="matrix(0.64, 0.00, -0.00, -0.64, 169.4, 128.6)">o</text><text xml:space="preserve" font-family="ProximaNova-Light" font-size="20.0" fill="#5C5C5C" transform="matrix(0.64, 0.00, -0.00, -0.64, 176.7, 128.6)">r</text><text xml:space="preserve" font-family="ProximaNova-Light" font-size="20.0" fill="#5C5C5C" transform="matrix(0.64, 0.00, -0.00, -0.64, 180.8, 128.6)">d</text></g></g></g></g><g><clipPath id="clip-2876"><path d="M -139.5 413.7 L 519.2 413.7 L 519.2 -463.9 L -139.5 -463.9 Z M -139.5 413.7 "></path></clipPath><g clip-path="url(#clip-2876)"><g><clipPath id="clip-2877"><path d="M 141.0 101.6 L 269.6 101.6 L 269.6 72.6 L 141.0 72.6 L 141.0 101.6 Z M 141.0 101.6 "></path></clipPath><g clip-path="url(#clip-2877)"><g><clipPath id="clip-2878"><path d="M 2.0 2.0 L 406.0 2.0 L 406.0 310.0 L 2.0 310.0 Z M 2.0 2.0 "></path></clipPath><g clip-path="url(#clip-2878)"><path d="M 137.7 104.8 L 272.8 104.8 L 272.8 69.3 L 137.7 69.3 Z M 137.7 104.8 " fill="#5DC69C"></path></g></g></g></g></g></g><g><clipPath id="clip-2879"><path d="M -139.5 413.7 L 519.2 413.7 L 519.2 -463.9 L -139.5 -463.9 Z M -139.5 413.7 "></path></clipPath><g clip-path="url(#clip-2879)"><g><clipPath id="clip-2880"><path d="M 2.0 2.0 L 406.0 2.0 L 406.0 310.0 L 2.0 310.0 Z M 2.0 2.0 "></path></clipPath><g clip-path="url(#clip-2880)"><text xml:space="preserve" font-family="ProximaNova-Light" font-size="20.0" fill="#FEFFFF" transform="matrix(0.64, 0.00, -0.00, -0.64, 183.3, 82.9)">S</text><text xml:space="preserve" font-family="ProximaNova-Light" font-size="20.0" fill="#FEFFFF" transform="matrix(0.64, 0.00, -0.00, -0.64, 190.8, 82.9)">i</text><text xml:space="preserve" font-family="ProximaNova-Light" font-size="20.0" fill="#FEFFFF" transform="matrix(0.64, 0.00, -0.00, -0.64, 193.5, 82.9)">g</text><text xml:space="preserve" font-family="ProximaNova-Light" font-size="20.0" fill="#FEFFFF" transform="matrix(0.64, 0.00, -0.00, -0.64, 200.9, 82.9)">n</text><text xml:space="preserve" font-family="ProximaNova-Light" font-size="20.0" fill="#FEFFFF" transform="matrix(0.64, 0.00, -0.00, -0.64, 207.8, 82.9)"> </text><text xml:space="preserve" font-family="ProximaNova-Light" font-size="20.0" fill="#FEFFFF" transform="matrix(0.64, 0.00, -0.00, -0.64, 211.2, 82.9)">U</text><text xml:space="preserve" font-family="ProximaNova-Light" font-size="20.0" fill="#FEFFFF" transform="matrix(0.64, 0.00, -0.00, -0.64, 220.0, 82.9)">p</text><text xml:space="preserve" font-family="ProximaNova-Light" font-size="14.0" fill="#5C5C5C" transform="matrix(0.64, 0.00, -0.00, -0.64, 151.8, 55.2)">J</text><text xml:space="preserve" font-family="ProximaNova-Light" font-size="14.0" fill="#5C5C5C" transform="matrix(0.64, 0.00, -0.00, -0.64, 156.1, 55.2)">o</text><text xml:space="preserve" font-family="ProximaNova-Light" font-size="14.0" fill="#5C5C5C" transform="matrix(0.64, 0.00, -0.00, -0.64, 161.2, 55.2)">i</text><text xml:space="preserve" font-family="ProximaNova-Light" font-size="14.0" fill="#5C5C5C" transform="matrix(0.64, 0.00, -0.00, -0.64, 163.1, 55.2)">n</text><text xml:space="preserve" font-family="ProximaNova-Light" font-size="14.0" fill="#5C5C5C" transform="matrix(0.64, 0.00, -0.00, -0.64, 168.0, 55.2)">i</text><text xml:space="preserve" font-family="ProximaNova-Light" font-size="14.0" fill="#5C5C5C" transform="matrix(0.64, 0.00, -0.00, -0.64, 169.9, 55.2)">n</text><text xml:space="preserve" font-family="ProximaNova-Light" font-size="14.0" fill="#5C5C5C" transform="matrix(0.64, 0.00, -0.00, -0.64, 174.8, 55.2)">g</text><text xml:space="preserve" font-family="ProximaNova-Light" font-size="14.0" fill="#5C5C5C" transform="matrix(0.64, 0.00, -0.00, -0.64, 179.9, 55.2)"> </text><text xml:space="preserve" font-family="ProximaNova-Light" font-size="14.0" fill="#5C5C5C" transform="matrix(0.64, 0.00, -0.00, -0.64, 182.3, 55.2)">m</text><text xml:space="preserve" font-family="ProximaNova-Light" font-size="14.0" fill="#5C5C5C" transform="matrix(0.64, 0.00, -0.00, -0.64, 189.4, 55.2)">e</text><text xml:space="preserve" font-family="ProximaNova-Light" font-size="14.0" fill="#5C5C5C" transform="matrix(0.64, 0.00, -0.00, -0.64, 194.5, 55.2)">a</text><text xml:space="preserve" font-family="ProximaNova-Light" font-size="14.0" fill="#5C5C5C" transform="matrix(0.64, 0.00, -0.00, -0.64, 199.2, 55.2)">n</text><text xml:space="preserve" font-family="ProximaNova-Light" font-size="14.0" fill="#5C5C5C" transform="matrix(0.64, 0.00, -0.00, -0.64, 204.0, 55.2)">s</text><text xml:space="preserve" font-family="ProximaNova-Light" font-size="14.0" fill="#5C5C5C" transform="matrix(0.64, 0.00, -0.00, -0.64, 208.2, 55.2)"> </text><text xml:space="preserve" font-family="ProximaNova-Light" font-size="14.0" fill="#5C5C5C" transform="matrix(0.64, 0.00, -0.00, -0.64, 210.5, 55.2)">y</text><text xml:space="preserve" font-family="ProximaNova-Light" font-size="14.0" fill="#5C5C5C" transform="matrix(0.64, 0.00, -0.00, -0.64, 214.8, 55.2)">o</text><text xml:space="preserve" font-family="ProximaNova-Light" font-size="14.0" fill="#5C5C5C" transform="matrix(0.64, 0.00, -0.00, -0.64, 220.0, 55.2)">u</text><text xml:space="preserve" font-family="ProximaNova-Light" font-size="14.0" fill="#5C5C5C" transform="matrix(0.64, 0.00, -0.00, -0.64, 224.8, 55.2)"> </text><text xml:space="preserve" font-family="ProximaNova-Light" font-size="14.0" fill="#5C5C5C" transform="matrix(0.64, 0.00, -0.00, -0.64, 227.2, 55.2)">a</text><text xml:space="preserve" font-family="ProximaNova-Light" font-size="14.0" fill="#5C5C5C" transform="matrix(0.64, 0.00, -0.00, -0.64, 231.9, 55.2)">g</text><text xml:space="preserve" font-family="ProximaNova-Light" font-size="14.0" fill="#5C5C5C" transform="matrix(0.64, 0.00, -0.00, -0.64, 237.0, 55.2)">r</text><text xml:space="preserve" font-family="ProximaNova-Light" font-size="14.0" fill="#5C5C5C" transform="matrix(0.64, 0.00, -0.00, -0.64, 239.9, 55.2)">e</text><text xml:space="preserve" font-family="ProximaNova-Light" font-size="14.0" fill="#5C5C5C" transform="matrix(0.64, 0.00, -0.00, -0.64, 245.0, 55.2)">e</text><text xml:space="preserve" font-family="ProximaNova-Light" font-size="14.0" fill="#5C5C5C" transform="matrix(0.64, 0.00, -0.00, -0.64, 250.1, 55.2)"> </text><text xml:space="preserve" font-family="ProximaNova-Light" font-size="14.0" fill="#5C5C5C" transform="matrix(0.64, 0.00, -0.00, -0.64, 252.4, 55.2)">t</text><text xml:space="preserve" font-family="ProximaNova-Light" font-size="14.0" fill="#5C5C5C" transform="matrix(0.64, 0.00, -0.00, -0.64, 254.9, 55.2)">o</text><text xml:space="preserve" font-family="ProximaNova-Light" font-size="14.0" fill="#5C5C5C" transform="matrix(0.64, 0.00, -0.00, -0.64, 260.0, 55.2)"> </text><text xml:space="preserve" font-family="ProximaNova-Light" font-size="14.0" fill="#5C5C5C" transform="matrix(0.64, 0.00, -0.00, -0.64, 120.7, 44.2)">o</text><text xml:space="preserve" font-family="ProximaNova-Light" font-size="14.0" fill="#5C5C5C" transform="matrix(0.64, 0.00, -0.00, -0.64, 125.9, 44.2)">u</text><text xml:space="preserve" font-family="ProximaNova-Light" font-size="14.0" fill="#5C5C5C" transform="matrix(0.64, 0.00, -0.00, -0.64, 130.7, 44.2)">r</text><text xml:space="preserve" font-family="ProximaNova-Light" font-size="14.0" fill="#5C5C5C" transform="matrix(0.64, 0.00, -0.00, -0.64, 133.6, 44.2)"> </text><text xml:space="preserve" font-family="ProximaNova-Bold" font-weight="bold" font-size="14.0" fill="#6CCEAC" transform="matrix(0.64, 0.00, -0.00, -0.64, 135.9, 44.2)">T</text><text xml:space="preserve" font-family="ProximaNova-Bold" font-weight="bold" font-size="14.0" fill="#6CCEAC" transform="matrix(0.64, 0.00, -0.00, -0.64, 141.2, 44.2)">E</text><text xml:space="preserve" font-family="ProximaNova-Bold" font-weight="bold" font-size="14.0" fill="#6CCEAC" transform="matrix(0.64, 0.00, -0.00, -0.64, 146.4, 44.2)">R</text><text xml:space="preserve" font-family="ProximaNova-Bold" font-weight="bold" font-size="14.0" fill="#6CCEAC" transform="matrix(0.64, 0.00, -0.00, -0.64, 152.2, 44.2)">M</text><text xml:space="preserve" font-family="ProximaNova-Bold" font-weight="bold" font-size="14.0" fill="#6CCEAC" transform="matrix(0.64, 0.00, -0.00, -0.64, 159.9, 44.2)">S</text><text xml:space="preserve" font-family="ProximaNova-Bold" font-weight="bold" font-size="14.0" fill="#6CCEAC" transform="matrix(0.64, 0.00, -0.00, -0.64, 165.3, 44.2)"> </text><text xml:space="preserve" font-family="ProximaNova-Bold" font-weight="bold" font-size="14.0" fill="#6CCEAC" transform="matrix(0.64, 0.00, -0.00, -0.64, 167.6, 44.2)">O</text><text xml:space="preserve" font-family="ProximaNova-Bold" font-weight="bold" font-size="14.0" fill="#6CCEAC" transform="matrix(0.64, 0.00, -0.00, -0.64, 174.5, 44.2)">F</text><text xml:space="preserve" font-family="ProximaNova-Bold" font-weight="bold" font-size="14.0" fill="#6CCEAC" transform="matrix(0.64, 0.00, -0.00, -0.64, 179.7, 44.2)"> </text><text xml:space="preserve" font-family="ProximaNova-Bold" font-weight="bold" font-size="14.0" fill="#6CCEAC" transform="matrix(0.64, 0.00, -0.00, -0.64, 182.0, 44.2)">U</text><text xml:space="preserve" font-family="ProximaNova-Bold" font-weight="bold" font-size="14.0" fill="#6CCEAC" transform="matrix(0.64, 0.00, -0.00, -0.64, 188.6, 44.2)">S</text><text xml:space="preserve" font-family="ProximaNova-Bold" font-weight="bold" font-size="14.0" fill="#6CCEAC" transform="matrix(0.64, 0.00, -0.00, -0.64, 194.0, 44.2)">E</text><text xml:space="preserve" font-family="ProximaNova-Light" font-size="14.0" fill="#5C5C5C" transform="matrix(0.64, 0.00, -0.00, -0.64, 199.2, 44.2)"> </text><text xml:space="preserve" font-family="ProximaNova-Light" font-size="14.0" fill="#5C5C5C" transform="matrix(0.64, 0.00, -0.00, -0.64, 201.6, 44.2)">a</text><text xml:space="preserve" font-family="ProximaNova-Light" font-size="14.0" fill="#5C5C5C" transform="matrix(0.64, 0.00, -0.00, -0.64, 206.2, 44.2)">n</text><text xml:space="preserve" font-family="ProximaNova-Light" font-size="14.0" fill="#5C5C5C" transform="matrix(0.64, 0.00, -0.00, -0.64, 211.1, 44.2)">d</text><text xml:space="preserve" font-family="ProximaNova-Light" font-size="14.0" fill="#5C5C5C" transform="matrix(0.64, 0.00, -0.00, -0.64, 216.3, 44.2)"> </text><text xml:space="preserve" font-family="ProximaNova-Bold" font-weight="bold" font-size="14.0" fill="#6CCEAC" transform="matrix(0.64, 0.00, -0.00, -0.64, 218.6, 44.2)">P</text><text xml:space="preserve" font-family="ProximaNova-Bold" font-weight="bold" font-size="14.0" fill="#6CCEAC" transform="matrix(0.64, 0.00, -0.00, -0.64, 224.2, 44.2)">R</text><text xml:space="preserve" font-family="ProximaNova-Bold" font-weight="bold" font-size="14.0" fill="#6CCEAC" transform="matrix(0.64, 0.00, -0.00, -0.64, 230.0, 44.2)">I</text><text xml:space="preserve" font-family="ProximaNova-Bold" font-weight="bold" font-size="14.0" fill="#6CCEAC" transform="matrix(0.64, 0.00, -0.00, -0.64, 232.5, 44.2)">V</text><text xml:space="preserve" font-family="ProximaNova-Bold" font-weight="bold" font-size="14.0" fill="#6CCEAC" transform="matrix(0.64, 0.00, -0.00, -0.64, 238.2, 44.2)">A</text><text xml:space="preserve" font-family="ProximaNova-Bold" font-weight="bold" font-size="14.0" fill="#6CCEAC" transform="matrix(0.64, 0.00, -0.00, -0.64, 244.1, 44.2)">C</text><text xml:space="preserve" font-family="ProximaNova-Bold" font-weight="bold" font-size="14.0" fill="#6CCEAC" transform="matrix(0.64, 0.00, -0.00, -0.64, 250.0, 44.2)">Y</text><text xml:space="preserve" font-family="ProximaNova-Bold" font-weight="bold" font-size="14.0" fill="#6CCEAC" transform="matrix(0.64, 0.00, -0.00, -0.64, 255.8, 44.2)"> </text><text xml:space="preserve" font-family="ProximaNova-Bold" font-weight="bold" font-size="14.0" fill="#6CCEAC" transform="matrix(0.64, 0.00, -0.00, -0.64, 258.1, 44.2)">P</text><text xml:space="preserve" font-family="ProximaNova-Bold" font-weight="bold" font-size="14.0" fill="#6CCEAC" transform="matrix(0.64, 0.00, -0.00, -0.64, 263.8, 44.2)">O</text><text xml:space="preserve" font-family="ProximaNova-Bold" font-weight="bold" font-size="14.0" fill="#6CCEAC" transform="matrix(0.64, 0.00, -0.00, -0.64, 270.7, 44.2)">L</text><text xml:space="preserve" font-family="ProximaNova-Bold" font-weight="bold" font-size="14.0" fill="#6CCEAC" transform="matrix(0.64, 0.00, -0.00, -0.64, 275.4, 44.2)">I</text><text xml:space="preserve" font-family="ProximaNova-Bold" font-weight="bold" font-size="14.0" fill="#6CCEAC" transform="matrix(0.64, 0.00, -0.00, -0.64, 277.8, 44.2)">C</text><text xml:space="preserve" font-family="ProximaNova-Bold" font-weight="bold" font-size="14.0" fill="#6CCEAC" transform="matrix(0.64, 0.00, -0.00, -0.64, 283.8, 44.2)">Y</text><text xml:space="preserve" font-family="ProximaNova-Bold" font-weight="bold" font-size="14.0" fill="#6CCEAC" transform="matrix(0.64, 0.00, -0.00, -0.64, 288.8, 44.2)">.</text><text xml:space="preserve" font-family="ProximaNova-Light" font-size="14.0" fill="#5C5C5C" transform="matrix(0.64, 0.00, -0.00, -0.64, 291.1, 44.2)"> </text></g></g></g></g></g></svg>