<?xml version="1.0" encoding="UTF-8" standalone="no"?><svg xmlns="http://www.w3.org/2000/svg" xmlns:xlink="http://www.w3.org/1999/xlink" clip-rule="evenodd" stroke-miterlimit="4.00" viewBox="0 0 227 63"><desc>SVG generated by Keynote</desc><defs></defs><g transform="matrix(1.00, 0.00, -0.00, -1.00, 0.0, 63.0)"><g><clipPath id="clip-3068"><path d="M 0.5 1.0 L 227.0 1.0 L 227.0 63.0 L 0.5 63.0 Z M 0.5 1.0 "></path></clipPath><g clip-path="url(#clip-3068)"><path d="M 1.5 17.0 L 1.5 47.0 C 1.5 55.3 8.2 62.0 16.5 62.0 L 211.0 62.0 C 219.3 62.0 226.0 55.3 226.0 47.0 L 226.0 17.0 C 226.0 8.7 219.3 2.0 211.0 2.0 L 16.5 2.0 C 8.2 2.0 1.5 8.7 1.5 17.0 Z M 1.5 17.0 " fill="#52575F"></path></g></g><g><clipPath id="clip-3069"><path d="M 17.0 17.2 L 306.7 17.2 L 306.7 51.2 L 17.0 51.2 Z M 17.0 17.2 "></path></clipPath><g clip-path="url(#clip-3069)"><text xml:space="preserve" font-family="Helvetica" font-size="11.0" fill="#FEFFFE" transform="matrix(1.00, 0.00, -0.00, -1.00, 21.0, 37.0)">F</text><text xml:space="preserve" font-family="Helvetica" font-size="11.0" fill="#FEFFFE" transform="matrix(1.00, 0.00, -0.00, -1.00, 27.7, 37.0)">r</text><text xml:space="preserve" font-family="Helvetica" font-size="11.0" fill="#FEFFFE" transform="matrix(1.00, 0.00, -0.00, -1.00, 31.4, 37.0)">o</text><text xml:space="preserve" font-family="Helvetica" font-size="11.0" fill="#FEFFFE" transform="matrix(1.00, 0.00, -0.00, -1.00, 37.5, 37.0)">m</text><text xml:space="preserve" font-family="Helvetica" font-size="11.0" fill="#FEFFFE" transform="matrix(1.00, 0.00, -0.00, -1.00, 46.7, 37.0)">:</text><text xml:space="preserve" font-family="Helvetica" font-size="11.0" fill="#FEFFFE" transform="matrix(1.00, 0.00, -0.00, -1.00, 49.7, 37.0)"> </text><text xml:space="preserve" font-family="Helvetica" font-size="11.0" fill="#FEFFFE" transform="matrix(1.00, 0.00, -0.00, -1.00, 52.8, 37.0)">V</text><text xml:space="preserve" font-family="Helvetica" font-size="11.0" fill="#FEFFFE" transform="matrix(1.00, 0.00, -0.00, -1.00, 59.9, 37.0)">i</text><text xml:space="preserve" font-family="Helvetica" font-size="11.0" fill="#FEFFFE" transform="matrix(1.00, 0.00, -0.00, -1.00, 62.4, 37.0)">r</text><text xml:space="preserve" font-family="Helvetica" font-size="11.0" fill="#FEFFFE" transform="matrix(1.00, 0.00, -0.00, -1.00, 66.0, 37.0)">t</text><text xml:space="preserve" font-family="Helvetica" font-size="11.0" fill="#FEFFFE" transform="matrix(1.00, 0.00, -0.00, -1.00, 69.1, 37.0)">u</text><text xml:space="preserve" font-family="Helvetica" font-size="11.0" fill="#FEFFFE" transform="matrix(1.00, 0.00, -0.00, -1.00, 75.2, 37.0)">a</text><text xml:space="preserve" font-family="Helvetica" font-size="11.0" fill="#FEFFFE" transform="matrix(1.00, 0.00, -0.00, -1.00, 81.3, 37.0)">l</text><text xml:space="preserve" font-family="Helvetica" font-size="11.0" fill="#FEFFFE" transform="matrix(1.00, 0.00, -0.00, -1.00, 83.8, 37.0)"> </text><text xml:space="preserve" font-family="Helvetica" font-size="11.0" fill="#FEFFFE" transform="matrix(1.00, 0.00, -0.00, -1.00, 86.8, 37.0)">J</text><text xml:space="preserve" font-family="Helvetica" font-size="11.0" fill="#FEFFFE" transform="matrix(1.00, 0.00, -0.00, -1.00, 92.3, 37.0)">o</text><text xml:space="preserve" font-family="Helvetica" font-size="11.0" fill="#FEFFFE" transform="matrix(1.00, 0.00, -0.00, -1.00, 98.4, 37.0)">b</text><text xml:space="preserve" font-family="Helvetica" font-size="11.0" fill="#FEFFFE" transform="matrix(1.00, 0.00, -0.00, -1.00, 104.6, 37.0)"> </text><text xml:space="preserve" font-family="Helvetica" font-size="11.0" fill="#FEFFFE" transform="matrix(1.00, 0.00, -0.00, -1.00, 107.6, 37.0)">S</text><text xml:space="preserve" font-family="Helvetica" font-size="11.0" fill="#FEFFFE" transform="matrix(1.00, 0.00, -0.00, -1.00, 114.9, 37.0)">c</text><text xml:space="preserve" font-family="Helvetica" font-size="11.0" fill="#FEFFFE" transform="matrix(1.00, 0.00, -0.00, -1.00, 120.4, 37.0)">o</text><text xml:space="preserve" font-family="Helvetica" font-size="11.0" fill="#FEFFFE" transform="matrix(1.00, 0.00, -0.00, -1.00, 126.6, 37.0)">u</text><text xml:space="preserve" font-family="Helvetica" font-size="11.0" fill="#FEFFFE" transform="matrix(1.00, 0.00, -0.00, -1.00, 132.7, 37.0)">t</text><text xml:space="preserve" font-family="Helvetica" font-size="11.0" fill="#FEFFFE" transform="matrix(1.00, 0.00, -0.00, -1.00, 21.0, 24.0)">S</text><text xml:space="preserve" font-family="Helvetica" font-size="11.0" fill="#FEFFFE" transform="matrix(1.00, 0.00, -0.00, -1.00, 28.3, 24.0)">u</text><text xml:space="preserve" font-family="Helvetica" font-size="11.0" fill="#FEFFFE" transform="matrix(1.00, 0.00, -0.00, -1.00, 34.5, 24.0)">b</text><text xml:space="preserve" font-family="Helvetica" font-size="11.0" fill="#FEFFFE" transform="matrix(1.00, 0.00, -0.00, -1.00, 40.6, 24.0)">j</text><text xml:space="preserve" font-family="Helvetica" font-size="11.0" fill="#FEFFFE" transform="matrix(1.00, 0.00, -0.00, -1.00, 43.0, 24.0)">e</text><text xml:space="preserve" font-family="Helvetica" font-size="11.0" fill="#FEFFFE" transform="matrix(1.00, 0.00, -0.00, -1.00, 49.1, 24.0)">c</text><text xml:space="preserve" font-family="Helvetica" font-size="11.0" fill="#FEFFFE" transform="matrix(1.00, 0.00, -0.00, -1.00, 54.6, 24.0)">t</text><text xml:space="preserve" font-family="Helvetica" font-size="11.0" fill="#FEFFFE" transform="matrix(1.00, 0.00, -0.00, -1.00, 57.7, 24.0)">:</text><text xml:space="preserve" font-family="Helvetica" font-size="11.0" fill="#FEFFFE" transform="matrix(1.00, 0.00, -0.00, -1.00, 60.8, 24.0)"> </text><text xml:space="preserve" font-family="Helvetica" font-size="11.0" fill="#FEFFFE" transform="matrix(1.00, 0.00, -0.00, -1.00, 63.2, 24.0)">A</text><text xml:space="preserve" font-family="Helvetica" font-size="11.0" fill="#FEFFFE" transform="matrix(1.00, 0.00, -0.00, -1.00, 69.9, 24.0)"> </text><text xml:space="preserve" font-family="Helvetica" font-size="11.0" fill="#FEFFFE" transform="matrix(1.00, 0.00, -0.00, -1.00, 73.0, 24.0)">n</text><text xml:space="preserve" font-family="Helvetica" font-size="11.0" fill="#FEFFFE" transform="matrix(1.00, 0.00, -0.00, -1.00, 79.1, 24.0)">e</text><text xml:space="preserve" font-family="Helvetica" font-size="11.0" fill="#FEFFFE" transform="matrix(1.00, 0.00, -0.00, -1.00, 85.2, 24.0)">w</text><text xml:space="preserve" font-family="Helvetica" font-size="11.0" fill="#FEFFFE" transform="matrix(1.00, 0.00, -0.00, -1.00, 93.2, 24.0)"> </text><text xml:space="preserve" font-family="Helvetica" font-size="11.0" fill="#FEFFFE" transform="matrix(1.00, 0.00, -0.00, -1.00, 96.2, 24.0)">e</text><text xml:space="preserve" font-family="Helvetica" font-size="11.0" fill="#FEFFFE" transform="matrix(1.00, 0.00, -0.00, -1.00, 102.4, 24.0)">v</text><text xml:space="preserve" font-family="Helvetica" font-size="11.0" fill="#FEFFFE" transform="matrix(1.00, 0.00, -0.00, -1.00, 107.9, 24.0)">e</text><text xml:space="preserve" font-family="Helvetica" font-size="11.0" fill="#FEFFFE" transform="matrix(1.00, 0.00, -0.00, -1.00, 114.0, 24.0)">n</text><text xml:space="preserve" font-family="Helvetica" font-size="11.0" fill="#FEFFFE" transform="matrix(1.00, 0.00, -0.00, -1.00, 120.1, 24.0)">t</text><text xml:space="preserve" font-family="Helvetica" font-size="11.0" fill="#FEFFFE" transform="matrix(1.00, 0.00, -0.00, -1.00, 123.1, 24.0)"> </text><text xml:space="preserve" font-family="Helvetica" font-size="11.0" fill="#FEFFFE" transform="matrix(1.00, 0.00, -0.00, -1.00, 126.2, 24.0)">j</text><text xml:space="preserve" font-family="Helvetica" font-size="11.0" fill="#FEFFFE" transform="matrix(1.00, 0.00, -0.00, -1.00, 128.6, 24.0)">u</text><text xml:space="preserve" font-family="Helvetica" font-size="11.0" fill="#FEFFFE" transform="matrix(1.00, 0.00, -0.00, -1.00, 134.8, 24.0)">s</text><text xml:space="preserve" font-family="Helvetica" font-size="11.0" fill="#FEFFFE" transform="matrix(1.00, 0.00, -0.00, -1.00, 140.3, 24.0)">t</text><text xml:space="preserve" font-family="Helvetica" font-size="11.0" fill="#FEFFFE" transform="matrix(1.00, 0.00, -0.00, -1.00, 143.3, 24.0)"> </text><text xml:space="preserve" font-family="Helvetica" font-size="11.0" fill="#FEFFFE" transform="matrix(1.00, 0.00, -0.00, -1.00, 146.4, 24.0)">s</text><text xml:space="preserve" font-family="Helvetica" font-size="11.0" fill="#FEFFFE" transform="matrix(1.00, 0.00, -0.00, -1.00, 151.9, 24.0)">t</text><text xml:space="preserve" font-family="Helvetica" font-size="11.0" fill="#FEFFFE" transform="matrix(1.00, 0.00, -0.00, -1.00, 154.9, 24.0)">a</text><text xml:space="preserve" font-family="Helvetica" font-size="11.0" fill="#FEFFFE" transform="matrix(1.00, 0.00, -0.00, -1.00, 161.0, 24.0)">r</text><text xml:space="preserve" font-family="Helvetica" font-size="11.0" fill="#FEFFFE" transform="matrix(1.00, 0.00, -0.00, -1.00, 164.7, 24.0)">t</text><text xml:space="preserve" font-family="Helvetica" font-size="11.0" fill="#FEFFFE" transform="matrix(1.00, 0.00, -0.00, -1.00, 167.8, 24.0)">e</text><text xml:space="preserve" font-family="Helvetica" font-size="11.0" fill="#FEFFFE" transform="matrix(1.00, 0.00, -0.00, -1.00, 173.9, 24.0)">d</text><text xml:space="preserve" font-family="Helvetica" font-size="11.0" fill="#FEFFFE" transform="matrix(1.00, 0.00, -0.00, -1.00, 180.0, 24.0)">!</text></g></g></g></svg>