<?xml version="1.0" encoding="UTF-8" standalone="no"?><svg xmlns="http://www.w3.org/2000/svg" xmlns:xlink="http://www.w3.org/1999/xlink" clip-rule="evenodd" stroke-miterlimit="4.00" viewBox="0 0 64 13"><desc>SVG generated by Keynote</desc><defs></defs><g transform="matrix(1.00, 0.00, -0.00, -1.00, 0.0, 13.0)"><g><clipPath id="clip-6234"><path d="M -128.0 525.0 L 192.0 525.0 L 192.0 -268.0 L -128.0 -268.0 Z M -128.0 525.0 "></path></clipPath><g clip-path="url(#clip-6234)"><g><clipPath id="clip-6235"><path d="M 7.0 1.5 C 9.5 1.5 11.5 3.5 11.5 6.0 C 11.5 8.5 9.5 10.5 7.0 10.5 C 4.5 10.5 2.5 8.5 2.5 6.0 C 2.5 3.5 4.5 1.5 7.0 1.5 Z M 7.0 1.5 "></path></clipPath><g clip-path="url(#clip-6235)"><g><clipPath id="clip-6236"><path d="M 2.0 1.0 L 63.0 1.0 L 63.0 11.0 L 2.0 11.0 Z M 2.0 1.0 "></path></clipPath><g clip-path="url(#clip-6236)"><path d="M -2.5 15.5 L 16.5 15.5 L 16.5 -3.5 L -2.5 -3.5 Z M -2.5 15.5 " fill="#9B9A9B"></path></g></g></g></g></g></g><g><clipPath id="clip-6237"><path d="M -128.0 525.0 L 192.0 525.0 L 192.0 -268.0 L -128.0 -268.0 Z M -128.0 525.0 "></path></clipPath><g clip-path="url(#clip-6237)"><g><clipPath id="clip-6238"><path d="M 2.0 1.0 L 63.0 1.0 L 63.0 11.0 L 2.0 11.0 Z M 2.0 1.0 "></path></clipPath><g clip-path="url(#clip-6238)"><path d="M 4.5 9.0 C 7.0 9.0 9.0 7.0 9.0 4.5 C 9.0 2.0 7.0 0.0 4.5 0.0 C 2.0 0.0 0.0 2.0 0.0 4.5 C 0.0 7.0 2.0 9.0 4.5 9.0 Z M 4.5 9.0 " fill="none" stroke="#969696" stroke-width="0.85" stroke-miterlimit="0.00" transform="matrix(1.00, 0.00, 0.00, -1.00, 2.5, 10.5)"></path></g></g></g></g><g><clipPath id="clip-6239"><path d="M -128.0 525.0 L 192.0 525.0 L 192.0 -268.0 L -128.0 -268.0 Z M -128.0 525.0 "></path></clipPath><g clip-path="url(#clip-6239)"><g><clipPath id="clip-6240"><path d="M 41.0 1.5 C 43.5 1.5 45.5 3.5 45.5 6.0 C 45.5 8.5 43.5 10.5 41.0 10.5 C 38.5 10.5 36.5 8.5 36.5 6.0 C 36.5 3.5 38.5 1.5 41.0 1.5 Z M 41.0 1.5 "></path></clipPath><g clip-path="url(#clip-6240)"><g><clipPath id="clip-6241"><path d="M 2.0 1.0 L 63.0 1.0 L 63.0 11.0 L 2.0 11.0 Z M 2.0 1.0 "></path></clipPath><g clip-path="url(#clip-6241)"><path d="M 31.5 15.5 L 50.5 15.5 L 50.5 -3.5 L 31.5 -3.5 Z M 31.5 15.5 " fill="#9B9A9B"></path></g></g></g></g></g></g><g><clipPath id="clip-6242"><path d="M -128.0 525.0 L 192.0 525.0 L 192.0 -268.0 L -128.0 -268.0 Z M -128.0 525.0 "></path></clipPath><g clip-path="url(#clip-6242)"><g><clipPath id="clip-6243"><path d="M 2.0 1.0 L 63.0 1.0 L 63.0 11.0 L 2.0 11.0 Z M 2.0 1.0 "></path></clipPath><g clip-path="url(#clip-6243)"><path d="M 4.5 9.0 C 7.0 9.0 9.0 7.0 9.0 4.5 C 9.0 2.0 7.0 0.0 4.5 0.0 C 2.0 0.0 0.0 2.0 0.0 4.5 C 0.0 7.0 2.0 9.0 4.5 9.0 Z M 4.5 9.0 " fill="none" stroke="#969696" stroke-width="0.85" stroke-miterlimit="0.00" transform="matrix(1.00, 0.00, 0.00, -1.00, 36.5, 10.5)"></path></g></g></g></g><g><clipPath id="clip-6244"><path d="M -128.0 525.0 L 192.0 525.0 L 192.0 -268.0 L -128.0 -268.0 Z M -128.0 525.0 "></path></clipPath><g clip-path="url(#clip-6244)"><g><clipPath id="clip-6245"><path d="M 24.0 1.5 C 26.5 1.5 28.5 3.5 28.5 6.0 C 28.5 8.5 26.5 10.5 24.0 10.5 C 21.5 10.5 19.5 8.5 19.5 6.0 C 19.5 3.5 21.5 1.5 24.0 1.5 Z M 24.0 1.5 "></path></clipPath><g clip-path="url(#clip-6245)"><g><clipPath id="clip-6246"><path d="M 2.0 1.0 L 63.0 1.0 L 63.0 11.0 L 2.0 11.0 Z M 2.0 1.0 "></path></clipPath><g clip-path="url(#clip-6246)"><path d="M 14.5 15.5 L 33.5 15.5 L 33.5 -3.5 L 14.5 -3.5 Z M 14.5 15.5 " fill="#9B9A9B"></path></g></g></g></g></g></g><g><clipPath id="clip-6247"><path d="M -128.0 525.0 L 192.0 525.0 L 192.0 -268.0 L -128.0 -268.0 Z M -128.0 525.0 "></path></clipPath><g clip-path="url(#clip-6247)"><g><clipPath id="clip-6248"><path d="M 2.0 1.0 L 63.0 1.0 L 63.0 11.0 L 2.0 11.0 Z M 2.0 1.0 "></path></clipPath><g clip-path="url(#clip-6248)"><path d="M 4.5 9.0 C 7.0 9.0 9.0 7.0 9.0 4.5 C 9.0 2.0 7.0 0.0 4.5 0.0 C 2.0 0.0 0.0 2.0 0.0 4.5 C 0.0 7.0 2.0 9.0 4.5 9.0 Z M 4.5 9.0 " fill="none" stroke="#969696" stroke-width="0.85" stroke-miterlimit="0.00" transform="matrix(1.00, 0.00, 0.00, -1.00, 19.5, 10.5)"></path><path d="M 4.5 9.0 C 7.0 9.0 9.0 7.0 9.0 4.5 C 9.0 2.0 7.0 0.0 4.5 0.0 C 2.0 0.0 0.0 2.0 0.0 4.5 C 0.0 7.0 2.0 9.0 4.5 9.0 Z M 4.5 9.0 " fill="none" stroke="#969696" stroke-width="0.85" stroke-miterlimit="0.00" transform="matrix(1.00, 0.00, 0.00, -1.00, 53.5, 10.5)"></path></g></g></g></g></g></svg>