<?xml version="1.0" encoding="UTF-8" standalone="no"?><svg xmlns="http://www.w3.org/2000/svg" xmlns:xlink="http://www.w3.org/1999/xlink" clip-rule="evenodd" stroke-miterlimit="4.00" viewBox="0 0 175 278"><desc>SVG generated by Keynote</desc><defs></defs><g transform="matrix(1.00, 0.00, -0.00, -1.00, 0.0, 278.0)"><g><clipPath id="clip-6286"><path d="M -72.0 426.0 L 248.0 426.0 L 248.0 -367.0 L -72.0 -367.0 Z M -72.0 426.0 "></path></clipPath><g clip-path="url(#clip-6286)"><g><clipPath id="clip-6287"><path d="M 2.0 1.0 L 174.0 1.0 L 174.0 276.0 L 2.0 276.0 Z M 2.0 1.0 "></path></clipPath><g clip-path="url(#clip-6287)"><text xml:space="preserve" font-family="ProximaNova-Bold" font-weight="bold" font-size="14.0" fill="#5C5C5C" transform="matrix(1.00, 0.00, -0.00, -1.00, 6.0, 266.0)">T</text><text xml:space="preserve" font-family="ProximaNova-Bold" font-weight="bold" font-size="14.0" fill="#5C5C5C" transform="matrix(1.00, 0.00, -0.00, -1.00, 14.2, 266.0)">H</text><text xml:space="preserve" font-family="ProximaNova-Bold" font-weight="bold" font-size="14.0" fill="#5C5C5C" transform="matrix(1.00, 0.00, -0.00, -1.00, 24.4, 266.0)">A</text><text xml:space="preserve" font-family="ProximaNova-Bold" font-weight="bold" font-size="14.0" fill="#5C5C5C" transform="matrix(1.00, 0.00, -0.00, -1.00, 34.0, 266.0)">T</text><text xml:space="preserve" font-family="ProximaNova-Bold" font-weight="bold" font-size="14.0" fill="#5C5C5C" transform="matrix(1.00, 0.00, -0.00, -1.00, 42.2, 266.0)"> </text><text xml:space="preserve" font-family="ProximaNova-Bold" font-weight="bold" font-size="14.0" fill="#5C5C5C" transform="matrix(1.00, 0.00, -0.00, -1.00, 45.7, 266.0)">A</text><text xml:space="preserve" font-family="ProximaNova-Bold" font-weight="bold" font-size="14.0" fill="#5C5C5C" transform="matrix(1.00, 0.00, -0.00, -1.00, 55.3, 266.0)">C</text><text xml:space="preserve" font-family="ProximaNova-Bold" font-weight="bold" font-size="14.0" fill="#5C5C5C" transform="matrix(1.00, 0.00, -0.00, -1.00, 64.9, 266.0)">T</text><text xml:space="preserve" font-family="ProximaNova-Bold" font-weight="bold" font-size="14.0" fill="#5C5C5C" transform="matrix(1.00, 0.00, -0.00, -1.00, 73.1, 266.0)">I</text><text xml:space="preserve" font-family="ProximaNova-Bold" font-weight="bold" font-size="14.0" fill="#5C5C5C" transform="matrix(1.00, 0.00, -0.00, -1.00, 76.9, 266.0)">O</text><text xml:space="preserve" font-family="ProximaNova-Bold" font-weight="bold" font-size="14.0" fill="#5C5C5C" transform="matrix(1.00, 0.00, -0.00, -1.00, 87.6, 266.0)">N</text><text xml:space="preserve" font-family="ProximaNova-Bold" font-weight="bold" font-size="14.0" fill="#5C5C5C" transform="matrix(1.00, 0.00, -0.00, -1.00, 97.8, 266.0)"> </text><text xml:space="preserve" font-family="ProximaNova-Bold" font-weight="bold" font-size="14.0" fill="#5C5C5C" transform="matrix(1.00, 0.00, -0.00, -1.00, 101.4, 266.0)">R</text><text xml:space="preserve" font-family="ProximaNova-Bold" font-weight="bold" font-size="14.0" fill="#5C5C5C" transform="matrix(1.00, 0.00, -0.00, -1.00, 110.4, 266.0)">E</text><text xml:space="preserve" font-family="ProximaNova-Bold" font-weight="bold" font-size="14.0" fill="#5C5C5C" transform="matrix(1.00, 0.00, -0.00, -1.00, 118.6, 266.0)">Q</text><text xml:space="preserve" font-family="ProximaNova-Bold" font-weight="bold" font-size="14.0" fill="#5C5C5C" transform="matrix(1.00, 0.00, -0.00, -1.00, 129.3, 266.0)">U</text><text xml:space="preserve" font-family="ProximaNova-Bold" font-weight="bold" font-size="14.0" fill="#5C5C5C" transform="matrix(1.00, 0.00, -0.00, -1.00, 139.6, 266.0)">I</text><text xml:space="preserve" font-family="ProximaNova-Bold" font-weight="bold" font-size="14.0" fill="#5C5C5C" transform="matrix(1.00, 0.00, -0.00, -1.00, 143.4, 266.0)">R</text><text xml:space="preserve" font-family="ProximaNova-Bold" font-weight="bold" font-size="14.0" fill="#5C5C5C" transform="matrix(1.00, 0.00, -0.00, -1.00, 152.4, 266.0)">E</text><text xml:space="preserve" font-family="ProximaNova-Bold" font-weight="bold" font-size="14.0" fill="#5C5C5C" transform="matrix(1.00, 0.00, -0.00, -1.00, 160.6, 266.0)">S</text><text xml:space="preserve" font-family="ProximaNova-Bold" font-weight="bold" font-size="14.0" fill="#5C5C5C" transform="matrix(1.00, 0.00, -0.00, -1.00, 169.0, 266.0)"> </text><text xml:space="preserve" font-family="ProximaNova-Bold" font-weight="bold" font-size="14.0" fill="#5C5C5C" transform="matrix(1.00, 0.00, -0.00, -1.00, 13.2, 248.0)">A</text><text xml:space="preserve" font-family="ProximaNova-Bold" font-weight="bold" font-size="14.0" fill="#5C5C5C" transform="matrix(1.00, 0.00, -0.00, -1.00, 22.8, 248.0)">C</text><text xml:space="preserve" font-family="ProximaNova-Bold" font-weight="bold" font-size="14.0" fill="#5C5C5C" transform="matrix(1.00, 0.00, -0.00, -1.00, 32.4, 248.0)">C</text><text xml:space="preserve" font-family="ProximaNova-Bold" font-weight="bold" font-size="14.0" fill="#5C5C5C" transform="matrix(1.00, 0.00, -0.00, -1.00, 42.0, 248.0)">O</text><text xml:space="preserve" font-family="ProximaNova-Bold" font-weight="bold" font-size="14.0" fill="#5C5C5C" transform="matrix(1.00, 0.00, -0.00, -1.00, 52.8, 248.0)">U</text><text xml:space="preserve" font-family="ProximaNova-Bold" font-weight="bold" font-size="14.0" fill="#5C5C5C" transform="matrix(1.00, 0.00, -0.00, -1.00, 63.0, 248.0)">N</text><text xml:space="preserve" font-family="ProximaNova-Bold" font-weight="bold" font-size="14.0" fill="#5C5C5C" transform="matrix(1.00, 0.00, -0.00, -1.00, 73.2, 248.0)">T</text><text xml:space="preserve" font-family="ProximaNova-Bold" font-weight="bold" font-size="14.0" fill="#5C5C5C" transform="matrix(1.00, 0.00, -0.00, -1.00, 81.4, 248.0)"> </text><text xml:space="preserve" font-family="ProximaNova-Bold" font-weight="bold" font-size="14.0" fill="#5C5C5C" transform="matrix(1.00, 0.00, -0.00, -1.00, 85.0, 248.0)">A</text><text xml:space="preserve" font-family="ProximaNova-Bold" font-weight="bold" font-size="14.0" fill="#5C5C5C" transform="matrix(1.00, 0.00, -0.00, -1.00, 94.5, 248.0)">P</text><text xml:space="preserve" font-family="ProximaNova-Bold" font-weight="bold" font-size="14.0" fill="#5C5C5C" transform="matrix(1.00, 0.00, -0.00, -1.00, 103.3, 248.0)">P</text><text xml:space="preserve" font-family="ProximaNova-Bold" font-weight="bold" font-size="14.0" fill="#5C5C5C" transform="matrix(1.00, 0.00, -0.00, -1.00, 112.0, 248.0)">R</text><text xml:space="preserve" font-family="ProximaNova-Bold" font-weight="bold" font-size="14.0" fill="#5C5C5C" transform="matrix(1.00, 0.00, -0.00, -1.00, 121.0, 248.0)">O</text><text xml:space="preserve" font-family="ProximaNova-Bold" font-weight="bold" font-size="14.0" fill="#5C5C5C" transform="matrix(1.00, 0.00, -0.00, -1.00, 131.7, 248.0)">V</text><text xml:space="preserve" font-family="ProximaNova-Bold" font-weight="bold" font-size="14.0" fill="#5C5C5C" transform="matrix(1.00, 0.00, -0.00, -1.00, 141.3, 248.0)">A</text><text xml:space="preserve" font-family="ProximaNova-Bold" font-weight="bold" font-size="14.0" fill="#5C5C5C" transform="matrix(1.00, 0.00, -0.00, -1.00, 150.9, 248.0)">L</text><text xml:space="preserve" font-family="ProximaNova-Bold" font-weight="bold" font-size="14.0" fill="#5C5C5C" transform="matrix(1.00, 0.00, -0.00, -1.00, 158.2, 248.0)">.</text><text xml:space="preserve" font-family="ProximaNova-Light" font-size="20.0" fill="#5C5C5C" transform="matrix(1.00, 0.00, -0.00, -1.00, 21.2, 186.0)">B</text><text xml:space="preserve" font-family="ProximaNova-Light" font-size="20.0" fill="#5C5C5C" transform="matrix(1.00, 0.00, -0.00, -1.00, 33.5, 186.0)">u</text><text xml:space="preserve" font-family="ProximaNova-Light" font-size="20.0" fill="#5C5C5C" transform="matrix(1.00, 0.00, -0.00, -1.00, 44.3, 186.0)">t</text><text xml:space="preserve" font-family="ProximaNova-Light" font-size="20.0" fill="#5C5C5C" transform="matrix(1.00, 0.00, -0.00, -1.00, 49.8, 186.0)"> </text><text xml:space="preserve" font-family="ProximaNova-Light" font-size="20.0" fill="#5C5C5C" transform="matrix(1.00, 0.00, -0.00, -1.00, 55.0, 186.0)">y</text><text xml:space="preserve" font-family="ProximaNova-Light" font-size="20.0" fill="#5C5C5C" transform="matrix(1.00, 0.00, -0.00, -1.00, 64.6, 186.0)">o</text><text xml:space="preserve" font-family="ProximaNova-Light" font-size="20.0" fill="#5C5C5C" transform="matrix(1.00, 0.00, -0.00, -1.00, 76.0, 186.0)">u</text><text xml:space="preserve" font-family="ProximaNova-Light" font-size="20.0" fill="#5C5C5C" transform="matrix(1.00, 0.00, -0.00, -1.00, 86.8, 186.0)"> </text><text xml:space="preserve" font-family="ProximaNova-Light" font-size="20.0" fill="#5C5C5C" transform="matrix(1.00, 0.00, -0.00, -1.00, 92.0, 186.0)">c</text><text xml:space="preserve" font-family="ProximaNova-Light" font-size="20.0" fill="#5C5C5C" transform="matrix(1.00, 0.00, -0.00, -1.00, 101.9, 186.0)">a</text><text xml:space="preserve" font-family="ProximaNova-Light" font-size="20.0" fill="#5C5C5C" transform="matrix(1.00, 0.00, -0.00, -1.00, 112.3, 186.0)">n</text><text xml:space="preserve" font-family="ProximaNova-Light" font-size="20.0" fill="#5C5C5C" transform="matrix(1.00, 0.00, -0.00, -1.00, 123.1, 186.0)"> </text><text xml:space="preserve" font-family="ProximaNova-Light" font-size="20.0" fill="#5C5C5C" transform="matrix(1.00, 0.00, -0.00, -1.00, 128.3, 186.0)">s</text><text xml:space="preserve" font-family="ProximaNova-Light" font-size="20.0" fill="#5C5C5C" transform="matrix(1.00, 0.00, -0.00, -1.00, 137.5, 186.0)">t</text><text xml:space="preserve" font-family="ProximaNova-Light" font-size="20.0" fill="#5C5C5C" transform="matrix(1.00, 0.00, -0.00, -1.00, 143.0, 186.0)">i</text><text xml:space="preserve" font-family="ProximaNova-Light" font-size="20.0" fill="#5C5C5C" transform="matrix(1.00, 0.00, -0.00, -1.00, 147.2, 186.0)">l</text><text xml:space="preserve" font-family="ProximaNova-Light" font-size="20.0" fill="#5C5C5C" transform="matrix(1.00, 0.00, -0.00, -1.00, 151.5, 186.0)">l</text><text xml:space="preserve" font-family="ProximaNova-Light" font-size="20.0" fill="#5C5C5C" transform="matrix(1.00, 0.00, -0.00, -1.00, 155.8, 186.0)"> </text><text xml:space="preserve" font-family="ProximaNova-Light" font-size="20.0" fill="#5C5C5C" transform="matrix(1.00, 0.00, -0.00, -1.00, 17.5, 162.0)">s</text><text xml:space="preserve" font-family="ProximaNova-Light" font-size="20.0" fill="#5C5C5C" transform="matrix(1.00, 0.00, -0.00, -1.00, 26.6, 162.0)">a</text><text xml:space="preserve" font-family="ProximaNova-Light" font-size="20.0" fill="#5C5C5C" transform="matrix(1.00, 0.00, -0.00, -1.00, 37.1, 162.0)">v</text><text xml:space="preserve" font-family="ProximaNova-Light" font-size="20.0" fill="#5C5C5C" transform="matrix(1.00, 0.00, -0.00, -1.00, 46.7, 162.0)">e</text><text xml:space="preserve" font-family="ProximaNova-Light" font-size="20.0" fill="#5C5C5C" transform="matrix(1.00, 0.00, -0.00, -1.00, 58.0, 162.0)"> </text><text xml:space="preserve" font-family="ProximaNova-Light" font-size="20.0" fill="#5C5C5C" transform="matrix(1.00, 0.00, -0.00, -1.00, 63.2, 162.0)">i</text><text xml:space="preserve" font-family="ProximaNova-Light" font-size="20.0" fill="#5C5C5C" transform="matrix(1.00, 0.00, -0.00, -1.00, 67.5, 162.0)">n</text><text xml:space="preserve" font-family="ProximaNova-Light" font-size="20.0" fill="#5C5C5C" transform="matrix(1.00, 0.00, -0.00, -1.00, 78.3, 162.0)">f</text><text xml:space="preserve" font-family="ProximaNova-Light" font-size="20.0" fill="#5C5C5C" transform="matrix(1.00, 0.00, -0.00, -1.00, 83.6, 162.0)">o</text><text xml:space="preserve" font-family="ProximaNova-Light" font-size="20.0" fill="#5C5C5C" transform="matrix(1.00, 0.00, -0.00, -1.00, 95.0, 162.0)">r</text><text xml:space="preserve" font-family="ProximaNova-Light" font-size="20.0" fill="#5C5C5C" transform="matrix(1.00, 0.00, -0.00, -1.00, 101.3, 162.0)">m</text><text xml:space="preserve" font-family="ProximaNova-Light" font-size="20.0" fill="#5C5C5C" transform="matrix(1.00, 0.00, -0.00, -1.00, 117.1, 162.0)">a</text><text xml:space="preserve" font-family="ProximaNova-Light" font-size="20.0" fill="#5C5C5C" transform="matrix(1.00, 0.00, -0.00, -1.00, 127.5, 162.0)">t</text><text xml:space="preserve" font-family="ProximaNova-Light" font-size="20.0" fill="#5C5C5C" transform="matrix(1.00, 0.00, -0.00, -1.00, 133.0, 162.0)">i</text><text xml:space="preserve" font-family="ProximaNova-Light" font-size="20.0" fill="#5C5C5C" transform="matrix(1.00, 0.00, -0.00, -1.00, 137.3, 162.0)">o</text><text xml:space="preserve" font-family="ProximaNova-Light" font-size="20.0" fill="#5C5C5C" transform="matrix(1.00, 0.00, -0.00, -1.00, 148.7, 162.0)">n</text><text xml:space="preserve" font-family="ProximaNova-Light" font-size="20.0" fill="#5C5C5C" transform="matrix(1.00, 0.00, -0.00, -1.00, 159.5, 162.0)"> </text><text xml:space="preserve" font-family="ProximaNova-Light" font-size="20.0" fill="#5C5C5C" transform="matrix(1.00, 0.00, -0.00, -1.00, 23.3, 138.0)">y</text><text xml:space="preserve" font-family="ProximaNova-Light" font-size="20.0" fill="#5C5C5C" transform="matrix(1.00, 0.00, -0.00, -1.00, 32.9, 138.0)">o</text><text xml:space="preserve" font-family="ProximaNova-Light" font-size="20.0" fill="#5C5C5C" transform="matrix(1.00, 0.00, -0.00, -1.00, 44.3, 138.0)">u</text><text xml:space="preserve" font-family="ProximaNova-Light" font-size="20.0" fill="#5C5C5C" transform="matrix(1.00, 0.00, -0.00, -1.00, 55.1, 138.0)">’</text><text xml:space="preserve" font-family="ProximaNova-Light" font-size="20.0" fill="#5C5C5C" transform="matrix(1.00, 0.00, -0.00, -1.00, 59.5, 138.0)">v</text><text xml:space="preserve" font-family="ProximaNova-Light" font-size="20.0" fill="#5C5C5C" transform="matrix(1.00, 0.00, -0.00, -1.00, 69.1, 138.0)">e</text><text xml:space="preserve" font-family="ProximaNova-Light" font-size="20.0" fill="#5C5C5C" transform="matrix(1.00, 0.00, -0.00, -1.00, 80.5, 138.0)"> </text><text xml:space="preserve" font-family="ProximaNova-Light" font-size="20.0" fill="#5C5C5C" transform="matrix(1.00, 0.00, -0.00, -1.00, 85.6, 138.0)">e</text><text xml:space="preserve" font-family="ProximaNova-Light" font-size="20.0" fill="#5C5C5C" transform="matrix(1.00, 0.00, -0.00, -1.00, 97.0, 138.0)">n</text><text xml:space="preserve" font-family="ProximaNova-Light" font-size="20.0" fill="#5C5C5C" transform="matrix(1.00, 0.00, -0.00, -1.00, 107.8, 138.0)">t</text><text xml:space="preserve" font-family="ProximaNova-Light" font-size="20.0" fill="#5C5C5C" transform="matrix(1.00, 0.00, -0.00, -1.00, 113.3, 138.0)">e</text><text xml:space="preserve" font-family="ProximaNova-Light" font-size="20.0" fill="#5C5C5C" transform="matrix(1.00, 0.00, -0.00, -1.00, 124.6, 138.0)">r</text><text xml:space="preserve" font-family="ProximaNova-Light" font-size="20.0" fill="#5C5C5C" transform="matrix(1.00, 0.00, -0.00, -1.00, 131.0, 138.0)">e</text><text xml:space="preserve" font-family="ProximaNova-Light" font-size="20.0" fill="#5C5C5C" transform="matrix(1.00, 0.00, -0.00, -1.00, 142.3, 138.0)">d</text><text xml:space="preserve" font-family="ProximaNova-Light" font-size="20.0" fill="#5C5C5C" transform="matrix(1.00, 0.00, -0.00, -1.00, 153.7, 138.0)"> </text><text xml:space="preserve" font-family="ProximaNova-Light" font-size="20.0" fill="#5C5C5C" transform="matrix(1.00, 0.00, -0.00, -1.00, 40.3, 114.0)">t</text><text xml:space="preserve" font-family="ProximaNova-Light" font-size="20.0" fill="#5C5C5C" transform="matrix(1.00, 0.00, -0.00, -1.00, 45.8, 114.0)">o</text><text xml:space="preserve" font-family="ProximaNova-Light" font-size="20.0" fill="#5C5C5C" transform="matrix(1.00, 0.00, -0.00, -1.00, 57.2, 114.0)"> </text><text xml:space="preserve" font-family="ProximaNova-Light" font-size="20.0" fill="#5C5C5C" transform="matrix(1.00, 0.00, -0.00, -1.00, 62.4, 114.0)">u</text><text xml:space="preserve" font-family="ProximaNova-Light" font-size="20.0" fill="#5C5C5C" transform="matrix(1.00, 0.00, -0.00, -1.00, 73.2, 114.0)">s</text><text xml:space="preserve" font-family="ProximaNova-Light" font-size="20.0" fill="#5C5C5C" transform="matrix(1.00, 0.00, -0.00, -1.00, 82.3, 114.0)">e</text><text xml:space="preserve" font-family="ProximaNova-Light" font-size="20.0" fill="#5C5C5C" transform="matrix(1.00, 0.00, -0.00, -1.00, 93.7, 114.0)"> </text><text xml:space="preserve" font-family="ProximaNova-Light" font-size="20.0" fill="#5C5C5C" transform="matrix(1.00, 0.00, -0.00, -1.00, 98.9, 114.0)">l</text><text xml:space="preserve" font-family="ProximaNova-Light" font-size="20.0" fill="#5C5C5C" transform="matrix(1.00, 0.00, -0.00, -1.00, 103.1, 114.0)">a</text><text xml:space="preserve" font-family="ProximaNova-Light" font-size="20.0" fill="#5C5C5C" transform="matrix(1.00, 0.00, -0.00, -1.00, 113.6, 114.0)">t</text><text xml:space="preserve" font-family="ProximaNova-Light" font-size="20.0" fill="#5C5C5C" transform="matrix(1.00, 0.00, -0.00, -1.00, 119.1, 114.0)">e</text><text xml:space="preserve" font-family="ProximaNova-Light" font-size="20.0" fill="#5C5C5C" transform="matrix(1.00, 0.00, -0.00, -1.00, 130.4, 114.0)">r</text><text xml:space="preserve" font-family="ProximaNova-Light" font-size="20.0" fill="#5C5C5C" transform="matrix(1.00, 0.00, -0.00, -1.00, 136.7, 114.0)"> </text><text xml:space="preserve" font-family="ProximaNova-Light" font-size="20.0" fill="#5C5C5C" transform="matrix(1.00, 0.00, -0.00, -1.00, 10.4, 90.0)">a</text><text xml:space="preserve" font-family="ProximaNova-Light" font-size="20.0" fill="#5C5C5C" transform="matrix(1.00, 0.00, -0.00, -1.00, 20.8, 90.0)">f</text><text xml:space="preserve" font-family="ProximaNova-Light" font-size="20.0" fill="#5C5C5C" transform="matrix(1.00, 0.00, -0.00, -1.00, 26.1, 90.0)">t</text><text xml:space="preserve" font-family="ProximaNova-Light" font-size="20.0" fill="#5C5C5C" transform="matrix(1.00, 0.00, -0.00, -1.00, 31.6, 90.0)">e</text><text xml:space="preserve" font-family="ProximaNova-Light" font-size="20.0" fill="#5C5C5C" transform="matrix(1.00, 0.00, -0.00, -1.00, 43.0, 90.0)">r</text><text xml:space="preserve" font-family="ProximaNova-Light" font-size="20.0" fill="#5C5C5C" transform="matrix(1.00, 0.00, -0.00, -1.00, 49.3, 90.0)"> </text><text xml:space="preserve" font-family="ProximaNova-Light" font-size="20.0" fill="#5C5C5C" transform="matrix(1.00, 0.00, -0.00, -1.00, 54.5, 90.0)">y</text><text xml:space="preserve" font-family="ProximaNova-Light" font-size="20.0" fill="#5C5C5C" transform="matrix(1.00, 0.00, -0.00, -1.00, 64.1, 90.0)">o</text><text xml:space="preserve" font-family="ProximaNova-Light" font-size="20.0" fill="#5C5C5C" transform="matrix(1.00, 0.00, -0.00, -1.00, 75.5, 90.0)">u</text><text xml:space="preserve" font-family="ProximaNova-Light" font-size="20.0" fill="#5C5C5C" transform="matrix(1.00, 0.00, -0.00, -1.00, 86.3, 90.0)">r</text><text xml:space="preserve" font-family="ProximaNova-Light" font-size="20.0" fill="#5C5C5C" transform="matrix(1.00, 0.00, -0.00, -1.00, 92.7, 90.0)"> </text><text xml:space="preserve" font-family="ProximaNova-Light" font-size="20.0" fill="#5C5C5C" transform="matrix(1.00, 0.00, -0.00, -1.00, 97.9, 90.0)">a</text><text xml:space="preserve" font-family="ProximaNova-Light" font-size="20.0" fill="#5C5C5C" transform="matrix(1.00, 0.00, -0.00, -1.00, 108.3, 90.0)">c</text><text xml:space="preserve" font-family="ProximaNova-Light" font-size="20.0" fill="#5C5C5C" transform="matrix(1.00, 0.00, -0.00, -1.00, 118.2, 90.0)">c</text><text xml:space="preserve" font-family="ProximaNova-Light" font-size="20.0" fill="#5C5C5C" transform="matrix(1.00, 0.00, -0.00, -1.00, 128.0, 90.0)">o</text><text xml:space="preserve" font-family="ProximaNova-Light" font-size="20.0" fill="#5C5C5C" transform="matrix(1.00, 0.00, -0.00, -1.00, 139.5, 90.0)">u</text><text xml:space="preserve" font-family="ProximaNova-Light" font-size="20.0" fill="#5C5C5C" transform="matrix(1.00, 0.00, -0.00, -1.00, 150.3, 90.0)">n</text><text xml:space="preserve" font-family="ProximaNova-Light" font-size="20.0" fill="#5C5C5C" transform="matrix(1.00, 0.00, -0.00, -1.00, 161.1, 90.0)">t</text><text xml:space="preserve" font-family="ProximaNova-Light" font-size="20.0" fill="#5C5C5C" transform="matrix(1.00, 0.00, -0.00, -1.00, 166.6, 90.0)"> </text><text xml:space="preserve" font-family="ProximaNova-Light" font-size="20.0" fill="#5C5C5C" transform="matrix(1.00, 0.00, -0.00, -1.00, 1.9, 66.0)">h</text><text xml:space="preserve" font-family="ProximaNova-Light" font-size="20.0" fill="#5C5C5C" transform="matrix(1.00, 0.00, -0.00, -1.00, 12.7, 66.0)">a</text><text xml:space="preserve" font-family="ProximaNova-Light" font-size="20.0" fill="#5C5C5C" transform="matrix(1.00, 0.00, -0.00, -1.00, 23.1, 66.0)">s</text><text xml:space="preserve" font-family="ProximaNova-Light" font-size="20.0" fill="#5C5C5C" transform="matrix(1.00, 0.00, -0.00, -1.00, 32.3, 66.0)"> </text><text xml:space="preserve" font-family="ProximaNova-Light" font-size="20.0" fill="#5C5C5C" transform="matrix(1.00, 0.00, -0.00, -1.00, 37.4, 66.0)">b</text><text xml:space="preserve" font-family="ProximaNova-Light" font-size="20.0" fill="#5C5C5C" transform="matrix(1.00, 0.00, -0.00, -1.00, 48.9, 66.0)">e</text><text xml:space="preserve" font-family="ProximaNova-Light" font-size="20.0" fill="#5C5C5C" transform="matrix(1.00, 0.00, -0.00, -1.00, 60.2, 66.0)">e</text><text xml:space="preserve" font-family="ProximaNova-Light" font-size="20.0" fill="#5C5C5C" transform="matrix(1.00, 0.00, -0.00, -1.00, 71.5, 66.0)">n</text><text xml:space="preserve" font-family="ProximaNova-Light" font-size="20.0" fill="#5C5C5C" transform="matrix(1.00, 0.00, -0.00, -1.00, 82.3, 66.0)"> </text><text xml:space="preserve" font-family="ProximaNova-Light" font-size="20.0" fill="#5C5C5C" transform="matrix(1.00, 0.00, -0.00, -1.00, 87.5, 66.0)">a</text><text xml:space="preserve" font-family="ProximaNova-Light" font-size="20.0" fill="#5C5C5C" transform="matrix(1.00, 0.00, -0.00, -1.00, 97.9, 66.0)">p</text><text xml:space="preserve" font-family="ProximaNova-Light" font-size="20.0" fill="#5C5C5C" transform="matrix(1.00, 0.00, -0.00, -1.00, 109.3, 66.0)">p</text><text xml:space="preserve" font-family="ProximaNova-Light" font-size="20.0" fill="#5C5C5C" transform="matrix(1.00, 0.00, -0.00, -1.00, 120.6, 66.0)">r</text><text xml:space="preserve" font-family="ProximaNova-Light" font-size="20.0" fill="#5C5C5C" transform="matrix(1.00, 0.00, -0.00, -1.00, 127.0, 66.0)">o</text><text xml:space="preserve" font-family="ProximaNova-Light" font-size="20.0" fill="#5C5C5C" transform="matrix(1.00, 0.00, -0.00, -1.00, 138.4, 66.0)">v</text><text xml:space="preserve" font-family="ProximaNova-Light" font-size="20.0" fill="#5C5C5C" transform="matrix(1.00, 0.00, -0.00, -1.00, 148.0, 66.0)">e</text><text xml:space="preserve" font-family="ProximaNova-Light" font-size="20.0" fill="#5C5C5C" transform="matrix(1.00, 0.00, -0.00, -1.00, 159.3, 66.0)">d</text><text xml:space="preserve" font-family="ProximaNova-Light" font-size="20.0" fill="#5C5C5C" transform="matrix(1.00, 0.00, -0.00, -1.00, 170.8, 66.0)">!</text><text xml:space="preserve" font-family="ProximaNova-Light" font-size="20.0" fill="#5C5C5C" transform="matrix(1.00, 0.00, -0.00, -1.00, 175.1, 66.0)"> </text><text xml:space="preserve" font-family="ProximaNova-Light" font-size="11.9" fill="#5C5C5C" transform="matrix(1.00, 0.00, -0.00, -1.00, 49.0, 4.7)">O</text><text xml:space="preserve" font-family="ProximaNova-Light" font-size="11.9" fill="#5C5C5C" transform="matrix(1.00, 0.00, -0.00, -1.00, 58.1, 4.7)">k</text><text xml:space="preserve" font-family="ProximaNova-Light" font-size="11.9" fill="#5C5C5C" transform="matrix(1.00, 0.00, -0.00, -1.00, 64.1, 4.7)">a</text><text xml:space="preserve" font-family="ProximaNova-Light" font-size="11.9" fill="#5C5C5C" transform="matrix(1.00, 0.00, -0.00, -1.00, 70.3, 4.7)">y</text><text xml:space="preserve" font-family="ProximaNova-Light" font-size="11.9" fill="#5C5C5C" transform="matrix(1.00, 0.00, -0.00, -1.00, 75.3, 4.7)">,</text><text xml:space="preserve" font-family="ProximaNova-Light" font-size="11.9" fill="#5C5C5C" transform="matrix(1.00, 0.00, -0.00, -1.00, 77.9, 4.7)"> </text><text xml:space="preserve" font-family="ProximaNova-Bold" font-weight="bold" font-size="11.9" fill="#6CCEAC" transform="matrix(1.00, 0.00, -0.00, -1.00, 81.0, 4.7)">T</text><text xml:space="preserve" font-family="ProximaNova-Bold" font-weight="bold" font-size="11.9" fill="#6CCEAC" transform="matrix(1.00, 0.00, -0.00, -1.00, 87.9, 4.7)">H</text><text xml:space="preserve" font-family="ProximaNova-Bold" font-weight="bold" font-size="11.9" fill="#6CCEAC" transform="matrix(1.00, 0.00, -0.00, -1.00, 96.6, 4.7)">A</text><text xml:space="preserve" font-family="ProximaNova-Bold" font-weight="bold" font-size="11.9" fill="#6CCEAC" transform="matrix(1.00, 0.00, -0.00, -1.00, 104.7, 4.7)">N</text><text xml:space="preserve" font-family="ProximaNova-Bold" font-weight="bold" font-size="11.9" fill="#6CCEAC" transform="matrix(1.00, 0.00, -0.00, -1.00, 113.4, 4.7)">K</text><text xml:space="preserve" font-family="ProximaNova-Bold" font-weight="bold" font-size="11.9" fill="#6CCEAC" transform="matrix(1.00, 0.00, -0.00, -1.00, 120.9, 4.7)">S</text><text xml:space="preserve" font-family="ProximaNova-Bold" font-weight="bold" font-size="11.9" fill="#6CCEAC" transform="matrix(1.00, 0.00, -0.00, -1.00, 128.1, 4.7)">.</text></g></g></g></g></g></svg>