<?xml version="1.0" encoding="UTF-8" standalone="no"?><svg xmlns="http://www.w3.org/2000/svg" xmlns:xlink="http://www.w3.org/1999/xlink" clip-rule="evenodd" stroke-miterlimit="4.00" viewBox="0 0 224 34"><desc>SVG generated by Keynote</desc><defs></defs><g transform="matrix(1.00, 0.00, -0.00, -1.00, 0.0, 34.0)"><g><clipPath id="clip-6269"><path d="M -18.8 445.7 L 245.3 445.7 L 245.3 -208.6 L -18.8 -208.6 Z M -18.8 445.7 "></path></clipPath><g clip-path="url(#clip-6269)"><g><clipPath id="clip-6270"><path d="M 1.0 34.0 L 109.9 34.0 L 109.9 1.0 L 1.0 1.0 L 1.0 34.0 Z M 1.0 34.0 "></path></clipPath><g clip-path="url(#clip-6270)"><g><clipPath id="clip-6271"><path d="M 1.0 1.0 L 223.0 1.0 L 223.0 33.9 L 1.0 33.9 Z M 1.0 1.0 "></path></clipPath><g clip-path="url(#clip-6271)"><path d="M -3.1 38.1 L 114.1 38.1 L 114.1 -3.1 L -3.1 -3.1 Z M -3.1 38.1 " fill="#D7D7D7"></path></g></g></g></g></g></g><g><clipPath id="clip-6272"><path d="M -18.8 445.7 L 245.3 445.7 L 245.3 -208.6 L -18.8 -208.6 Z M -18.8 445.7 "></path></clipPath><g clip-path="url(#clip-6272)"><g><clipPath id="clip-6273"><path d="M 113.7 34.0 L 222.6 34.0 L 222.6 1.0 L 113.7 1.0 L 113.7 34.0 Z M 113.7 34.0 "></path></clipPath><g clip-path="url(#clip-6273)"><g><clipPath id="clip-6274"><path d="M 1.0 1.0 L 223.0 1.0 L 223.0 33.9 L 1.0 33.9 Z M 1.0 1.0 "></path></clipPath><g clip-path="url(#clip-6274)"><path d="M 109.5 38.1 L 226.7 38.1 L 226.7 -3.1 L 109.5 -3.1 Z M 109.5 38.1 " fill="#D7D7D7"></path></g></g></g></g></g></g><g><clipPath id="clip-6275"><path d="M -18.8 445.7 L 245.3 445.7 L 245.3 -208.6 L -18.8 -208.6 Z M -18.8 445.7 "></path></clipPath><g clip-path="url(#clip-6275)"><g><clipPath id="clip-6276"><path d="M 1.0 1.0 L 223.0 1.0 L 223.0 33.9 L 1.0 33.9 Z M 1.0 1.0 "></path></clipPath><g clip-path="url(#clip-6276)"><text xml:space="preserve" font-family="ProximaNova-Bold" font-weight="bold" font-size="11.9" fill="#ABABAB" transform="matrix(0.83, 0.00, -0.00, -0.83, 40.3, 14.2)">S</text><text xml:space="preserve" font-family="ProximaNova-Bold" font-weight="bold" font-size="11.9" fill="#ABABAB" transform="matrix(0.83, 0.00, -0.00, -0.83, 48.1, 14.2)">A</text><text xml:space="preserve" font-family="ProximaNova-Bold" font-weight="bold" font-size="11.9" fill="#ABABAB" transform="matrix(0.83, 0.00, -0.00, -0.83, 56.5, 14.2)">V</text><text xml:space="preserve" font-family="ProximaNova-Bold" font-weight="bold" font-size="11.9" fill="#ABABAB" transform="matrix(0.83, 0.00, -0.00, -0.83, 65.3, 14.2)">E</text><text xml:space="preserve" font-family="ProximaNova-Bold" font-weight="bold" font-size="11.9" fill="#D4D4D4" transform="matrix(0.83, 0.00, -0.00, -0.83, 142.0, 14.2)">P</text><text xml:space="preserve" font-family="ProximaNova-Bold" font-weight="bold" font-size="11.9" fill="#D4D4D4" transform="matrix(0.83, 0.00, -0.00, -0.83, 150.3, 14.2)">U</text><text xml:space="preserve" font-family="ProximaNova-Bold" font-weight="bold" font-size="11.9" fill="#D4D4D4" transform="matrix(0.83, 0.00, -0.00, -0.83, 159.6, 14.2)">B</text><text xml:space="preserve" font-family="ProximaNova-Bold" font-weight="bold" font-size="11.9" fill="#D4D4D4" transform="matrix(0.83, 0.00, -0.00, -0.83, 168.2, 14.2)">L</text><text xml:space="preserve" font-family="ProximaNova-Bold" font-weight="bold" font-size="11.9" fill="#D4D4D4" transform="matrix(0.83, 0.00, -0.00, -0.83, 175.4, 14.2)">I</text><text xml:space="preserve" font-family="ProximaNova-Bold" font-weight="bold" font-size="11.9" fill="#D4D4D4" transform="matrix(0.83, 0.00, -0.00, -0.83, 180.2, 14.2)">S</text><text xml:space="preserve" font-family="ProximaNova-Bold" font-weight="bold" font-size="11.9" fill="#D4D4D4" transform="matrix(0.83, 0.00, -0.00, -0.83, 188.2, 14.2)">H</text></g></g></g></g><g><clipPath id="clip-6277"><path d="M 167.4 4.9 L 222.0 4.9 L 222.0 25.9 L 167.4 25.9 Z M 167.4 4.9 "></path></clipPath><g clip-path="url(#clip-6277)"><text xml:space="preserve" font-family="ProximaNova-Bold" font-weight="bold" font-size="11.0" fill="#52575F" transform="matrix(1.00, 0.00, -0.00, -1.00, 171.0, 12.0)">P</text><text xml:space="preserve" font-family="ProximaNova-Bold" font-weight="bold" font-size="11.0" fill="#52575F" transform="matrix(1.00, 0.00, -0.00, -1.00, 177.9, 12.0)">U</text><text xml:space="preserve" font-family="ProximaNova-Bold" font-weight="bold" font-size="11.0" fill="#52575F" transform="matrix(1.00, 0.00, -0.00, -1.00, 185.9, 12.0)">B</text><text xml:space="preserve" font-family="ProximaNova-Bold" font-weight="bold" font-size="11.0" fill="#52575F" transform="matrix(1.00, 0.00, -0.00, -1.00, 193.2, 12.0)">L</text><text xml:space="preserve" font-family="ProximaNova-Bold" font-weight="bold" font-size="11.0" fill="#52575F" transform="matrix(1.00, 0.00, -0.00, -1.00, 199.0, 12.0)">I</text><text xml:space="preserve" font-family="ProximaNova-Bold" font-weight="bold" font-size="11.0" fill="#52575F" transform="matrix(1.00, 0.00, -0.00, -1.00, 202.0, 12.0)">S</text><text xml:space="preserve" font-family="ProximaNova-Bold" font-weight="bold" font-size="11.0" fill="#52575F" transform="matrix(1.00, 0.00, -0.00, -1.00, 208.6, 12.0)">H</text></g></g></g></svg>