<?xml version="1.0" encoding="UTF-8" standalone="no"?><svg xmlns="http://www.w3.org/2000/svg" xmlns:xlink="http://www.w3.org/1999/xlink" clip-rule="evenodd" stroke-miterlimit="4.00" viewBox="0 0 364 79"><desc>SVG generated by Keynote</desc><defs></defs><g transform="matrix(1.00, 0.00, -0.00, -1.00, 0.0, 79.0)"><text xml:space="preserve" font-family="LeagueGothic-Regular" font-size="80.0" fill="#FEFFFE" transform="matrix(1.00, 0.00, -0.00, -1.00, -2.0, 17.0)">U</text><text xml:space="preserve" font-family="LeagueGothic-Regular" font-size="80.0" fill="#FEFFFE" transform="matrix(1.00, 0.00, -0.00, -1.00, 27.3, 17.0)">s</text><text xml:space="preserve" font-family="LeagueGothic-Regular" font-size="80.0" fill="#FEFFFE" transform="matrix(1.00, 0.00, -0.00, -1.00, 51.9, 17.0)">e</text><text xml:space="preserve" font-family="LeagueGothic-Regular" font-size="80.0" fill="#FEFFFE" transform="matrix(1.00, 0.00, -0.00, -1.00, 77.5, 17.0)">r</text><text xml:space="preserve" font-family="LeagueGothic-Regular" font-size="80.0" fill="#FEFFFE" transform="matrix(1.00, 0.00, -0.00, -1.00, 97.2, 17.0)"> </text><text xml:space="preserve" font-family="LeagueGothic-Regular" font-size="80.0" fill="#FEFFFE" transform="matrix(1.00, 0.00, -0.00, -1.00, 109.5, 17.0)">O</text><text xml:space="preserve" font-family="LeagueGothic-Regular" font-size="80.0" fill="#FEFFFE" transform="matrix(1.00, 0.00, -0.00, -1.00, 137.8, 17.0)">n</text><text xml:space="preserve" font-family="LeagueGothic-Regular" font-size="80.0" fill="#FEFFFE" transform="matrix(1.00, 0.00, -0.00, -1.00, 164.8, 17.0)">B</text><text xml:space="preserve" font-family="LeagueGothic-Regular" font-size="80.0" fill="#FEFFFE" transform="matrix(1.00, 0.00, -0.00, -1.00, 193.9, 17.0)">o</text><text xml:space="preserve" font-family="LeagueGothic-Regular" font-size="80.0" fill="#FEFFFE" transform="matrix(1.00, 0.00, -0.00, -1.00, 219.2, 17.0)">a</text><text xml:space="preserve" font-family="LeagueGothic-Regular" font-size="80.0" fill="#FEFFFE" transform="matrix(1.00, 0.00, -0.00, -1.00, 244.8, 17.0)">r</text><text xml:space="preserve" font-family="LeagueGothic-Regular" font-size="80.0" fill="#FEFFFE" transform="matrix(1.00, 0.00, -0.00, -1.00, 264.5, 17.0)">d</text><text xml:space="preserve" font-family="LeagueGothic-Regular" font-size="80.0" fill="#FEFFFE" transform="matrix(1.00, 0.00, -0.00, -1.00, 291.3, 17.0)">i</text><text xml:space="preserve" font-family="LeagueGothic-Regular" font-size="80.0" fill="#FEFFFE" transform="matrix(1.00, 0.00, -0.00, -1.00, 305.8, 17.0)">n</text><text xml:space="preserve" font-family="LeagueGothic-Regular" font-size="80.0" fill="#FEFFFE" transform="matrix(1.00, 0.00, -0.00, -1.00, 332.7, 17.0)">g</text></g></svg>