<?xml version="1.0" encoding="UTF-8" standalone="no"?><svg xmlns="http://www.w3.org/2000/svg" xmlns:xlink="http://www.w3.org/1999/xlink" clip-rule="evenodd" stroke-miterlimit="4.00" viewBox="0 0 804 36"><desc>SVG generated by Keynote</desc><defs></defs><g transform="matrix(1.00, 0.00, -0.00, -1.00, 0.0, 36.0)"><text xml:space="preserve" font-family="ProximaNova-Light" font-size="27.0" fill="#FEFFFE" transform="matrix(1.00, 0.00, -0.00, -1.00, 0.0, 10.5)">•</text><text xml:space="preserve" font-family="ProximaNova-Light" font-size="36.0" fill="#FEFFFE" transform="matrix(1.00, 0.00, -0.00, -1.00, 35.0, 8.0)">A</text><text xml:space="preserve" font-family="ProximaNova-Light" font-size="36.0" fill="#FEFFFE" transform="matrix(1.00, 0.00, -0.00, -1.00, 58.3, 8.0)"> </text><text xml:space="preserve" font-family="ProximaNova-Bold" font-weight="bold" font-size="36.0" fill="#FEFFFE" transform="matrix(1.00, 0.00, -0.00, -1.00, 67.6, 8.0)">w</text><text xml:space="preserve" font-family="ProximaNova-Bold" font-weight="bold" font-size="36.0" fill="#FEFFFE" transform="matrix(1.00, 0.00, -0.00, -1.00, 95.3, 8.0)">e</text><text xml:space="preserve" font-family="ProximaNova-Bold" font-weight="bold" font-size="36.0" fill="#FEFFFE" transform="matrix(1.00, 0.00, -0.00, -1.00, 115.2, 8.0)">b</text><text xml:space="preserve" font-family="ProximaNova-Bold" font-weight="bold" font-size="36.0" fill="#FEFFFE" transform="matrix(1.00, 0.00, -0.00, -1.00, 136.3, 8.0)"> </text><text xml:space="preserve" font-family="ProximaNova-Bold" font-weight="bold" font-size="36.0" fill="#FEFFFE" transform="matrix(1.00, 0.00, -0.00, -1.00, 145.5, 8.0)">a</text><text xml:space="preserve" font-family="ProximaNova-Bold" font-weight="bold" font-size="36.0" fill="#FEFFFE" transform="matrix(1.00, 0.00, -0.00, -1.00, 165.1, 8.0)">p</text><text xml:space="preserve" font-family="ProximaNova-Bold" font-weight="bold" font-size="36.0" fill="#FEFFFE" transform="matrix(1.00, 0.00, -0.00, -1.00, 186.1, 8.0)">p</text><text xml:space="preserve" font-family="ProximaNova-Bold" font-weight="bold" font-size="36.0" fill="#FEFFFE" transform="matrix(1.00, 0.00, -0.00, -1.00, 207.0, 8.0)">l</text><text xml:space="preserve" font-family="ProximaNova-Bold" font-weight="bold" font-size="36.0" fill="#FEFFFE" transform="matrix(1.00, 0.00, -0.00, -1.00, 216.2, 8.0)">i</text><text xml:space="preserve" font-family="ProximaNova-Bold" font-weight="bold" font-size="36.0" fill="#FEFFFE" transform="matrix(1.00, 0.00, -0.00, -1.00, 225.3, 8.0)">c</text><text xml:space="preserve" font-family="ProximaNova-Bold" font-weight="bold" font-size="36.0" fill="#FEFFFE" transform="matrix(1.00, 0.00, -0.00, -1.00, 243.2, 8.0)">a</text><text xml:space="preserve" font-family="ProximaNova-Bold" font-weight="bold" font-size="36.0" fill="#FEFFFE" transform="matrix(1.00, 0.00, -0.00, -1.00, 262.8, 8.0)">t</text><text xml:space="preserve" font-family="ProximaNova-Bold" font-weight="bold" font-size="36.0" fill="#FEFFFE" transform="matrix(1.00, 0.00, -0.00, -1.00, 274.9, 8.0)">i</text><text xml:space="preserve" font-family="ProximaNova-Bold" font-weight="bold" font-size="36.0" fill="#FEFFFE" transform="matrix(1.00, 0.00, -0.00, -1.00, 284.0, 8.0)">o</text><text xml:space="preserve" font-family="ProximaNova-Bold" font-weight="bold" font-size="36.0" fill="#FEFFFE" transform="matrix(1.00, 0.00, -0.00, -1.00, 304.7, 8.0)">n</text><text xml:space="preserve" font-family="ProximaNova-Light" font-size="36.0" fill="#FEFFFE" transform="matrix(1.00, 0.00, -0.00, -1.00, 325.6, 8.0)"> </text><text xml:space="preserve" font-family="ProximaNova-Light" font-size="36.0" fill="#FEFFFE" transform="matrix(1.00, 0.00, -0.00, -1.00, 334.9, 8.0)">t</text><text xml:space="preserve" font-family="ProximaNova-Light" font-size="36.0" fill="#FEFFFE" transform="matrix(1.00, 0.00, -0.00, -1.00, 344.8, 8.0)">h</text><text xml:space="preserve" font-family="ProximaNova-Light" font-size="36.0" fill="#FEFFFE" transform="matrix(1.00, 0.00, -0.00, -1.00, 364.2, 8.0)">a</text><text xml:space="preserve" font-family="ProximaNova-Light" font-size="36.0" fill="#FEFFFE" transform="matrix(1.00, 0.00, -0.00, -1.00, 383.0, 8.0)">t</text><text xml:space="preserve" font-family="ProximaNova-Light" font-size="36.0" fill="#FEFFFE" transform="matrix(1.00, 0.00, -0.00, -1.00, 392.9, 8.0)"> </text><text xml:space="preserve" font-family="ProximaNova-Light" font-size="36.0" fill="#FEFFFE" transform="matrix(1.00, 0.00, -0.00, -1.00, 402.2, 8.0)">p</text><text xml:space="preserve" font-family="ProximaNova-Light" font-size="36.0" fill="#FEFFFE" transform="matrix(1.00, 0.00, -0.00, -1.00, 422.6, 8.0)">r</text><text xml:space="preserve" font-family="ProximaNova-Light" font-size="36.0" fill="#FEFFFE" transform="matrix(1.00, 0.00, -0.00, -1.00, 434.0, 8.0)">o</text><text xml:space="preserve" font-family="ProximaNova-Light" font-size="36.0" fill="#FEFFFE" transform="matrix(1.00, 0.00, -0.00, -1.00, 454.6, 8.0)">m</text><text xml:space="preserve" font-family="ProximaNova-Light" font-size="36.0" fill="#FEFFFE" transform="matrix(1.00, 0.00, -0.00, -1.00, 483.0, 8.0)">o</text><text xml:space="preserve" font-family="ProximaNova-Light" font-size="36.0" fill="#FEFFFE" transform="matrix(1.00, 0.00, -0.00, -1.00, 503.5, 8.0)">t</text><text xml:space="preserve" font-family="ProximaNova-Light" font-size="36.0" fill="#FEFFFE" transform="matrix(1.00, 0.00, -0.00, -1.00, 513.4, 8.0)">e</text><text xml:space="preserve" font-family="ProximaNova-Light" font-size="36.0" fill="#FEFFFE" transform="matrix(1.00, 0.00, -0.00, -1.00, 533.9, 8.0)">s</text><text xml:space="preserve" font-family="ProximaNova-Light" font-size="36.0" fill="#FEFFFE" transform="matrix(1.00, 0.00, -0.00, -1.00, 550.4, 8.0)"> </text><text xml:space="preserve" font-family="ProximaNova-Light" font-size="36.0" fill="#FEFFFE" transform="matrix(1.00, 0.00, -0.00, -1.00, 559.7, 8.0)">c</text><text xml:space="preserve" font-family="ProximaNova-Light" font-size="36.0" fill="#FEFFFE" transform="matrix(1.00, 0.00, -0.00, -1.00, 577.5, 8.0)">o</text><text xml:space="preserve" font-family="ProximaNova-Light" font-size="36.0" fill="#FEFFFE" transform="matrix(1.00, 0.00, -0.00, -1.00, 598.0, 8.0)">m</text><text xml:space="preserve" font-family="ProximaNova-Light" font-size="36.0" fill="#FEFFFE" transform="matrix(1.00, 0.00, -0.00, -1.00, 626.4, 8.0)">m</text><text xml:space="preserve" font-family="ProximaNova-Light" font-size="36.0" fill="#FEFFFE" transform="matrix(1.00, 0.00, -0.00, -1.00, 654.8, 8.0)">u</text><text xml:space="preserve" font-family="ProximaNova-Light" font-size="36.0" fill="#FEFFFE" transform="matrix(1.00, 0.00, -0.00, -1.00, 674.3, 8.0)">n</text><text xml:space="preserve" font-family="ProximaNova-Light" font-size="36.0" fill="#FEFFFE" transform="matrix(1.00, 0.00, -0.00, -1.00, 693.7, 8.0)">i</text><text xml:space="preserve" font-family="ProximaNova-Light" font-size="36.0" fill="#FEFFFE" transform="matrix(1.00, 0.00, -0.00, -1.00, 701.4, 8.0)">c</text><text xml:space="preserve" font-family="ProximaNova-Light" font-size="36.0" fill="#FEFFFE" transform="matrix(1.00, 0.00, -0.00, -1.00, 719.2, 8.0)">a</text><text xml:space="preserve" font-family="ProximaNova-Light" font-size="36.0" fill="#FEFFFE" transform="matrix(1.00, 0.00, -0.00, -1.00, 738.0, 8.0)">t</text><text xml:space="preserve" font-family="ProximaNova-Light" font-size="36.0" fill="#FEFFFE" transform="matrix(1.00, 0.00, -0.00, -1.00, 747.9, 8.0)">i</text><text xml:space="preserve" font-family="ProximaNova-Light" font-size="36.0" fill="#FEFFFE" transform="matrix(1.00, 0.00, -0.00, -1.00, 755.6, 8.0)">o</text><text xml:space="preserve" font-family="ProximaNova-Light" font-size="36.0" fill="#FEFFFE" transform="matrix(1.00, 0.00, -0.00, -1.00, 776.1, 8.0)">n</text><text xml:space="preserve" font-family="ProximaNova-Light" font-size="36.0" fill="#FEFFFE" transform="matrix(1.00, 0.00, -0.00, -1.00, 795.6, 8.0)">.</text></g></svg>