<?xml version="1.0" encoding="UTF-8" standalone="no"?><svg xmlns="http://www.w3.org/2000/svg" xmlns:xlink="http://www.w3.org/1999/xlink" clip-rule="evenodd" stroke-miterlimit="4.00" viewBox="0 0 807 118"><desc>SVG generated by Keynote</desc><defs></defs><g transform="matrix(1.00, 0.00, -0.00, -1.00, 0.0, 118.0)"><text xml:space="preserve" font-family="ProximaNova-Light" font-size="27.0" fill="#FEFFFE" transform="matrix(1.00, 0.00, -0.00, -1.00, 0.0, 92.5)">•</text><text xml:space="preserve" font-family="ProximaNova-Light" font-size="36.0" fill="#FEFFFE" transform="matrix(1.00, 0.00, -0.00, -1.00, 35.0, 90.0)">A</text><text xml:space="preserve" font-family="ProximaNova-Light" font-size="36.0" fill="#FEFFFE" transform="matrix(1.00, 0.00, -0.00, -1.00, 58.3, 90.0)">n</text><text xml:space="preserve" font-family="ProximaNova-Light" font-size="36.0" fill="#FEFFFE" transform="matrix(1.00, 0.00, -0.00, -1.00, 77.7, 90.0)"> </text><text xml:space="preserve" font-family="ProximaNova-Bold" font-weight="bold" font-size="36.0" fill="#FEFFFE" transform="matrix(1.00, 0.00, -0.00, -1.00, 87.1, 90.0)">e</text><text xml:space="preserve" font-family="ProximaNova-Bold" font-weight="bold" font-size="36.0" fill="#FEFFFE" transform="matrix(1.00, 0.00, -0.00, -1.00, 107.0, 90.0)">c</text><text xml:space="preserve" font-family="ProximaNova-Bold" font-weight="bold" font-size="36.0" fill="#FEFFFE" transform="matrix(1.00, 0.00, -0.00, -1.00, 124.9, 90.0)">o</text><text xml:space="preserve" font-family="ProximaNova-Bold" font-weight="bold" font-size="36.0" fill="#FEFFFE" transform="matrix(1.00, 0.00, -0.00, -1.00, 145.6, 90.0)">s</text><text xml:space="preserve" font-family="ProximaNova-Bold" font-weight="bold" font-size="36.0" fill="#FEFFFE" transform="matrix(1.00, 0.00, -0.00, -1.00, 162.8, 90.0)">y</text><text xml:space="preserve" font-family="ProximaNova-Bold" font-weight="bold" font-size="36.0" fill="#FEFFFE" transform="matrix(1.00, 0.00, -0.00, -1.00, 181.2, 90.0)">s</text><text xml:space="preserve" font-family="ProximaNova-Bold" font-weight="bold" font-size="36.0" fill="#FEFFFE" transform="matrix(1.00, 0.00, -0.00, -1.00, 198.4, 90.0)">t</text><text xml:space="preserve" font-family="ProximaNova-Bold" font-weight="bold" font-size="36.0" fill="#FEFFFE" transform="matrix(1.00, 0.00, -0.00, -1.00, 210.6, 90.0)">e</text><text xml:space="preserve" font-family="ProximaNova-Bold" font-weight="bold" font-size="36.0" fill="#FEFFFE" transform="matrix(1.00, 0.00, -0.00, -1.00, 230.5, 90.0)">m</text><text xml:space="preserve" font-family="ProximaNova-Light" font-size="36.0" fill="#FEFFFE" transform="matrix(1.00, 0.00, -0.00, -1.00, 261.2, 90.0)"> </text><text xml:space="preserve" font-family="ProximaNova-Light" font-size="36.0" fill="#FEFFFE" transform="matrix(1.00, 0.00, -0.00, -1.00, 270.5, 90.0)">f</text><text xml:space="preserve" font-family="ProximaNova-Light" font-size="36.0" fill="#FEFFFE" transform="matrix(1.00, 0.00, -0.00, -1.00, 280.0, 90.0)">o</text><text xml:space="preserve" font-family="ProximaNova-Light" font-size="36.0" fill="#FEFFFE" transform="matrix(1.00, 0.00, -0.00, -1.00, 300.6, 90.0)">r</text><text xml:space="preserve" font-family="ProximaNova-Light" font-size="36.0" fill="#FEFFFE" transform="matrix(1.00, 0.00, -0.00, -1.00, 312.0, 90.0)"> </text><text xml:space="preserve" font-family="ProximaNova-Light" font-size="36.0" fill="#FEFFFE" transform="matrix(1.00, 0.00, -0.00, -1.00, 321.3, 90.0)">j</text><text xml:space="preserve" font-family="ProximaNova-Light" font-size="36.0" fill="#FEFFFE" transform="matrix(1.00, 0.00, -0.00, -1.00, 329.0, 90.0)">o</text><text xml:space="preserve" font-family="ProximaNova-Light" font-size="36.0" fill="#FEFFFE" transform="matrix(1.00, 0.00, -0.00, -1.00, 349.6, 90.0)">b</text><text xml:space="preserve" font-family="ProximaNova-Light" font-size="36.0" fill="#FEFFFE" transform="matrix(1.00, 0.00, -0.00, -1.00, 370.1, 90.0)"> </text><text xml:space="preserve" font-family="ProximaNova-Light" font-size="36.0" fill="#FEFFFE" transform="matrix(1.00, 0.00, -0.00, -1.00, 379.4, 90.0)">p</text><text xml:space="preserve" font-family="ProximaNova-Light" font-size="36.0" fill="#FEFFFE" transform="matrix(1.00, 0.00, -0.00, -1.00, 399.9, 90.0)">r</text><text xml:space="preserve" font-family="ProximaNova-Light" font-size="36.0" fill="#FEFFFE" transform="matrix(1.00, 0.00, -0.00, -1.00, 411.3, 90.0)">o</text><text xml:space="preserve" font-family="ProximaNova-Light" font-size="36.0" fill="#FEFFFE" transform="matrix(1.00, 0.00, -0.00, -1.00, 431.8, 90.0)">v</text><text xml:space="preserve" font-family="ProximaNova-Light" font-size="36.0" fill="#FEFFFE" transform="matrix(1.00, 0.00, -0.00, -1.00, 449.1, 90.0)">i</text><text xml:space="preserve" font-family="ProximaNova-Light" font-size="36.0" fill="#FEFFFE" transform="matrix(1.00, 0.00, -0.00, -1.00, 456.8, 90.0)">d</text><text xml:space="preserve" font-family="ProximaNova-Light" font-size="36.0" fill="#FEFFFE" transform="matrix(1.00, 0.00, -0.00, -1.00, 477.4, 90.0)">e</text><text xml:space="preserve" font-family="ProximaNova-Light" font-size="36.0" fill="#FEFFFE" transform="matrix(1.00, 0.00, -0.00, -1.00, 497.8, 90.0)">r</text><text xml:space="preserve" font-family="ProximaNova-Light" font-size="36.0" fill="#FEFFFE" transform="matrix(1.00, 0.00, -0.00, -1.00, 509.2, 90.0)">s</text><text xml:space="preserve" font-family="ProximaNova-Light" font-size="36.0" fill="#FEFFFE" transform="matrix(1.00, 0.00, -0.00, -1.00, 525.8, 90.0)">,</text><text xml:space="preserve" font-family="ProximaNova-Light" font-size="36.0" fill="#FEFFFE" transform="matrix(1.00, 0.00, -0.00, -1.00, 533.6, 90.0)"> </text><text xml:space="preserve" font-family="ProximaNova-Light" font-size="36.0" fill="#FEFFFE" transform="matrix(1.00, 0.00, -0.00, -1.00, 543.0, 90.0)">j</text><text xml:space="preserve" font-family="ProximaNova-Light" font-size="36.0" fill="#FEFFFE" transform="matrix(1.00, 0.00, -0.00, -1.00, 550.7, 90.0)">o</text><text xml:space="preserve" font-family="ProximaNova-Light" font-size="36.0" fill="#FEFFFE" transform="matrix(1.00, 0.00, -0.00, -1.00, 571.2, 90.0)">b</text><text xml:space="preserve" font-family="ProximaNova-Light" font-size="36.0" fill="#FEFFFE" transform="matrix(1.00, 0.00, -0.00, -1.00, 591.8, 90.0)"> </text><text xml:space="preserve" font-family="ProximaNova-Light" font-size="36.0" fill="#FEFFFE" transform="matrix(1.00, 0.00, -0.00, -1.00, 601.1, 90.0)">s</text><text xml:space="preserve" font-family="ProximaNova-Light" font-size="36.0" fill="#FEFFFE" transform="matrix(1.00, 0.00, -0.00, -1.00, 617.6, 90.0)">e</text><text xml:space="preserve" font-family="ProximaNova-Light" font-size="36.0" fill="#FEFFFE" transform="matrix(1.00, 0.00, -0.00, -1.00, 638.0, 90.0)">e</text><text xml:space="preserve" font-family="ProximaNova-Light" font-size="36.0" fill="#FEFFFE" transform="matrix(1.00, 0.00, -0.00, -1.00, 658.4, 90.0)">k</text><text xml:space="preserve" font-family="ProximaNova-Light" font-size="36.0" fill="#FEFFFE" transform="matrix(1.00, 0.00, -0.00, -1.00, 676.6, 90.0)">e</text><text xml:space="preserve" font-family="ProximaNova-Light" font-size="36.0" fill="#FEFFFE" transform="matrix(1.00, 0.00, -0.00, -1.00, 697.0, 90.0)">r</text><text xml:space="preserve" font-family="ProximaNova-Light" font-size="36.0" fill="#FEFFFE" transform="matrix(1.00, 0.00, -0.00, -1.00, 708.4, 90.0)">s</text><text xml:space="preserve" font-family="ProximaNova-Light" font-size="36.0" fill="#FEFFFE" transform="matrix(1.00, 0.00, -0.00, -1.00, 724.9, 90.0)"> </text><text xml:space="preserve" font-family="ProximaNova-Light" font-size="36.0" fill="#FEFFFE" transform="matrix(1.00, 0.00, -0.00, -1.00, 734.3, 90.0)">a</text><text xml:space="preserve" font-family="ProximaNova-Light" font-size="36.0" fill="#FEFFFE" transform="matrix(1.00, 0.00, -0.00, -1.00, 753.0, 90.0)">n</text><text xml:space="preserve" font-family="ProximaNova-Light" font-size="36.0" fill="#FEFFFE" transform="matrix(1.00, 0.00, -0.00, -1.00, 772.5, 90.0)">d</text><text xml:space="preserve" font-family="ProximaNova-Light" font-size="36.0" fill="#FEFFFE" transform="matrix(1.00, 0.00, -0.00, -1.00, 793.0, 90.0)"> </text><text xml:space="preserve" font-family="ProximaNova-Light" font-size="36.0" fill="#FEFFFE" transform="matrix(1.00, 0.00, -0.00, -1.00, 35.0, 46.0)">s</text><text xml:space="preserve" font-family="ProximaNova-Light" font-size="36.0" fill="#FEFFFE" transform="matrix(1.00, 0.00, -0.00, -1.00, 51.5, 46.0)">p</text><text xml:space="preserve" font-family="ProximaNova-Light" font-size="36.0" fill="#FEFFFE" transform="matrix(1.00, 0.00, -0.00, -1.00, 71.9, 46.0)">o</text><text xml:space="preserve" font-family="ProximaNova-Light" font-size="36.0" fill="#FEFFFE" transform="matrix(1.00, 0.00, -0.00, -1.00, 92.5, 46.0)">n</text><text xml:space="preserve" font-family="ProximaNova-Light" font-size="36.0" fill="#FEFFFE" transform="matrix(1.00, 0.00, -0.00, -1.00, 111.9, 46.0)">s</text><text xml:space="preserve" font-family="ProximaNova-Light" font-size="36.0" fill="#FEFFFE" transform="matrix(1.00, 0.00, -0.00, -1.00, 128.5, 46.0)">o</text><text xml:space="preserve" font-family="ProximaNova-Light" font-size="36.0" fill="#FEFFFE" transform="matrix(1.00, 0.00, -0.00, -1.00, 149.0, 46.0)">r</text><text xml:space="preserve" font-family="ProximaNova-Light" font-size="36.0" fill="#FEFFFE" transform="matrix(1.00, 0.00, -0.00, -1.00, 160.4, 46.0)">s</text><text xml:space="preserve" font-family="ProximaNova-Light" font-size="36.0" fill="#FEFFFE" transform="matrix(1.00, 0.00, -0.00, -1.00, 176.9, 46.0)"> </text><text xml:space="preserve" font-family="ProximaNova-Light" font-size="36.0" fill="#FEFFFE" transform="matrix(1.00, 0.00, -0.00, -1.00, 186.3, 46.0)">t</text><text xml:space="preserve" font-family="ProximaNova-Light" font-size="36.0" fill="#FEFFFE" transform="matrix(1.00, 0.00, -0.00, -1.00, 196.2, 46.0)">o</text><text xml:space="preserve" font-family="ProximaNova-Light" font-size="36.0" fill="#FEFFFE" transform="matrix(1.00, 0.00, -0.00, -1.00, 216.7, 46.0)"> </text><text xml:space="preserve" font-family="ProximaNova-Light" font-size="36.0" fill="#FEFFFE" transform="matrix(1.00, 0.00, -0.00, -1.00, 226.1, 46.0)">ﬁ</text><text xml:space="preserve" font-family="ProximaNova-Light" font-size="36.0" fill="#FEFFFE" transform="matrix(1.00, 0.00, -0.00, -1.00, 243.3, 46.0)">n</text><text xml:space="preserve" font-family="ProximaNova-Light" font-size="36.0" fill="#FEFFFE" transform="matrix(1.00, 0.00, -0.00, -1.00, 262.7, 46.0)">d</text><text xml:space="preserve" font-family="ProximaNova-Light" font-size="36.0" fill="#FEFFFE" transform="matrix(1.00, 0.00, -0.00, -1.00, 283.3, 46.0)"> </text><text xml:space="preserve" font-family="ProximaNova-Light" font-size="36.0" fill="#FEFFFE" transform="matrix(1.00, 0.00, -0.00, -1.00, 292.6, 46.0)">q</text><text xml:space="preserve" font-family="ProximaNova-Light" font-size="36.0" fill="#FEFFFE" transform="matrix(1.00, 0.00, -0.00, -1.00, 313.0, 46.0)">u</text><text xml:space="preserve" font-family="ProximaNova-Light" font-size="36.0" fill="#FEFFFE" transform="matrix(1.00, 0.00, -0.00, -1.00, 332.4, 46.0)">a</text><text xml:space="preserve" font-family="ProximaNova-Light" font-size="36.0" fill="#FEFFFE" transform="matrix(1.00, 0.00, -0.00, -1.00, 351.2, 46.0)">l</text><text xml:space="preserve" font-family="ProximaNova-Light" font-size="36.0" fill="#FEFFFE" transform="matrix(1.00, 0.00, -0.00, -1.00, 358.9, 46.0)">i</text><text xml:space="preserve" font-family="ProximaNova-Light" font-size="36.0" fill="#FEFFFE" transform="matrix(1.00, 0.00, -0.00, -1.00, 366.6, 46.0)">ﬁ</text><text xml:space="preserve" font-family="ProximaNova-Light" font-size="36.0" fill="#FEFFFE" transform="matrix(1.00, 0.00, -0.00, -1.00, 383.8, 46.0)">e</text><text xml:space="preserve" font-family="ProximaNova-Light" font-size="36.0" fill="#FEFFFE" transform="matrix(1.00, 0.00, -0.00, -1.00, 404.2, 46.0)">d</text><text xml:space="preserve" font-family="ProximaNova-Light" font-size="36.0" fill="#FEFFFE" transform="matrix(1.00, 0.00, -0.00, -1.00, 424.8, 46.0)"> </text><text xml:space="preserve" font-family="ProximaNova-Light" font-size="36.0" fill="#FEFFFE" transform="matrix(1.00, 0.00, -0.00, -1.00, 434.1, 46.0)">a</text><text xml:space="preserve" font-family="ProximaNova-Light" font-size="36.0" fill="#FEFFFE" transform="matrix(1.00, 0.00, -0.00, -1.00, 452.9, 46.0)">n</text><text xml:space="preserve" font-family="ProximaNova-Light" font-size="36.0" fill="#FEFFFE" transform="matrix(1.00, 0.00, -0.00, -1.00, 472.3, 46.0)">d</text><text xml:space="preserve" font-family="ProximaNova-Light" font-size="36.0" fill="#FEFFFE" transform="matrix(1.00, 0.00, -0.00, -1.00, 492.8, 46.0)"> </text><text xml:space="preserve" font-family="ProximaNova-Light" font-size="36.0" fill="#FEFFFE" transform="matrix(1.00, 0.00, -0.00, -1.00, 502.2, 46.0)">e</text><text xml:space="preserve" font-family="ProximaNova-Light" font-size="36.0" fill="#FEFFFE" transform="matrix(1.00, 0.00, -0.00, -1.00, 522.6, 46.0)">x</text><text xml:space="preserve" font-family="ProximaNova-Light" font-size="36.0" fill="#FEFFFE" transform="matrix(1.00, 0.00, -0.00, -1.00, 539.8, 46.0)">p</text><text xml:space="preserve" font-family="ProximaNova-Light" font-size="36.0" fill="#FEFFFE" transform="matrix(1.00, 0.00, -0.00, -1.00, 560.2, 46.0)">e</text><text xml:space="preserve" font-family="ProximaNova-Light" font-size="36.0" fill="#FEFFFE" transform="matrix(1.00, 0.00, -0.00, -1.00, 580.7, 46.0)">r</text><text xml:space="preserve" font-family="ProximaNova-Light" font-size="36.0" fill="#FEFFFE" transform="matrix(1.00, 0.00, -0.00, -1.00, 592.1, 46.0)">i</text><text xml:space="preserve" font-family="ProximaNova-Light" font-size="36.0" fill="#FEFFFE" transform="matrix(1.00, 0.00, -0.00, -1.00, 599.8, 46.0)">e</text><text xml:space="preserve" font-family="ProximaNova-Light" font-size="36.0" fill="#FEFFFE" transform="matrix(1.00, 0.00, -0.00, -1.00, 620.2, 46.0)">n</text><text xml:space="preserve" font-family="ProximaNova-Light" font-size="36.0" fill="#FEFFFE" transform="matrix(1.00, 0.00, -0.00, -1.00, 639.6, 46.0)">c</text><text xml:space="preserve" font-family="ProximaNova-Light" font-size="36.0" fill="#FEFFFE" transform="matrix(1.00, 0.00, -0.00, -1.00, 657.4, 46.0)">e</text><text xml:space="preserve" font-family="ProximaNova-Light" font-size="36.0" fill="#FEFFFE" transform="matrix(1.00, 0.00, -0.00, -1.00, 677.8, 46.0)">d</text><text xml:space="preserve" font-family="ProximaNova-Light" font-size="36.0" fill="#FEFFFE" transform="matrix(1.00, 0.00, -0.00, -1.00, 698.4, 46.0)"> </text><text xml:space="preserve" font-family="ProximaNova-Light" font-size="36.0" fill="#FEFFFE" transform="matrix(1.00, 0.00, -0.00, -1.00, 35.0, 2.0)">c</text><text xml:space="preserve" font-family="ProximaNova-Light" font-size="36.0" fill="#FEFFFE" transform="matrix(1.00, 0.00, -0.00, -1.00, 52.8, 2.0)">a</text><text xml:space="preserve" font-family="ProximaNova-Light" font-size="36.0" fill="#FEFFFE" transform="matrix(1.00, 0.00, -0.00, -1.00, 71.5, 2.0)">n</text><text xml:space="preserve" font-family="ProximaNova-Light" font-size="36.0" fill="#FEFFFE" transform="matrix(1.00, 0.00, -0.00, -1.00, 91.0, 2.0)">d</text><text xml:space="preserve" font-family="ProximaNova-Light" font-size="36.0" fill="#FEFFFE" transform="matrix(1.00, 0.00, -0.00, -1.00, 111.5, 2.0)">i</text><text xml:space="preserve" font-family="ProximaNova-Light" font-size="36.0" fill="#FEFFFE" transform="matrix(1.00, 0.00, -0.00, -1.00, 119.2, 2.0)">d</text><text xml:space="preserve" font-family="ProximaNova-Light" font-size="36.0" fill="#FEFFFE" transform="matrix(1.00, 0.00, -0.00, -1.00, 139.8, 2.0)">a</text><text xml:space="preserve" font-family="ProximaNova-Light" font-size="36.0" fill="#FEFFFE" transform="matrix(1.00, 0.00, -0.00, -1.00, 158.6, 2.0)">t</text><text xml:space="preserve" font-family="ProximaNova-Light" font-size="36.0" fill="#FEFFFE" transform="matrix(1.00, 0.00, -0.00, -1.00, 168.5, 2.0)">e</text><text xml:space="preserve" font-family="ProximaNova-Light" font-size="36.0" fill="#FEFFFE" transform="matrix(1.00, 0.00, -0.00, -1.00, 188.9, 2.0)">s</text><text xml:space="preserve" font-family="ProximaNova-Light" font-size="36.0" fill="#FEFFFE" transform="matrix(1.00, 0.00, -0.00, -1.00, 205.4, 2.0)"> </text><text xml:space="preserve" font-family="ProximaNova-Light" font-size="36.0" fill="#FEFFFE" transform="matrix(1.00, 0.00, -0.00, -1.00, 214.7, 2.0)">a</text><text xml:space="preserve" font-family="ProximaNova-Light" font-size="36.0" fill="#FEFFFE" transform="matrix(1.00, 0.00, -0.00, -1.00, 233.5, 2.0)">n</text><text xml:space="preserve" font-family="ProximaNova-Light" font-size="36.0" fill="#FEFFFE" transform="matrix(1.00, 0.00, -0.00, -1.00, 252.9, 2.0)">d</text><text xml:space="preserve" font-family="ProximaNova-Light" font-size="36.0" fill="#FEFFFE" transform="matrix(1.00, 0.00, -0.00, -1.00, 273.5, 2.0)"> </text><text xml:space="preserve" font-family="ProximaNova-Light" font-size="36.0" fill="#FEFFFE" transform="matrix(1.00, 0.00, -0.00, -1.00, 282.8, 2.0)">e</text><text xml:space="preserve" font-family="ProximaNova-Light" font-size="36.0" fill="#FEFFFE" transform="matrix(1.00, 0.00, -0.00, -1.00, 303.2, 2.0)">a</text><text xml:space="preserve" font-family="ProximaNova-Light" font-size="36.0" fill="#FEFFFE" transform="matrix(1.00, 0.00, -0.00, -1.00, 322.0, 2.0)">s</text><text xml:space="preserve" font-family="ProximaNova-Light" font-size="36.0" fill="#FEFFFE" transform="matrix(1.00, 0.00, -0.00, -1.00, 338.5, 2.0)">e</text><text xml:space="preserve" font-family="ProximaNova-Light" font-size="36.0" fill="#FEFFFE" transform="matrix(1.00, 0.00, -0.00, -1.00, 358.9, 2.0)"> </text><text xml:space="preserve" font-family="ProximaNova-Light" font-size="36.0" fill="#FEFFFE" transform="matrix(1.00, 0.00, -0.00, -1.00, 368.2, 2.0)">t</text><text xml:space="preserve" font-family="ProximaNova-Light" font-size="36.0" fill="#FEFFFE" transform="matrix(1.00, 0.00, -0.00, -1.00, 378.1, 2.0)">r</text><text xml:space="preserve" font-family="ProximaNova-Light" font-size="36.0" fill="#FEFFFE" transform="matrix(1.00, 0.00, -0.00, -1.00, 389.5, 2.0)">a</text><text xml:space="preserve" font-family="ProximaNova-Light" font-size="36.0" fill="#FEFFFE" transform="matrix(1.00, 0.00, -0.00, -1.00, 408.3, 2.0)">n</text><text xml:space="preserve" font-family="ProximaNova-Light" font-size="36.0" fill="#FEFFFE" transform="matrix(1.00, 0.00, -0.00, -1.00, 427.7, 2.0)">s</text><text xml:space="preserve" font-family="ProximaNova-Light" font-size="36.0" fill="#FEFFFE" transform="matrix(1.00, 0.00, -0.00, -1.00, 444.2, 2.0)">i</text><text xml:space="preserve" font-family="ProximaNova-Light" font-size="36.0" fill="#FEFFFE" transform="matrix(1.00, 0.00, -0.00, -1.00, 452.0, 2.0)">t</text><text xml:space="preserve" font-family="ProximaNova-Light" font-size="36.0" fill="#FEFFFE" transform="matrix(1.00, 0.00, -0.00, -1.00, 461.9, 2.0)">i</text><text xml:space="preserve" font-family="ProximaNova-Light" font-size="36.0" fill="#FEFFFE" transform="matrix(1.00, 0.00, -0.00, -1.00, 469.6, 2.0)">o</text><text xml:space="preserve" font-family="ProximaNova-Light" font-size="36.0" fill="#FEFFFE" transform="matrix(1.00, 0.00, -0.00, -1.00, 490.1, 2.0)">n</text><text xml:space="preserve" font-family="ProximaNova-Light" font-size="36.0" fill="#FEFFFE" transform="matrix(1.00, 0.00, -0.00, -1.00, 509.6, 2.0)"> </text><text xml:space="preserve" font-family="ProximaNova-Light" font-size="36.0" fill="#FEFFFE" transform="matrix(1.00, 0.00, -0.00, -1.00, 518.9, 2.0)">i</text><text xml:space="preserve" font-family="ProximaNova-Light" font-size="36.0" fill="#FEFFFE" transform="matrix(1.00, 0.00, -0.00, -1.00, 526.6, 2.0)">n</text><text xml:space="preserve" font-family="ProximaNova-Light" font-size="36.0" fill="#FEFFFE" transform="matrix(1.00, 0.00, -0.00, -1.00, 546.0, 2.0)">t</text><text xml:space="preserve" font-family="ProximaNova-Light" font-size="36.0" fill="#FEFFFE" transform="matrix(1.00, 0.00, -0.00, -1.00, 555.9, 2.0)">o</text><text xml:space="preserve" font-family="ProximaNova-Light" font-size="36.0" fill="#FEFFFE" transform="matrix(1.00, 0.00, -0.00, -1.00, 576.5, 2.0)"> </text><text xml:space="preserve" font-family="ProximaNova-Light" font-size="36.0" fill="#FEFFFE" transform="matrix(1.00, 0.00, -0.00, -1.00, 585.8, 2.0)">t</text><text xml:space="preserve" font-family="ProximaNova-Light" font-size="36.0" fill="#FEFFFE" transform="matrix(1.00, 0.00, -0.00, -1.00, 595.7, 2.0)">h</text><text xml:space="preserve" font-family="ProximaNova-Light" font-size="36.0" fill="#FEFFFE" transform="matrix(1.00, 0.00, -0.00, -1.00, 615.1, 2.0)">e</text><text xml:space="preserve" font-family="ProximaNova-Light" font-size="36.0" fill="#FEFFFE" transform="matrix(1.00, 0.00, -0.00, -1.00, 635.6, 2.0)"> </text><text xml:space="preserve" font-family="ProximaNova-Light" font-size="36.0" fill="#FEFFFE" transform="matrix(1.00, 0.00, -0.00, -1.00, 644.9, 2.0)">w</text><text xml:space="preserve" font-family="ProximaNova-Light" font-size="36.0" fill="#FEFFFE" transform="matrix(1.00, 0.00, -0.00, -1.00, 670.8, 2.0)">o</text><text xml:space="preserve" font-family="ProximaNova-Light" font-size="36.0" fill="#FEFFFE" transform="matrix(1.00, 0.00, -0.00, -1.00, 691.3, 2.0)">r</text><text xml:space="preserve" font-family="ProximaNova-Light" font-size="36.0" fill="#FEFFFE" transform="matrix(1.00, 0.00, -0.00, -1.00, 702.7, 2.0)">k</text><text xml:space="preserve" font-family="ProximaNova-Light" font-size="36.0" fill="#FEFFFE" transform="matrix(1.00, 0.00, -0.00, -1.00, 720.9, 2.0)">f</text><text xml:space="preserve" font-family="ProximaNova-Light" font-size="36.0" fill="#FEFFFE" transform="matrix(1.00, 0.00, -0.00, -1.00, 730.4, 2.0)">o</text><text xml:space="preserve" font-family="ProximaNova-Light" font-size="36.0" fill="#FEFFFE" transform="matrix(1.00, 0.00, -0.00, -1.00, 751.0, 2.0)">r</text><text xml:space="preserve" font-family="ProximaNova-Light" font-size="36.0" fill="#FEFFFE" transform="matrix(1.00, 0.00, -0.00, -1.00, 762.4, 2.0)">c</text><text xml:space="preserve" font-family="ProximaNova-Light" font-size="36.0" fill="#FEFFFE" transform="matrix(1.00, 0.00, -0.00, -1.00, 780.2, 2.0)">e</text><text xml:space="preserve" font-family="ProximaNova-Light" font-size="36.0" fill="#FEFFFE" transform="matrix(1.00, 0.00, -0.00, -1.00, 800.3, 2.0)">.</text></g></svg>