<?xml version="1.0" encoding="UTF-8" standalone="no"?><svg xmlns="http://www.w3.org/2000/svg" xmlns:xlink="http://www.w3.org/1999/xlink" clip-rule="evenodd" stroke-miterlimit="4.00" viewBox="0 0 14 15"><desc>SVG generated by Keynote</desc><defs></defs><g transform="matrix(1.00, 0.00, -0.00, -1.00, 0.0, 15.0)"><g><clipPath id="clip-4769"><path d="M -35.3 121.1 L 367.0 121.1 L 367.0 -389.1 L -35.3 -389.1 Z M -35.3 121.1 "></path></clipPath><g clip-path="url(#clip-4769)"><g><clipPath id="clip-4770"><path d="M 7.5 2.4 C 10.5 2.4 13.0 4.7 13.0 7.7 C 13.0 10.6 10.5 13.0 7.5 13.0 C 4.5 13.0 2.0 10.6 2.0 7.7 C 2.0 4.7 4.5 2.4 7.5 2.4 Z M 7.5 2.4 "></path></clipPath><g clip-path="url(#clip-4770)"><g><clipPath id="clip-4771"><path d="M 2.0 2.0 L 13.0 2.0 L 13.0 13.0 L 2.0 13.0 Z M 2.0 2.0 "></path></clipPath><g clip-path="url(#clip-4771)"><path d="M 0.0 14.9 L 15.0 14.9 L 15.0 0.5 L 0.0 0.5 Z M 0.0 14.9 " fill="#FF2600"></path></g></g></g></g></g></g><g><clipPath id="clip-4772"><path d="M -35.3 121.1 L 367.0 121.1 L 367.0 -389.1 L -35.3 -389.1 Z M -35.3 121.1 "></path></clipPath><g clip-path="url(#clip-4772)"><g><clipPath id="clip-4773"><path d="M 2.0 2.0 L 13.0 2.0 L 13.0 13.0 L 2.0 13.0 Z M 2.0 2.0 "></path></clipPath><g clip-path="url(#clip-4773)"><text xml:space="preserve" font-family="ProximaNova-Bold" font-weight="bold" font-size="14.0" fill="#FEFFFF" transform="matrix(0.39, 0.00, -0.00, -0.38, 6.4, 6.2)">1</text></g></g></g></g></g></svg>