<?xml version="1.0" encoding="UTF-8" standalone="no"?><svg xmlns="http://www.w3.org/2000/svg" xmlns:xlink="http://www.w3.org/1999/xlink" clip-rule="evenodd" stroke-miterlimit="4.00" viewBox="0 0 338 37"><desc>SVG generated by Keynote</desc><defs></defs><g transform="matrix(1.00, 0.00, -0.00, -1.00, 0.0, 37.0)"><text xml:space="preserve" font-family="ProximaNova-Regular" font-size="27.0" fill="#FEFFFE" transform="matrix(1.00, 0.00, -0.00, -1.00, 0.1, 12.0)">•</text><text xml:space="preserve" font-family="ProximaNova-Regular" font-size="36.0" fill="#FEFFFE" transform="matrix(1.00, 0.00, -0.00, -1.00, 35.0, 9.0)">D</text><text xml:space="preserve" font-family="ProximaNova-Regular" font-size="36.0" fill="#FEFFFE" transform="matrix(1.00, 0.00, -0.00, -1.00, 60.2, 9.0)">e</text><text xml:space="preserve" font-family="ProximaNova-Regular" font-size="36.0" fill="#FEFFFE" transform="matrix(1.00, 0.00, -0.00, -1.00, 80.5, 9.0)">s</text><text xml:space="preserve" font-family="ProximaNova-Regular" font-size="36.0" fill="#FEFFFE" transform="matrix(1.00, 0.00, -0.00, -1.00, 97.2, 9.0)">i</text><text xml:space="preserve" font-family="ProximaNova-Regular" font-size="36.0" fill="#FEFFFE" transform="matrix(1.00, 0.00, -0.00, -1.00, 105.3, 9.0)">g</text><text xml:space="preserve" font-family="ProximaNova-Regular" font-size="36.0" fill="#FEFFFE" transform="matrix(1.00, 0.00, -0.00, -1.00, 126.0, 9.0)">n</text><text xml:space="preserve" font-family="ProximaNova-Regular" font-size="36.0" fill="#FEFFFE" transform="matrix(1.00, 0.00, -0.00, -1.00, 145.8, 9.0)">,</text><text xml:space="preserve" font-family="ProximaNova-Regular" font-size="36.0" fill="#FEFFFE" transform="matrix(1.00, 0.00, -0.00, -1.00, 154.1, 9.0)"> </text><text xml:space="preserve" font-family="ProximaNova-Regular" font-size="36.0" fill="#FEFFFE" transform="matrix(1.00, 0.00, -0.00, -1.00, 163.4, 9.0)">L</text><text xml:space="preserve" font-family="ProximaNova-Regular" font-size="36.0" fill="#FEFFFE" transform="matrix(1.00, 0.00, -0.00, -1.00, 181.2, 9.0)">a</text><text xml:space="preserve" font-family="ProximaNova-Regular" font-size="36.0" fill="#FEFFFE" transform="matrix(1.00, 0.00, -0.00, -1.00, 200.2, 9.0)">y</text><text xml:space="preserve" font-family="ProximaNova-Regular" font-size="36.0" fill="#FEFFFE" transform="matrix(1.00, 0.00, -0.00, -1.00, 217.8, 9.0)">o</text><text xml:space="preserve" font-family="ProximaNova-Regular" font-size="36.0" fill="#FEFFFE" transform="matrix(1.00, 0.00, -0.00, -1.00, 238.4, 9.0)">u</text><text xml:space="preserve" font-family="ProximaNova-Regular" font-size="36.0" fill="#FEFFFE" transform="matrix(1.00, 0.00, -0.00, -1.00, 258.3, 9.0)">t</text><text xml:space="preserve" font-family="ProximaNova-Regular" font-size="36.0" fill="#FEFFFE" transform="matrix(1.00, 0.00, -0.00, -1.00, 268.9, 9.0)"> </text><text xml:space="preserve" font-family="ProximaNova-Regular" font-size="36.0" fill="#FEFFFE" transform="matrix(1.00, 0.00, -0.00, -1.00, 278.1, 9.0)">a</text><text xml:space="preserve" font-family="ProximaNova-Regular" font-size="36.0" fill="#FEFFFE" transform="matrix(1.00, 0.00, -0.00, -1.00, 297.1, 9.0)">n</text><text xml:space="preserve" font-family="ProximaNova-Regular" font-size="36.0" fill="#FEFFFE" transform="matrix(1.00, 0.00, -0.00, -1.00, 317.0, 9.0)">d</text></g></svg>