<?xml version="1.0" encoding="UTF-8" standalone="no"?><svg xmlns="http://www.w3.org/2000/svg" xmlns:xlink="http://www.w3.org/1999/xlink" clip-rule="evenodd" stroke-miterlimit="4.00" viewBox="0 0 242 36"><desc>SVG generated by Keynote</desc><defs></defs><g transform="matrix(1.00, 0.00, -0.00, -1.00, 0.0, 36.0)"><text xml:space="preserve" font-family="ProximaNova-Regular" font-size="36.0" fill="#FEFFFE" transform="matrix(1.00, 0.00, -0.00, -1.00, 0.0, 9.0)">O</text><text xml:space="preserve" font-family="ProximaNova-Regular" font-size="36.0" fill="#FEFFFE" transform="matrix(1.00, 0.00, -0.00, -1.00, 27.5, 9.0)">r</text><text xml:space="preserve" font-family="ProximaNova-Regular" font-size="36.0" fill="#FEFFFE" transform="matrix(1.00, 0.00, -0.00, -1.00, 39.4, 9.0)"> </text><text xml:space="preserve" font-family="ProximaNova-Regular" font-size="36.0" fill="#FEFFFE" transform="matrix(1.00, 0.00, -0.00, -1.00, 48.7, 9.0)">d</text><text xml:space="preserve" font-family="ProximaNova-Regular" font-size="36.0" fill="#FEFFFE" transform="matrix(1.00, 0.00, -0.00, -1.00, 69.4, 9.0)">i</text><text xml:space="preserve" font-family="ProximaNova-Regular" font-size="36.0" fill="#FEFFFE" transform="matrix(1.00, 0.00, -0.00, -1.00, 77.5, 9.0)">v</text><text xml:space="preserve" font-family="ProximaNova-Regular" font-size="36.0" fill="#FEFFFE" transform="matrix(1.00, 0.00, -0.00, -1.00, 95.1, 9.0)">e</text><text xml:space="preserve" font-family="ProximaNova-Regular" font-size="36.0" fill="#FEFFFE" transform="matrix(1.00, 0.00, -0.00, -1.00, 115.4, 9.0)"> </text><text xml:space="preserve" font-family="ProximaNova-Regular" font-size="36.0" fill="#FEFFFE" transform="matrix(1.00, 0.00, -0.00, -1.00, 124.7, 9.0)">r</text><text xml:space="preserve" font-family="ProximaNova-Regular" font-size="36.0" fill="#FEFFFE" transform="matrix(1.00, 0.00, -0.00, -1.00, 136.6, 9.0)">i</text><text xml:space="preserve" font-family="ProximaNova-Regular" font-size="36.0" fill="#FEFFFE" transform="matrix(1.00, 0.00, -0.00, -1.00, 144.7, 9.0)">g</text><text xml:space="preserve" font-family="ProximaNova-Regular" font-size="36.0" fill="#FEFFFE" transform="matrix(1.00, 0.00, -0.00, -1.00, 165.3, 9.0)">h</text><text xml:space="preserve" font-family="ProximaNova-Regular" font-size="36.0" fill="#FEFFFE" transform="matrix(1.00, 0.00, -0.00, -1.00, 185.2, 9.0)">t</text><text xml:space="preserve" font-family="ProximaNova-Regular" font-size="36.0" fill="#FEFFFE" transform="matrix(1.00, 0.00, -0.00, -1.00, 195.8, 9.0)"> </text><text xml:space="preserve" font-family="ProximaNova-Regular" font-size="36.0" fill="#FEFFFE" transform="matrix(1.00, 0.00, -0.00, -1.00, 205.1, 9.0)">i</text><text xml:space="preserve" font-family="ProximaNova-Regular" font-size="36.0" fill="#FEFFFE" transform="matrix(1.00, 0.00, -0.00, -1.00, 213.2, 9.0)">n</text><text xml:space="preserve" font-family="ProximaNova-Regular" font-size="36.0" fill="#FEFFFE" transform="matrix(1.00, 0.00, -0.00, -1.00, 233.0, 9.0)">.</text></g></svg>