<?xml version="1.0" encoding="UTF-8" standalone="no"?><svg xmlns="http://www.w3.org/2000/svg" xmlns:xlink="http://www.w3.org/1999/xlink" clip-rule="evenodd" stroke-miterlimit="4.00" viewBox="0 0 113 16"><desc>SVG generated by Keynote</desc><defs></defs><g transform="matrix(1.00, 0.00, -0.00, -1.00, 0.0, 16.0)"><text xml:space="preserve" font-family="ProximaNova-Regular" font-size="14.0" fill="#000000" transform="matrix(1.00, 0.00, -0.00, -1.00, 0.0, 5.0)">P</text><text xml:space="preserve" font-family="ProximaNova-Regular" font-size="14.0" fill="#000000" transform="matrix(1.00, 0.00, -0.00, -1.00, 8.2, 5.0)">h</text><text xml:space="preserve" font-family="ProximaNova-Regular" font-size="14.0" fill="#000000" transform="matrix(1.00, 0.00, -0.00, -1.00, 15.9, 5.0)">y</text><text xml:space="preserve" font-family="ProximaNova-Regular" font-size="14.0" fill="#000000" transform="matrix(1.00, 0.00, -0.00, -1.00, 22.8, 5.0)">s</text><text xml:space="preserve" font-family="ProximaNova-Regular" font-size="14.0" fill="#000000" transform="matrix(1.00, 0.00, -0.00, -1.00, 29.3, 5.0)">i</text><text xml:space="preserve" font-family="ProximaNova-Regular" font-size="14.0" fill="#000000" transform="matrix(1.00, 0.00, -0.00, -1.00, 32.5, 5.0)">c</text><text xml:space="preserve" font-family="ProximaNova-Regular" font-size="14.0" fill="#000000" transform="matrix(1.00, 0.00, -0.00, -1.00, 39.4, 5.0)">a</text><text xml:space="preserve" font-family="ProximaNova-Regular" font-size="14.0" fill="#000000" transform="matrix(1.00, 0.00, -0.00, -1.00, 46.8, 5.0)">l</text><text xml:space="preserve" font-family="ProximaNova-Regular" font-size="14.0" fill="#000000" transform="matrix(1.00, 0.00, -0.00, -1.00, 49.9, 5.0)"> </text><text xml:space="preserve" font-family="ProximaNova-Regular" font-size="14.0" fill="#000000" transform="matrix(1.00, 0.00, -0.00, -1.00, 53.5, 5.0)">T</text><text xml:space="preserve" font-family="ProximaNova-Regular" font-size="14.0" fill="#000000" transform="matrix(1.00, 0.00, -0.00, -1.00, 61.5, 5.0)">h</text><text xml:space="preserve" font-family="ProximaNova-Regular" font-size="14.0" fill="#000000" transform="matrix(1.00, 0.00, -0.00, -1.00, 69.2, 5.0)">e</text><text xml:space="preserve" font-family="ProximaNova-Regular" font-size="14.0" fill="#000000" transform="matrix(1.00, 0.00, -0.00, -1.00, 77.1, 5.0)">r</text><text xml:space="preserve" font-family="ProximaNova-Regular" font-size="14.0" fill="#000000" transform="matrix(1.00, 0.00, -0.00, -1.00, 81.7, 5.0)">a</text><text xml:space="preserve" font-family="ProximaNova-Regular" font-size="14.0" fill="#000000" transform="matrix(1.00, 0.00, -0.00, -1.00, 89.1, 5.0)">p</text><text xml:space="preserve" font-family="ProximaNova-Regular" font-size="14.0" fill="#000000" transform="matrix(1.00, 0.00, -0.00, -1.00, 97.1, 5.0)">i</text><text xml:space="preserve" font-family="ProximaNova-Regular" font-size="14.0" fill="#000000" transform="matrix(1.00, 0.00, -0.00, -1.00, 100.3, 5.0)">s</text><text xml:space="preserve" font-family="ProximaNova-Regular" font-size="14.0" fill="#000000" transform="matrix(1.00, 0.00, -0.00, -1.00, 106.8, 5.0)">t</text></g></svg>