<?xml version="1.0" encoding="UTF-8" standalone="no"?><svg xmlns="http://www.w3.org/2000/svg" xmlns:xlink="http://www.w3.org/1999/xlink" clip-rule="evenodd" stroke-miterlimit="4.00" viewBox="0 0 934 540"><desc>SVG generated by Keynote</desc><defs></defs><g transform="matrix(1.00, 0.00, -0.00, -1.00, 0.0, 540.0)"><g><clipPath id="clip-381"><path d="M -211.2 761.3 L 1144.0 761.3 L 1144.0 -311.8 L -211.2 -311.8 Z M -211.2 761.3 "></path></clipPath><g clip-path="url(#clip-381)"><g><clipPath id="clip-382"><path d="M 930.5 31.8 L 844.6 31.8 C 845.6 34.7 846.1 37.8 846.1 41.0 L 846.1 509.8 C 846.1 525.3 833.4 538.0 817.9 538.0 L 116.2 538.0 C 100.7 538.0 88.0 525.3 88.0 509.8 L 88.0 41.0 C 88.0 37.8 88.6 34.7 89.6 31.8 L 3.5 31.8 C 2.7 31.8 2.0 31.2 2.0 30.4 L 2.0 16.0 C 2.0 15.5 2.0 14.3 3.1 13.6 C 3.3 13.4 3.6 13.2 3.9 13.0 C 3.9 13.0 3.9 13.0 3.9 13.0 C 10.3 8.6 26.4 2.0 44.4 2.0 L 889.6 2.0 C 907.6 2.0 923.7 8.6 930.1 13.0 C 930.1 13.0 930.1 13.0 930.1 13.0 C 930.5 13.2 930.8 13.5 931.2 13.7 C 932.0 14.4 932.0 15.4 932.0 15.8 L 932.0 30.4 C 932.0 31.2 931.3 31.8 930.5 31.8 L 930.5 31.8 Z M 90.0 41.0 L 90.0 509.8 C 90.0 524.3 101.8 536.0 116.2 536.0 L 817.9 536.0 C 832.4 536.0 844.1 524.3 844.1 509.8 L 844.1 41.0 C 844.1 37.8 843.5 34.7 842.5 31.8 L 765.7 31.8 L 765.6 32.3 L 763.3 42.5 L 831.8 42.5 C 837.2 42.5 841.5 46.9 841.5 52.3 L 841.5 510.1 C 841.5 523.0 831.1 533.5 818.2 533.5 L 115.9 533.5 C 103.0 533.5 92.6 523.0 92.6 510.1 L 92.6 52.3 C 92.6 46.9 97.0 42.5 102.4 42.5 L 168.6 42.5 L 166.2 31.8 L 91.6 31.8 C 90.6 34.7 90.0 37.8 90.0 41.0 L 90.0 41.0 Z M 401.2 31.8 L 168.2 31.8 L 170.6 42.4 L 761.3 42.4 L 763.7 31.8 L 401.2 31.8 L 401.2 31.8 Z M 530.7 29.9 C 530.2 26.7 527.1 21.4 521.6 21.4 L 412.4 21.4 C 406.9 21.4 403.8 26.7 403.3 29.9 L 530.7 29.9 L 530.7 29.9 Z M 102.4 44.4 C 98.0 44.4 94.5 48.0 94.5 52.3 L 94.5 510.1 C 94.5 521.9 104.1 531.5 115.9 531.5 L 818.2 531.5 C 830.0 531.5 839.6 521.9 839.6 510.1 L 839.6 52.3 C 839.6 48.0 836.1 44.4 831.8 44.4 L 102.4 44.4 L 102.4 44.4 Z M 4.0 29.9 L 401.3 29.9 C 401.9 25.8 405.7 19.4 412.4 19.4 L 521.6 19.4 C 528.3 19.4 532.2 25.8 532.7 29.9 L 930.0 29.9 L 930.0 15.8 C 930.0 15.6 930.0 15.3 930.0 15.3 C 929.7 15.1 929.5 14.9 929.2 14.8 L 4.8 14.8 C 4.6 14.9 4.4 15.0 4.2 15.1 C 4.1 15.3 4.0 15.4 4.0 16.0 L 4.0 29.9 L 4.0 29.9 Z M 889.6 4.0 L 44.4 4.0 C 29.1 4.0 15.4 8.7 7.9 12.8 L 926.1 12.8 C 918.6 8.7 904.9 4.0 889.6 4.0 L 889.6 4.0 Z M 889.6 4.0 "></path></clipPath><g clip-path="url(#clip-382)"><g><clipPath id="clip-383"><path d="M 2.0 2.0 L 932.0 2.0 L 932.0 538.0 L 2.0 538.0 Z M 2.0 2.0 "></path></clipPath><g clip-path="url(#clip-383)"><path d="M -0.9 540.9 L 934.9 540.9 L 934.9 -0.9 L -0.9 -0.9 Z M -0.9 540.9 " fill="#221F1F"></path></g></g></g></g></g></g><g><clipPath id="clip-384"><path d="M -211.2 761.3 L 1144.0 761.3 L 1144.0 -311.8 L -211.2 -311.8 Z M -211.2 761.3 "></path></clipPath><g clip-path="url(#clip-384)"><g><clipPath id="clip-385"><path d="M 820.1 508.2 L 113.3 508.2 C 112.0 508.2 110.9 507.1 110.9 505.8 L 110.9 64.0 C 110.9 62.7 112.0 61.6 113.3 61.6 L 820.1 61.6 C 821.5 61.6 822.6 62.7 822.6 64.0 L 822.6 505.8 C 822.6 507.1 821.5 508.2 820.1 508.2 L 820.1 508.2 Z M 113.3 505.8 L 820.1 505.8 L 820.1 64.0 L 113.3 64.0 L 113.3 505.8 Z M 113.3 505.8 "></path></clipPath><g clip-path="url(#clip-385)"><g><clipPath id="clip-386"><path d="M 2.0 2.0 L 932.0 2.0 L 932.0 538.0 L 2.0 538.0 Z M 2.0 2.0 "></path></clipPath><g clip-path="url(#clip-386)"><path d="M 108.0 511.1 L 825.4 511.1 L 825.4 58.7 L 108.0 58.7 Z M 108.0 511.1 " fill="#221F1F"></path></g></g></g></g></g></g><g><clipPath id="clip-387"><path d="M -211.2 761.3 L 1144.0 761.3 L 1144.0 -311.8 L -211.2 -311.8 Z M -211.2 761.3 "></path></clipPath><g clip-path="url(#clip-387)"><g><clipPath id="clip-388"><path d="M 467.3 514.5 C 469.5 514.5 471.3 516.3 471.3 518.5 C 471.3 520.7 469.5 522.5 467.3 522.5 C 465.1 522.5 463.3 520.7 463.3 518.5 C 463.3 516.3 465.1 514.5 467.3 514.5 L 467.3 514.5 Z M 467.3 520.5 C 468.4 520.5 469.3 519.6 469.3 518.5 C 469.3 517.4 468.4 516.5 467.3 516.5 C 466.2 516.5 465.3 517.4 465.3 518.5 C 465.3 519.6 466.2 520.5 467.3 520.5 L 467.3 520.5 Z M 467.3 520.5 "></path></clipPath><g clip-path="url(#clip-388)"><g><clipPath id="clip-389"><path d="M 2.0 2.0 L 932.0 2.0 L 932.0 538.0 L 2.0 538.0 Z M 2.0 2.0 "></path></clipPath><g clip-path="url(#clip-389)"><path d="M 460.4 525.4 L 474.2 525.4 L 474.2 511.7 L 460.4 511.7 Z M 460.4 525.4 " fill="#221F1F"></path></g></g></g></g></g></g><g><clipPath id="clip-390"><path d="M -211.2 761.3 L 1144.0 761.3 L 1144.0 -311.8 L -211.2 -311.8 Z M -211.2 761.3 "></path></clipPath><g clip-path="url(#clip-390)"><g><clipPath id="clip-391"><path d="M 322.2 5.4 L 322.2 5.4 C 322.4 5.4 322.5 5.4 322.7 5.4 C 325.4 5.5 327.0 6.0 327.4 6.9 C 327.6 7.3 327.5 7.8 327.1 8.2 C 326.0 9.4 322.1 9.4 321.3 9.4 C 321.1 9.4 320.9 9.4 320.7 9.4 C 318.1 9.4 316.5 8.9 316.1 8.0 C 315.9 7.6 316.0 7.1 316.4 6.7 C 317.5 5.5 321.4 5.4 322.2 5.4 "></path></clipPath><g clip-path="url(#clip-391)"><g><clipPath id="clip-392"><path d="M 2.0 2.0 L 932.0 2.0 L 932.0 538.0 L 2.0 538.0 Z M 2.0 2.0 "></path></clipPath><g clip-path="url(#clip-392)"><path d="M 313.1 12.3 L 330.3 12.3 L 330.3 2.6 L 313.1 2.6 Z M 313.1 12.3 " fill="#221F1F"></path></g></g></g></g></g></g><g><clipPath id="clip-393"><path d="M -211.2 761.3 L 1144.0 761.3 L 1144.0 -311.8 L -211.2 -311.8 Z M -211.2 761.3 "></path></clipPath><g clip-path="url(#clip-393)"><g><clipPath id="clip-394"><path d="M 609.5 5.4 C 609.7 5.4 609.9 5.4 610.1 5.4 C 610.9 5.4 614.8 5.5 615.9 6.7 C 616.3 7.1 616.4 7.6 616.2 8.0 C 615.8 8.9 614.2 9.4 611.5 9.4 C 611.3 9.4 611.2 9.4 611.0 9.4 C 610.2 9.4 606.3 9.4 605.2 8.2 C 604.8 7.8 604.7 7.3 604.9 6.9 C 605.3 6.0 606.9 5.5 609.5 5.4 "></path></clipPath><g clip-path="url(#clip-394)"><g><clipPath id="clip-395"><path d="M 2.0 2.0 L 932.0 2.0 L 932.0 538.0 L 2.0 538.0 Z M 2.0 2.0 "></path></clipPath><g clip-path="url(#clip-395)"><path d="M 601.9 12.3 L 619.1 12.3 L 619.1 2.6 L 601.9 2.6 Z M 601.9 12.3 " fill="#221F1F"></path></g></g></g></g></g></g></g></svg>