<?xml version="1.0" encoding="UTF-8" standalone="no"?><svg xmlns="http://www.w3.org/2000/svg" xmlns:xlink="http://www.w3.org/1999/xlink" clip-rule="evenodd" stroke-miterlimit="4.00" viewBox="0 0 707 29"><desc>SVG generated by Keynote</desc><defs></defs><g transform="matrix(1.00, 0.00, -0.00, -1.00, 0.0, 29.0)"><text xml:space="preserve" font-family="ProximaNova-Regular" font-size="36.0" fill="#FEFFFE" transform="matrix(1.00, 0.00, -0.00, -1.00, 1.0, 2.0)">T</text><text xml:space="preserve" font-family="ProximaNova-Regular" font-size="36.0" fill="#FEFFFE" transform="matrix(1.00, 0.00, -0.00, -1.00, 21.5, 2.0)">h</text><text xml:space="preserve" font-family="ProximaNova-Regular" font-size="36.0" fill="#FEFFFE" transform="matrix(1.00, 0.00, -0.00, -1.00, 41.4, 2.0)">e</text><text xml:space="preserve" font-family="ProximaNova-Regular" font-size="36.0" fill="#FEFFFE" transform="matrix(1.00, 0.00, -0.00, -1.00, 61.7, 2.0)"> </text><text xml:space="preserve" font-family="ProximaNova-Regular" font-size="36.0" fill="#FEFFFE" transform="matrix(1.00, 0.00, -0.00, -1.00, 70.9, 2.0)">S</text><text xml:space="preserve" font-family="ProximaNova-Regular" font-size="36.0" fill="#FEFFFE" transform="matrix(1.00, 0.00, -0.00, -1.00, 92.0, 2.0)">e</text><text xml:space="preserve" font-family="ProximaNova-Regular" font-size="36.0" fill="#FEFFFE" transform="matrix(1.00, 0.00, -0.00, -1.00, 112.3, 2.0)">e</text><text xml:space="preserve" font-family="ProximaNova-Regular" font-size="36.0" fill="#FEFFFE" transform="matrix(1.00, 0.00, -0.00, -1.00, 132.6, 2.0)">k</text><text xml:space="preserve" font-family="ProximaNova-Regular" font-size="36.0" fill="#FEFFFE" transform="matrix(1.00, 0.00, -0.00, -1.00, 151.0, 2.0)">e</text><text xml:space="preserve" font-family="ProximaNova-Regular" font-size="36.0" fill="#FEFFFE" transform="matrix(1.00, 0.00, -0.00, -1.00, 171.2, 2.0)">r</text><text xml:space="preserve" font-family="ProximaNova-Regular" font-size="36.0" fill="#FEFFFE" transform="matrix(1.00, 0.00, -0.00, -1.00, 183.1, 2.0)"> </text><text xml:space="preserve" font-family="ProximaNova-Regular" font-size="36.0" fill="#FEFFFE" transform="matrix(1.00, 0.00, -0.00, -1.00, 192.4, 2.0)">c</text><text xml:space="preserve" font-family="ProximaNova-Regular" font-size="36.0" fill="#FEFFFE" transform="matrix(1.00, 0.00, -0.00, -1.00, 210.2, 2.0)">a</text><text xml:space="preserve" font-family="ProximaNova-Regular" font-size="36.0" fill="#FEFFFE" transform="matrix(1.00, 0.00, -0.00, -1.00, 229.2, 2.0)">n</text><text xml:space="preserve" font-family="ProximaNova-Regular" font-size="36.0" fill="#FEFFFE" transform="matrix(1.00, 0.00, -0.00, -1.00, 249.0, 2.0)"> </text><text xml:space="preserve" font-family="ProximaNova-Regular" font-size="36.0" fill="#FEFFFE" transform="matrix(1.00, 0.00, -0.00, -1.00, 258.3, 2.0)">t</text><text xml:space="preserve" font-family="ProximaNova-Regular" font-size="36.0" fill="#FEFFFE" transform="matrix(1.00, 0.00, -0.00, -1.00, 268.9, 2.0)">a</text><text xml:space="preserve" font-family="ProximaNova-Regular" font-size="36.0" fill="#FEFFFE" transform="matrix(1.00, 0.00, -0.00, -1.00, 287.9, 2.0)">k</text><text xml:space="preserve" font-family="ProximaNova-Regular" font-size="36.0" fill="#FEFFFE" transform="matrix(1.00, 0.00, -0.00, -1.00, 306.3, 2.0)">e</text><text xml:space="preserve" font-family="ProximaNova-Regular" font-size="36.0" fill="#FEFFFE" transform="matrix(1.00, 0.00, -0.00, -1.00, 326.5, 2.0)"> </text><text xml:space="preserve" font-family="ProximaNova-Regular" font-size="36.0" fill="#FEFFFE" transform="matrix(1.00, 0.00, -0.00, -1.00, 335.8, 2.0)">a</text><text xml:space="preserve" font-family="ProximaNova-Regular" font-size="36.0" fill="#FEFFFE" transform="matrix(1.00, 0.00, -0.00, -1.00, 354.8, 2.0)"> </text><text xml:space="preserve" font-family="ProximaNova-Regular" font-size="36.0" fill="#FEFFFE" transform="matrix(1.00, 0.00, -0.00, -1.00, 364.1, 2.0)">t</text><text xml:space="preserve" font-family="ProximaNova-Regular" font-size="36.0" fill="#FEFFFE" transform="matrix(1.00, 0.00, -0.00, -1.00, 374.7, 2.0)">o</text><text xml:space="preserve" font-family="ProximaNova-Regular" font-size="36.0" fill="#FEFFFE" transform="matrix(1.00, 0.00, -0.00, -1.00, 395.3, 2.0)">u</text><text xml:space="preserve" font-family="ProximaNova-Regular" font-size="36.0" fill="#FEFFFE" transform="matrix(1.00, 0.00, -0.00, -1.00, 415.1, 2.0)">r</text><text xml:space="preserve" font-family="ProximaNova-Regular" font-size="36.0" fill="#FEFFFE" transform="matrix(1.00, 0.00, -0.00, -1.00, 427.0, 2.0)"> </text><text xml:space="preserve" font-family="ProximaNova-Regular" font-size="36.0" fill="#FEFFFE" transform="matrix(1.00, 0.00, -0.00, -1.00, 436.3, 2.0)">o</text><text xml:space="preserve" font-family="ProximaNova-Regular" font-size="36.0" fill="#FEFFFE" transform="matrix(1.00, 0.00, -0.00, -1.00, 456.9, 2.0)">f</text><text xml:space="preserve" font-family="ProximaNova-Regular" font-size="36.0" fill="#FEFFFE" transform="matrix(1.00, 0.00, -0.00, -1.00, 467.1, 2.0)"> </text><text xml:space="preserve" font-family="ProximaNova-Regular" font-size="36.0" fill="#FEFFFE" transform="matrix(1.00, 0.00, -0.00, -1.00, 476.3, 2.0)">V</text><text xml:space="preserve" font-family="ProximaNova-Regular" font-size="36.0" fill="#FEFFFE" transform="matrix(1.00, 0.00, -0.00, -1.00, 496.7, 2.0)">J</text><text xml:space="preserve" font-family="ProximaNova-Regular" font-size="36.0" fill="#FEFFFE" transform="matrix(1.00, 0.00, -0.00, -1.00, 513.8, 2.0)">S</text><text xml:space="preserve" font-family="ProximaNova-Regular" font-size="36.0" fill="#FEFFFE" transform="matrix(1.00, 0.00, -0.00, -1.00, 534.9, 2.0)">’</text><text xml:space="preserve" font-family="ProximaNova-Regular" font-size="36.0" fill="#FEFFFE" transform="matrix(1.00, 0.00, -0.00, -1.00, 542.1, 2.0)">s</text><text xml:space="preserve" font-family="ProximaNova-Regular" font-size="36.0" fill="#FEFFFE" transform="matrix(1.00, 0.00, -0.00, -1.00, 558.8, 2.0)"> </text><text xml:space="preserve" font-family="ProximaNova-Regular" font-size="36.0" fill="#FEFFFE" transform="matrix(1.00, 0.00, -0.00, -1.00, 568.1, 2.0)">f</text><text xml:space="preserve" font-family="ProximaNova-Regular" font-size="36.0" fill="#FEFFFE" transform="matrix(1.00, 0.00, -0.00, -1.00, 578.3, 2.0)">e</text><text xml:space="preserve" font-family="ProximaNova-Regular" font-size="36.0" fill="#FEFFFE" transform="matrix(1.00, 0.00, -0.00, -1.00, 598.6, 2.0)">a</text><text xml:space="preserve" font-family="ProximaNova-Regular" font-size="36.0" fill="#FEFFFE" transform="matrix(1.00, 0.00, -0.00, -1.00, 617.5, 2.0)">t</text><text xml:space="preserve" font-family="ProximaNova-Regular" font-size="36.0" fill="#FEFFFE" transform="matrix(1.00, 0.00, -0.00, -1.00, 628.1, 2.0)">u</text><text xml:space="preserve" font-family="ProximaNova-Regular" font-size="36.0" fill="#FEFFFE" transform="matrix(1.00, 0.00, -0.00, -1.00, 648.0, 2.0)">r</text><text xml:space="preserve" font-family="ProximaNova-Regular" font-size="36.0" fill="#FEFFFE" transform="matrix(1.00, 0.00, -0.00, -1.00, 659.8, 2.0)">e</text><text xml:space="preserve" font-family="ProximaNova-Regular" font-size="36.0" fill="#FEFFFE" transform="matrix(1.00, 0.00, -0.00, -1.00, 680.1, 2.0)">s</text><text xml:space="preserve" font-family="ProximaNova-Regular" font-size="36.0" fill="#FEFFFE" transform="matrix(1.00, 0.00, -0.00, -1.00, 696.8, 2.0)">.</text><text xml:space="preserve" font-family="ProximaNova-Regular" font-size="36.0" fill="#FEFFFE" transform="matrix(1.00, 0.00, -0.00, -1.00, 705.1, 2.0)"> </text></g></svg>