<?xml version="1.0" encoding="UTF-8" standalone="no"?><svg xmlns="http://www.w3.org/2000/svg" xmlns:xlink="http://www.w3.org/1999/xlink" clip-rule="evenodd" stroke-miterlimit="4.00" viewBox="0 0 709 79"><desc>SVG generated by Keynote</desc><defs></defs><g transform="matrix(1.00, 0.00, -0.00, -1.00, 0.0, 79.0)"><text xml:space="preserve" font-family="LeagueGothic-Regular" font-size="100.0" fill="#FEFFFE" transform="matrix(1.00, 0.00, -0.00, -1.00, 0.0, 3.0)">W</text><text xml:space="preserve" font-family="LeagueGothic-Regular" font-size="100.0" fill="#FEFFFE" transform="matrix(1.00, 0.00, -0.00, -1.00, 50.6, 3.0)">h</text><text xml:space="preserve" font-family="LeagueGothic-Regular" font-size="100.0" fill="#FEFFFE" transform="matrix(1.00, 0.00, -0.00, -1.00, 83.7, 3.0)">a</text><text xml:space="preserve" font-family="LeagueGothic-Regular" font-size="100.0" fill="#FEFFFE" transform="matrix(1.00, 0.00, -0.00, -1.00, 115.3, 3.0)">t</text><text xml:space="preserve" font-family="LeagueGothic-Regular" font-size="100.0" fill="#FEFFFE" transform="matrix(1.00, 0.00, -0.00, -1.00, 139.8, 3.0)"> </text><text xml:space="preserve" font-family="LeagueGothic-Regular" font-size="100.0" fill="#FEFFFE" transform="matrix(1.00, 0.00, -0.00, -1.00, 155.2, 3.0)">i</text><text xml:space="preserve" font-family="LeagueGothic-Regular" font-size="100.0" fill="#FEFFFE" transform="matrix(1.00, 0.00, -0.00, -1.00, 172.8, 3.0)">s</text><text xml:space="preserve" font-family="LeagueGothic-Regular" font-size="100.0" fill="#FEFFFE" transform="matrix(1.00, 0.00, -0.00, -1.00, 203.6, 3.0)"> </text><text xml:space="preserve" font-family="LeagueGothic-Regular" font-size="100.0" fill="#FEFFFE" transform="matrix(1.00, 0.00, -0.00, -1.00, 219.0, 3.0)">V</text><text xml:space="preserve" font-family="LeagueGothic-Regular" font-size="100.0" fill="#FEFFFE" transform="matrix(1.00, 0.00, -0.00, -1.00, 254.0, 3.0)">i</text><text xml:space="preserve" font-family="LeagueGothic-Regular" font-size="100.0" fill="#FEFFFE" transform="matrix(1.00, 0.00, -0.00, -1.00, 272.1, 3.0)">r</text><text xml:space="preserve" font-family="LeagueGothic-Regular" font-size="100.0" fill="#FEFFFE" transform="matrix(1.00, 0.00, -0.00, -1.00, 296.7, 3.0)">t</text><text xml:space="preserve" font-family="LeagueGothic-Regular" font-size="100.0" fill="#FEFFFE" transform="matrix(1.00, 0.00, -0.00, -1.00, 321.2, 3.0)">u</text><text xml:space="preserve" font-family="LeagueGothic-Regular" font-size="100.0" fill="#FEFFFE" transform="matrix(1.00, 0.00, -0.00, -1.00, 354.9, 3.0)">a</text><text xml:space="preserve" font-family="LeagueGothic-Regular" font-size="100.0" fill="#FEFFFE" transform="matrix(1.00, 0.00, -0.00, -1.00, 386.9, 3.0)">l</text><text xml:space="preserve" font-family="LeagueGothic-Regular" font-size="100.0" fill="#FEFFFE" transform="matrix(1.00, 0.00, -0.00, -1.00, 405.0, 3.0)"> </text><text xml:space="preserve" font-family="LeagueGothic-Regular" font-size="100.0" fill="#FEFFFE" transform="matrix(1.00, 0.00, -0.00, -1.00, 420.4, 3.0)">J</text><text xml:space="preserve" font-family="LeagueGothic-Regular" font-size="100.0" fill="#FEFFFE" transform="matrix(1.00, 0.00, -0.00, -1.00, 441.1, 3.0)">o</text><text xml:space="preserve" font-family="LeagueGothic-Regular" font-size="100.0" fill="#FEFFFE" transform="matrix(1.00, 0.00, -0.00, -1.00, 473.2, 3.0)">b</text><text xml:space="preserve" font-family="LeagueGothic-Regular" font-size="100.0" fill="#FEFFFE" transform="matrix(1.00, 0.00, -0.00, -1.00, 506.7, 3.0)"> </text><text xml:space="preserve" font-family="LeagueGothic-Regular" font-size="100.0" fill="#FEFFFE" transform="matrix(1.00, 0.00, -0.00, -1.00, 522.1, 3.0)">S</text><text xml:space="preserve" font-family="LeagueGothic-Regular" font-size="100.0" fill="#FEFFFE" transform="matrix(1.00, 0.00, -0.00, -1.00, 556.4, 3.0)">c</text><text xml:space="preserve" font-family="LeagueGothic-Regular" font-size="100.0" fill="#FEFFFE" transform="matrix(1.00, 0.00, -0.00, -1.00, 587.9, 3.0)">o</text><text xml:space="preserve" font-family="LeagueGothic-Regular" font-size="100.0" fill="#FEFFFE" transform="matrix(1.00, 0.00, -0.00, -1.00, 620.0, 3.0)">u</text><text xml:space="preserve" font-family="LeagueGothic-Regular" font-size="100.0" fill="#FEFFFE" transform="matrix(1.00, 0.00, -0.00, -1.00, 653.2, 3.0)">t</text><text xml:space="preserve" font-family="LeagueGothic-Regular" font-size="100.0" fill="#FEFFFE" transform="matrix(1.00, 0.00, -0.00, -1.00, 677.7, 3.0)">?</text></g></svg>