<?xml version="1.0" encoding="UTF-8" standalone="no"?><svg xmlns="http://www.w3.org/2000/svg" xmlns:xlink="http://www.w3.org/1999/xlink" clip-rule="evenodd" stroke-miterlimit="4.00" viewBox="0 0 1024 768"><desc>SVG generated by Keynote</desc><defs></defs><g transform="matrix(1.00, 0.00, -0.00, -1.00, 0.0, 768.0)"><path d="M 0.0 768.0 L 1024.0 768.0 L 1024.0 0.0 L 0.0 0.0 Z M 0.0 768.0 " fill="#0177E2"></path><g opacity="0.72"><g><clipPath id="clip-157"><path d="M 851.0 720.0 L 994.0 720.0 L 994.0 747.0 L 851.0 747.0 Z M 851.0 720.0 "></path></clipPath><g clip-path="url(#clip-157)"><image xlink:href="../../394A620D-BE44-4D88-ACA4-1C582DF687B9/assets/5C9EAEBBFCA889D5DB9B012F06543616.png" width="141.00" height="23.00" transform="matrix(1.00, 0.00, -0.00, -1.04, 852.0, 745.0)"></image></g></g></g><text xml:space="preserve" font-family="LeagueGothic-Regular" font-size="40.0" fill="#FEFFFE" transform="matrix(1.00, 0.00, -0.00, -1.00, 16.0, 713.0)">V</text><text xml:space="preserve" font-family="LeagueGothic-Regular" font-size="40.0" fill="#FEFFFE" transform="matrix(1.00, 0.00, -0.00, -1.00, 30.0, 713.0)">I</text><text xml:space="preserve" font-family="LeagueGothic-Regular" font-size="40.0" fill="#FEFFFE" transform="matrix(1.00, 0.00, -0.00, -1.00, 37.5, 713.0)">R</text><text xml:space="preserve" font-family="LeagueGothic-Regular" font-size="40.0" fill="#FEFFFE" transform="matrix(1.00, 0.00, -0.00, -1.00, 52.0, 713.0)">T</text><text xml:space="preserve" font-family="LeagueGothic-Regular" font-size="40.0" fill="#FEFFFE" transform="matrix(1.00, 0.00, -0.00, -1.00, 64.6, 713.0)">U</text><text xml:space="preserve" font-family="LeagueGothic-Regular" font-size="40.0" fill="#FEFFFE" transform="matrix(1.00, 0.00, -0.00, -1.00, 79.2, 713.0)">A</text><text xml:space="preserve" font-family="LeagueGothic-Regular" font-size="40.0" fill="#FEFFFE" transform="matrix(1.00, 0.00, -0.00, -1.00, 94.2, 713.0)">L</text><text xml:space="preserve" font-family="LeagueGothic-Regular" font-size="40.0" fill="#FEFFFE" transform="matrix(1.00, 0.00, -0.00, -1.00, 106.0, 713.0)"> </text><text xml:space="preserve" font-family="LeagueGothic-Regular" font-size="40.0" fill="#FEFFFE" transform="matrix(1.00, 0.00, -0.00, -1.00, 112.2, 713.0)">J</text><text xml:space="preserve" font-family="LeagueGothic-Regular" font-size="40.0" fill="#FEFFFE" transform="matrix(1.00, 0.00, -0.00, -1.00, 120.4, 713.0)">O</text><text xml:space="preserve" font-family="LeagueGothic-Regular" font-size="40.0" fill="#FEFFFE" transform="matrix(1.00, 0.00, -0.00, -1.00, 134.6, 713.0)">B</text><text xml:space="preserve" font-family="LeagueGothic-Regular" font-size="40.0" fill="#FEFFFE" transform="matrix(1.00, 0.00, -0.00, -1.00, 149.2, 713.0)"> </text><text xml:space="preserve" font-family="LeagueGothic-Regular" font-size="40.0" fill="#FEFFFE" transform="matrix(1.00, 0.00, -0.00, -1.00, 155.3, 713.0)">S</text><text xml:space="preserve" font-family="LeagueGothic-Regular" font-size="40.0" fill="#FEFFFE" transform="matrix(1.00, 0.00, -0.00, -1.00, 169.0, 713.0)">C</text><text xml:space="preserve" font-family="LeagueGothic-Regular" font-size="40.0" fill="#FEFFFE" transform="matrix(1.00, 0.00, -0.00, -1.00, 182.9, 713.0)">O</text><text xml:space="preserve" font-family="LeagueGothic-Regular" font-size="40.0" fill="#FEFFFE" transform="matrix(1.00, 0.00, -0.00, -1.00, 197.0, 713.0)">U</text><text xml:space="preserve" font-family="LeagueGothic-Regular" font-size="40.0" fill="#FEFFFE" transform="matrix(1.00, 0.00, -0.00, -1.00, 211.7, 713.0)">T</text><text xml:space="preserve" font-family="LeagueGothic-Regular" font-size="40.0" fill="#FEFFFE" transform="matrix(1.00, 0.00, -0.00, -1.00, 224.3, 713.0)"> </text><text xml:space="preserve" font-family="LeagueGothic-Regular" font-size="40.0" fill="#FEFFFE" transform="matrix(1.00, 0.00, -0.00, -1.00, 230.5, 713.0)">V</text><text xml:space="preserve" font-family="LeagueGothic-Regular" font-size="40.0" fill="#FEFFFE" transform="matrix(1.00, 0.00, -0.00, -1.00, 244.5, 713.0)">.</text><text xml:space="preserve" font-family="LeagueGothic-Regular" font-size="40.0" fill="#FEFFFE" transform="matrix(1.00, 0.00, -0.00, -1.00, 250.8, 713.0)">2</text><g><clipPath id="clip-158"><path d="M 865.0 446.0 L 990.0 446.0 L 990.0 186.0 L 865.0 186.0 Z M 865.3 446.2 "></path></clipPath><g clip-path="url(#clip-158)"><g><clipPath id="clip-159"><path d="M 865.0 446.0 L 990.0 446.0 L 990.0 186.0 L 865.0 186.0 Z M 865.0 446.0 "></path></clipPath><g clip-path="url(#clip-159)"><g><clipPath id="clip-160"><path d="M 865.0 186.0 L 990.0 186.0 L 990.0 446.0 L 865.0 446.0 Z M 865.0 186.0 "></path></clipPath><g clip-path="url(#clip-160)"><path d="M 983.6 192.4 C 980.3 189.1 975.9 187.3 971.2 187.3 L 885.6 187.3 C 880.9 187.3 876.5 189.1 873.2 192.4 C 869.9 195.7 868.1 200.0 868.1 204.7 L 868.1 208.6 L 869.4 208.6 L 869.4 204.7 C 869.4 195.8 876.6 188.6 885.6 188.6 L 971.2 188.6 C 980.2 188.6 987.4 195.8 987.4 204.7 L 987.4 208.6 L 988.7 208.6 L 988.7 204.7 C 988.7 200.0 986.9 195.7 983.6 192.4 M 866.5 353.2 L 866.0 353.6 L 866.0 361.7 C 866.1 361.8 866.2 362.0 866.5 362.2 L 866.8 362.2 L 866.8 353.2 Z M 866.5 374.6 L 866.0 375.1 L 866.0 383.1 C 866.1 383.3 866.2 383.4 866.5 383.6 L 866.8 383.6 L 866.8 374.6 Z M 866.5 396.2 L 866.0 396.7 L 866.0 407.5 C 866.1 407.6 866.2 407.7 866.5 408.0 L 866.8 408.0 L 866.8 396.2 Z M 868.1 352.2 L 868.1 353.2 L 868.1 362.2 L 868.1 363.1 L 868.1 373.6 L 868.1 374.6 L 868.1 383.6 L 868.1 384.6 L 868.1 395.2 L 868.1 396.2 L 868.1 408.0 L 868.1 408.9 L 868.1 419.2 L 869.4 419.2 L 869.4 210.5 L 868.1 210.5 Z M 986.1 425.2 L 986.1 204.7 C 986.1 196.5 979.4 189.9 971.2 189.9 L 885.6 189.9 C 877.3 189.9 870.7 196.5 870.7 204.7 L 870.7 425.2 C 870.7 433.4 877.3 440.0 885.6 440.0 L 971.2 440.0 C 979.4 440.0 986.1 433.4 986.1 425.2 M 988.7 210.5 L 987.4 210.5 L 987.4 419.2 L 988.7 419.2 Z M 873.2 437.5 C 876.5 440.8 880.9 442.6 885.6 442.6 L 971.2 442.6 C 975.9 442.6 980.3 440.8 983.6 437.5 C 986.9 434.2 988.7 429.9 988.7 425.2 L 988.7 421.2 L 987.4 421.2 L 987.4 425.2 C 987.4 434.1 980.2 441.3 971.2 441.3 L 885.6 441.3 C 876.6 441.3 869.4 434.1 869.4 425.2 L 869.4 421.2 L 868.1 421.2 L 868.1 425.2 C 868.1 429.9 869.9 434.2 873.2 437.5 M 948.9 444.5 L 949.8 445.0 L 968.0 445.0 L 968.7 444.5 L 968.7 443.9 L 948.9 443.9 Z M 984.5 438.4 C 981.0 442.0 976.2 443.9 971.2 443.9 L 969.6 443.9 L 969.6 444.5 L 969.6 445.0 L 969.2 445.3 L 968.6 445.8 L 968.4 446.0 L 968.0 446.0 L 949.8 446.0 L 949.5 446.0 L 949.3 445.9 L 948.4 445.4 L 948.0 445.1 L 948.0 444.5 L 948.0 443.9 L 885.6 443.9 C 880.5 443.9 875.8 442.0 872.3 438.4 C 868.7 434.9 866.8 430.2 866.8 425.2 L 866.8 408.9 L 866.5 408.9 L 866.1 408.9 L 865.8 408.6 L 865.3 408.2 L 865.0 407.9 L 865.0 407.5 L 865.0 396.7 L 865.0 396.3 L 865.3 396.0 L 865.8 395.5 L 866.1 395.2 L 866.5 395.2 L 866.8 395.2 L 866.8 384.6 L 866.5 384.6 L 866.1 384.6 L 865.8 384.3 L 865.3 383.8 L 865.0 383.5 L 865.0 383.1 L 865.0 375.1 L 865.0 374.7 L 865.3 374.4 L 865.8 373.9 L 866.1 373.6 L 866.5 373.6 L 866.8 373.6 L 866.8 363.1 L 866.5 363.1 L 866.1 363.1 L 865.8 362.9 L 865.3 362.4 L 865.0 362.1 L 865.0 361.7 L 865.0 353.6 L 865.0 353.2 L 865.3 353.0 L 865.8 352.5 L 866.1 352.2 L 866.5 352.2 L 866.8 352.2 L 866.8 204.7 C 866.8 199.7 868.7 195.0 872.3 191.5 C 875.8 187.9 880.5 186.0 885.6 186.0 L 971.2 186.0 C 976.2 186.0 981.0 187.9 984.5 191.5 C 988.0 195.0 990.0 199.7 990.0 204.7 L 990.0 425.2 C 990.0 430.2 988.0 434.9 984.5 438.4 " fill="#221E1F"></path><path d="M 919.2 422.1 L 937.0 422.1 C 937.6 422.1 938.1 421.6 938.1 421.0 C 938.1 420.4 937.6 419.9 937.0 419.9 L 919.2 419.9 C 918.5 419.9 918.0 420.4 918.0 421.0 C 918.0 421.6 918.5 422.1 919.2 422.1 M 919.2 418.6 L 937.0 418.6 C 938.3 418.6 939.4 419.7 939.4 421.0 C 939.4 422.4 938.3 423.4 937.0 423.4 L 919.2 423.4 C 917.8 423.4 916.7 422.4 916.7 421.0 C 916.7 419.7 917.8 418.6 919.2 418.6 " fill="#221E1F"></path><path d="M 980.0 223.4 L 876.5 223.4 L 876.5 406.5 L 980.0 406.5 Z M 980.0 407.8 L 876.5 407.8 C 875.8 407.8 875.2 407.2 875.2 406.5 L 875.2 223.4 C 875.2 222.7 875.8 222.1 876.5 222.1 L 980.0 222.1 C 980.7 222.1 981.3 222.7 981.3 223.4 L 981.3 406.5 C 981.3 407.2 980.7 407.8 980.0 407.8 " fill="#221E1F"></path><path d="M 928.3 195.8 C 923.0 195.8 918.7 200.1 918.7 205.4 C 918.7 210.7 923.0 215.0 928.3 215.0 C 933.6 215.0 937.9 210.7 937.9 205.4 C 937.9 200.1 933.6 195.8 928.3 195.8 M 928.3 216.3 C 922.3 216.3 917.4 211.4 917.4 205.4 C 917.4 199.4 922.3 194.5 928.3 194.5 C 934.3 194.5 939.2 199.4 939.2 205.4 C 939.2 211.4 934.3 216.3 928.3 216.3 " fill="#221E1F"></path><path d="M 928.2 432.5 C 929.2 432.5 930.0 431.7 930.0 430.7 C 930.0 429.8 929.2 429.0 928.2 429.0 C 927.2 429.0 926.4 429.8 926.4 430.7 C 926.4 431.7 927.2 432.5 928.2 432.5 M 928.2 428.0 C 929.7 428.0 931.0 429.2 931.0 430.7 C 931.0 432.3 929.7 433.5 928.2 433.5 C 926.7 433.5 925.5 432.3 925.5 430.7 C 925.5 429.2 926.7 428.0 928.2 428.0 " fill="#221E1F"></path><path d="M 928.2 429.8 C 928.8 429.8 929.2 430.3 929.2 430.8 C 929.2 431.3 928.8 431.8 928.2 431.8 C 927.7 431.8 927.3 431.3 927.3 430.8 C 927.3 430.3 927.7 429.8 928.2 429.8 " fill="#221E1F"></path></g></g></g></g></g></g><path d="M 785.7 483.9 L 896.3 483.9 L 896.3 171.3 L 785.7 171.3 Z M 785.7 483.9 " fill="#0177E2"></path><g><clipPath id="clip-161"><path d="M -166.2 875.3 L 1189.0 875.3 L 1189.0 -197.8 L -166.2 -197.8 Z M -166.2 875.3 "></path></clipPath><g clip-path="url(#clip-161)"><g><clipPath id="clip-162"><path d="M 975.5 145.8 L 889.6 145.8 C 890.6 148.7 891.1 151.8 891.1 155.0 L 891.1 623.8 C 891.1 639.3 878.4 652.0 862.9 652.0 L 161.2 652.0 C 145.7 652.0 133.0 639.3 133.0 623.8 L 133.0 155.0 C 133.0 151.8 133.6 148.7 134.6 145.8 L 48.5 145.8 C 47.7 145.8 47.0 145.2 47.0 144.4 L 47.0 130.0 C 47.0 129.5 47.0 128.3 48.1 127.6 C 48.3 127.4 48.6 127.2 48.9 127.0 C 48.9 127.0 48.9 127.0 48.9 127.0 C 55.3 122.6 71.4 116.0 89.4 116.0 L 934.6 116.0 C 952.6 116.0 968.7 122.6 975.1 127.0 C 975.1 127.0 975.1 127.0 975.1 127.0 C 975.5 127.2 975.8 127.5 976.2 127.7 C 977.0 128.4 977.0 129.4 977.0 129.8 L 977.0 144.4 C 977.0 145.2 976.3 145.8 975.5 145.8 L 975.5 145.8 Z M 135.0 155.0 L 135.0 623.8 C 135.0 638.3 146.8 650.0 161.2 650.0 L 862.9 650.0 C 877.4 650.0 889.1 638.3 889.1 623.8 L 889.1 155.0 C 889.1 151.8 888.5 148.7 887.5 145.8 L 810.7 145.8 L 810.6 146.3 L 808.3 156.5 L 876.8 156.5 C 882.2 156.5 886.5 160.9 886.5 166.3 L 886.5 624.1 C 886.5 637.0 876.1 647.5 863.2 647.5 L 160.9 647.5 C 148.0 647.5 137.6 637.0 137.6 624.1 L 137.6 166.3 C 137.6 160.9 142.0 156.5 147.4 156.5 L 213.6 156.5 L 211.2 145.8 L 136.6 145.8 C 135.6 148.7 135.0 151.8 135.0 155.0 L 135.0 155.0 Z M 446.2 145.8 L 213.2 145.8 L 215.6 156.4 L 806.3 156.4 L 808.7 145.8 L 446.2 145.8 L 446.2 145.8 Z M 575.7 143.9 C 575.2 140.7 572.1 135.4 566.6 135.4 L 457.4 135.4 C 451.9 135.4 448.8 140.7 448.3 143.9 L 575.7 143.9 L 575.7 143.9 Z M 147.4 158.4 C 143.0 158.4 139.5 162.0 139.5 166.3 L 139.5 624.1 C 139.5 635.9 149.1 645.5 160.9 645.5 L 863.2 645.5 C 875.0 645.5 884.6 635.9 884.6 624.1 L 884.6 166.3 C 884.6 162.0 881.1 158.4 876.8 158.4 L 147.4 158.4 L 147.4 158.4 Z M 49.0 143.9 L 446.3 143.9 C 446.9 139.8 450.7 133.4 457.4 133.4 L 566.6 133.4 C 573.3 133.4 577.2 139.8 577.7 143.9 L 975.0 143.9 L 975.0 129.8 C 975.0 129.6 975.0 129.3 975.0 129.3 C 974.7 129.1 974.5 128.9 974.2 128.8 L 49.8 128.8 C 49.6 128.9 49.4 129.0 49.2 129.1 C 49.1 129.3 49.0 129.4 49.0 130.0 L 49.0 143.9 L 49.0 143.9 Z M 934.6 118.0 L 89.4 118.0 C 74.1 118.0 60.4 122.7 52.9 126.8 L 971.1 126.8 C 963.6 122.7 949.9 118.0 934.6 118.0 L 934.6 118.0 Z M 934.6 118.0 "></path></clipPath><g clip-path="url(#clip-162)"><g><clipPath id="clip-163"><path d="M 47.0 116.0 L 977.0 116.0 L 977.0 652.0 L 47.0 652.0 Z M 47.0 116.0 "></path></clipPath><g clip-path="url(#clip-163)"><path d="M 44.1 654.9 L 979.9 654.9 L 979.9 113.1 L 44.1 113.1 Z M 44.1 654.9 " fill="#221F1F"></path></g></g></g></g></g></g><g><clipPath id="clip-164"><path d="M -166.2 875.3 L 1189.0 875.3 L 1189.0 -197.8 L -166.2 -197.8 Z M -166.2 875.3 "></path></clipPath><g clip-path="url(#clip-164)"><g><clipPath id="clip-165"><path d="M 865.1 622.2 L 158.3 622.2 C 157.0 622.2 155.9 621.1 155.9 619.8 L 155.9 178.0 C 155.9 176.7 157.0 175.6 158.3 175.6 L 865.1 175.6 C 866.5 175.6 867.6 176.7 867.6 178.0 L 867.6 619.8 C 867.6 621.1 866.5 622.2 865.1 622.2 L 865.1 622.2 Z M 158.3 619.8 L 865.1 619.8 L 865.1 178.0 L 158.3 178.0 L 158.3 619.8 Z M 158.3 619.8 "></path></clipPath><g clip-path="url(#clip-165)"><g><clipPath id="clip-166"><path d="M 47.0 116.0 L 977.0 116.0 L 977.0 652.0 L 47.0 652.0 Z M 47.0 116.0 "></path></clipPath><g clip-path="url(#clip-166)"><path d="M 153.0 625.1 L 870.4 625.1 L 870.4 172.7 L 153.0 172.7 Z M 153.0 625.1 " fill="#221F1F"></path></g></g></g></g></g></g><g><clipPath id="clip-167"><path d="M -166.2 875.3 L 1189.0 875.3 L 1189.0 -197.8 L -166.2 -197.8 Z M -166.2 875.3 "></path></clipPath><g clip-path="url(#clip-167)"><g><clipPath id="clip-168"><path d="M 512.3 628.5 C 514.5 628.5 516.3 630.3 516.3 632.5 C 516.3 634.7 514.5 636.5 512.3 636.5 C 510.1 636.5 508.3 634.7 508.3 632.5 C 508.3 630.3 510.1 628.5 512.3 628.5 L 512.3 628.5 Z M 512.3 634.5 C 513.4 634.5 514.3 633.6 514.3 632.5 C 514.3 631.4 513.4 630.5 512.3 630.5 C 511.2 630.5 510.3 631.4 510.3 632.5 C 510.3 633.6 511.2 634.5 512.3 634.5 L 512.3 634.5 Z M 512.3 634.5 "></path></clipPath><g clip-path="url(#clip-168)"><g><clipPath id="clip-169"><path d="M 47.0 116.0 L 977.0 116.0 L 977.0 652.0 L 47.0 652.0 Z M 47.0 116.0 "></path></clipPath><g clip-path="url(#clip-169)"><path d="M 505.4 639.4 L 519.2 639.4 L 519.2 625.7 L 505.4 625.7 Z M 505.4 639.4 " fill="#221F1F"></path></g></g></g></g></g></g><g><clipPath id="clip-170"><path d="M -166.2 875.3 L 1189.0 875.3 L 1189.0 -197.8 L -166.2 -197.8 Z M -166.2 875.3 "></path></clipPath><g clip-path="url(#clip-170)"><g><clipPath id="clip-171"><path d="M 367.2 119.4 L 367.2 119.4 C 367.4 119.4 367.5 119.4 367.7 119.4 C 370.4 119.5 372.0 120.0 372.4 120.9 C 372.6 121.3 372.5 121.8 372.1 122.2 C 371.0 123.4 367.1 123.4 366.3 123.4 C 366.1 123.4 365.9 123.4 365.7 123.4 C 363.1 123.4 361.5 122.9 361.1 122.0 C 360.9 121.6 361.0 121.1 361.4 120.7 C 362.5 119.5 366.4 119.4 367.2 119.4 "></path></clipPath><g clip-path="url(#clip-171)"><g><clipPath id="clip-172"><path d="M 47.0 116.0 L 977.0 116.0 L 977.0 652.0 L 47.0 652.0 Z M 47.0 116.0 "></path></clipPath><g clip-path="url(#clip-172)"><path d="M 358.1 126.3 L 375.3 126.3 L 375.3 116.6 L 358.1 116.6 Z M 358.1 126.3 " fill="#221F1F"></path></g></g></g></g></g></g><g><clipPath id="clip-173"><path d="M -166.2 875.3 L 1189.0 875.3 L 1189.0 -197.8 L -166.2 -197.8 Z M -166.2 875.3 "></path></clipPath><g clip-path="url(#clip-173)"><g><clipPath id="clip-174"><path d="M 654.5 119.4 C 654.7 119.4 654.9 119.4 655.1 119.4 C 655.9 119.4 659.8 119.5 660.9 120.7 C 661.3 121.1 661.4 121.6 661.2 122.0 C 660.8 122.9 659.2 123.4 656.5 123.4 C 656.3 123.4 656.2 123.4 656.0 123.4 C 655.2 123.4 651.3 123.4 650.2 122.2 C 649.8 121.8 649.7 121.3 649.9 120.9 C 650.3 120.0 651.9 119.5 654.5 119.4 "></path></clipPath><g clip-path="url(#clip-174)"><g><clipPath id="clip-175"><path d="M 47.0 116.0 L 977.0 116.0 L 977.0 652.0 L 47.0 652.0 Z M 47.0 116.0 "></path></clipPath><g clip-path="url(#clip-175)"><path d="M 646.9 126.3 L 664.1 126.3 L 664.1 116.6 L 646.9 116.6 Z M 646.9 126.3 " fill="#221F1F"></path></g></g></g></g></g></g><text xml:space="preserve" font-family="ProximaNova-Regular" font-size="36.0" fill="#FEFFFE" transform="matrix(1.00, 0.00, -0.00, -1.00, 358.0, 253.0)">F</text><text xml:space="preserve" font-family="ProximaNova-Regular" font-size="36.0" fill="#FEFFFE" transform="matrix(1.00, 0.00, -0.00, -1.00, 377.8, 253.0)">o</text><text xml:space="preserve" font-family="ProximaNova-Regular" font-size="36.0" fill="#FEFFFE" transform="matrix(1.00, 0.00, -0.00, -1.00, 398.4, 253.0)">r</text><text xml:space="preserve" font-family="ProximaNova-Regular" font-size="36.0" fill="#FEFFFE" transform="matrix(1.00, 0.00, -0.00, -1.00, 410.3, 253.0)"> </text><text xml:space="preserve" font-family="ProximaNova-Regular" font-size="36.0" fill="#FEFFFE" transform="matrix(1.00, 0.00, -0.00, -1.00, 419.6, 253.0)">U</text><text xml:space="preserve" font-family="ProximaNova-Regular" font-size="36.0" fill="#FEFFFE" transform="matrix(1.00, 0.00, -0.00, -1.00, 444.8, 253.0)">s</text><text xml:space="preserve" font-family="ProximaNova-Regular" font-size="36.0" fill="#FEFFFE" transform="matrix(1.00, 0.00, -0.00, -1.00, 461.5, 253.0)">e</text><text xml:space="preserve" font-family="ProximaNova-Regular" font-size="36.0" fill="#FEFFFE" transform="matrix(1.00, 0.00, -0.00, -1.00, 481.8, 253.0)">r</text><text xml:space="preserve" font-family="ProximaNova-Regular" font-size="36.0" fill="#FEFFFE" transform="matrix(1.00, 0.00, -0.00, -1.00, 493.6, 253.0)"> </text><text xml:space="preserve" font-family="ProximaNova-Regular" font-size="36.0" fill="#FEFFFE" transform="matrix(1.00, 0.00, -0.00, -1.00, 502.9, 253.0)">F</text><text xml:space="preserve" font-family="ProximaNova-Regular" font-size="36.0" fill="#FEFFFE" transform="matrix(1.00, 0.00, -0.00, -1.00, 522.7, 253.0)">l</text><text xml:space="preserve" font-family="ProximaNova-Regular" font-size="36.0" fill="#FEFFFE" transform="matrix(1.00, 0.00, -0.00, -1.00, 530.8, 253.0)">o</text><text xml:space="preserve" font-family="ProximaNova-Regular" font-size="36.0" fill="#FEFFFE" transform="matrix(1.00, 0.00, -0.00, -1.00, 551.4, 253.0)">w</text><text xml:space="preserve" font-family="ProximaNova-Regular" font-size="36.0" fill="#FEFFFE" transform="matrix(1.00, 0.00, -0.00, -1.00, 577.9, 253.0)"> </text><text xml:space="preserve" font-family="ProximaNova-Regular" font-size="36.0" fill="#FEFFFE" transform="matrix(1.00, 0.00, -0.00, -1.00, 587.1, 253.0)">O</text><text xml:space="preserve" font-family="ProximaNova-Regular" font-size="36.0" fill="#FEFFFE" transform="matrix(1.00, 0.00, -0.00, -1.00, 614.7, 253.0)">n</text><text xml:space="preserve" font-family="ProximaNova-Regular" font-size="36.0" fill="#FEFFFE" transform="matrix(1.00, 0.00, -0.00, -1.00, 634.5, 253.0)">l</text><text xml:space="preserve" font-family="ProximaNova-Regular" font-size="36.0" fill="#FEFFFE" transform="matrix(1.00, 0.00, -0.00, -1.00, 642.6, 253.0)">y</text><text xml:space="preserve" font-family="ProximaNova-Regular" font-size="36.0" fill="#FEFFFE" transform="matrix(1.00, 0.00, -0.00, -1.00, 658.2, 253.0)">.</text><text xml:space="preserve" font-family="ProximaNova-Regular" font-size="36.0" fill="#FEFFFE" transform="matrix(1.00, 0.00, -0.00, -1.00, 666.5, 253.0)"> </text><text xml:space="preserve" font-family="ProximaNova-Regular" font-size="36.0" fill="#FEFFFE" transform="matrix(1.00, 0.00, -0.00, -1.00, 675.8, 253.0)"> </text><text xml:space="preserve" font-family="ProximaNova-Regular" font-size="36.0" fill="#FEFFFE" transform="matrix(1.00, 0.00, -0.00, -1.00, 246.0, 209.0)">N</text><text xml:space="preserve" font-family="ProximaNova-Regular" font-size="36.0" fill="#FEFFFE" transform="matrix(1.00, 0.00, -0.00, -1.00, 271.5, 209.0)">o</text><text xml:space="preserve" font-family="ProximaNova-Regular" font-size="36.0" fill="#FEFFFE" transform="matrix(1.00, 0.00, -0.00, -1.00, 292.1, 209.0)">t</text><text xml:space="preserve" font-family="ProximaNova-Regular" font-size="36.0" fill="#FEFFFE" transform="matrix(1.00, 0.00, -0.00, -1.00, 302.7, 209.0)"> </text><text xml:space="preserve" font-family="ProximaNova-Regular" font-size="36.0" fill="#FEFFFE" transform="matrix(1.00, 0.00, -0.00, -1.00, 312.0, 209.0)">R</text><text xml:space="preserve" font-family="ProximaNova-Regular" font-size="36.0" fill="#FEFFFE" transform="matrix(1.00, 0.00, -0.00, -1.00, 332.8, 209.0)">e</text><text xml:space="preserve" font-family="ProximaNova-Regular" font-size="36.0" fill="#FEFFFE" transform="matrix(1.00, 0.00, -0.00, -1.00, 353.0, 209.0)">p</text><text xml:space="preserve" font-family="ProximaNova-Regular" font-size="36.0" fill="#FEFFFE" transform="matrix(1.00, 0.00, -0.00, -1.00, 373.6, 209.0)">r</text><text xml:space="preserve" font-family="ProximaNova-Regular" font-size="36.0" fill="#FEFFFE" transform="matrix(1.00, 0.00, -0.00, -1.00, 385.5, 209.0)">e</text><text xml:space="preserve" font-family="ProximaNova-Regular" font-size="36.0" fill="#FEFFFE" transform="matrix(1.00, 0.00, -0.00, -1.00, 405.8, 209.0)">s</text><text xml:space="preserve" font-family="ProximaNova-Regular" font-size="36.0" fill="#FEFFFE" transform="matrix(1.00, 0.00, -0.00, -1.00, 422.5, 209.0)">e</text><text xml:space="preserve" font-family="ProximaNova-Regular" font-size="36.0" fill="#FEFFFE" transform="matrix(1.00, 0.00, -0.00, -1.00, 442.8, 209.0)">n</text><text xml:space="preserve" font-family="ProximaNova-Regular" font-size="36.0" fill="#FEFFFE" transform="matrix(1.00, 0.00, -0.00, -1.00, 462.6, 209.0)">t</text><text xml:space="preserve" font-family="ProximaNova-Regular" font-size="36.0" fill="#FEFFFE" transform="matrix(1.00, 0.00, -0.00, -1.00, 473.2, 209.0)">a</text><text xml:space="preserve" font-family="ProximaNova-Regular" font-size="36.0" fill="#FEFFFE" transform="matrix(1.00, 0.00, -0.00, -1.00, 492.2, 209.0)">t</text><text xml:space="preserve" font-family="ProximaNova-Regular" font-size="36.0" fill="#FEFFFE" transform="matrix(1.00, 0.00, -0.00, -1.00, 502.8, 209.0)">i</text><text xml:space="preserve" font-family="ProximaNova-Regular" font-size="36.0" fill="#FEFFFE" transform="matrix(1.00, 0.00, -0.00, -1.00, 510.9, 209.0)">v</text><text xml:space="preserve" font-family="ProximaNova-Regular" font-size="36.0" fill="#FEFFFE" transform="matrix(1.00, 0.00, -0.00, -1.00, 528.5, 209.0)">e</text><text xml:space="preserve" font-family="ProximaNova-Regular" font-size="36.0" fill="#FEFFFE" transform="matrix(1.00, 0.00, -0.00, -1.00, 548.8, 209.0)"> </text><text xml:space="preserve" font-family="ProximaNova-Regular" font-size="36.0" fill="#FEFFFE" transform="matrix(1.00, 0.00, -0.00, -1.00, 558.0, 209.0)">o</text><text xml:space="preserve" font-family="ProximaNova-Regular" font-size="36.0" fill="#FEFFFE" transform="matrix(1.00, 0.00, -0.00, -1.00, 578.6, 209.0)">f</text><text xml:space="preserve" font-family="ProximaNova-Regular" font-size="36.0" fill="#FEFFFE" transform="matrix(1.00, 0.00, -0.00, -1.00, 588.8, 209.0)"> </text><text xml:space="preserve" font-family="ProximaNova-Regular" font-size="36.0" fill="#FEFFFE" transform="matrix(1.00, 0.00, -0.00, -1.00, 598.1, 209.0)">t</text><text xml:space="preserve" font-family="ProximaNova-Regular" font-size="36.0" fill="#FEFFFE" transform="matrix(1.00, 0.00, -0.00, -1.00, 608.7, 209.0)">h</text><text xml:space="preserve" font-family="ProximaNova-Regular" font-size="36.0" fill="#FEFFFE" transform="matrix(1.00, 0.00, -0.00, -1.00, 628.6, 209.0)">e</text><text xml:space="preserve" font-family="ProximaNova-Regular" font-size="36.0" fill="#FEFFFE" transform="matrix(1.00, 0.00, -0.00, -1.00, 648.8, 209.0)"> </text><text xml:space="preserve" font-family="ProximaNova-Regular" font-size="36.0" fill="#FEFFFE" transform="matrix(1.00, 0.00, -0.00, -1.00, 658.1, 209.0)">D</text><text xml:space="preserve" font-family="ProximaNova-Regular" font-size="36.0" fill="#FEFFFE" transform="matrix(1.00, 0.00, -0.00, -1.00, 683.3, 209.0)">e</text><text xml:space="preserve" font-family="ProximaNova-Regular" font-size="36.0" fill="#FEFFFE" transform="matrix(1.00, 0.00, -0.00, -1.00, 703.6, 209.0)">s</text><text xml:space="preserve" font-family="ProximaNova-Regular" font-size="36.0" fill="#FEFFFE" transform="matrix(1.00, 0.00, -0.00, -1.00, 720.3, 209.0)">i</text><text xml:space="preserve" font-family="ProximaNova-Regular" font-size="36.0" fill="#FEFFFE" transform="matrix(1.00, 0.00, -0.00, -1.00, 728.4, 209.0)">g</text><text xml:space="preserve" font-family="ProximaNova-Regular" font-size="36.0" fill="#FEFFFE" transform="matrix(1.00, 0.00, -0.00, -1.00, 749.1, 209.0)">n</text><text xml:space="preserve" font-family="ProximaNova-Regular" font-size="36.0" fill="#FEFFFE" transform="matrix(1.00, 0.00, -0.00, -1.00, 768.9, 209.0)">.</text><text xml:space="preserve" font-family="LeagueGothic-Regular" font-size="100.0" fill="#FEFFFE" transform="matrix(1.00, 0.00, -0.00, -1.00, 220.0, 394.0)">U</text><text xml:space="preserve" font-family="LeagueGothic-Regular" font-size="100.0" fill="#FEFFFE" transform="matrix(1.00, 0.00, -0.00, -1.00, 256.6, 394.0)">s</text><text xml:space="preserve" font-family="LeagueGothic-Regular" font-size="100.0" fill="#FEFFFE" transform="matrix(1.00, 0.00, -0.00, -1.00, 287.4, 394.0)">e</text><text xml:space="preserve" font-family="LeagueGothic-Regular" font-size="100.0" fill="#FEFFFE" transform="matrix(1.00, 0.00, -0.00, -1.00, 319.4, 394.0)">r</text><text xml:space="preserve" font-family="LeagueGothic-Regular" font-size="100.0" fill="#FEFFFE" transform="matrix(1.00, 0.00, -0.00, -1.00, 344.0, 394.0)"> </text><text xml:space="preserve" font-family="LeagueGothic-Regular" font-size="100.0" fill="#FEFFFE" transform="matrix(1.00, 0.00, -0.00, -1.00, 359.4, 394.0)">F</text><text xml:space="preserve" font-family="LeagueGothic-Regular" font-size="100.0" fill="#FEFFFE" transform="matrix(1.00, 0.00, -0.00, -1.00, 389.5, 394.0)">l</text><text xml:space="preserve" font-family="LeagueGothic-Regular" font-size="100.0" fill="#FEFFFE" transform="matrix(1.00, 0.00, -0.00, -1.00, 407.4, 394.0)">o</text><text xml:space="preserve" font-family="LeagueGothic-Regular" font-size="100.0" fill="#FEFFFE" transform="matrix(1.00, 0.00, -0.00, -1.00, 439.0, 394.0)">w</text><text xml:space="preserve" font-family="LeagueGothic-Regular" font-size="100.0" fill="#FEFFFE" transform="matrix(1.00, 0.00, -0.00, -1.00, 483.2, 394.0)">:</text><text xml:space="preserve" font-family="LeagueGothic-Regular" font-size="100.0" fill="#FEFFFE" transform="matrix(1.00, 0.00, -0.00, -1.00, 500.9, 394.0)"> </text><text xml:space="preserve" font-family="LeagueGothic-Regular" font-size="100.0" fill="#FEFFFE" transform="matrix(1.00, 0.00, -0.00, -1.00, 516.3, 394.0)">J</text><text xml:space="preserve" font-family="LeagueGothic-Regular" font-size="100.0" fill="#FEFFFE" transform="matrix(1.00, 0.00, -0.00, -1.00, 537.0, 394.0)">o</text><text xml:space="preserve" font-family="LeagueGothic-Regular" font-size="100.0" fill="#FEFFFE" transform="matrix(1.00, 0.00, -0.00, -1.00, 569.1, 394.0)">b</text><text xml:space="preserve" font-family="LeagueGothic-Regular" font-size="100.0" fill="#FEFFFE" transform="matrix(1.00, 0.00, -0.00, -1.00, 602.6, 394.0)"> </text><text xml:space="preserve" font-family="LeagueGothic-Regular" font-size="100.0" fill="#FEFFFE" transform="matrix(1.00, 0.00, -0.00, -1.00, 618.0, 394.0)">S</text><text xml:space="preserve" font-family="LeagueGothic-Regular" font-size="100.0" fill="#FEFFFE" transform="matrix(1.00, 0.00, -0.00, -1.00, 652.3, 394.0)">e</text><text xml:space="preserve" font-family="LeagueGothic-Regular" font-size="100.0" fill="#FEFFFE" transform="matrix(1.00, 0.00, -0.00, -1.00, 684.5, 394.0)">e</text><text xml:space="preserve" font-family="LeagueGothic-Regular" font-size="100.0" fill="#FEFFFE" transform="matrix(1.00, 0.00, -0.00, -1.00, 716.7, 394.0)">k</text><text xml:space="preserve" font-family="LeagueGothic-Regular" font-size="100.0" fill="#FEFFFE" transform="matrix(1.00, 0.00, -0.00, -1.00, 747.5, 394.0)">e</text><text xml:space="preserve" font-family="LeagueGothic-Regular" font-size="100.0" fill="#FEFFFE" transform="matrix(1.00, 0.00, -0.00, -1.00, 779.5, 394.0)">r</text></g></svg>