<?xml version="1.0" encoding="UTF-8" standalone="no"?><svg xmlns="http://www.w3.org/2000/svg" xmlns:xlink="http://www.w3.org/1999/xlink" clip-rule="evenodd" stroke-miterlimit="4.00" viewBox="0 0 659 79"><desc>SVG generated by Keynote</desc><defs></defs><g transform="matrix(1.00, 0.00, -0.00, -1.00, 0.0, 79.0)"><text xml:space="preserve" font-family="LeagueGothic-Regular" font-size="80.0" fill="#FEFFFE" transform="matrix(1.00, 0.00, -0.00, -1.00, -1.0, 17.0)">O</text><text xml:space="preserve" font-family="LeagueGothic-Regular" font-size="80.0" fill="#FEFFFE" transform="matrix(1.00, 0.00, -0.00, -1.00, 27.3, 17.0)">u</text><text xml:space="preserve" font-family="LeagueGothic-Regular" font-size="80.0" fill="#FEFFFE" transform="matrix(1.00, 0.00, -0.00, -1.00, 54.3, 17.0)">r</text><text xml:space="preserve" font-family="LeagueGothic-Regular" font-size="80.0" fill="#FEFFFE" transform="matrix(1.00, 0.00, -0.00, -1.00, 74.0, 17.0)"> </text><text xml:space="preserve" font-family="LeagueGothic-Regular" font-size="80.0" fill="#FEFFFE" transform="matrix(1.00, 0.00, -0.00, -1.00, 86.3, 17.0)">G</text><text xml:space="preserve" font-family="LeagueGothic-Regular" font-size="80.0" fill="#FEFFFE" transform="matrix(1.00, 0.00, -0.00, -1.00, 115.1, 17.0)">o</text><text xml:space="preserve" font-family="LeagueGothic-Regular" font-size="80.0" fill="#FEFFFE" transform="matrix(1.00, 0.00, -0.00, -1.00, 140.4, 17.0)">a</text><text xml:space="preserve" font-family="LeagueGothic-Regular" font-size="80.0" fill="#FEFFFE" transform="matrix(1.00, 0.00, -0.00, -1.00, 166.0, 17.0)">l</text><text xml:space="preserve" font-family="LeagueGothic-Regular" font-size="80.0" fill="#FEFFFE" transform="matrix(1.00, 0.00, -0.00, -1.00, 180.4, 17.0)">:</text><text xml:space="preserve" font-family="LeagueGothic-Regular" font-size="80.0" fill="#FEFFFE" transform="matrix(1.00, 0.00, -0.00, -1.00, 194.6, 17.0)"> </text><text xml:space="preserve" font-family="LeagueGothic-Regular" font-size="80.0" fill="#FEFFFE" transform="matrix(1.00, 0.00, -0.00, -1.00, 206.9, 17.0)">G</text><text xml:space="preserve" font-family="LeagueGothic-Regular" font-size="80.0" fill="#FEFFFE" transform="matrix(1.00, 0.00, -0.00, -1.00, 235.7, 17.0)">r</text><text xml:space="preserve" font-family="LeagueGothic-Regular" font-size="80.0" fill="#FEFFFE" transform="matrix(1.00, 0.00, -0.00, -1.00, 255.1, 17.0)">o</text><text xml:space="preserve" font-family="LeagueGothic-Regular" font-size="80.0" fill="#FEFFFE" transform="matrix(1.00, 0.00, -0.00, -1.00, 280.4, 17.0)">w</text><text xml:space="preserve" font-family="LeagueGothic-Regular" font-size="80.0" fill="#FEFFFE" transform="matrix(1.00, 0.00, -0.00, -1.00, 315.7, 17.0)"> </text><text xml:space="preserve" font-family="LeagueGothic-Regular" font-size="80.0" fill="#FEFFFE" transform="matrix(1.00, 0.00, -0.00, -1.00, 328.0, 17.0)">t</text><text xml:space="preserve" font-family="LeagueGothic-Regular" font-size="80.0" fill="#FEFFFE" transform="matrix(1.00, 0.00, -0.00, -1.00, 347.6, 17.0)">h</text><text xml:space="preserve" font-family="LeagueGothic-Regular" font-size="80.0" fill="#FEFFFE" transform="matrix(1.00, 0.00, -0.00, -1.00, 374.6, 17.0)">e</text><text xml:space="preserve" font-family="LeagueGothic-Regular" font-size="80.0" fill="#FEFFFE" transform="matrix(1.00, 0.00, -0.00, -1.00, 400.4, 17.0)"> </text><text xml:space="preserve" font-family="LeagueGothic-Regular" font-size="80.0" fill="#FEFFFE" transform="matrix(1.00, 0.00, -0.00, -1.00, 412.7, 17.0)">E</text><text xml:space="preserve" font-family="LeagueGothic-Regular" font-size="80.0" fill="#FEFFFE" transform="matrix(1.00, 0.00, -0.00, -1.00, 437.2, 17.0)">c</text><text xml:space="preserve" font-family="LeagueGothic-Regular" font-size="80.0" fill="#FEFFFE" transform="matrix(1.00, 0.00, -0.00, -1.00, 462.4, 17.0)">o</text><text xml:space="preserve" font-family="LeagueGothic-Regular" font-size="80.0" fill="#FEFFFE" transform="matrix(1.00, 0.00, -0.00, -1.00, 487.8, 17.0)">s</text><text xml:space="preserve" font-family="LeagueGothic-Regular" font-size="80.0" fill="#FEFFFE" transform="matrix(1.00, 0.00, -0.00, -1.00, 512.4, 17.0)">y</text><text xml:space="preserve" font-family="LeagueGothic-Regular" font-size="80.0" fill="#FEFFFE" transform="matrix(1.00, 0.00, -0.00, -1.00, 537.2, 17.0)">s</text><text xml:space="preserve" font-family="LeagueGothic-Regular" font-size="80.0" fill="#FEFFFE" transform="matrix(1.00, 0.00, -0.00, -1.00, 561.2, 17.0)">t</text><text xml:space="preserve" font-family="LeagueGothic-Regular" font-size="80.0" fill="#FEFFFE" transform="matrix(1.00, 0.00, -0.00, -1.00, 580.8, 17.0)">e</text><text xml:space="preserve" font-family="LeagueGothic-Regular" font-size="80.0" fill="#FEFFFE" transform="matrix(1.00, 0.00, -0.00, -1.00, 606.4, 17.0)">m</text><text xml:space="preserve" font-family="LeagueGothic-Regular" font-size="80.0" fill="#FEFFFE" transform="matrix(1.00, 0.00, -0.00, -1.00, 646.3, 17.0)">.</text></g></svg>