<?xml version="1.0" encoding="UTF-8" standalone="no"?><svg xmlns="http://www.w3.org/2000/svg" xmlns:xlink="http://www.w3.org/1999/xlink" clip-rule="evenodd" stroke-miterlimit="4.00" viewBox="0 0 95 76"><desc>SVG generated by Keynote</desc><defs></defs><g transform="matrix(1.00, 0.00, -0.00, -1.00, 0.0, 76.0)"><text xml:space="preserve" font-family="AlternateGotNo1D" font-size="38.0" fill="#FEFFFE" transform="matrix(1.00, 0.00, -0.00, -1.00, 31.0, 49.0)">J</text><text xml:space="preserve" font-family="AlternateGotNo1D" font-size="38.0" fill="#FEFFFE" transform="matrix(1.00, 0.00, -0.00, -1.00, 38.7, 49.0)">o</text><text xml:space="preserve" font-family="AlternateGotNo1D" font-size="38.0" fill="#FEFFFE" transform="matrix(1.00, 0.00, -0.00, -1.00, 50.4, 49.0)">b</text><text xml:space="preserve" font-family="AlternateGotNo1D" font-size="38.0" fill="#FEFFFE" transform="matrix(1.00, 0.00, -0.00, -1.00, 62.1, 49.0)"> </text><text xml:space="preserve" font-family="AlternateGotNo1D" font-size="38.0" fill="#FEFFFE" transform="matrix(1.00, 0.00, -0.00, -1.00, 0.0, 3.0)">P</text><text xml:space="preserve" font-family="AlternateGotNo1D" font-size="38.0" fill="#FEFFFE" transform="matrix(1.00, 0.00, -0.00, -1.00, 12.5, 3.0)">r</text><text xml:space="preserve" font-family="AlternateGotNo1D" font-size="38.0" fill="#FEFFFE" transform="matrix(1.00, 0.00, -0.00, -1.00, 21.2, 3.0)">o</text><text xml:space="preserve" font-family="AlternateGotNo1D" font-size="38.0" fill="#FEFFFE" transform="matrix(1.00, 0.00, -0.00, -1.00, 32.9, 3.0)">v</text><text xml:space="preserve" font-family="AlternateGotNo1D" font-size="38.0" fill="#FEFFFE" transform="matrix(1.00, 0.00, -0.00, -1.00, 43.9, 3.0)">i</text><text xml:space="preserve" font-family="AlternateGotNo1D" font-size="38.0" fill="#FEFFFE" transform="matrix(1.00, 0.00, -0.00, -1.00, 50.0, 3.0)">d</text><text xml:space="preserve" font-family="AlternateGotNo1D" font-size="38.0" fill="#FEFFFE" transform="matrix(1.00, 0.00, -0.00, -1.00, 61.7, 3.0)">e</text><text xml:space="preserve" font-family="AlternateGotNo1D" font-size="38.0" fill="#FEFFFE" transform="matrix(1.00, 0.00, -0.00, -1.00, 73.5, 3.0)">r</text><text xml:space="preserve" font-family="AlternateGotNo1D" font-size="38.0" fill="#FEFFFE" transform="matrix(1.00, 0.00, -0.00, -1.00, 82.3, 3.0)">s</text><text xml:space="preserve" font-family="AlternateGotNo1D" font-size="38.0" fill="#FEFFFE" transform="matrix(1.00, 0.00, -0.00, -1.00, 92.7, 3.0)"> </text></g></svg>