<?xml version="1.0" encoding="UTF-8" standalone="no"?><svg xmlns="http://www.w3.org/2000/svg" xmlns:xlink="http://www.w3.org/1999/xlink" clip-rule="evenodd" stroke-miterlimit="4.00" viewBox="0 0 172 172"><desc>SVG generated by Keynote</desc><defs></defs><g transform="matrix(1.00, 0.00, -0.00, -1.00, 0.0, 172.0)"><g><clipPath id="clip-42"><path d="M 1.1 49.3 L 170.7 49.3 L 170.7 114.3 L 1.1 114.3 Z M 1.1 49.3 "></path></clipPath><g clip-path="url(#clip-42)"><text xml:space="preserve" font-family="AlternateGotNo1D" font-size="38.0" fill="#FEFFFE" transform="matrix(1.00, 0.00, -0.00, -1.00, 11.0, 79.0)">E</text><text xml:space="preserve" font-family="AlternateGotNo1D" font-size="38.0" fill="#FEFFFE" transform="matrix(1.00, 0.00, -0.00, -1.00, 22.6, 79.0)">a</text><text xml:space="preserve" font-family="AlternateGotNo1D" font-size="38.0" fill="#FEFFFE" transform="matrix(1.00, 0.00, -0.00, -1.00, 34.4, 79.0)">s</text><text xml:space="preserve" font-family="AlternateGotNo1D" font-size="38.0" fill="#FEFFFE" transform="matrix(1.00, 0.00, -0.00, -1.00, 45.1, 79.0)">y</text><text xml:space="preserve" font-family="AlternateGotNo1D" font-size="38.0" fill="#FEFFFE" transform="matrix(1.00, 0.00, -0.00, -1.00, 55.9, 79.0)"> </text><text xml:space="preserve" font-family="AlternateGotNo1D" font-size="38.0" fill="#FEFFFE" transform="matrix(1.00, 0.00, -0.00, -1.00, 62.5, 79.0)">t</text><text xml:space="preserve" font-family="AlternateGotNo1D" font-size="38.0" fill="#FEFFFE" transform="matrix(1.00, 0.00, -0.00, -1.00, 71.0, 79.0)">o</text><text xml:space="preserve" font-family="AlternateGotNo1D" font-size="38.0" fill="#FEFFFE" transform="matrix(1.00, 0.00, -0.00, -1.00, 82.7, 79.0)"> </text><text xml:space="preserve" font-family="AlternateGotNo1D" font-size="38.0" fill="#FEFFFE" transform="matrix(1.00, 0.00, -0.00, -1.00, 89.3, 79.0)">I</text><text xml:space="preserve" font-family="AlternateGotNo1D" font-size="38.0" fill="#FEFFFE" transform="matrix(1.00, 0.00, -0.00, -1.00, 95.9, 79.0)">n</text><text xml:space="preserve" font-family="AlternateGotNo1D" font-size="38.0" fill="#FEFFFE" transform="matrix(1.00, 0.00, -0.00, -1.00, 107.6, 79.0)">i</text><text xml:space="preserve" font-family="AlternateGotNo1D" font-size="38.0" fill="#FEFFFE" transform="matrix(1.00, 0.00, -0.00, -1.00, 113.8, 79.0)">t</text><text xml:space="preserve" font-family="AlternateGotNo1D" font-size="38.0" fill="#FEFFFE" transform="matrix(1.00, 0.00, -0.00, -1.00, 122.3, 79.0)">i</text><text xml:space="preserve" font-family="AlternateGotNo1D" font-size="38.0" fill="#FEFFFE" transform="matrix(1.00, 0.00, -0.00, -1.00, 128.4, 79.0)">a</text><text xml:space="preserve" font-family="AlternateGotNo1D" font-size="38.0" fill="#FEFFFE" transform="matrix(1.00, 0.00, -0.00, -1.00, 140.3, 79.0)">t</text><text xml:space="preserve" font-family="AlternateGotNo1D" font-size="38.0" fill="#FEFFFE" transform="matrix(1.00, 0.00, -0.00, -1.00, 148.8, 79.0)">e</text></g></g><g><clipPath id="clip-43"><path d="M 0.6 0.1 L 171.7 0.1 L 171.7 171.2 L 0.6 171.2 Z M 0.6 0.1 "></path></clipPath><g clip-path="url(#clip-43)"><path d="M 142.6 24.5 C 175.3 57.1 175.3 110.0 142.6 142.6 C 110.0 175.3 57.1 175.3 24.5 142.6 C -8.2 110.0 -8.2 57.1 24.5 24.5 C 57.1 -8.2 110.0 -8.2 142.6 24.5 Z M 142.6 24.5 " fill="none" stroke="#FEFFFE" stroke-width="2.00" transform="matrix(1.00, 0.00, 0.00, -1.00, 2.6, 169.2)"></path></g></g></g></svg>