<?xml version="1.0" encoding="UTF-8" standalone="no"?><svg xmlns="http://www.w3.org/2000/svg" xmlns:xlink="http://www.w3.org/1999/xlink" clip-rule="evenodd" stroke-miterlimit="4.00" viewBox="0 0 799 32"><desc>SVG generated by Keynote</desc><defs></defs><g transform="matrix(1.00, 0.00, -0.00, -1.00, 0.0, 32.0)"><text xml:space="preserve" font-family="ProximaNova-Bold" font-weight="bold" font-size="32.0" fill="#FEFFFE" transform="matrix(1.00, 0.00, -0.00, -1.00, 0.0, 8.0)">E</text><text xml:space="preserve" font-family="ProximaNova-Bold" font-weight="bold" font-size="32.0" fill="#FEFFFE" transform="matrix(1.00, 0.00, -0.00, -1.00, 18.7, 8.0)">a</text><text xml:space="preserve" font-family="ProximaNova-Bold" font-weight="bold" font-size="32.0" fill="#FEFFFE" transform="matrix(1.00, 0.00, -0.00, -1.00, 36.0, 8.0)">s</text><text xml:space="preserve" font-family="ProximaNova-Bold" font-weight="bold" font-size="32.0" fill="#FEFFFE" transform="matrix(1.00, 0.00, -0.00, -1.00, 51.3, 8.0)">y</text><text xml:space="preserve" font-family="ProximaNova-Bold" font-weight="bold" font-size="32.0" fill="#FEFFFE" transform="matrix(1.00, 0.00, -0.00, -1.00, 67.7, 8.0)"> </text><text xml:space="preserve" font-family="ProximaNova-Bold" font-weight="bold" font-size="32.0" fill="#FEFFFE" transform="matrix(1.00, 0.00, -0.00, -1.00, 75.9, 8.0)">t</text><text xml:space="preserve" font-family="ProximaNova-Bold" font-weight="bold" font-size="32.0" fill="#FEFFFE" transform="matrix(1.00, 0.00, -0.00, -1.00, 86.7, 8.0)">o</text><text xml:space="preserve" font-family="ProximaNova-Bold" font-weight="bold" font-size="32.0" fill="#FEFFFE" transform="matrix(1.00, 0.00, -0.00, -1.00, 105.1, 8.0)"> </text><text xml:space="preserve" font-family="ProximaNova-Bold" font-weight="bold" font-size="32.0" fill="#FEFFFE" transform="matrix(1.00, 0.00, -0.00, -1.00, 113.3, 8.0)">I</text><text xml:space="preserve" font-family="ProximaNova-Bold" font-weight="bold" font-size="32.0" fill="#FEFFFE" transform="matrix(1.00, 0.00, -0.00, -1.00, 122.0, 8.0)">n</text><text xml:space="preserve" font-family="ProximaNova-Bold" font-weight="bold" font-size="32.0" fill="#FEFFFE" transform="matrix(1.00, 0.00, -0.00, -1.00, 140.6, 8.0)">i</text><text xml:space="preserve" font-family="ProximaNova-Bold" font-weight="bold" font-size="32.0" fill="#FEFFFE" transform="matrix(1.00, 0.00, -0.00, -1.00, 148.7, 8.0)">t</text><text xml:space="preserve" font-family="ProximaNova-Bold" font-weight="bold" font-size="32.0" fill="#FEFFFE" transform="matrix(1.00, 0.00, -0.00, -1.00, 159.5, 8.0)">i</text><text xml:space="preserve" font-family="ProximaNova-Bold" font-weight="bold" font-size="32.0" fill="#FEFFFE" transform="matrix(1.00, 0.00, -0.00, -1.00, 167.6, 8.0)">a</text><text xml:space="preserve" font-family="ProximaNova-Bold" font-weight="bold" font-size="32.0" fill="#FEFFFE" transform="matrix(1.00, 0.00, -0.00, -1.00, 185.0, 8.0)">t</text><text xml:space="preserve" font-family="ProximaNova-Bold" font-weight="bold" font-size="32.0" fill="#FEFFFE" transform="matrix(1.00, 0.00, -0.00, -1.00, 195.8, 8.0)">e</text><text xml:space="preserve" font-family="ProximaNova-Bold" font-weight="bold" font-size="32.0" fill="#FEFFFE" transform="matrix(1.00, 0.00, -0.00, -1.00, 213.5, 8.0)">:</text><text xml:space="preserve" font-family="ProximaNova-Light" font-size="32.0" fill="#FEFFFE" transform="matrix(1.00, 0.00, -0.00, -1.00, 221.5, 8.0)"> </text><text xml:space="preserve" font-family="ProximaNova-Light" font-size="32.0" fill="#FEFFFE" transform="matrix(1.00, 0.00, -0.00, -1.00, 229.8, 8.0)">T</text><text xml:space="preserve" font-family="ProximaNova-Light" font-size="32.0" fill="#FEFFFE" transform="matrix(1.00, 0.00, -0.00, -1.00, 245.7, 8.0)">w</text><text xml:space="preserve" font-family="ProximaNova-Light" font-size="32.0" fill="#FEFFFE" transform="matrix(1.00, 0.00, -0.00, -1.00, 268.7, 8.0)">o</text><text xml:space="preserve" font-family="ProximaNova-Light" font-size="32.0" fill="#FEFFFE" transform="matrix(1.00, 0.00, -0.00, -1.00, 286.9, 8.0)">-</text><text xml:space="preserve" font-family="ProximaNova-Light" font-size="32.0" fill="#FEFFFE" transform="matrix(1.00, 0.00, -0.00, -1.00, 296.5, 8.0)">w</text><text xml:space="preserve" font-family="ProximaNova-Light" font-size="32.0" fill="#FEFFFE" transform="matrix(1.00, 0.00, -0.00, -1.00, 319.6, 8.0)">a</text><text xml:space="preserve" font-family="ProximaNova-Light" font-size="32.0" fill="#FEFFFE" transform="matrix(1.00, 0.00, -0.00, -1.00, 336.2, 8.0)">y</text><text xml:space="preserve" font-family="ProximaNova-Light" font-size="32.0" fill="#FEFFFE" transform="matrix(1.00, 0.00, -0.00, -1.00, 351.6, 8.0)"> </text><text xml:space="preserve" font-family="ProximaNova-Light" font-size="32.0" fill="#FEFFFE" transform="matrix(1.00, 0.00, -0.00, -1.00, 359.9, 8.0)">m</text><text xml:space="preserve" font-family="ProximaNova-Light" font-size="32.0" fill="#FEFFFE" transform="matrix(1.00, 0.00, -0.00, -1.00, 385.2, 8.0)">e</text><text xml:space="preserve" font-family="ProximaNova-Light" font-size="32.0" fill="#FEFFFE" transform="matrix(1.00, 0.00, -0.00, -1.00, 403.3, 8.0)">s</text><text xml:space="preserve" font-family="ProximaNova-Light" font-size="32.0" fill="#FEFFFE" transform="matrix(1.00, 0.00, -0.00, -1.00, 418.0, 8.0)">s</text><text xml:space="preserve" font-family="ProximaNova-Light" font-size="32.0" fill="#FEFFFE" transform="matrix(1.00, 0.00, -0.00, -1.00, 432.7, 8.0)">a</text><text xml:space="preserve" font-family="ProximaNova-Light" font-size="32.0" fill="#FEFFFE" transform="matrix(1.00, 0.00, -0.00, -1.00, 449.3, 8.0)">g</text><text xml:space="preserve" font-family="ProximaNova-Light" font-size="32.0" fill="#FEFFFE" transform="matrix(1.00, 0.00, -0.00, -1.00, 467.6, 8.0)">i</text><text xml:space="preserve" font-family="ProximaNova-Light" font-size="32.0" fill="#FEFFFE" transform="matrix(1.00, 0.00, -0.00, -1.00, 474.4, 8.0)">n</text><text xml:space="preserve" font-family="ProximaNova-Light" font-size="32.0" fill="#FEFFFE" transform="matrix(1.00, 0.00, -0.00, -1.00, 491.7, 8.0)">g</text><text xml:space="preserve" font-family="ProximaNova-Light" font-size="32.0" fill="#FEFFFE" transform="matrix(1.00, 0.00, -0.00, -1.00, 510.0, 8.0)"> </text><text xml:space="preserve" font-family="ProximaNova-Light" font-size="32.0" fill="#FEFFFE" transform="matrix(1.00, 0.00, -0.00, -1.00, 518.2, 8.0)">a</text><text xml:space="preserve" font-family="ProximaNova-Light" font-size="32.0" fill="#FEFFFE" transform="matrix(1.00, 0.00, -0.00, -1.00, 534.9, 8.0)">n</text><text xml:space="preserve" font-family="ProximaNova-Light" font-size="32.0" fill="#FEFFFE" transform="matrix(1.00, 0.00, -0.00, -1.00, 552.2, 8.0)">d</text><text xml:space="preserve" font-family="ProximaNova-Light" font-size="32.0" fill="#FEFFFE" transform="matrix(1.00, 0.00, -0.00, -1.00, 570.5, 8.0)"> </text><text xml:space="preserve" font-family="ProximaNova-Light" font-size="32.0" fill="#FEFFFE" transform="matrix(1.00, 0.00, -0.00, -1.00, 578.8, 8.0)">a</text><text xml:space="preserve" font-family="ProximaNova-Light" font-size="32.0" fill="#FEFFFE" transform="matrix(1.00, 0.00, -0.00, -1.00, 595.4, 8.0)">c</text><text xml:space="preserve" font-family="ProximaNova-Light" font-size="32.0" fill="#FEFFFE" transform="matrix(1.00, 0.00, -0.00, -1.00, 611.2, 8.0)">c</text><text xml:space="preserve" font-family="ProximaNova-Light" font-size="32.0" fill="#FEFFFE" transform="matrix(1.00, 0.00, -0.00, -1.00, 627.0, 8.0)">u</text><text xml:space="preserve" font-family="ProximaNova-Light" font-size="32.0" fill="#FEFFFE" transform="matrix(1.00, 0.00, -0.00, -1.00, 644.3, 8.0)">r</text><text xml:space="preserve" font-family="ProximaNova-Light" font-size="32.0" fill="#FEFFFE" transform="matrix(1.00, 0.00, -0.00, -1.00, 654.5, 8.0)">a</text><text xml:space="preserve" font-family="ProximaNova-Light" font-size="32.0" fill="#FEFFFE" transform="matrix(1.00, 0.00, -0.00, -1.00, 671.1, 8.0)">t</text><text xml:space="preserve" font-family="ProximaNova-Light" font-size="32.0" fill="#FEFFFE" transform="matrix(1.00, 0.00, -0.00, -1.00, 679.9, 8.0)">e</text><text xml:space="preserve" font-family="ProximaNova-Light" font-size="32.0" fill="#FEFFFE" transform="matrix(1.00, 0.00, -0.00, -1.00, 698.1, 8.0)"> </text><text xml:space="preserve" font-family="ProximaNova-Light" font-size="32.0" fill="#FEFFFE" transform="matrix(1.00, 0.00, -0.00, -1.00, 706.4, 8.0)">s</text><text xml:space="preserve" font-family="ProximaNova-Light" font-size="32.0" fill="#FEFFFE" transform="matrix(1.00, 0.00, -0.00, -1.00, 721.1, 8.0)">e</text><text xml:space="preserve" font-family="ProximaNova-Light" font-size="32.0" fill="#FEFFFE" transform="matrix(1.00, 0.00, -0.00, -1.00, 739.2, 8.0)">a</text><text xml:space="preserve" font-family="ProximaNova-Light" font-size="32.0" fill="#FEFFFE" transform="matrix(1.00, 0.00, -0.00, -1.00, 755.9, 8.0)">r</text><text xml:space="preserve" font-family="ProximaNova-Light" font-size="32.0" fill="#FEFFFE" transform="matrix(1.00, 0.00, -0.00, -1.00, 766.0, 8.0)">c</text><text xml:space="preserve" font-family="ProximaNova-Light" font-size="32.0" fill="#FEFFFE" transform="matrix(1.00, 0.00, -0.00, -1.00, 781.8, 8.0)">h</text></g></svg>