<?xml version="1.0" encoding="UTF-8" standalone="no"?><svg xmlns="http://www.w3.org/2000/svg" xmlns:xlink="http://www.w3.org/1999/xlink" clip-rule="evenodd" stroke-miterlimit="4.00" viewBox="0 0 838 32"><desc>SVG generated by Keynote</desc><defs></defs><g transform="matrix(1.00, 0.00, -0.00, -1.00, 0.0, 32.0)"><text xml:space="preserve" font-family="ProximaNova-Light" font-size="32.0" fill="#FEFFFE" transform="matrix(1.00, 0.00, -0.00, -1.00, 1.0, 8.0)">d</text><text xml:space="preserve" font-family="ProximaNova-Light" font-size="32.0" fill="#FEFFFE" transform="matrix(1.00, 0.00, -0.00, -1.00, 19.3, 8.0)">e</text><text xml:space="preserve" font-family="ProximaNova-Light" font-size="32.0" fill="#FEFFFE" transform="matrix(1.00, 0.00, -0.00, -1.00, 37.4, 8.0)">v</text><text xml:space="preserve" font-family="ProximaNova-Light" font-size="32.0" fill="#FEFFFE" transform="matrix(1.00, 0.00, -0.00, -1.00, 52.8, 8.0)">i</text><text xml:space="preserve" font-family="ProximaNova-Light" font-size="32.0" fill="#FEFFFE" transform="matrix(1.00, 0.00, -0.00, -1.00, 59.7, 8.0)">c</text><text xml:space="preserve" font-family="ProximaNova-Light" font-size="32.0" fill="#FEFFFE" transform="matrix(1.00, 0.00, -0.00, -1.00, 75.5, 8.0)">e</text><text xml:space="preserve" font-family="ProximaNova-Light" font-size="32.0" fill="#FEFFFE" transform="matrix(1.00, 0.00, -0.00, -1.00, 93.6, 8.0)">s</text><text xml:space="preserve" font-family="ProximaNova-Light" font-size="32.0" fill="#FEFFFE" transform="matrix(1.00, 0.00, -0.00, -1.00, 108.3, 8.0)">,</text><text xml:space="preserve" font-family="ProximaNova-Light" font-size="32.0" fill="#FEFFFE" transform="matrix(1.00, 0.00, -0.00, -1.00, 115.3, 8.0)"> </text><text xml:space="preserve" font-family="ProximaNova-Light" font-size="32.0" fill="#FEFFFE" transform="matrix(1.00, 0.00, -0.00, -1.00, 123.6, 8.0)">a</text><text xml:space="preserve" font-family="ProximaNova-Light" font-size="32.0" fill="#FEFFFE" transform="matrix(1.00, 0.00, -0.00, -1.00, 140.3, 8.0)">l</text><text xml:space="preserve" font-family="ProximaNova-Light" font-size="32.0" fill="#FEFFFE" transform="matrix(1.00, 0.00, -0.00, -1.00, 147.1, 8.0)">o</text><text xml:space="preserve" font-family="ProximaNova-Light" font-size="32.0" fill="#FEFFFE" transform="matrix(1.00, 0.00, -0.00, -1.00, 165.4, 8.0)">n</text><text xml:space="preserve" font-family="ProximaNova-Light" font-size="32.0" fill="#FEFFFE" transform="matrix(1.00, 0.00, -0.00, -1.00, 182.7, 8.0)">g</text><text xml:space="preserve" font-family="ProximaNova-Light" font-size="32.0" fill="#FEFFFE" transform="matrix(1.00, 0.00, -0.00, -1.00, 200.9, 8.0)"> </text><text xml:space="preserve" font-family="ProximaNova-Light" font-size="32.0" fill="#FEFFFE" transform="matrix(1.00, 0.00, -0.00, -1.00, 209.2, 8.0)">w</text><text xml:space="preserve" font-family="ProximaNova-Light" font-size="32.0" fill="#FEFFFE" transform="matrix(1.00, 0.00, -0.00, -1.00, 232.2, 8.0)">i</text><text xml:space="preserve" font-family="ProximaNova-Light" font-size="32.0" fill="#FEFFFE" transform="matrix(1.00, 0.00, -0.00, -1.00, 239.0, 8.0)">t</text><text xml:space="preserve" font-family="ProximaNova-Light" font-size="32.0" fill="#FEFFFE" transform="matrix(1.00, 0.00, -0.00, -1.00, 247.8, 8.0)">h</text><text xml:space="preserve" font-family="ProximaNova-Light" font-size="32.0" fill="#FEFFFE" transform="matrix(1.00, 0.00, -0.00, -1.00, 265.1, 8.0)"> </text><text xml:space="preserve" font-family="ProximaNova-Light" font-size="32.0" fill="#FEFFFE" transform="matrix(1.00, 0.00, -0.00, -1.00, 273.4, 8.0)">c</text><text xml:space="preserve" font-family="ProximaNova-Light" font-size="32.0" fill="#FEFFFE" transform="matrix(1.00, 0.00, -0.00, -1.00, 289.2, 8.0)">l</text><text xml:space="preserve" font-family="ProximaNova-Light" font-size="32.0" fill="#FEFFFE" transform="matrix(1.00, 0.00, -0.00, -1.00, 296.1, 8.0)">e</text><text xml:space="preserve" font-family="ProximaNova-Light" font-size="32.0" fill="#FEFFFE" transform="matrix(1.00, 0.00, -0.00, -1.00, 314.2, 8.0)">a</text><text xml:space="preserve" font-family="ProximaNova-Light" font-size="32.0" fill="#FEFFFE" transform="matrix(1.00, 0.00, -0.00, -1.00, 330.9, 8.0)">r</text><text xml:space="preserve" font-family="ProximaNova-Light" font-size="32.0" fill="#FEFFFE" transform="matrix(1.00, 0.00, -0.00, -1.00, 341.0, 8.0)"> </text><text xml:space="preserve" font-family="ProximaNova-Light" font-size="32.0" fill="#FEFFFE" transform="matrix(1.00, 0.00, -0.00, -1.00, 349.3, 8.0)">i</text><text xml:space="preserve" font-family="ProximaNova-Light" font-size="32.0" fill="#FEFFFE" transform="matrix(1.00, 0.00, -0.00, -1.00, 356.2, 8.0)">n</text><text xml:space="preserve" font-family="ProximaNova-Light" font-size="32.0" fill="#FEFFFE" transform="matrix(1.00, 0.00, -0.00, -1.00, 373.4, 8.0)">s</text><text xml:space="preserve" font-family="ProximaNova-Light" font-size="32.0" fill="#FEFFFE" transform="matrix(1.00, 0.00, -0.00, -1.00, 388.1, 8.0)">t</text><text xml:space="preserve" font-family="ProximaNova-Light" font-size="32.0" fill="#FEFFFE" transform="matrix(1.00, 0.00, -0.00, -1.00, 396.9, 8.0)">r</text><text xml:space="preserve" font-family="ProximaNova-Light" font-size="32.0" fill="#FEFFFE" transform="matrix(1.00, 0.00, -0.00, -1.00, 407.1, 8.0)">u</text><text xml:space="preserve" font-family="ProximaNova-Light" font-size="32.0" fill="#FEFFFE" transform="matrix(1.00, 0.00, -0.00, -1.00, 424.4, 8.0)">c</text><text xml:space="preserve" font-family="ProximaNova-Light" font-size="32.0" fill="#FEFFFE" transform="matrix(1.00, 0.00, -0.00, -1.00, 440.2, 8.0)">t</text><text xml:space="preserve" font-family="ProximaNova-Light" font-size="32.0" fill="#FEFFFE" transform="matrix(1.00, 0.00, -0.00, -1.00, 449.0, 8.0)">i</text><text xml:space="preserve" font-family="ProximaNova-Light" font-size="32.0" fill="#FEFFFE" transform="matrix(1.00, 0.00, -0.00, -1.00, 455.8, 8.0)">o</text><text xml:space="preserve" font-family="ProximaNova-Light" font-size="32.0" fill="#FEFFFE" transform="matrix(1.00, 0.00, -0.00, -1.00, 474.1, 8.0)">n</text><text xml:space="preserve" font-family="ProximaNova-Light" font-size="32.0" fill="#FEFFFE" transform="matrix(1.00, 0.00, -0.00, -1.00, 491.4, 8.0)">s</text><text xml:space="preserve" font-family="ProximaNova-Light" font-size="32.0" fill="#FEFFFE" transform="matrix(1.00, 0.00, -0.00, -1.00, 506.1, 8.0)"> </text><text xml:space="preserve" font-family="ProximaNova-Light" font-size="32.0" fill="#FEFFFE" transform="matrix(1.00, 0.00, -0.00, -1.00, 514.3, 8.0)">w</text><text xml:space="preserve" font-family="ProximaNova-Light" font-size="32.0" fill="#FEFFFE" transform="matrix(1.00, 0.00, -0.00, -1.00, 537.4, 8.0)">i</text><text xml:space="preserve" font-family="ProximaNova-Light" font-size="32.0" fill="#FEFFFE" transform="matrix(1.00, 0.00, -0.00, -1.00, 544.2, 8.0)">l</text><text xml:space="preserve" font-family="ProximaNova-Light" font-size="32.0" fill="#FEFFFE" transform="matrix(1.00, 0.00, -0.00, -1.00, 551.0, 8.0)">l</text><text xml:space="preserve" font-family="ProximaNova-Light" font-size="32.0" fill="#FEFFFE" transform="matrix(1.00, 0.00, -0.00, -1.00, 557.9, 8.0)"> </text><text xml:space="preserve" font-family="ProximaNova-Light" font-size="32.0" fill="#FEFFFE" transform="matrix(1.00, 0.00, -0.00, -1.00, 566.2, 8.0)">m</text><text xml:space="preserve" font-family="ProximaNova-Light" font-size="32.0" fill="#FEFFFE" transform="matrix(1.00, 0.00, -0.00, -1.00, 591.4, 8.0)">a</text><text xml:space="preserve" font-family="ProximaNova-Light" font-size="32.0" fill="#FEFFFE" transform="matrix(1.00, 0.00, -0.00, -1.00, 608.1, 8.0)">k</text><text xml:space="preserve" font-family="ProximaNova-Light" font-size="32.0" fill="#FEFFFE" transform="matrix(1.00, 0.00, -0.00, -1.00, 624.2, 8.0)">e</text><text xml:space="preserve" font-family="ProximaNova-Light" font-size="32.0" fill="#FEFFFE" transform="matrix(1.00, 0.00, -0.00, -1.00, 642.4, 8.0)"> </text><text xml:space="preserve" font-family="ProximaNova-Light" font-size="32.0" fill="#FEFFFE" transform="matrix(1.00, 0.00, -0.00, -1.00, 650.7, 8.0)">f</text><text xml:space="preserve" font-family="ProximaNova-Light" font-size="32.0" fill="#FEFFFE" transform="matrix(1.00, 0.00, -0.00, -1.00, 659.1, 8.0)">e</text><text xml:space="preserve" font-family="ProximaNova-Light" font-size="32.0" fill="#FEFFFE" transform="matrix(1.00, 0.00, -0.00, -1.00, 677.3, 8.0)">a</text><text xml:space="preserve" font-family="ProximaNova-Light" font-size="32.0" fill="#FEFFFE" transform="matrix(1.00, 0.00, -0.00, -1.00, 694.0, 8.0)">t</text><text xml:space="preserve" font-family="ProximaNova-Light" font-size="32.0" fill="#FEFFFE" transform="matrix(1.00, 0.00, -0.00, -1.00, 702.8, 8.0)">u</text><text xml:space="preserve" font-family="ProximaNova-Light" font-size="32.0" fill="#FEFFFE" transform="matrix(1.00, 0.00, -0.00, -1.00, 720.0, 8.0)">r</text><text xml:space="preserve" font-family="ProximaNova-Light" font-size="32.0" fill="#FEFFFE" transform="matrix(1.00, 0.00, -0.00, -1.00, 730.2, 8.0)">e</text><text xml:space="preserve" font-family="ProximaNova-Light" font-size="32.0" fill="#FEFFFE" transform="matrix(1.00, 0.00, -0.00, -1.00, 748.3, 8.0)">s</text><text xml:space="preserve" font-family="ProximaNova-Light" font-size="32.0" fill="#FEFFFE" transform="matrix(1.00, 0.00, -0.00, -1.00, 763.0, 8.0)"> </text><text xml:space="preserve" font-family="ProximaNova-Light" font-size="32.0" fill="#FEFFFE" transform="matrix(1.00, 0.00, -0.00, -1.00, 771.3, 8.0)">e</text><text xml:space="preserve" font-family="ProximaNova-Light" font-size="32.0" fill="#FEFFFE" transform="matrix(1.00, 0.00, -0.00, -1.00, 789.4, 8.0)">a</text><text xml:space="preserve" font-family="ProximaNova-Light" font-size="32.0" fill="#FEFFFE" transform="matrix(1.00, 0.00, -0.00, -1.00, 806.1, 8.0)">s</text><text xml:space="preserve" font-family="ProximaNova-Light" font-size="32.0" fill="#FEFFFE" transform="matrix(1.00, 0.00, -0.00, -1.00, 820.8, 8.0)">y</text></g></svg>