<?xml version="1.0" encoding="UTF-8" standalone="no"?><svg xmlns="http://www.w3.org/2000/svg" xmlns:xlink="http://www.w3.org/1999/xlink" clip-rule="evenodd" stroke-miterlimit="4.00" viewBox="0 0 64 14"><desc>SVG generated by Keynote</desc><defs></defs><g transform="matrix(1.00, 0.00, -0.00, -1.00, 0.0, 14.0)"><g><clipPath id="clip-6530"><path d="M -128.0 440.0 L 192.0 440.0 L 192.0 -353.0 L -128.0 -353.0 Z M -128.0 440.0 "></path></clipPath><g clip-path="url(#clip-6530)"><g><clipPath id="clip-6531"><path d="M 7.5 2.0 C 10.0 2.0 12.0 4.0 12.0 6.5 C 12.0 9.0 10.0 11.0 7.5 11.0 C 5.0 11.0 3.0 9.0 3.0 6.5 C 3.0 4.0 5.0 2.0 7.5 2.0 Z M 7.5 2.0 "></path></clipPath><g clip-path="url(#clip-6531)"><g><clipPath id="clip-6532"><path d="M 2.0 1.0 L 63.0 1.0 L 63.0 12.0 L 2.0 12.0 Z M 2.0 1.0 "></path></clipPath><g clip-path="url(#clip-6532)"><path d="M -2.0 16.0 L 17.0 16.0 L 17.0 -3.0 L -2.0 -3.0 Z M -2.0 16.0 " fill="#9B9A9B"></path></g></g></g></g></g></g><g><clipPath id="clip-6533"><path d="M -128.0 440.0 L 192.0 440.0 L 192.0 -353.0 L -128.0 -353.0 Z M -128.0 440.0 "></path></clipPath><g clip-path="url(#clip-6533)"><g><clipPath id="clip-6534"><path d="M 2.0 1.0 L 63.0 1.0 L 63.0 12.0 L 2.0 12.0 Z M 2.0 1.0 "></path></clipPath><g clip-path="url(#clip-6534)"><path d="M 4.5 9.0 C 7.0 9.0 9.0 7.0 9.0 4.5 C 9.0 2.0 7.0 0.0 4.5 0.0 C 2.0 0.0 0.0 2.0 0.0 4.5 C 0.0 7.0 2.0 9.0 4.5 9.0 Z M 4.5 9.0 " fill="none" stroke="#969696" stroke-width="0.85" stroke-miterlimit="0.00" transform="matrix(1.00, 0.00, 0.00, -1.00, 3.0, 11.0)"></path></g></g></g></g><g><clipPath id="clip-6535"><path d="M -128.0 440.0 L 192.0 440.0 L 192.0 -353.0 L -128.0 -353.0 Z M -128.0 440.0 "></path></clipPath><g clip-path="url(#clip-6535)"><g><clipPath id="clip-6536"><path d="M 41.0 2.0 C 43.5 2.0 45.5 4.0 45.5 6.5 C 45.5 9.0 43.5 11.0 41.0 11.0 C 38.5 11.0 36.5 9.0 36.5 6.5 C 36.5 4.0 38.5 2.0 41.0 2.0 Z M 41.0 2.0 "></path></clipPath><g clip-path="url(#clip-6536)"><g><clipPath id="clip-6537"><path d="M 2.0 1.0 L 63.0 1.0 L 63.0 12.0 L 2.0 12.0 Z M 2.0 1.0 "></path></clipPath><g clip-path="url(#clip-6537)"><path d="M 31.5 16.0 L 50.5 16.0 L 50.5 -3.0 L 31.5 -3.0 Z M 31.5 16.0 " fill="#9B9A9B"></path></g></g></g></g></g></g><g><clipPath id="clip-6538"><path d="M -128.0 440.0 L 192.0 440.0 L 192.0 -353.0 L -128.0 -353.0 Z M -128.0 440.0 "></path></clipPath><g clip-path="url(#clip-6538)"><g><clipPath id="clip-6539"><path d="M 2.0 1.0 L 63.0 1.0 L 63.0 12.0 L 2.0 12.0 Z M 2.0 1.0 "></path></clipPath><g clip-path="url(#clip-6539)"><path d="M 4.5 9.0 C 7.0 9.0 9.0 7.0 9.0 4.5 C 9.0 2.0 7.0 0.0 4.5 0.0 C 2.0 0.0 0.0 2.0 0.0 4.5 C 0.0 7.0 2.0 9.0 4.5 9.0 Z M 4.5 9.0 " fill="none" stroke="#969696" stroke-width="0.85" stroke-miterlimit="0.00" transform="matrix(1.00, 0.00, 0.00, -1.00, 36.5, 11.0)"></path></g></g></g></g><g><clipPath id="clip-6540"><path d="M -128.0 440.0 L 192.0 440.0 L 192.0 -353.0 L -128.0 -353.0 Z M -128.0 440.0 "></path></clipPath><g clip-path="url(#clip-6540)"><g><clipPath id="clip-6541"><path d="M 24.0 2.0 C 26.5 2.0 28.5 4.0 28.5 6.5 C 28.5 9.0 26.5 11.0 24.0 11.0 C 21.5 11.0 19.5 9.0 19.5 6.5 C 19.5 4.0 21.5 2.0 24.0 2.0 Z M 24.0 2.0 "></path></clipPath><g clip-path="url(#clip-6541)"><g><clipPath id="clip-6542"><path d="M 2.0 1.0 L 63.0 1.0 L 63.0 12.0 L 2.0 12.0 Z M 2.0 1.0 "></path></clipPath><g clip-path="url(#clip-6542)"><path d="M 14.5 16.0 L 33.5 16.0 L 33.5 -3.0 L 14.5 -3.0 Z M 14.5 16.0 " fill="#9B9A9B"></path></g></g></g></g></g></g><g><clipPath id="clip-6543"><path d="M -128.0 440.0 L 192.0 440.0 L 192.0 -353.0 L -128.0 -353.0 Z M -128.0 440.0 "></path></clipPath><g clip-path="url(#clip-6543)"><g><clipPath id="clip-6544"><path d="M 2.0 1.0 L 63.0 1.0 L 63.0 12.0 L 2.0 12.0 Z M 2.0 1.0 "></path></clipPath><g clip-path="url(#clip-6544)"><path d="M 4.5 9.0 C 7.0 9.0 9.0 7.0 9.0 4.5 C 9.0 2.0 7.0 0.0 4.5 0.0 C 2.0 0.0 0.0 2.0 0.0 4.5 C 0.0 7.0 2.0 9.0 4.5 9.0 Z M 4.5 9.0 " fill="none" stroke="#969696" stroke-width="0.85" stroke-miterlimit="0.00" transform="matrix(1.00, 0.00, 0.00, -1.00, 19.5, 11.0)"></path></g></g></g></g><g><clipPath id="clip-6545"><path d="M -128.0 440.0 L 192.0 440.0 L 192.0 -353.0 L -128.0 -353.0 Z M -128.0 440.0 "></path></clipPath><g clip-path="url(#clip-6545)"><g><clipPath id="clip-6546"><path d="M 58.0 2.0 C 60.5 2.0 62.5 4.0 62.5 6.5 C 62.5 9.0 60.5 11.0 58.0 11.0 C 55.5 11.0 53.5 9.0 53.5 6.5 C 53.5 4.0 55.5 2.0 58.0 2.0 Z M 58.0 2.0 "></path></clipPath><g clip-path="url(#clip-6546)"><g><clipPath id="clip-6547"><path d="M 2.0 1.0 L 63.0 1.0 L 63.0 12.0 L 2.0 12.0 Z M 2.0 1.0 "></path></clipPath><g clip-path="url(#clip-6547)"><path d="M 48.5 16.0 L 67.5 16.0 L 67.5 -3.0 L 48.5 -3.0 Z M 48.5 16.0 " fill="#9B9A9B"></path></g></g></g></g></g></g><g><clipPath id="clip-6548"><path d="M -128.0 440.0 L 192.0 440.0 L 192.0 -353.0 L -128.0 -353.0 Z M -128.0 440.0 "></path></clipPath><g clip-path="url(#clip-6548)"><g><clipPath id="clip-6549"><path d="M 2.0 1.0 L 63.0 1.0 L 63.0 12.0 L 2.0 12.0 Z M 2.0 1.0 "></path></clipPath><g clip-path="url(#clip-6549)"><path d="M 4.5 9.0 C 7.0 9.0 9.0 7.0 9.0 4.5 C 9.0 2.0 7.0 0.0 4.5 0.0 C 2.0 0.0 0.0 2.0 0.0 4.5 C 0.0 7.0 2.0 9.0 4.5 9.0 Z M 4.5 9.0 " fill="none" stroke="#969696" stroke-width="0.85" stroke-miterlimit="0.00" transform="matrix(1.00, 0.00, 0.00, -1.00, 53.5, 11.0)"></path></g></g></g></g></g></svg>