<?xml version="1.0" encoding="UTF-8" standalone="no"?><svg xmlns="http://www.w3.org/2000/svg" xmlns:xlink="http://www.w3.org/1999/xlink" clip-rule="evenodd" stroke-miterlimit="4.00" viewBox="0 0 1024 768"><desc>SVG generated by Keynote</desc><defs></defs><g transform="matrix(1.00, 0.00, -0.00, -1.00, 0.0, 768.0)"><path d="M 0.0 768.0 L 1024.0 768.0 L 1024.0 0.0 L 0.0 0.0 Z M 0.0 768.0 " fill="#0177E2"></path><g opacity="0.72"><g><clipPath id="clip-5392"><path d="M 851.0 720.0 L 994.0 720.0 L 994.0 747.0 L 851.0 747.0 Z M 851.0 720.0 "></path></clipPath><g clip-path="url(#clip-5392)"><image xlink:href="../../394A620D-BE44-4D88-ACA4-1C582DF687B9/assets/5C9EAEBBFCA889D5DB9B012F06543616.png" width="141.00" height="23.00" transform="matrix(1.00, 0.00, -0.00, -1.04, 852.0, 745.0)"></image></g></g></g><text xml:space="preserve" font-family="LeagueGothic-Regular" font-size="40.0" fill="#FEFFFE" transform="matrix(1.00, 0.00, -0.00, -1.00, 16.0, 713.0)">V</text><text xml:space="preserve" font-family="LeagueGothic-Regular" font-size="40.0" fill="#FEFFFE" transform="matrix(1.00, 0.00, -0.00, -1.00, 30.0, 713.0)">I</text><text xml:space="preserve" font-family="LeagueGothic-Regular" font-size="40.0" fill="#FEFFFE" transform="matrix(1.00, 0.00, -0.00, -1.00, 37.5, 713.0)">R</text><text xml:space="preserve" font-family="LeagueGothic-Regular" font-size="40.0" fill="#FEFFFE" transform="matrix(1.00, 0.00, -0.00, -1.00, 52.0, 713.0)">T</text><text xml:space="preserve" font-family="LeagueGothic-Regular" font-size="40.0" fill="#FEFFFE" transform="matrix(1.00, 0.00, -0.00, -1.00, 64.6, 713.0)">U</text><text xml:space="preserve" font-family="LeagueGothic-Regular" font-size="40.0" fill="#FEFFFE" transform="matrix(1.00, 0.00, -0.00, -1.00, 79.2, 713.0)">A</text><text xml:space="preserve" font-family="LeagueGothic-Regular" font-size="40.0" fill="#FEFFFE" transform="matrix(1.00, 0.00, -0.00, -1.00, 94.2, 713.0)">L</text><text xml:space="preserve" font-family="LeagueGothic-Regular" font-size="40.0" fill="#FEFFFE" transform="matrix(1.00, 0.00, -0.00, -1.00, 106.0, 713.0)"> </text><text xml:space="preserve" font-family="LeagueGothic-Regular" font-size="40.0" fill="#FEFFFE" transform="matrix(1.00, 0.00, -0.00, -1.00, 112.2, 713.0)">J</text><text xml:space="preserve" font-family="LeagueGothic-Regular" font-size="40.0" fill="#FEFFFE" transform="matrix(1.00, 0.00, -0.00, -1.00, 120.4, 713.0)">O</text><text xml:space="preserve" font-family="LeagueGothic-Regular" font-size="40.0" fill="#FEFFFE" transform="matrix(1.00, 0.00, -0.00, -1.00, 134.6, 713.0)">B</text><text xml:space="preserve" font-family="LeagueGothic-Regular" font-size="40.0" fill="#FEFFFE" transform="matrix(1.00, 0.00, -0.00, -1.00, 149.2, 713.0)"> </text><text xml:space="preserve" font-family="LeagueGothic-Regular" font-size="40.0" fill="#FEFFFE" transform="matrix(1.00, 0.00, -0.00, -1.00, 155.3, 713.0)">S</text><text xml:space="preserve" font-family="LeagueGothic-Regular" font-size="40.0" fill="#FEFFFE" transform="matrix(1.00, 0.00, -0.00, -1.00, 169.0, 713.0)">C</text><text xml:space="preserve" font-family="LeagueGothic-Regular" font-size="40.0" fill="#FEFFFE" transform="matrix(1.00, 0.00, -0.00, -1.00, 182.9, 713.0)">O</text><text xml:space="preserve" font-family="LeagueGothic-Regular" font-size="40.0" fill="#FEFFFE" transform="matrix(1.00, 0.00, -0.00, -1.00, 197.0, 713.0)">U</text><text xml:space="preserve" font-family="LeagueGothic-Regular" font-size="40.0" fill="#FEFFFE" transform="matrix(1.00, 0.00, -0.00, -1.00, 211.7, 713.0)">T</text><text xml:space="preserve" font-family="LeagueGothic-Regular" font-size="40.0" fill="#FEFFFE" transform="matrix(1.00, 0.00, -0.00, -1.00, 224.3, 713.0)"> </text><text xml:space="preserve" font-family="LeagueGothic-Regular" font-size="40.0" fill="#FEFFFE" transform="matrix(1.00, 0.00, -0.00, -1.00, 230.5, 713.0)">V</text><text xml:space="preserve" font-family="LeagueGothic-Regular" font-size="40.0" fill="#FEFFFE" transform="matrix(1.00, 0.00, -0.00, -1.00, 244.5, 713.0)">.</text><text xml:space="preserve" font-family="LeagueGothic-Regular" font-size="40.0" fill="#FEFFFE" transform="matrix(1.00, 0.00, -0.00, -1.00, 250.8, 713.0)">2</text><g><clipPath id="clip-5393"><path d="M 409.6 505.3 L 1098.8 505.3 L 1098.8 -39.2 L 409.6 -39.2 Z M 409.6 505.3 "></path></clipPath><g clip-path="url(#clip-5393)"><g><clipPath id="clip-5394"><path d="M 990.2 135.1 L 946.5 135.1 C 947.0 136.6 947.3 138.2 947.3 139.8 L 947.3 377.7 C 947.3 385.6 940.9 392.0 933.0 392.0 L 576.1 392.0 C 568.2 392.0 561.8 385.6 561.8 377.7 L 561.8 139.8 C 561.8 138.2 562.0 136.6 562.5 135.1 L 518.7 135.1 C 518.3 135.1 518.0 134.8 518.0 134.4 L 518.0 127.1 C 518.0 126.9 518.0 126.3 518.5 125.9 C 518.7 125.8 518.8 125.7 519.0 125.6 C 519.0 125.6 519.0 125.6 519.0 125.6 C 522.2 123.3 530.4 120.0 539.6 120.0 L 969.4 120.0 C 978.6 120.0 986.8 123.3 990.0 125.6 C 990.0 125.6 990.0 125.6 990.0 125.6 C 990.2 125.7 990.4 125.8 990.6 126.0 C 991.0 126.3 991.0 126.8 991.0 127.0 L 991.0 134.4 C 991.0 134.8 990.6 135.1 990.2 135.1 L 990.2 135.1 Z M 562.7 139.8 L 562.7 377.7 C 562.7 385.0 568.7 391.0 576.1 391.0 L 933.0 391.0 C 940.3 391.0 946.3 385.0 946.3 377.7 L 946.3 139.8 C 946.3 138.2 946.0 136.6 945.5 135.1 L 906.4 135.1 L 906.4 135.4 L 905.2 140.5 L 940.0 140.5 C 942.8 140.5 945.0 142.8 945.0 145.5 L 945.0 377.9 C 945.0 384.4 939.7 389.7 933.1 389.7 L 575.9 389.7 C 569.4 389.7 564.1 384.4 564.1 377.9 L 564.1 145.5 C 564.1 142.8 566.3 140.5 569.0 140.5 L 602.7 140.5 L 601.5 135.1 L 563.6 135.1 C 563.0 136.6 562.7 138.2 562.7 139.8 L 562.7 139.8 Z M 721.0 135.1 L 602.5 135.1 L 603.7 140.5 L 904.2 140.5 L 905.4 135.1 L 721.0 135.1 L 721.0 135.1 Z M 786.9 134.2 C 786.6 132.6 785.0 129.8 782.3 129.8 L 726.7 129.8 C 724.0 129.8 722.4 132.6 722.1 134.2 L 786.9 134.2 L 786.9 134.2 Z M 569.0 141.5 C 566.8 141.5 565.1 143.3 565.1 145.5 L 565.1 377.9 C 565.1 383.8 569.9 388.7 575.9 388.7 L 933.1 388.7 C 939.1 388.7 944.0 383.8 944.0 377.9 L 944.0 145.5 C 944.0 143.3 942.2 141.5 940.0 141.5 L 569.0 141.5 L 569.0 141.5 Z M 519.0 134.2 L 721.1 134.2 C 721.4 132.1 723.3 128.8 726.7 128.8 L 782.3 128.8 C 785.7 128.8 787.6 132.1 787.9 134.2 L 990.0 134.2 L 990.0 127.0 C 990.0 126.9 990.0 126.8 990.0 126.7 C 989.8 126.6 989.7 126.6 989.6 126.5 L 519.4 126.5 C 519.3 126.5 519.2 126.6 519.1 126.7 C 519.0 126.7 519.0 126.8 519.0 127.1 L 519.0 134.2 L 519.0 134.2 Z M 969.4 121.0 L 539.6 121.0 C 531.8 121.0 524.8 123.4 521.0 125.5 L 988.0 125.5 C 984.2 123.4 977.2 121.0 969.4 121.0 L 969.4 121.0 Z M 969.4 121.0 "></path></clipPath><g clip-path="url(#clip-5394)"><g><clipPath id="clip-5395"><path d="M 518.0 120.0 L 991.0 120.0 L 991.0 392.0 L 518.0 392.0 Z M 518.0 120.0 "></path></clipPath><g clip-path="url(#clip-5395)"><path d="M 516.5 393.5 L 992.5 393.5 L 992.5 118.5 L 516.5 118.5 Z M 516.5 393.5 " fill="#221F1F"></path></g></g></g></g></g></g><g><clipPath id="clip-5396"><path d="M 409.6 505.3 L 1098.8 505.3 L 1098.8 -39.2 L 409.6 -39.2 Z M 409.6 505.3 "></path></clipPath><g clip-path="url(#clip-5396)"><g><clipPath id="clip-5397"><path d="M 934.1 376.9 L 574.6 376.9 C 573.9 376.9 573.4 376.3 573.4 375.6 L 573.4 151.5 C 573.4 150.8 573.9 150.2 574.6 150.2 L 934.1 150.2 C 934.8 150.2 935.3 150.8 935.3 151.5 L 935.3 375.6 C 935.3 376.3 934.8 376.9 934.1 376.9 L 934.1 376.9 Z M 574.6 375.6 L 934.1 375.6 L 934.1 151.5 L 574.6 151.5 L 574.6 375.6 Z M 574.6 375.6 "></path></clipPath><g clip-path="url(#clip-5397)"><g><clipPath id="clip-5398"><path d="M 518.0 120.0 L 991.0 120.0 L 991.0 392.0 L 518.0 392.0 Z M 518.0 120.0 "></path></clipPath><g clip-path="url(#clip-5398)"><path d="M 571.9 378.3 L 936.8 378.3 L 936.8 148.8 L 571.9 148.8 Z M 571.9 378.3 " fill="#221F1F"></path></g></g></g></g></g></g><g><clipPath id="clip-5399"><path d="M 409.6 505.3 L 1098.8 505.3 L 1098.8 -39.2 L 409.6 -39.2 Z M 409.6 505.3 "></path></clipPath><g clip-path="url(#clip-5399)"><g><clipPath id="clip-5400"><path d="M 754.6 380.1 C 755.8 380.1 756.7 381.0 756.7 382.1 C 756.7 383.2 755.8 384.2 754.6 384.2 C 753.5 384.2 752.6 383.2 752.6 382.1 C 752.6 381.0 753.5 380.1 754.6 380.1 L 754.6 380.1 Z M 754.6 383.1 C 755.2 383.1 755.7 382.7 755.7 382.1 C 755.7 381.6 755.2 381.1 754.6 381.1 C 754.1 381.1 753.6 381.6 753.6 382.1 C 753.6 382.7 754.1 383.1 754.6 383.1 L 754.6 383.1 Z M 754.6 383.1 "></path></clipPath><g clip-path="url(#clip-5400)"><g><clipPath id="clip-5401"><path d="M 518.0 120.0 L 991.0 120.0 L 991.0 392.0 L 518.0 392.0 Z M 518.0 120.0 "></path></clipPath><g clip-path="url(#clip-5401)"><path d="M 751.1 385.6 L 758.1 385.6 L 758.1 378.6 L 751.1 378.6 Z M 751.1 385.6 " fill="#221F1F"></path></g></g></g></g></g></g><g><clipPath id="clip-5402"><path d="M 409.6 505.3 L 1098.8 505.3 L 1098.8 -39.2 L 409.6 -39.2 Z M 409.6 505.3 "></path></clipPath><g clip-path="url(#clip-5402)"><g><clipPath id="clip-5403"><path d="M 680.8 121.7 L 680.8 121.7 C 680.9 121.7 681.0 121.7 681.1 121.7 C 682.5 121.8 683.3 122.0 683.5 122.5 C 683.6 122.7 683.5 122.9 683.4 123.1 C 682.8 123.7 680.8 123.8 680.4 123.8 C 680.3 123.8 680.2 123.8 680.1 123.8 C 678.8 123.7 678.0 123.5 677.8 123.1 C 677.7 122.8 677.7 122.6 677.9 122.4 C 678.4 121.8 680.4 121.7 680.8 121.7 "></path></clipPath><g clip-path="url(#clip-5403)"><g><clipPath id="clip-5404"><path d="M 518.0 120.0 L 991.0 120.0 L 991.0 392.0 L 518.0 392.0 Z M 518.0 120.0 "></path></clipPath><g clip-path="url(#clip-5404)"><path d="M 676.2 125.2 L 685.0 125.2 L 685.0 120.3 L 676.2 120.3 Z M 676.2 125.2 " fill="#221F1F"></path></g></g></g></g></g></g><g><clipPath id="clip-5405"><path d="M 409.6 505.3 L 1098.8 505.3 L 1098.8 -39.2 L 409.6 -39.2 Z M 409.6 505.3 "></path></clipPath><g clip-path="url(#clip-5405)"><g><clipPath id="clip-5406"><path d="M 827.0 121.7 C 827.1 121.7 827.2 121.7 827.3 121.7 C 827.7 121.7 829.7 121.8 830.2 122.4 C 830.4 122.6 830.5 122.8 830.4 123.1 C 830.2 123.5 829.4 123.7 828.0 123.8 C 827.9 123.8 827.8 123.8 827.7 123.8 C 827.3 123.8 825.3 123.7 824.8 123.1 C 824.6 122.9 824.5 122.7 824.6 122.5 C 824.8 122.0 825.6 121.8 827.0 121.7 "></path></clipPath><g clip-path="url(#clip-5406)"><g><clipPath id="clip-5407"><path d="M 518.0 120.0 L 991.0 120.0 L 991.0 392.0 L 518.0 392.0 Z M 518.0 120.0 "></path></clipPath><g clip-path="url(#clip-5407)"><path d="M 823.1 125.2 L 831.9 125.2 L 831.9 120.3 L 823.1 120.3 Z M 823.1 125.2 " fill="#221F1F"></path></g></g></g></g></g></g><path d="M 480.9 422.6 L 669.3 422.6 L 669.3 110.0 L 480.9 110.0 Z M 480.9 422.6 " fill="#0177E2"></path><g><clipPath id="clip-5408"><path d="M 360.0 701.0 L 664.0 701.0 L 664.0 67.0 L 360.0 67.0 Z M 359.9 701.4 "></path></clipPath><g clip-path="url(#clip-5408)"><g><clipPath id="clip-5409"><path d="M 360.0 701.0 L 664.0 701.0 L 664.0 67.0 L 360.0 67.0 Z M 360.0 701.0 "></path></clipPath><g clip-path="url(#clip-5409)"><g><clipPath id="clip-5410"><path d="M 360.0 67.0 L 664.0 67.0 L 664.0 701.0 L 360.0 701.0 Z M 360.0 67.0 "></path></clipPath><g clip-path="url(#clip-5410)"><path d="M 648.4 82.6 C 640.4 74.6 629.7 70.1 618.3 70.1 L 410.0 70.1 C 398.6 70.1 388.0 74.6 379.9 82.6 C 371.9 90.6 367.5 101.3 367.5 112.6 L 367.5 122.0 L 370.6 122.0 L 370.6 112.6 C 370.6 90.9 388.2 73.3 410.0 73.3 L 618.3 73.3 C 640.1 73.3 657.7 90.9 657.7 112.6 L 657.7 122.0 L 660.9 122.0 L 660.9 112.6 C 660.9 101.3 656.4 90.6 648.4 82.6 M 363.5 474.6 L 362.4 475.8 L 362.4 495.4 C 362.7 495.7 363.0 496.1 363.5 496.6 L 364.3 496.6 L 364.3 474.6 Z M 363.5 526.9 L 362.4 528.1 L 362.4 547.7 C 362.7 548.0 363.0 548.4 363.5 548.9 L 364.3 548.9 L 364.3 526.9 Z M 363.5 579.5 L 362.4 580.7 L 362.4 607.1 C 362.7 607.4 363.0 607.7 363.5 608.2 L 364.3 608.2 L 364.3 579.5 Z M 367.5 472.2 L 367.5 474.6 L 367.5 496.6 L 367.5 499.0 L 367.5 524.5 L 367.5 526.9 L 367.5 548.9 L 367.5 551.2 L 367.5 577.2 L 367.5 579.5 L 367.5 608.2 L 367.5 610.6 L 367.5 635.8 L 370.6 635.8 L 370.6 126.7 L 367.5 126.7 Z M 654.6 650.3 L 654.6 112.6 C 654.6 92.7 638.3 76.5 618.3 76.5 L 410.0 76.5 C 390.0 76.5 373.8 92.7 373.8 112.6 L 373.8 650.3 C 373.8 670.3 390.0 686.5 410.0 686.5 L 618.3 686.5 C 638.3 686.5 654.6 670.3 654.6 650.3 M 660.9 126.7 L 657.7 126.7 L 657.7 635.8 L 660.9 635.8 Z M 379.9 680.3 C 388.0 688.3 398.6 692.7 410.0 692.7 L 618.3 692.7 C 629.7 692.7 640.4 688.3 648.4 680.3 C 656.4 672.3 660.9 661.6 660.9 650.3 L 660.9 640.5 L 657.7 640.5 L 657.7 650.3 C 657.7 672.0 640.1 689.6 618.3 689.6 L 410.0 689.6 C 388.2 689.6 370.6 672.0 370.6 650.3 L 370.6 640.5 L 367.5 640.5 L 367.5 650.3 C 367.5 661.6 371.9 672.3 379.9 680.3 M 564.1 697.5 L 566.2 698.6 L 610.6 698.6 L 612.1 697.5 L 612.1 695.9 L 564.1 695.9 Z M 650.6 682.5 C 642.0 691.1 630.5 695.9 618.3 695.9 L 614.4 695.9 L 614.4 697.5 L 614.4 698.6 L 613.5 699.3 L 612.0 700.5 L 611.4 701.0 L 610.6 701.0 L 566.2 701.0 L 565.5 701.0 L 565.0 700.7 L 562.9 699.5 L 561.7 698.8 L 561.7 697.5 L 561.7 695.9 L 410.0 695.9 C 397.8 695.9 386.3 691.1 377.7 682.5 C 369.1 673.9 364.3 662.5 364.3 650.3 L 364.3 610.6 L 363.5 610.6 L 362.6 610.6 L 361.9 609.9 L 360.7 608.7 L 360.0 608.0 L 360.0 607.1 L 360.0 580.7 L 360.0 579.7 L 360.7 579.1 L 361.9 577.9 L 362.6 577.2 L 363.5 577.2 L 364.3 577.2 L 364.3 551.2 L 363.5 551.2 L 362.6 551.2 L 361.9 550.6 L 360.7 549.4 L 360.0 548.7 L 360.0 547.7 L 360.0 528.1 L 360.0 527.1 L 360.7 526.4 L 361.9 525.2 L 362.6 524.5 L 363.5 524.5 L 364.3 524.5 L 364.3 499.0 L 363.5 499.0 L 362.6 499.0 L 361.9 498.3 L 360.7 497.1 L 360.0 496.4 L 360.0 495.4 L 360.0 475.8 L 360.0 474.8 L 360.7 474.1 L 361.9 472.9 L 362.6 472.2 L 363.5 472.2 L 364.3 472.2 L 364.3 112.6 C 364.3 100.4 369.1 89.0 377.7 80.4 C 386.3 71.7 397.8 67.0 410.0 67.0 L 618.3 67.0 C 630.5 67.0 642.0 71.7 650.6 80.4 C 659.2 89.0 664.0 100.4 664.0 112.6 L 664.0 650.3 C 664.0 662.5 659.2 673.9 650.6 682.5 " fill="#221E1F"></path><path d="M 491.7 642.8 L 535.0 642.8 C 536.5 642.8 537.8 641.6 537.8 640.1 C 537.8 638.6 536.5 637.3 535.0 637.3 L 491.7 637.3 C 490.2 637.3 489.0 638.6 489.0 640.1 C 489.0 641.6 490.2 642.8 491.7 642.8 M 491.7 634.2 L 535.0 634.2 C 538.3 634.2 540.9 636.8 540.9 640.1 C 540.9 643.3 538.3 646.0 535.0 646.0 L 491.7 646.0 C 488.5 646.0 485.8 643.3 485.8 640.1 C 485.8 636.8 488.5 634.2 491.7 634.2 " fill="#221E1F"></path><path d="M 639.6 158.2 L 387.9 158.2 L 387.9 604.7 L 639.6 604.7 Z M 639.6 607.8 L 387.9 607.8 C 386.2 607.8 384.8 606.4 384.8 604.7 L 384.8 158.2 C 384.8 156.5 386.2 155.0 387.9 155.0 L 639.6 155.0 C 641.4 155.0 642.8 156.5 642.8 158.2 L 642.8 604.7 C 642.8 606.4 641.4 607.8 639.6 607.8 " fill="#221E1F"></path><path d="M 514.0 91.0 C 501.1 91.0 490.6 101.5 490.6 114.4 C 490.6 127.3 501.1 137.8 514.0 137.8 C 526.9 137.8 537.4 127.3 537.4 114.4 C 537.4 101.5 526.9 91.0 514.0 91.0 M 514.0 140.9 C 499.3 140.9 487.4 129.0 487.4 114.4 C 487.4 99.7 499.3 87.8 514.0 87.8 C 528.6 87.8 540.5 99.7 540.5 114.4 C 540.5 129.0 528.6 140.9 514.0 140.9 " fill="#221E1F"></path><path d="M 513.8 668.1 C 516.2 668.1 518.1 666.2 518.1 663.8 C 518.1 661.4 516.2 659.5 513.8 659.5 C 511.4 659.5 509.4 661.4 509.4 663.8 C 509.4 666.2 511.4 668.1 513.8 668.1 M 513.8 657.1 C 517.5 657.1 520.5 660.1 520.5 663.8 C 520.5 667.5 517.5 670.5 513.8 670.5 C 510.1 670.5 507.1 667.5 507.1 663.8 C 507.1 660.1 510.1 657.1 513.8 657.1 " fill="#221E1F"></path><path d="M 513.8 661.6 C 515.1 661.6 516.1 662.6 516.1 663.9 C 516.1 665.2 515.1 666.3 513.8 666.3 C 512.5 666.3 511.4 665.2 511.4 663.9 C 511.4 662.6 512.5 661.6 513.8 661.6 " fill="#221E1F"></path></g></g></g></g></g></g><text xml:space="preserve" font-family="ProximaNova-Regular" font-size="36.0" fill="#FEFFFE" transform="matrix(1.00, 0.00, -0.00, -1.00, 27.0, 369.0)">F</text><text xml:space="preserve" font-family="ProximaNova-Regular" font-size="36.0" fill="#FEFFFE" transform="matrix(1.00, 0.00, -0.00, -1.00, 46.8, 369.0)">o</text><text xml:space="preserve" font-family="ProximaNova-Regular" font-size="36.0" fill="#FEFFFE" transform="matrix(1.00, 0.00, -0.00, -1.00, 67.4, 369.0)">r</text><text xml:space="preserve" font-family="ProximaNova-Regular" font-size="36.0" fill="#FEFFFE" transform="matrix(1.00, 0.00, -0.00, -1.00, 79.3, 369.0)"> </text><text xml:space="preserve" font-family="ProximaNova-Regular" font-size="36.0" fill="#FEFFFE" transform="matrix(1.00, 0.00, -0.00, -1.00, 88.6, 369.0)">U</text><text xml:space="preserve" font-family="ProximaNova-Regular" font-size="36.0" fill="#FEFFFE" transform="matrix(1.00, 0.00, -0.00, -1.00, 113.8, 369.0)">s</text><text xml:space="preserve" font-family="ProximaNova-Regular" font-size="36.0" fill="#FEFFFE" transform="matrix(1.00, 0.00, -0.00, -1.00, 130.5, 369.0)">e</text><text xml:space="preserve" font-family="ProximaNova-Regular" font-size="36.0" fill="#FEFFFE" transform="matrix(1.00, 0.00, -0.00, -1.00, 150.8, 369.0)">r</text><text xml:space="preserve" font-family="ProximaNova-Regular" font-size="36.0" fill="#FEFFFE" transform="matrix(1.00, 0.00, -0.00, -1.00, 162.6, 369.0)"> </text><text xml:space="preserve" font-family="ProximaNova-Regular" font-size="36.0" fill="#FEFFFE" transform="matrix(1.00, 0.00, -0.00, -1.00, 171.9, 369.0)">F</text><text xml:space="preserve" font-family="ProximaNova-Regular" font-size="36.0" fill="#FEFFFE" transform="matrix(1.00, 0.00, -0.00, -1.00, 191.7, 369.0)">l</text><text xml:space="preserve" font-family="ProximaNova-Regular" font-size="36.0" fill="#FEFFFE" transform="matrix(1.00, 0.00, -0.00, -1.00, 199.8, 369.0)">o</text><text xml:space="preserve" font-family="ProximaNova-Regular" font-size="36.0" fill="#FEFFFE" transform="matrix(1.00, 0.00, -0.00, -1.00, 220.4, 369.0)">w</text><text xml:space="preserve" font-family="ProximaNova-Regular" font-size="36.0" fill="#FEFFFE" transform="matrix(1.00, 0.00, -0.00, -1.00, 246.9, 369.0)"> </text><text xml:space="preserve" font-family="ProximaNova-Regular" font-size="36.0" fill="#FEFFFE" transform="matrix(1.00, 0.00, -0.00, -1.00, 256.1, 369.0)">O</text><text xml:space="preserve" font-family="ProximaNova-Regular" font-size="36.0" fill="#FEFFFE" transform="matrix(1.00, 0.00, -0.00, -1.00, 283.7, 369.0)">n</text><text xml:space="preserve" font-family="ProximaNova-Regular" font-size="36.0" fill="#FEFFFE" transform="matrix(1.00, 0.00, -0.00, -1.00, 303.5, 369.0)">l</text><text xml:space="preserve" font-family="ProximaNova-Regular" font-size="36.0" fill="#FEFFFE" transform="matrix(1.00, 0.00, -0.00, -1.00, 311.6, 369.0)">y</text><text xml:space="preserve" font-family="ProximaNova-Regular" font-size="36.0" fill="#FEFFFE" transform="matrix(1.00, 0.00, -0.00, -1.00, 327.2, 369.0)">.</text><text xml:space="preserve" font-family="ProximaNova-Regular" font-size="36.0" fill="#FEFFFE" transform="matrix(1.00, 0.00, -0.00, -1.00, 335.5, 369.0)"> </text><text xml:space="preserve" font-family="ProximaNova-Regular" font-size="36.0" fill="#FEFFFE" transform="matrix(1.00, 0.00, -0.00, -1.00, 344.8, 369.0)"> </text><text xml:space="preserve" font-family="ProximaNova-Regular" font-size="36.0" fill="#FEFFFE" transform="matrix(1.00, 0.00, -0.00, -1.00, 27.0, 325.0)">N</text><text xml:space="preserve" font-family="ProximaNova-Regular" font-size="36.0" fill="#FEFFFE" transform="matrix(1.00, 0.00, -0.00, -1.00, 52.5, 325.0)">o</text><text xml:space="preserve" font-family="ProximaNova-Regular" font-size="36.0" fill="#FEFFFE" transform="matrix(1.00, 0.00, -0.00, -1.00, 73.1, 325.0)">t</text><text xml:space="preserve" font-family="ProximaNova-Regular" font-size="36.0" fill="#FEFFFE" transform="matrix(1.00, 0.00, -0.00, -1.00, 83.7, 325.0)"> </text><text xml:space="preserve" font-family="ProximaNova-Regular" font-size="36.0" fill="#FEFFFE" transform="matrix(1.00, 0.00, -0.00, -1.00, 93.0, 325.0)">R</text><text xml:space="preserve" font-family="ProximaNova-Regular" font-size="36.0" fill="#FEFFFE" transform="matrix(1.00, 0.00, -0.00, -1.00, 113.8, 325.0)">e</text><text xml:space="preserve" font-family="ProximaNova-Regular" font-size="36.0" fill="#FEFFFE" transform="matrix(1.00, 0.00, -0.00, -1.00, 134.0, 325.0)">p</text><text xml:space="preserve" font-family="ProximaNova-Regular" font-size="36.0" fill="#FEFFFE" transform="matrix(1.00, 0.00, -0.00, -1.00, 154.6, 325.0)">r</text><text xml:space="preserve" font-family="ProximaNova-Regular" font-size="36.0" fill="#FEFFFE" transform="matrix(1.00, 0.00, -0.00, -1.00, 166.5, 325.0)">e</text><text xml:space="preserve" font-family="ProximaNova-Regular" font-size="36.0" fill="#FEFFFE" transform="matrix(1.00, 0.00, -0.00, -1.00, 186.8, 325.0)">s</text><text xml:space="preserve" font-family="ProximaNova-Regular" font-size="36.0" fill="#FEFFFE" transform="matrix(1.00, 0.00, -0.00, -1.00, 203.5, 325.0)">e</text><text xml:space="preserve" font-family="ProximaNova-Regular" font-size="36.0" fill="#FEFFFE" transform="matrix(1.00, 0.00, -0.00, -1.00, 223.8, 325.0)">n</text><text xml:space="preserve" font-family="ProximaNova-Regular" font-size="36.0" fill="#FEFFFE" transform="matrix(1.00, 0.00, -0.00, -1.00, 243.6, 325.0)">t</text><text xml:space="preserve" font-family="ProximaNova-Regular" font-size="36.0" fill="#FEFFFE" transform="matrix(1.00, 0.00, -0.00, -1.00, 254.2, 325.0)">a</text><text xml:space="preserve" font-family="ProximaNova-Regular" font-size="36.0" fill="#FEFFFE" transform="matrix(1.00, 0.00, -0.00, -1.00, 273.2, 325.0)">t</text><text xml:space="preserve" font-family="ProximaNova-Regular" font-size="36.0" fill="#FEFFFE" transform="matrix(1.00, 0.00, -0.00, -1.00, 283.8, 325.0)">i</text><text xml:space="preserve" font-family="ProximaNova-Regular" font-size="36.0" fill="#FEFFFE" transform="matrix(1.00, 0.00, -0.00, -1.00, 291.9, 325.0)">v</text><text xml:space="preserve" font-family="ProximaNova-Regular" font-size="36.0" fill="#FEFFFE" transform="matrix(1.00, 0.00, -0.00, -1.00, 309.5, 325.0)">e</text><text xml:space="preserve" font-family="ProximaNova-Regular" font-size="36.0" fill="#FEFFFE" transform="matrix(1.00, 0.00, -0.00, -1.00, 329.8, 325.0)"> </text><text xml:space="preserve" font-family="ProximaNova-Regular" font-size="36.0" fill="#FEFFFE" transform="matrix(1.00, 0.00, -0.00, -1.00, 27.0, 281.0)">o</text><text xml:space="preserve" font-family="ProximaNova-Regular" font-size="36.0" fill="#FEFFFE" transform="matrix(1.00, 0.00, -0.00, -1.00, 47.6, 281.0)">f</text><text xml:space="preserve" font-family="ProximaNova-Regular" font-size="36.0" fill="#FEFFFE" transform="matrix(1.00, 0.00, -0.00, -1.00, 57.8, 281.0)"> </text><text xml:space="preserve" font-family="ProximaNova-Regular" font-size="36.0" fill="#FEFFFE" transform="matrix(1.00, 0.00, -0.00, -1.00, 67.1, 281.0)">t</text><text xml:space="preserve" font-family="ProximaNova-Regular" font-size="36.0" fill="#FEFFFE" transform="matrix(1.00, 0.00, -0.00, -1.00, 77.7, 281.0)">h</text><text xml:space="preserve" font-family="ProximaNova-Regular" font-size="36.0" fill="#FEFFFE" transform="matrix(1.00, 0.00, -0.00, -1.00, 97.5, 281.0)">e</text><text xml:space="preserve" font-family="ProximaNova-Regular" font-size="36.0" fill="#FEFFFE" transform="matrix(1.00, 0.00, -0.00, -1.00, 117.8, 281.0)"> </text><text xml:space="preserve" font-family="ProximaNova-Regular" font-size="36.0" fill="#FEFFFE" transform="matrix(1.00, 0.00, -0.00, -1.00, 127.1, 281.0)">D</text><text xml:space="preserve" font-family="ProximaNova-Regular" font-size="36.0" fill="#FEFFFE" transform="matrix(1.00, 0.00, -0.00, -1.00, 152.3, 281.0)">e</text><text xml:space="preserve" font-family="ProximaNova-Regular" font-size="36.0" fill="#FEFFFE" transform="matrix(1.00, 0.00, -0.00, -1.00, 172.5, 281.0)">s</text><text xml:space="preserve" font-family="ProximaNova-Regular" font-size="36.0" fill="#FEFFFE" transform="matrix(1.00, 0.00, -0.00, -1.00, 189.3, 281.0)">i</text><text xml:space="preserve" font-family="ProximaNova-Regular" font-size="36.0" fill="#FEFFFE" transform="matrix(1.00, 0.00, -0.00, -1.00, 197.4, 281.0)">g</text><text xml:space="preserve" font-family="ProximaNova-Regular" font-size="36.0" fill="#FEFFFE" transform="matrix(1.00, 0.00, -0.00, -1.00, 218.1, 281.0)">n</text><text xml:space="preserve" font-family="ProximaNova-Regular" font-size="36.0" fill="#FEFFFE" transform="matrix(1.00, 0.00, -0.00, -1.00, 237.9, 281.0)">.</text></g></svg>