<?xml version="1.0" encoding="UTF-8" standalone="no"?><svg xmlns="http://www.w3.org/2000/svg" xmlns:xlink="http://www.w3.org/1999/xlink" clip-rule="evenodd" stroke-miterlimit="4.00" viewBox="0 0 377 36"><desc>SVG generated by Keynote</desc><defs></defs><g transform="matrix(1.00, 0.00, -0.00, -1.00, 0.0, 36.0)"><text xml:space="preserve" font-family="ProximaNova-Regular" font-size="28.8" fill="#FEFFFE" transform="matrix(1.00, 0.00, -0.00, -1.00, 0.6, 8.6)">1</text><text xml:space="preserve" font-family="ProximaNova-Regular" font-size="28.8" fill="#FEFFFE" transform="matrix(1.00, 0.00, -0.00, -1.00, 10.4, 8.6)">.</text><text xml:space="preserve" font-family="ProximaNova-Regular" font-size="28.8" fill="#FEFFFE" transform="matrix(1.00, 0.00, -0.00, -1.00, 41.0, 9.0)">e</text><text xml:space="preserve" font-family="ProximaNova-Regular" font-size="28.8" fill="#FEFFFE" transform="matrix(1.00, 0.00, -0.00, -1.00, 57.2, 9.0)">x</text><text xml:space="preserve" font-family="ProximaNova-Regular" font-size="28.8" fill="#FEFFFE" transform="matrix(1.00, 0.00, -0.00, -1.00, 71.2, 9.0)">p</text><text xml:space="preserve" font-family="ProximaNova-Regular" font-size="28.8" fill="#FEFFFE" transform="matrix(1.00, 0.00, -0.00, -1.00, 87.7, 9.0)">l</text><text xml:space="preserve" font-family="ProximaNova-Regular" font-size="28.8" fill="#FEFFFE" transform="matrix(1.00, 0.00, -0.00, -1.00, 94.2, 9.0)">o</text><text xml:space="preserve" font-family="ProximaNova-Regular" font-size="28.8" fill="#FEFFFE" transform="matrix(1.00, 0.00, -0.00, -1.00, 110.6, 9.0)">r</text><text xml:space="preserve" font-family="ProximaNova-Regular" font-size="28.8" fill="#FEFFFE" transform="matrix(1.00, 0.00, -0.00, -1.00, 120.1, 9.0)">e</text><text xml:space="preserve" font-family="ProximaNova-Regular" font-size="28.8" fill="#FEFFFE" transform="matrix(1.00, 0.00, -0.00, -1.00, 136.4, 9.0)">s</text><text xml:space="preserve" font-family="ProximaNova-Regular" font-size="28.8" fill="#FEFFFE" transform="matrix(1.00, 0.00, -0.00, -1.00, 149.7, 9.0)"> </text><text xml:space="preserve" font-family="ProximaNova-Regular" font-size="28.8" fill="#FEFFFE" transform="matrix(1.00, 0.00, -0.00, -1.00, 157.2, 9.0)">t</text><text xml:space="preserve" font-family="ProximaNova-Regular" font-size="28.8" fill="#FEFFFE" transform="matrix(1.00, 0.00, -0.00, -1.00, 165.6, 9.0)">h</text><text xml:space="preserve" font-family="ProximaNova-Regular" font-size="28.8" fill="#FEFFFE" transform="matrix(1.00, 0.00, -0.00, -1.00, 181.5, 9.0)">e</text><text xml:space="preserve" font-family="ProximaNova-Regular" font-size="28.8" fill="#FEFFFE" transform="matrix(1.00, 0.00, -0.00, -1.00, 197.8, 9.0)"> </text><text xml:space="preserve" font-family="ProximaNova-Regular" font-size="28.8" fill="#FEFFFE" transform="matrix(1.00, 0.00, -0.00, -1.00, 205.2, 9.0)">V</text><text xml:space="preserve" font-family="ProximaNova-Regular" font-size="28.8" fill="#FEFFFE" transform="matrix(1.00, 0.00, -0.00, -1.00, 221.5, 9.0)">J</text><text xml:space="preserve" font-family="ProximaNova-Regular" font-size="28.8" fill="#FEFFFE" transform="matrix(1.00, 0.00, -0.00, -1.00, 235.1, 9.0)">S</text><text xml:space="preserve" font-family="ProximaNova-Regular" font-size="28.8" fill="#FEFFFE" transform="matrix(1.00, 0.00, -0.00, -1.00, 252.0, 9.0)"> </text><text xml:space="preserve" font-family="ProximaNova-Regular" font-size="28.8" fill="#FEFFFE" transform="matrix(1.00, 0.00, -0.00, -1.00, 259.4, 9.0)">w</text><text xml:space="preserve" font-family="ProximaNova-Regular" font-size="28.8" fill="#FEFFFE" transform="matrix(1.00, 0.00, -0.00, -1.00, 280.6, 9.0)">e</text><text xml:space="preserve" font-family="ProximaNova-Regular" font-size="28.8" fill="#FEFFFE" transform="matrix(1.00, 0.00, -0.00, -1.00, 296.8, 9.0)">b</text><text xml:space="preserve" font-family="ProximaNova-Regular" font-size="28.8" fill="#FEFFFE" transform="matrix(1.00, 0.00, -0.00, -1.00, 313.4, 9.0)"> </text><text xml:space="preserve" font-family="ProximaNova-Regular" font-size="28.8" fill="#FEFFFE" transform="matrix(1.00, 0.00, -0.00, -1.00, 320.8, 9.0)">a</text><text xml:space="preserve" font-family="ProximaNova-Regular" font-size="28.8" fill="#FEFFFE" transform="matrix(1.00, 0.00, -0.00, -1.00, 336.0, 9.0)">p</text><text xml:space="preserve" font-family="ProximaNova-Regular" font-size="28.8" fill="#FEFFFE" transform="matrix(1.00, 0.00, -0.00, -1.00, 352.4, 9.0)">p</text><text xml:space="preserve" font-family="ProximaNova-Regular" font-size="28.8" fill="#FEFFFE" transform="matrix(1.00, 0.00, -0.00, -1.00, 368.7, 9.0)">,</text><text xml:space="preserve" font-family="ProximaNova-Regular" font-size="28.8" fill="#FEFFFE" transform="matrix(1.00, 0.00, -0.00, -1.00, 375.3, 9.0)"> </text></g></svg>