<?xml version="1.0" encoding="UTF-8" standalone="no"?><svg xmlns="http://www.w3.org/2000/svg" xmlns:xlink="http://www.w3.org/1999/xlink" clip-rule="evenodd" stroke-miterlimit="4.00" viewBox="0 0 273 36"><desc>SVG generated by Keynote</desc><defs></defs><g transform="matrix(1.00, 0.00, -0.00, -1.00, 0.0, 36.0)"><text xml:space="preserve" font-family="ProximaNova-Regular" font-size="28.8" fill="#FEFFFE" transform="matrix(1.00, 0.00, -0.00, -1.00, 0.6, 9.0)">2</text><text xml:space="preserve" font-family="ProximaNova-Regular" font-size="28.8" fill="#FEFFFE" transform="matrix(1.00, 0.00, -0.00, -1.00, 17.6, 9.0)">.</text><text xml:space="preserve" font-family="ProximaNova-Regular" font-size="28.8" fill="#FEFFFE" transform="matrix(1.00, 0.00, -0.00, -1.00, 41.0, 9.0)">s</text><text xml:space="preserve" font-family="ProximaNova-Regular" font-size="28.8" fill="#FEFFFE" transform="matrix(1.00, 0.00, -0.00, -1.00, 54.4, 9.0)">e</text><text xml:space="preserve" font-family="ProximaNova-Regular" font-size="28.8" fill="#FEFFFE" transform="matrix(1.00, 0.00, -0.00, -1.00, 70.6, 9.0)">a</text><text xml:space="preserve" font-family="ProximaNova-Regular" font-size="28.8" fill="#FEFFFE" transform="matrix(1.00, 0.00, -0.00, -1.00, 85.8, 9.0)">r</text><text xml:space="preserve" font-family="ProximaNova-Regular" font-size="28.8" fill="#FEFFFE" transform="matrix(1.00, 0.00, -0.00, -1.00, 95.3, 9.0)">c</text><text xml:space="preserve" font-family="ProximaNova-Regular" font-size="28.8" fill="#FEFFFE" transform="matrix(1.00, 0.00, -0.00, -1.00, 109.5, 9.0)">h</text><text xml:space="preserve" font-family="ProximaNova-Regular" font-size="28.8" fill="#FEFFFE" transform="matrix(1.00, 0.00, -0.00, -1.00, 125.4, 9.0)">e</text><text xml:space="preserve" font-family="ProximaNova-Regular" font-size="28.8" fill="#FEFFFE" transform="matrix(1.00, 0.00, -0.00, -1.00, 141.7, 9.0)">s</text><text xml:space="preserve" font-family="ProximaNova-Regular" font-size="28.8" fill="#FEFFFE" transform="matrix(1.00, 0.00, -0.00, -1.00, 155.0, 9.0)"> </text><text xml:space="preserve" font-family="ProximaNova-Regular" font-size="28.8" fill="#FEFFFE" transform="matrix(1.00, 0.00, -0.00, -1.00, 162.5, 9.0)">f</text><text xml:space="preserve" font-family="ProximaNova-Regular" font-size="28.8" fill="#FEFFFE" transform="matrix(1.00, 0.00, -0.00, -1.00, 170.6, 9.0)">o</text><text xml:space="preserve" font-family="ProximaNova-Regular" font-size="28.8" fill="#FEFFFE" transform="matrix(1.00, 0.00, -0.00, -1.00, 187.1, 9.0)">r</text><text xml:space="preserve" font-family="ProximaNova-Regular" font-size="28.8" fill="#FEFFFE" transform="matrix(1.00, 0.00, -0.00, -1.00, 196.6, 9.0)"> </text><text xml:space="preserve" font-family="ProximaNova-Regular" font-size="28.8" fill="#FEFFFE" transform="matrix(1.00, 0.00, -0.00, -1.00, 204.0, 9.0)">a</text><text xml:space="preserve" font-family="ProximaNova-Regular" font-size="28.8" fill="#FEFFFE" transform="matrix(1.00, 0.00, -0.00, -1.00, 219.2, 9.0)"> </text><text xml:space="preserve" font-family="ProximaNova-Regular" font-size="28.8" fill="#FEFFFE" transform="matrix(1.00, 0.00, -0.00, -1.00, 226.6, 9.0)">j</text><text xml:space="preserve" font-family="ProximaNova-Regular" font-size="28.8" fill="#FEFFFE" transform="matrix(1.00, 0.00, -0.00, -1.00, 233.1, 9.0)">o</text><text xml:space="preserve" font-family="ProximaNova-Regular" font-size="28.8" fill="#FEFFFE" transform="matrix(1.00, 0.00, -0.00, -1.00, 249.6, 9.0)">b</text><text xml:space="preserve" font-family="ProximaNova-Regular" font-size="28.8" fill="#FEFFFE" transform="matrix(1.00, 0.00, -0.00, -1.00, 266.0, 9.0)">,</text></g></svg>