<?xml version="1.0" encoding="UTF-8" standalone="no"?><svg xmlns="http://www.w3.org/2000/svg" xmlns:xlink="http://www.w3.org/1999/xlink" clip-rule="evenodd" stroke-miterlimit="4.00" viewBox="0 0 127 263"><desc>SVG generated by Keynote</desc><defs></defs><g transform="matrix(1.00, 0.00, -0.00, -1.00, 0.0, 263.0)"><g><clipPath id="clip-131"><path d="M 1.0 261.0 L 126.0 261.0 L 126.0 1.0 L 1.0 1.0 Z M 1.3 261.2 "></path></clipPath><g clip-path="url(#clip-131)"><g><clipPath id="clip-132"><path d="M 1.0 261.0 L 126.0 261.0 L 126.0 1.0 L 1.0 1.0 Z M 1.0 261.0 "></path></clipPath><g clip-path="url(#clip-132)"><g><clipPath id="clip-133"><path d="M 1.0 1.0 L 126.0 1.0 L 126.0 261.0 L 1.0 261.0 Z M 1.0 1.0 "></path></clipPath><g clip-path="url(#clip-133)"><path d="M 119.6 7.4 C 116.3 4.1 111.9 2.3 107.2 2.3 L 21.6 2.3 C 16.9 2.3 12.5 4.1 9.2 7.4 C 5.9 10.7 4.1 15.0 4.1 19.7 L 4.1 23.6 L 5.4 23.6 L 5.4 19.7 C 5.4 10.8 12.6 3.6 21.6 3.6 L 107.2 3.6 C 116.2 3.6 123.4 10.8 123.4 19.7 L 123.4 23.6 L 124.7 23.6 L 124.7 19.7 C 124.7 15.0 122.9 10.7 119.6 7.4 M 2.5 168.2 L 2.0 168.6 L 2.0 176.7 C 2.1 176.8 2.2 177.0 2.5 177.2 L 2.8 177.2 L 2.8 168.2 Z M 2.5 189.6 L 2.0 190.1 L 2.0 198.1 C 2.1 198.3 2.2 198.4 2.5 198.6 L 2.8 198.6 L 2.8 189.6 Z M 2.5 211.2 L 2.0 211.7 L 2.0 222.5 C 2.1 222.6 2.2 222.7 2.5 223.0 L 2.8 223.0 L 2.8 211.2 Z M 4.1 167.2 L 4.1 168.2 L 4.1 177.2 L 4.1 178.1 L 4.1 188.6 L 4.1 189.6 L 4.1 198.6 L 4.1 199.6 L 4.1 210.2 L 4.1 211.2 L 4.1 223.0 L 4.1 223.9 L 4.1 234.2 L 5.4 234.2 L 5.4 25.5 L 4.1 25.5 Z M 122.1 240.2 L 122.1 19.7 C 122.1 11.5 115.4 4.9 107.2 4.9 L 21.6 4.9 C 13.3 4.9 6.7 11.5 6.7 19.7 L 6.7 240.2 C 6.7 248.4 13.3 255.0 21.6 255.0 L 107.2 255.0 C 115.4 255.0 122.1 248.4 122.1 240.2 M 124.7 25.5 L 123.4 25.5 L 123.4 234.2 L 124.7 234.2 Z M 9.2 252.5 C 12.5 255.8 16.9 257.6 21.6 257.6 L 107.2 257.6 C 111.9 257.6 116.3 255.8 119.6 252.5 C 122.9 249.2 124.7 244.9 124.7 240.2 L 124.7 236.2 L 123.4 236.2 L 123.4 240.2 C 123.4 249.1 116.2 256.3 107.2 256.3 L 21.6 256.3 C 12.6 256.3 5.4 249.1 5.4 240.2 L 5.4 236.2 L 4.1 236.2 L 4.1 240.2 C 4.1 244.9 5.9 249.2 9.2 252.5 M 84.9 259.5 L 85.8 260.0 L 104.0 260.0 L 104.7 259.5 L 104.7 258.9 L 84.9 258.9 Z M 120.5 253.4 C 117.0 257.0 112.2 258.9 107.2 258.9 L 105.6 258.9 L 105.6 259.5 L 105.6 260.0 L 105.2 260.3 L 104.6 260.8 L 104.4 261.0 L 104.0 261.0 L 85.8 261.0 L 85.5 261.0 L 85.3 260.9 L 84.4 260.4 L 84.0 260.1 L 84.0 259.5 L 84.0 258.9 L 21.6 258.9 C 16.5 258.9 11.8 257.0 8.3 253.4 C 4.7 249.9 2.8 245.2 2.8 240.2 L 2.8 223.9 L 2.5 223.9 L 2.1 223.9 L 1.8 223.6 L 1.3 223.2 L 1.0 222.9 L 1.0 222.5 L 1.0 211.7 L 1.0 211.3 L 1.3 211.0 L 1.8 210.5 L 2.1 210.2 L 2.5 210.2 L 2.8 210.2 L 2.8 199.6 L 2.5 199.6 L 2.1 199.6 L 1.8 199.3 L 1.3 198.8 L 1.0 198.5 L 1.0 198.1 L 1.0 190.1 L 1.0 189.7 L 1.3 189.4 L 1.8 188.9 L 2.1 188.6 L 2.5 188.6 L 2.8 188.6 L 2.8 178.1 L 2.5 178.1 L 2.1 178.1 L 1.8 177.9 L 1.3 177.4 L 1.0 177.1 L 1.0 176.7 L 1.0 168.6 L 1.0 168.2 L 1.3 168.0 L 1.8 167.5 L 2.1 167.2 L 2.5 167.2 L 2.8 167.2 L 2.8 19.7 C 2.8 14.7 4.7 10.0 8.3 6.5 C 11.8 2.9 16.5 1.0 21.6 1.0 L 107.2 1.0 C 112.2 1.0 117.0 2.9 120.5 6.5 C 124.0 10.0 126.0 14.7 126.0 19.7 L 126.0 240.2 C 126.0 245.2 124.0 249.9 120.5 253.4 " fill="#221E1F"></path><path d="M 55.2 237.1 L 73.0 237.1 C 73.6 237.1 74.1 236.6 74.1 236.0 C 74.1 235.4 73.6 234.9 73.0 234.9 L 55.2 234.9 C 54.5 234.9 54.0 235.4 54.0 236.0 C 54.0 236.6 54.5 237.1 55.2 237.1 M 55.2 233.6 L 73.0 233.6 C 74.3 233.6 75.4 234.7 75.4 236.0 C 75.4 237.4 74.3 238.4 73.0 238.4 L 55.2 238.4 C 53.8 238.4 52.7 237.4 52.7 236.0 C 52.7 234.7 53.8 233.6 55.2 233.6 " fill="#221E1F"></path><path d="M 116.0 38.4 L 12.5 38.4 L 12.5 221.5 L 116.0 221.5 Z M 116.0 222.8 L 12.5 222.8 C 11.8 222.8 11.2 222.2 11.2 221.5 L 11.2 38.4 C 11.2 37.7 11.8 37.1 12.5 37.1 L 116.0 37.1 C 116.7 37.1 117.3 37.7 117.3 38.4 L 117.3 221.5 C 117.3 222.2 116.7 222.8 116.0 222.8 " fill="#221E1F"></path><path d="M 64.3 10.8 C 59.0 10.8 54.7 15.1 54.7 20.4 C 54.7 25.7 59.0 30.0 64.3 30.0 C 69.6 30.0 73.9 25.7 73.9 20.4 C 73.9 15.1 69.6 10.8 64.3 10.8 M 64.3 31.3 C 58.3 31.3 53.4 26.4 53.4 20.4 C 53.4 14.4 58.3 9.5 64.3 9.5 C 70.3 9.5 75.2 14.4 75.2 20.4 C 75.2 26.4 70.3 31.3 64.3 31.3 " fill="#221E1F"></path><path d="M 64.2 247.5 C 65.2 247.5 66.0 246.7 66.0 245.7 C 66.0 244.8 65.2 244.0 64.2 244.0 C 63.2 244.0 62.4 244.8 62.4 245.7 C 62.4 246.7 63.2 247.5 64.2 247.5 M 64.2 243.0 C 65.7 243.0 67.0 244.2 67.0 245.7 C 67.0 247.3 65.7 248.5 64.2 248.5 C 62.7 248.5 61.5 247.3 61.5 245.7 C 61.5 244.2 62.7 243.0 64.2 243.0 " fill="#221E1F"></path><path d="M 64.2 244.8 C 64.8 244.8 65.2 245.3 65.2 245.8 C 65.2 246.3 64.8 246.8 64.2 246.8 C 63.7 246.8 63.3 246.3 63.3 245.8 C 63.3 245.3 63.7 244.8 64.2 244.8 " fill="#221E1F"></path></g></g></g></g></g></g></g></svg>