<?xml version="1.0" encoding="UTF-8" standalone="no"?><svg xmlns="http://www.w3.org/2000/svg" xmlns:xlink="http://www.w3.org/1999/xlink" clip-rule="evenodd" stroke-miterlimit="4.00" viewBox="0 0 584 78"><desc>SVG generated by Keynote</desc><defs></defs><g transform="matrix(1.00, 0.00, -0.00, -1.00, 0.0, 78.0)"><text xml:space="preserve" font-family="LeagueGothic-Regular" font-size="100.0" fill="#FEFFFE" transform="matrix(1.00, 0.00, -0.00, -1.00, -2.0, 3.0)">U</text><text xml:space="preserve" font-family="LeagueGothic-Regular" font-size="100.0" fill="#FEFFFE" transform="matrix(1.00, 0.00, -0.00, -1.00, 34.6, 3.0)">s</text><text xml:space="preserve" font-family="LeagueGothic-Regular" font-size="100.0" fill="#FEFFFE" transform="matrix(1.00, 0.00, -0.00, -1.00, 65.4, 3.0)">e</text><text xml:space="preserve" font-family="LeagueGothic-Regular" font-size="100.0" fill="#FEFFFE" transform="matrix(1.00, 0.00, -0.00, -1.00, 97.4, 3.0)">r</text><text xml:space="preserve" font-family="LeagueGothic-Regular" font-size="100.0" fill="#FEFFFE" transform="matrix(1.00, 0.00, -0.00, -1.00, 122.0, 3.0)"> </text><text xml:space="preserve" font-family="LeagueGothic-Regular" font-size="100.0" fill="#FEFFFE" transform="matrix(1.00, 0.00, -0.00, -1.00, 137.4, 3.0)">F</text><text xml:space="preserve" font-family="LeagueGothic-Regular" font-size="100.0" fill="#FEFFFE" transform="matrix(1.00, 0.00, -0.00, -1.00, 167.5, 3.0)">l</text><text xml:space="preserve" font-family="LeagueGothic-Regular" font-size="100.0" fill="#FEFFFE" transform="matrix(1.00, 0.00, -0.00, -1.00, 185.4, 3.0)">o</text><text xml:space="preserve" font-family="LeagueGothic-Regular" font-size="100.0" fill="#FEFFFE" transform="matrix(1.00, 0.00, -0.00, -1.00, 217.0, 3.0)">w</text><text xml:space="preserve" font-family="LeagueGothic-Regular" font-size="100.0" fill="#FEFFFE" transform="matrix(1.00, 0.00, -0.00, -1.00, 261.2, 3.0)">:</text><text xml:space="preserve" font-family="LeagueGothic-Regular" font-size="100.0" fill="#FEFFFE" transform="matrix(1.00, 0.00, -0.00, -1.00, 278.9, 3.0)"> </text><text xml:space="preserve" font-family="LeagueGothic-Regular" font-size="100.0" fill="#FEFFFE" transform="matrix(1.00, 0.00, -0.00, -1.00, 294.3, 3.0)">J</text><text xml:space="preserve" font-family="LeagueGothic-Regular" font-size="100.0" fill="#FEFFFE" transform="matrix(1.00, 0.00, -0.00, -1.00, 315.0, 3.0)">o</text><text xml:space="preserve" font-family="LeagueGothic-Regular" font-size="100.0" fill="#FEFFFE" transform="matrix(1.00, 0.00, -0.00, -1.00, 347.1, 3.0)">b</text><text xml:space="preserve" font-family="LeagueGothic-Regular" font-size="100.0" fill="#FEFFFE" transform="matrix(1.00, 0.00, -0.00, -1.00, 380.6, 3.0)"> </text><text xml:space="preserve" font-family="LeagueGothic-Regular" font-size="100.0" fill="#FEFFFE" transform="matrix(1.00, 0.00, -0.00, -1.00, 396.0, 3.0)">S</text><text xml:space="preserve" font-family="LeagueGothic-Regular" font-size="100.0" fill="#FEFFFE" transform="matrix(1.00, 0.00, -0.00, -1.00, 430.3, 3.0)">e</text><text xml:space="preserve" font-family="LeagueGothic-Regular" font-size="100.0" fill="#FEFFFE" transform="matrix(1.00, 0.00, -0.00, -1.00, 462.5, 3.0)">e</text><text xml:space="preserve" font-family="LeagueGothic-Regular" font-size="100.0" fill="#FEFFFE" transform="matrix(1.00, 0.00, -0.00, -1.00, 494.7, 3.0)">k</text><text xml:space="preserve" font-family="LeagueGothic-Regular" font-size="100.0" fill="#FEFFFE" transform="matrix(1.00, 0.00, -0.00, -1.00, 525.5, 3.0)">e</text><text xml:space="preserve" font-family="LeagueGothic-Regular" font-size="100.0" fill="#FEFFFE" transform="matrix(1.00, 0.00, -0.00, -1.00, 557.5, 3.0)">r</text></g></svg>