<?xml version="1.0" encoding="UTF-8" standalone="no"?><svg xmlns="http://www.w3.org/2000/svg" xmlns:xlink="http://www.w3.org/1999/xlink" clip-rule="evenodd" stroke-miterlimit="4.00" viewBox="0 0 172 173"><desc>SVG generated by Keynote</desc><defs></defs><g transform="matrix(1.00, 0.00, -0.00, -1.00, 0.0, 173.0)"><g><clipPath id="clip-69"><path d="M 0.3 0.9 L 171.4 0.9 L 171.4 172.1 L 0.3 172.1 Z M 0.3 0.9 "></path></clipPath><g clip-path="url(#clip-69)"><path d="M 144.9 145.6 C 177.5 113.0 177.5 60.1 144.9 27.4 C 112.3 -5.2 59.4 -5.2 26.7 27.4 C -5.9 60.1 -5.9 113.0 26.7 145.6 C 59.4 178.2 112.3 178.2 144.9 145.6 Z M 144.9 145.6 " fill="#0177E2"></path><path d="M 142.6 24.5 C 175.3 57.1 175.3 110.0 142.6 142.6 C 110.0 175.3 57.1 175.3 24.5 142.6 C -8.2 110.0 -8.2 57.1 24.5 24.5 C 57.1 -8.2 110.0 -8.2 142.6 24.5 Z M 142.6 24.5 " fill="none" stroke="#FEFFFE" stroke-width="2.00" transform="matrix(1.00, 0.00, 0.00, -1.00, 2.3, 170.1)"></path></g></g><g><clipPath id="clip-70"><path d="M 5.3 62.3 L 165.9 62.3 L 165.9 110.7 L 5.3 110.7 Z M 5.3 62.3 "></path></clipPath><g clip-path="url(#clip-70)"><path d="M 6.3 109.7 L 164.9 109.7 L 164.9 63.3 L 6.3 63.3 Z M 6.3 109.7 " fill="#0177E2"></path></g></g><g><clipPath id="clip-71"><path d="M 0.8 50.2 L 170.4 50.2 L 170.4 115.2 L 0.8 115.2 Z M 0.8 50.2 "></path></clipPath><g clip-path="url(#clip-71)"><text xml:space="preserve" font-family="AlternateGotNo1D" font-size="38.0" fill="#FEFFFE" transform="matrix(1.00, 0.00, -0.00, -1.00, 11.0, 80.0)">E</text><text xml:space="preserve" font-family="AlternateGotNo1D" font-size="38.0" fill="#FEFFFE" transform="matrix(1.00, 0.00, -0.00, -1.00, 22.6, 80.0)">a</text><text xml:space="preserve" font-family="AlternateGotNo1D" font-size="38.0" fill="#FEFFFE" transform="matrix(1.00, 0.00, -0.00, -1.00, 34.4, 80.0)">s</text><text xml:space="preserve" font-family="AlternateGotNo1D" font-size="38.0" fill="#FEFFFE" transform="matrix(1.00, 0.00, -0.00, -1.00, 45.1, 80.0)">y</text><text xml:space="preserve" font-family="AlternateGotNo1D" font-size="38.0" fill="#FEFFFE" transform="matrix(1.00, 0.00, -0.00, -1.00, 55.9, 80.0)"> </text><text xml:space="preserve" font-family="AlternateGotNo1D" font-size="38.0" fill="#FEFFFE" transform="matrix(1.00, 0.00, -0.00, -1.00, 62.5, 80.0)">t</text><text xml:space="preserve" font-family="AlternateGotNo1D" font-size="38.0" fill="#FEFFFE" transform="matrix(1.00, 0.00, -0.00, -1.00, 71.0, 80.0)">o</text><text xml:space="preserve" font-family="AlternateGotNo1D" font-size="38.0" fill="#FEFFFE" transform="matrix(1.00, 0.00, -0.00, -1.00, 82.7, 80.0)"> </text><text xml:space="preserve" font-family="AlternateGotNo1D" font-size="38.0" fill="#FEFFFE" transform="matrix(1.00, 0.00, -0.00, -1.00, 89.3, 80.0)">I</text><text xml:space="preserve" font-family="AlternateGotNo1D" font-size="38.0" fill="#FEFFFE" transform="matrix(1.00, 0.00, -0.00, -1.00, 95.9, 80.0)">n</text><text xml:space="preserve" font-family="AlternateGotNo1D" font-size="38.0" fill="#FEFFFE" transform="matrix(1.00, 0.00, -0.00, -1.00, 107.6, 80.0)">i</text><text xml:space="preserve" font-family="AlternateGotNo1D" font-size="38.0" fill="#FEFFFE" transform="matrix(1.00, 0.00, -0.00, -1.00, 113.8, 80.0)">t</text><text xml:space="preserve" font-family="AlternateGotNo1D" font-size="38.0" fill="#FEFFFE" transform="matrix(1.00, 0.00, -0.00, -1.00, 122.3, 80.0)">i</text><text xml:space="preserve" font-family="AlternateGotNo1D" font-size="38.0" fill="#FEFFFE" transform="matrix(1.00, 0.00, -0.00, -1.00, 128.4, 80.0)">a</text><text xml:space="preserve" font-family="AlternateGotNo1D" font-size="38.0" fill="#FEFFFE" transform="matrix(1.00, 0.00, -0.00, -1.00, 140.3, 80.0)">t</text><text xml:space="preserve" font-family="AlternateGotNo1D" font-size="38.0" fill="#FEFFFE" transform="matrix(1.00, 0.00, -0.00, -1.00, 148.8, 80.0)">e</text></g></g></g></svg>