<?xml version="1.0" encoding="UTF-8" standalone="no"?><svg xmlns="http://www.w3.org/2000/svg" xmlns:xlink="http://www.w3.org/1999/xlink" clip-rule="evenodd" stroke-miterlimit="4.00" viewBox="0 0 372 310"><desc>SVG generated by Keynote</desc><defs></defs><g transform="matrix(1.00, 0.00, -0.00, -1.00, 0.0, 310.0)"><g><clipPath id="clip-64"><path d="M 186.0 308.7 C 111.0 308.7 48.5 256.0 34.0 185.9 C 33.1 183.5 34.8 180.4 37.4 179.9 C 40.0 179.4 42.8 181.5 43.0 184.1 C 56.5 250.0 115.3 299.5 186.0 299.5 C 254.8 299.5 312.4 252.4 327.9 189.1 L 284.7 212.1 C 282.6 213.2 279.6 212.4 278.5 210.3 C 277.2 208.2 278.2 205.2 280.3 204.0 L 332.7 176.0 C 334.8 174.9 337.6 175.7 338.9 177.8 L 370.1 228.0 C 372.1 230.9 369.0 235.6 365.4 234.9 C 364.1 234.6 362.9 233.8 362.3 232.7 L 336.8 191.9 C 320.1 258.9 258.8 308.7 186.0 308.7 L 186.0 308.7 L 186.0 308.7 Z M 36.6 134.4 C 36.4 134.4 36.3 134.3 36.1 134.3 C 34.9 134.0 33.8 133.2 33.3 132.2 L 1.9 82.0 C 0.6 79.9 1.4 77.0 3.5 75.7 C 5.5 74.4 8.6 75.1 9.9 77.2 L 35.3 118.1 C 52.0 51.1 113.0 1.3 186.0 1.3 C 261.0 1.3 323.7 54.0 338.1 123.9 C 338.6 126.4 336.9 128.9 334.5 129.4 C 332.2 129.9 329.6 128.1 329.1 125.9 C 315.5 60.0 256.6 10.3 186.0 10.3 C 117.1 10.3 59.5 57.6 44.1 120.9 L 87.3 97.7 C 89.6 96.6 92.5 97.6 93.7 99.7 C 94.8 101.8 93.9 104.8 91.7 105.8 L 39.4 133.8 C 38.5 134.3 37.6 134.4 36.6 134.4 L 36.6 134.4 L 36.6 134.4 Z M 36.6 134.4 "></path></clipPath><g clip-path="url(#clip-64)"><g><clipPath id="clip-65"><path d="M 1.1 1.2 L 370.9 1.2 L 370.9 308.8 L 1.1 308.8 Z M 1.1 1.2 "></path></clipPath><g clip-path="url(#clip-65)"><path d="M 0.5 309.5 L 371.5 309.5 L 371.5 0.5 L 0.5 0.5 Z M 0.5 309.5 " fill="#FFFFFF"></path></g></g></g></g></g></svg>