<?xml version="1.0" encoding="UTF-8" standalone="no"?><svg xmlns="http://www.w3.org/2000/svg" xmlns:xlink="http://www.w3.org/1999/xlink" clip-rule="evenodd" stroke-miterlimit="4.00" viewBox="0 0 172 173"><desc>SVG generated by Keynote</desc><defs></defs><g transform="matrix(1.00, 0.00, -0.00, -1.00, 0.0, 173.0)"><g><clipPath id="clip-66"><path d="M 0.8 0.9 L 171.9 0.9 L 171.9 172.1 L 0.8 172.1 Z M 0.8 0.9 "></path></clipPath><g clip-path="url(#clip-66)"><path d="M 145.4 145.6 C 178.1 113.0 178.1 60.1 145.4 27.4 C 112.8 -5.2 59.9 -5.2 27.3 27.4 C -5.4 60.1 -5.4 113.0 27.3 145.6 C 59.9 178.2 112.8 178.2 145.4 145.6 Z M 145.4 145.6 " fill="#0177E2"></path><path d="M 142.6 24.5 C 175.3 57.1 175.3 110.0 142.6 142.6 C 110.0 175.3 57.1 175.3 24.5 142.6 C -8.2 110.0 -8.2 57.1 24.5 24.5 C 57.1 -8.2 110.0 -8.2 142.6 24.5 Z M 142.6 24.5 " fill="none" stroke="#FEFFFE" stroke-width="2.00" transform="matrix(1.00, 0.00, 0.00, -1.00, 2.8, 170.1)"></path></g></g><g><clipPath id="clip-67"><path d="M 21.4 62.3 L 151.3 62.3 L 151.3 110.7 L 21.4 110.7 Z M 21.4 62.3 "></path></clipPath><g clip-path="url(#clip-67)"><path d="M 22.4 109.7 L 150.3 109.7 L 150.3 63.3 L 22.4 63.3 Z M 22.4 109.7 " fill="#0177E2"></path></g></g><g><clipPath id="clip-68"><path d="M 16.9 50.2 L 155.8 50.2 L 155.8 115.2 L 16.9 115.2 Z M 16.9 50.2 "></path></clipPath><g clip-path="url(#clip-68)"><text xml:space="preserve" font-family="AlternateGotNo1D" font-size="38.0" fill="#FEFFFE" transform="matrix(1.00, 0.00, -0.00, -1.00, 27.0, 80.0)">E</text><text xml:space="preserve" font-family="AlternateGotNo1D" font-size="38.0" fill="#FEFFFE" transform="matrix(1.00, 0.00, -0.00, -1.00, 38.6, 80.0)">a</text><text xml:space="preserve" font-family="AlternateGotNo1D" font-size="38.0" fill="#FEFFFE" transform="matrix(1.00, 0.00, -0.00, -1.00, 50.4, 80.0)">s</text><text xml:space="preserve" font-family="AlternateGotNo1D" font-size="38.0" fill="#FEFFFE" transform="matrix(1.00, 0.00, -0.00, -1.00, 61.1, 80.0)">y</text><text xml:space="preserve" font-family="AlternateGotNo1D" font-size="38.0" fill="#FEFFFE" transform="matrix(1.00, 0.00, -0.00, -1.00, 71.9, 80.0)"> </text><text xml:space="preserve" font-family="AlternateGotNo1D" font-size="38.0" fill="#FEFFFE" transform="matrix(1.00, 0.00, -0.00, -1.00, 78.5, 80.0)">t</text><text xml:space="preserve" font-family="AlternateGotNo1D" font-size="38.0" fill="#FEFFFE" transform="matrix(1.00, 0.00, -0.00, -1.00, 87.0, 80.0)">o</text><text xml:space="preserve" font-family="AlternateGotNo1D" font-size="38.0" fill="#FEFFFE" transform="matrix(1.00, 0.00, -0.00, -1.00, 98.7, 80.0)"> </text><text xml:space="preserve" font-family="AlternateGotNo1D" font-size="38.0" fill="#FEFFFE" transform="matrix(1.00, 0.00, -0.00, -1.00, 105.3, 80.0)">F</text><text xml:space="preserve" font-family="AlternateGotNo1D" font-size="38.0" fill="#FEFFFE" transform="matrix(1.00, 0.00, -0.00, -1.00, 116.3, 80.0)">i</text><text xml:space="preserve" font-family="AlternateGotNo1D" font-size="38.0" fill="#FEFFFE" transform="matrix(1.00, 0.00, -0.00, -1.00, 122.4, 80.0)">n</text><text xml:space="preserve" font-family="AlternateGotNo1D" font-size="38.0" fill="#FEFFFE" transform="matrix(1.00, 0.00, -0.00, -1.00, 134.2, 80.0)">d</text></g></g></g></svg>