<?xml version="1.0" encoding="UTF-8" standalone="no"?><svg xmlns="http://www.w3.org/2000/svg" xmlns:xlink="http://www.w3.org/1999/xlink" clip-rule="evenodd" stroke-miterlimit="4.00" viewBox="0 0 454 146"><desc>SVG generated by Keynote</desc><defs></defs><g transform="matrix(1.00, 0.00, -0.00, -1.00, 0.0, 146.0)"><g><clipPath id="clip-7223"><path d="M 0.5 0.5 L 453.5 0.5 L 453.5 145.8 L 0.5 145.8 Z M 0.5 0.5 "></path></clipPath><g clip-path="url(#clip-7223)"><path d="M 1.5 31.6 L 1.5 114.7 C 1.5 131.3 14.9 144.8 31.6 144.8 L 422.4 144.8 C 439.1 144.8 452.5 131.3 452.5 114.7 L 452.5 31.6 C 452.5 14.9 439.1 1.5 422.4 1.5 L 31.6 1.5 C 14.9 1.5 1.5 14.9 1.5 31.6 Z M 1.5 31.6 " fill="#52575F"></path></g></g><g><clipPath id="clip-7224"><path d="M 32.4 29.8 L 403.0 29.8 L 403.0 124.2 L 32.4 124.2 Z M 32.4 29.8 "></path></clipPath><g clip-path="url(#clip-7224)"><text xml:space="preserve" font-family="Helvetica" font-size="17.0" fill="#FEFFFE" transform="matrix(1.00, 0.00, -0.00, -1.00, 37.0, 91.0)">F</text><text xml:space="preserve" font-family="Helvetica" font-size="17.0" fill="#FEFFFE" transform="matrix(1.00, 0.00, -0.00, -1.00, 47.4, 91.0)">r</text><text xml:space="preserve" font-family="Helvetica" font-size="17.0" fill="#FEFFFE" transform="matrix(1.00, 0.00, -0.00, -1.00, 53.0, 91.0)">o</text><text xml:space="preserve" font-family="Helvetica" font-size="17.0" fill="#FEFFFE" transform="matrix(1.00, 0.00, -0.00, -1.00, 62.5, 91.0)">m</text><text xml:space="preserve" font-family="Helvetica" font-size="17.0" fill="#FEFFFE" transform="matrix(1.00, 0.00, -0.00, -1.00, 76.7, 91.0)">:</text><text xml:space="preserve" font-family="Helvetica" font-size="17.0" fill="#FEFFFE" transform="matrix(1.00, 0.00, -0.00, -1.00, 81.4, 91.0)"> </text><text xml:space="preserve" font-family="Helvetica" font-size="17.0" fill="#FEFFFE" transform="matrix(1.00, 0.00, -0.00, -1.00, 86.1, 91.0)">V</text><text xml:space="preserve" font-family="Helvetica" font-size="17.0" fill="#FEFFFE" transform="matrix(1.00, 0.00, -0.00, -1.00, 97.1, 91.0)">i</text><text xml:space="preserve" font-family="Helvetica" font-size="17.0" fill="#FEFFFE" transform="matrix(1.00, 0.00, -0.00, -1.00, 100.9, 91.0)">r</text><text xml:space="preserve" font-family="Helvetica" font-size="17.0" fill="#FEFFFE" transform="matrix(1.00, 0.00, -0.00, -1.00, 106.6, 91.0)">t</text><text xml:space="preserve" font-family="Helvetica" font-size="17.0" fill="#FEFFFE" transform="matrix(1.00, 0.00, -0.00, -1.00, 111.3, 91.0)">u</text><text xml:space="preserve" font-family="Helvetica" font-size="17.0" fill="#FEFFFE" transform="matrix(1.00, 0.00, -0.00, -1.00, 120.8, 91.0)">a</text><text xml:space="preserve" font-family="Helvetica" font-size="17.0" fill="#FEFFFE" transform="matrix(1.00, 0.00, -0.00, -1.00, 130.2, 91.0)">l</text><text xml:space="preserve" font-family="Helvetica" font-size="17.0" fill="#FEFFFE" transform="matrix(1.00, 0.00, -0.00, -1.00, 134.0, 91.0)"> </text><text xml:space="preserve" font-family="Helvetica" font-size="17.0" fill="#FEFFFE" transform="matrix(1.00, 0.00, -0.00, -1.00, 138.7, 91.0)">J</text><text xml:space="preserve" font-family="Helvetica" font-size="17.0" fill="#FEFFFE" transform="matrix(1.00, 0.00, -0.00, -1.00, 147.2, 91.0)">o</text><text xml:space="preserve" font-family="Helvetica" font-size="17.0" fill="#FEFFFE" transform="matrix(1.00, 0.00, -0.00, -1.00, 156.7, 91.0)">b</text><text xml:space="preserve" font-family="Helvetica" font-size="17.0" fill="#FEFFFE" transform="matrix(1.00, 0.00, -0.00, -1.00, 166.1, 91.0)"> </text><text xml:space="preserve" font-family="Helvetica" font-size="17.0" fill="#FEFFFE" transform="matrix(1.00, 0.00, -0.00, -1.00, 170.9, 91.0)">S</text><text xml:space="preserve" font-family="Helvetica" font-size="17.0" fill="#FEFFFE" transform="matrix(1.00, 0.00, -0.00, -1.00, 182.2, 91.0)">c</text><text xml:space="preserve" font-family="Helvetica" font-size="17.0" fill="#FEFFFE" transform="matrix(1.00, 0.00, -0.00, -1.00, 190.7, 91.0)">o</text><text xml:space="preserve" font-family="Helvetica" font-size="17.0" fill="#FEFFFE" transform="matrix(1.00, 0.00, -0.00, -1.00, 200.1, 91.0)">u</text><text xml:space="preserve" font-family="Helvetica" font-size="17.0" fill="#FEFFFE" transform="matrix(1.00, 0.00, -0.00, -1.00, 209.6, 91.0)">t</text><text xml:space="preserve" font-family="Helvetica" font-size="17.0" fill="#FEFFFE" transform="matrix(1.00, 0.00, -0.00, -1.00, 37.0, 71.0)">S</text><text xml:space="preserve" font-family="Helvetica" font-size="17.0" fill="#FEFFFE" transform="matrix(1.00, 0.00, -0.00, -1.00, 48.3, 71.0)">u</text><text xml:space="preserve" font-family="Helvetica" font-size="17.0" fill="#FEFFFE" transform="matrix(1.00, 0.00, -0.00, -1.00, 57.8, 71.0)">b</text><text xml:space="preserve" font-family="Helvetica" font-size="17.0" fill="#FEFFFE" transform="matrix(1.00, 0.00, -0.00, -1.00, 67.3, 71.0)">j</text><text xml:space="preserve" font-family="Helvetica" font-size="17.0" fill="#FEFFFE" transform="matrix(1.00, 0.00, -0.00, -1.00, 71.0, 71.0)">e</text><text xml:space="preserve" font-family="Helvetica" font-size="17.0" fill="#FEFFFE" transform="matrix(1.00, 0.00, -0.00, -1.00, 80.5, 71.0)">c</text><text xml:space="preserve" font-family="Helvetica" font-size="17.0" fill="#FEFFFE" transform="matrix(1.00, 0.00, -0.00, -1.00, 89.0, 71.0)">t</text><text xml:space="preserve" font-family="Helvetica" font-size="17.0" fill="#FEFFFE" transform="matrix(1.00, 0.00, -0.00, -1.00, 93.7, 71.0)">:</text><text xml:space="preserve" font-family="Helvetica" font-size="17.0" fill="#FEFFFE" transform="matrix(1.00, 0.00, -0.00, -1.00, 98.4, 71.0)"> </text><text xml:space="preserve" font-family="Helvetica" font-size="17.0" fill="#FEFFFE" transform="matrix(1.00, 0.00, -0.00, -1.00, 103.2, 71.0)">O</text><text xml:space="preserve" font-family="Helvetica" font-size="17.0" fill="#FEFFFE" transform="matrix(1.00, 0.00, -0.00, -1.00, 116.4, 71.0)">h</text><text xml:space="preserve" font-family="Helvetica" font-size="17.0" fill="#FEFFFE" transform="matrix(1.00, 0.00, -0.00, -1.00, 125.8, 71.0)"> </text><text xml:space="preserve" font-family="Helvetica" font-size="17.0" fill="#FEFFFE" transform="matrix(1.00, 0.00, -0.00, -1.00, 130.5, 71.0)">S</text><text xml:space="preserve" font-family="Helvetica" font-size="17.0" fill="#FEFFFE" transform="matrix(1.00, 0.00, -0.00, -1.00, 141.9, 71.0)">n</text><text xml:space="preserve" font-family="Helvetica" font-size="17.0" fill="#FEFFFE" transform="matrix(1.00, 0.00, -0.00, -1.00, 151.3, 71.0)">a</text><text xml:space="preserve" font-family="Helvetica" font-size="17.0" fill="#FEFFFE" transform="matrix(1.00, 0.00, -0.00, -1.00, 160.8, 71.0)">p</text><text xml:space="preserve" font-family="Helvetica" font-size="17.0" fill="#FEFFFE" transform="matrix(1.00, 0.00, -0.00, -1.00, 170.3, 71.0)">!</text><text xml:space="preserve" font-family="Helvetica" font-size="17.0" fill="#FEFFFE" transform="matrix(1.00, 0.00, -0.00, -1.00, 175.0, 71.0)"> </text><text xml:space="preserve" font-family="Helvetica" font-size="17.0" fill="#FEFFFE" transform="matrix(1.00, 0.00, -0.00, -1.00, 179.4, 71.0)">Y</text><text xml:space="preserve" font-family="Helvetica" font-size="17.0" fill="#FEFFFE" transform="matrix(1.00, 0.00, -0.00, -1.00, 189.2, 71.0)">o</text><text xml:space="preserve" font-family="Helvetica" font-size="17.0" fill="#FEFFFE" transform="matrix(1.00, 0.00, -0.00, -1.00, 198.6, 71.0)">u</text><text xml:space="preserve" font-family="Helvetica" font-size="17.0" fill="#FEFFFE" transform="matrix(1.00, 0.00, -0.00, -1.00, 208.1, 71.0)">r</text><text xml:space="preserve" font-family="Helvetica" font-size="17.0" fill="#FEFFFE" transform="matrix(1.00, 0.00, -0.00, -1.00, 213.8, 71.0)"> </text><text xml:space="preserve" font-family="Helvetica" font-size="17.0" fill="#FEFFFE" transform="matrix(1.00, 0.00, -0.00, -1.00, 218.5, 71.0)">E</text><text xml:space="preserve" font-family="Helvetica" font-size="17.0" fill="#FEFFFE" transform="matrix(1.00, 0.00, -0.00, -1.00, 229.8, 71.0)">m</text><text xml:space="preserve" font-family="Helvetica" font-size="17.0" fill="#FEFFFE" transform="matrix(1.00, 0.00, -0.00, -1.00, 244.0, 71.0)">p</text><text xml:space="preserve" font-family="Helvetica" font-size="17.0" fill="#FEFFFE" transform="matrix(1.00, 0.00, -0.00, -1.00, 253.4, 71.0)">l</text><text xml:space="preserve" font-family="Helvetica" font-size="17.0" fill="#FEFFFE" transform="matrix(1.00, 0.00, -0.00, -1.00, 257.2, 71.0)">o</text><text xml:space="preserve" font-family="Helvetica" font-size="17.0" fill="#FEFFFE" transform="matrix(1.00, 0.00, -0.00, -1.00, 266.7, 71.0)">y</text><text xml:space="preserve" font-family="Helvetica" font-size="17.0" fill="#FEFFFE" transform="matrix(1.00, 0.00, -0.00, -1.00, 275.2, 71.0)">e</text><text xml:space="preserve" font-family="Helvetica" font-size="17.0" fill="#FEFFFE" transform="matrix(1.00, 0.00, -0.00, -1.00, 284.6, 71.0)">r</text><text xml:space="preserve" font-family="Helvetica" font-size="17.0" fill="#FEFFFE" transform="matrix(1.00, 0.00, -0.00, -1.00, 290.3, 71.0)"> </text><text xml:space="preserve" font-family="Helvetica" font-size="17.0" fill="#FEFFFE" transform="matrix(1.00, 0.00, -0.00, -1.00, 294.1, 71.0)">A</text><text xml:space="preserve" font-family="Helvetica" font-size="17.0" fill="#FEFFFE" transform="matrix(1.00, 0.00, -0.00, -1.00, 305.4, 71.0)">c</text><text xml:space="preserve" font-family="Helvetica" font-size="17.0" fill="#FEFFFE" transform="matrix(1.00, 0.00, -0.00, -1.00, 313.9, 71.0)">c</text><text xml:space="preserve" font-family="Helvetica" font-size="17.0" fill="#FEFFFE" transform="matrix(1.00, 0.00, -0.00, -1.00, 322.4, 71.0)">o</text><text xml:space="preserve" font-family="Helvetica" font-size="17.0" fill="#FEFFFE" transform="matrix(1.00, 0.00, -0.00, -1.00, 331.9, 71.0)">u</text><text xml:space="preserve" font-family="Helvetica" font-size="17.0" fill="#FEFFFE" transform="matrix(1.00, 0.00, -0.00, -1.00, 341.3, 71.0)">n</text><text xml:space="preserve" font-family="Helvetica" font-size="17.0" fill="#FEFFFE" transform="matrix(1.00, 0.00, -0.00, -1.00, 350.8, 71.0)">t</text><text xml:space="preserve" font-family="Helvetica" font-size="17.0" fill="#FEFFFE" transform="matrix(1.00, 0.00, -0.00, -1.00, 355.5, 71.0)"> </text><text xml:space="preserve" font-family="Helvetica" font-size="17.0" fill="#FEFFFE" transform="matrix(1.00, 0.00, -0.00, -1.00, 360.2, 71.0)">w</text><text xml:space="preserve" font-family="Helvetica" font-size="17.0" fill="#FEFFFE" transform="matrix(1.00, 0.00, -0.00, -1.00, 372.5, 71.0)">a</text><text xml:space="preserve" font-family="Helvetica" font-size="17.0" fill="#FEFFFE" transform="matrix(1.00, 0.00, -0.00, -1.00, 382.0, 71.0)">s</text><text xml:space="preserve" font-family="Helvetica" font-size="17.0" fill="#FEFFFE" transform="matrix(1.00, 0.00, -0.00, -1.00, 390.5, 71.0)"> </text><text xml:space="preserve" font-family="Helvetica" font-size="17.0" fill="#FEFFFE" transform="matrix(1.00, 0.00, -0.00, -1.00, 37.0, 51.0)">a</text><text xml:space="preserve" font-family="Helvetica" font-size="17.0" fill="#FEFFFE" transform="matrix(1.00, 0.00, -0.00, -1.00, 46.5, 51.0)">p</text><text xml:space="preserve" font-family="Helvetica" font-size="17.0" fill="#FEFFFE" transform="matrix(1.00, 0.00, -0.00, -1.00, 55.9, 51.0)">p</text><text xml:space="preserve" font-family="Helvetica" font-size="17.0" fill="#FEFFFE" transform="matrix(1.00, 0.00, -0.00, -1.00, 65.4, 51.0)">r</text><text xml:space="preserve" font-family="Helvetica" font-size="17.0" fill="#FEFFFE" transform="matrix(1.00, 0.00, -0.00, -1.00, 71.0, 51.0)">o</text><text xml:space="preserve" font-family="Helvetica" font-size="17.0" fill="#FEFFFE" transform="matrix(1.00, 0.00, -0.00, -1.00, 80.5, 51.0)">v</text><text xml:space="preserve" font-family="Helvetica" font-size="17.0" fill="#FEFFFE" transform="matrix(1.00, 0.00, -0.00, -1.00, 89.0, 51.0)">e</text><text xml:space="preserve" font-family="Helvetica" font-size="17.0" fill="#FEFFFE" transform="matrix(1.00, 0.00, -0.00, -1.00, 98.5, 51.0)">d</text><text xml:space="preserve" font-family="Helvetica" font-size="17.0" fill="#FEFFFE" transform="matrix(1.00, 0.00, -0.00, -1.00, 107.9, 51.0)">!</text><text xml:space="preserve" font-family="Helvetica" font-size="17.0" fill="#FEFFFE" transform="matrix(1.00, 0.00, -0.00, -1.00, 112.6, 51.0)"> </text><text xml:space="preserve" font-family="Helvetica" font-size="17.0" fill="#FEFFFE" transform="matrix(1.00, 0.00, -0.00, -1.00, 117.3, 51.0)">N</text><text xml:space="preserve" font-family="Helvetica" font-size="17.0" fill="#FEFFFE" transform="matrix(1.00, 0.00, -0.00, -1.00, 129.6, 51.0)">o</text><text xml:space="preserve" font-family="Helvetica" font-size="17.0" fill="#FEFFFE" transform="matrix(1.00, 0.00, -0.00, -1.00, 139.1, 51.0)">w</text><text xml:space="preserve" font-family="Helvetica" font-size="17.0" fill="#FEFFFE" transform="matrix(1.00, 0.00, -0.00, -1.00, 151.4, 51.0)"> </text><text xml:space="preserve" font-family="Helvetica" font-size="17.0" fill="#FEFFFE" transform="matrix(1.00, 0.00, -0.00, -1.00, 156.1, 51.0)">y</text><text xml:space="preserve" font-family="Helvetica" font-size="17.0" fill="#FEFFFE" transform="matrix(1.00, 0.00, -0.00, -1.00, 164.6, 51.0)">o</text><text xml:space="preserve" font-family="Helvetica" font-size="17.0" fill="#FEFFFE" transform="matrix(1.00, 0.00, -0.00, -1.00, 174.0, 51.0)">u</text><text xml:space="preserve" font-family="Helvetica" font-size="17.0" fill="#FEFFFE" transform="matrix(1.00, 0.00, -0.00, -1.00, 183.5, 51.0)"> </text><text xml:space="preserve" font-family="Helvetica" font-size="17.0" fill="#FEFFFE" transform="matrix(1.00, 0.00, -0.00, -1.00, 188.2, 51.0)">c</text><text xml:space="preserve" font-family="Helvetica" font-size="17.0" fill="#FEFFFE" transform="matrix(1.00, 0.00, -0.00, -1.00, 196.7, 51.0)">a</text><text xml:space="preserve" font-family="Helvetica" font-size="17.0" fill="#FEFFFE" transform="matrix(1.00, 0.00, -0.00, -1.00, 206.2, 51.0)">n</text><text xml:space="preserve" font-family="Helvetica" font-size="17.0" fill="#FEFFFE" transform="matrix(1.00, 0.00, -0.00, -1.00, 215.6, 51.0)"> </text><text xml:space="preserve" font-family="Helvetica" font-size="17.0" fill="#FEFFFE" transform="matrix(1.00, 0.00, -0.00, -1.00, 220.4, 51.0)">c</text><text xml:space="preserve" font-family="Helvetica" font-size="17.0" fill="#FEFFFE" transform="matrix(1.00, 0.00, -0.00, -1.00, 228.9, 51.0)">o</text><text xml:space="preserve" font-family="Helvetica" font-size="17.0" fill="#FEFFFE" transform="matrix(1.00, 0.00, -0.00, -1.00, 238.3, 51.0)">n</text><text xml:space="preserve" font-family="Helvetica" font-size="17.0" fill="#FEFFFE" transform="matrix(1.00, 0.00, -0.00, -1.00, 247.8, 51.0)">t</text><text xml:space="preserve" font-family="Helvetica" font-size="17.0" fill="#FEFFFE" transform="matrix(1.00, 0.00, -0.00, -1.00, 252.5, 51.0)">a</text><text xml:space="preserve" font-family="Helvetica" font-size="17.0" fill="#FEFFFE" transform="matrix(1.00, 0.00, -0.00, -1.00, 262.0, 51.0)">c</text><text xml:space="preserve" font-family="Helvetica" font-size="17.0" fill="#FEFFFE" transform="matrix(1.00, 0.00, -0.00, -1.00, 270.5, 51.0)">t</text><text xml:space="preserve" font-family="Helvetica" font-size="17.0" fill="#FEFFFE" transform="matrix(1.00, 0.00, -0.00, -1.00, 275.2, 51.0)"> </text><text xml:space="preserve" font-family="Helvetica" font-size="17.0" fill="#FEFFFE" transform="matrix(1.00, 0.00, -0.00, -1.00, 279.9, 51.0)">a</text><text xml:space="preserve" font-family="Helvetica" font-size="17.0" fill="#FEFFFE" transform="matrix(1.00, 0.00, -0.00, -1.00, 289.3, 51.0)">p</text><text xml:space="preserve" font-family="Helvetica" font-size="17.0" fill="#FEFFFE" transform="matrix(1.00, 0.00, -0.00, -1.00, 298.8, 51.0)">p</text><text xml:space="preserve" font-family="Helvetica" font-size="17.0" fill="#FEFFFE" transform="matrix(1.00, 0.00, -0.00, -1.00, 308.3, 51.0)">l</text><text xml:space="preserve" font-family="Helvetica" font-size="17.0" fill="#FEFFFE" transform="matrix(1.00, 0.00, -0.00, -1.00, 312.0, 51.0)">i</text><text xml:space="preserve" font-family="Helvetica" font-size="17.0" fill="#FEFFFE" transform="matrix(1.00, 0.00, -0.00, -1.00, 315.8, 51.0)">c</text><text xml:space="preserve" font-family="Helvetica" font-size="17.0" fill="#FEFFFE" transform="matrix(1.00, 0.00, -0.00, -1.00, 324.3, 51.0)">a</text><text xml:space="preserve" font-family="Helvetica" font-size="17.0" fill="#FEFFFE" transform="matrix(1.00, 0.00, -0.00, -1.00, 333.8, 51.0)">n</text><text xml:space="preserve" font-family="Helvetica" font-size="17.0" fill="#FEFFFE" transform="matrix(1.00, 0.00, -0.00, -1.00, 343.2, 51.0)">t</text><text xml:space="preserve" font-family="Helvetica" font-size="17.0" fill="#FEFFFE" transform="matrix(1.00, 0.00, -0.00, -1.00, 348.0, 51.0)">s</text><text xml:space="preserve" font-family="Helvetica" font-size="17.0" fill="#FEFFFE" transform="matrix(1.00, 0.00, -0.00, -1.00, 356.5, 51.0)">!</text></g></g></g></svg>