<?xml version="1.0" encoding="UTF-8" standalone="no"?><svg xmlns="http://www.w3.org/2000/svg" xmlns:xlink="http://www.w3.org/1999/xlink" clip-rule="evenodd" stroke-miterlimit="4.00" viewBox="0 0 174 278"><desc>SVG generated by Keynote</desc><defs></defs><g transform="matrix(1.00, 0.00, -0.00, -1.00, 0.0, 278.0)"><g><clipPath id="clip-7195"><path d="M -73.0 426.0 L 247.0 426.0 L 247.0 -521.0 L -73.0 -521.0 Z M -73.0 426.0 "></path></clipPath><g clip-path="url(#clip-7195)"><g><clipPath id="clip-7196"><path d="M 1.0 1.0 L 173.0 1.0 L 173.0 276.0 L 1.0 276.0 Z M 1.0 1.0 "></path></clipPath><g clip-path="url(#clip-7196)"><text xml:space="preserve" font-family="ProximaNova-Bold" font-weight="bold" font-size="14.0" fill="#5C5C5C" transform="matrix(1.00, 0.00, -0.00, -1.00, 5.0, 266.0)">T</text><text xml:space="preserve" font-family="ProximaNova-Bold" font-weight="bold" font-size="14.0" fill="#5C5C5C" transform="matrix(1.00, 0.00, -0.00, -1.00, 13.2, 266.0)">H</text><text xml:space="preserve" font-family="ProximaNova-Bold" font-weight="bold" font-size="14.0" fill="#5C5C5C" transform="matrix(1.00, 0.00, -0.00, -1.00, 23.4, 266.0)">A</text><text xml:space="preserve" font-family="ProximaNova-Bold" font-weight="bold" font-size="14.0" fill="#5C5C5C" transform="matrix(1.00, 0.00, -0.00, -1.00, 33.0, 266.0)">T</text><text xml:space="preserve" font-family="ProximaNova-Bold" font-weight="bold" font-size="14.0" fill="#5C5C5C" transform="matrix(1.00, 0.00, -0.00, -1.00, 41.2, 266.0)"> </text><text xml:space="preserve" font-family="ProximaNova-Bold" font-weight="bold" font-size="14.0" fill="#5C5C5C" transform="matrix(1.00, 0.00, -0.00, -1.00, 44.7, 266.0)">A</text><text xml:space="preserve" font-family="ProximaNova-Bold" font-weight="bold" font-size="14.0" fill="#5C5C5C" transform="matrix(1.00, 0.00, -0.00, -1.00, 54.3, 266.0)">C</text><text xml:space="preserve" font-family="ProximaNova-Bold" font-weight="bold" font-size="14.0" fill="#5C5C5C" transform="matrix(1.00, 0.00, -0.00, -1.00, 63.9, 266.0)">T</text><text xml:space="preserve" font-family="ProximaNova-Bold" font-weight="bold" font-size="14.0" fill="#5C5C5C" transform="matrix(1.00, 0.00, -0.00, -1.00, 72.1, 266.0)">I</text><text xml:space="preserve" font-family="ProximaNova-Bold" font-weight="bold" font-size="14.0" fill="#5C5C5C" transform="matrix(1.00, 0.00, -0.00, -1.00, 75.9, 266.0)">O</text><text xml:space="preserve" font-family="ProximaNova-Bold" font-weight="bold" font-size="14.0" fill="#5C5C5C" transform="matrix(1.00, 0.00, -0.00, -1.00, 86.6, 266.0)">N</text><text xml:space="preserve" font-family="ProximaNova-Bold" font-weight="bold" font-size="14.0" fill="#5C5C5C" transform="matrix(1.00, 0.00, -0.00, -1.00, 96.8, 266.0)"> </text><text xml:space="preserve" font-family="ProximaNova-Bold" font-weight="bold" font-size="14.0" fill="#5C5C5C" transform="matrix(1.00, 0.00, -0.00, -1.00, 100.4, 266.0)">R</text><text xml:space="preserve" font-family="ProximaNova-Bold" font-weight="bold" font-size="14.0" fill="#5C5C5C" transform="matrix(1.00, 0.00, -0.00, -1.00, 109.4, 266.0)">E</text><text xml:space="preserve" font-family="ProximaNova-Bold" font-weight="bold" font-size="14.0" fill="#5C5C5C" transform="matrix(1.00, 0.00, -0.00, -1.00, 117.6, 266.0)">Q</text><text xml:space="preserve" font-family="ProximaNova-Bold" font-weight="bold" font-size="14.0" fill="#5C5C5C" transform="matrix(1.00, 0.00, -0.00, -1.00, 128.3, 266.0)">U</text><text xml:space="preserve" font-family="ProximaNova-Bold" font-weight="bold" font-size="14.0" fill="#5C5C5C" transform="matrix(1.00, 0.00, -0.00, -1.00, 138.6, 266.0)">I</text><text xml:space="preserve" font-family="ProximaNova-Bold" font-weight="bold" font-size="14.0" fill="#5C5C5C" transform="matrix(1.00, 0.00, -0.00, -1.00, 142.4, 266.0)">R</text><text xml:space="preserve" font-family="ProximaNova-Bold" font-weight="bold" font-size="14.0" fill="#5C5C5C" transform="matrix(1.00, 0.00, -0.00, -1.00, 151.4, 266.0)">E</text><text xml:space="preserve" font-family="ProximaNova-Bold" font-weight="bold" font-size="14.0" fill="#5C5C5C" transform="matrix(1.00, 0.00, -0.00, -1.00, 159.6, 266.0)">S</text><text xml:space="preserve" font-family="ProximaNova-Bold" font-weight="bold" font-size="14.0" fill="#5C5C5C" transform="matrix(1.00, 0.00, -0.00, -1.00, 168.0, 266.0)"> </text><text xml:space="preserve" font-family="ProximaNova-Bold" font-weight="bold" font-size="14.0" fill="#5C5C5C" transform="matrix(1.00, 0.00, -0.00, -1.00, 12.2, 248.0)">A</text><text xml:space="preserve" font-family="ProximaNova-Bold" font-weight="bold" font-size="14.0" fill="#5C5C5C" transform="matrix(1.00, 0.00, -0.00, -1.00, 21.8, 248.0)">C</text><text xml:space="preserve" font-family="ProximaNova-Bold" font-weight="bold" font-size="14.0" fill="#5C5C5C" transform="matrix(1.00, 0.00, -0.00, -1.00, 31.4, 248.0)">C</text><text xml:space="preserve" font-family="ProximaNova-Bold" font-weight="bold" font-size="14.0" fill="#5C5C5C" transform="matrix(1.00, 0.00, -0.00, -1.00, 41.0, 248.0)">O</text><text xml:space="preserve" font-family="ProximaNova-Bold" font-weight="bold" font-size="14.0" fill="#5C5C5C" transform="matrix(1.00, 0.00, -0.00, -1.00, 51.8, 248.0)">U</text><text xml:space="preserve" font-family="ProximaNova-Bold" font-weight="bold" font-size="14.0" fill="#5C5C5C" transform="matrix(1.00, 0.00, -0.00, -1.00, 62.0, 248.0)">N</text><text xml:space="preserve" font-family="ProximaNova-Bold" font-weight="bold" font-size="14.0" fill="#5C5C5C" transform="matrix(1.00, 0.00, -0.00, -1.00, 72.2, 248.0)">T</text><text xml:space="preserve" font-family="ProximaNova-Bold" font-weight="bold" font-size="14.0" fill="#5C5C5C" transform="matrix(1.00, 0.00, -0.00, -1.00, 80.4, 248.0)"> </text><text xml:space="preserve" font-family="ProximaNova-Bold" font-weight="bold" font-size="14.0" fill="#5C5C5C" transform="matrix(1.00, 0.00, -0.00, -1.00, 84.0, 248.0)">A</text><text xml:space="preserve" font-family="ProximaNova-Bold" font-weight="bold" font-size="14.0" fill="#5C5C5C" transform="matrix(1.00, 0.00, -0.00, -1.00, 93.5, 248.0)">P</text><text xml:space="preserve" font-family="ProximaNova-Bold" font-weight="bold" font-size="14.0" fill="#5C5C5C" transform="matrix(1.00, 0.00, -0.00, -1.00, 102.3, 248.0)">P</text><text xml:space="preserve" font-family="ProximaNova-Bold" font-weight="bold" font-size="14.0" fill="#5C5C5C" transform="matrix(1.00, 0.00, -0.00, -1.00, 111.0, 248.0)">R</text><text xml:space="preserve" font-family="ProximaNova-Bold" font-weight="bold" font-size="14.0" fill="#5C5C5C" transform="matrix(1.00, 0.00, -0.00, -1.00, 120.0, 248.0)">O</text><text xml:space="preserve" font-family="ProximaNova-Bold" font-weight="bold" font-size="14.0" fill="#5C5C5C" transform="matrix(1.00, 0.00, -0.00, -1.00, 130.7, 248.0)">V</text><text xml:space="preserve" font-family="ProximaNova-Bold" font-weight="bold" font-size="14.0" fill="#5C5C5C" transform="matrix(1.00, 0.00, -0.00, -1.00, 140.3, 248.0)">A</text><text xml:space="preserve" font-family="ProximaNova-Bold" font-weight="bold" font-size="14.0" fill="#5C5C5C" transform="matrix(1.00, 0.00, -0.00, -1.00, 149.9, 248.0)">L</text><text xml:space="preserve" font-family="ProximaNova-Bold" font-weight="bold" font-size="14.0" fill="#5C5C5C" transform="matrix(1.00, 0.00, -0.00, -1.00, 157.2, 248.0)">.</text><text xml:space="preserve" font-family="ProximaNova-Light" font-size="20.0" fill="#5C5C5C" transform="matrix(1.00, 0.00, -0.00, -1.00, 20.2, 176.0)">B</text><text xml:space="preserve" font-family="ProximaNova-Light" font-size="20.0" fill="#5C5C5C" transform="matrix(1.00, 0.00, -0.00, -1.00, 32.5, 176.0)">u</text><text xml:space="preserve" font-family="ProximaNova-Light" font-size="20.0" fill="#5C5C5C" transform="matrix(1.00, 0.00, -0.00, -1.00, 43.3, 176.0)">t</text><text xml:space="preserve" font-family="ProximaNova-Light" font-size="20.0" fill="#5C5C5C" transform="matrix(1.00, 0.00, -0.00, -1.00, 48.8, 176.0)"> </text><text xml:space="preserve" font-family="ProximaNova-Light" font-size="20.0" fill="#5C5C5C" transform="matrix(1.00, 0.00, -0.00, -1.00, 54.0, 176.0)">y</text><text xml:space="preserve" font-family="ProximaNova-Light" font-size="20.0" fill="#5C5C5C" transform="matrix(1.00, 0.00, -0.00, -1.00, 63.6, 176.0)">o</text><text xml:space="preserve" font-family="ProximaNova-Light" font-size="20.0" fill="#5C5C5C" transform="matrix(1.00, 0.00, -0.00, -1.00, 75.0, 176.0)">u</text><text xml:space="preserve" font-family="ProximaNova-Light" font-size="20.0" fill="#5C5C5C" transform="matrix(1.00, 0.00, -0.00, -1.00, 85.8, 176.0)"> </text><text xml:space="preserve" font-family="ProximaNova-Light" font-size="20.0" fill="#5C5C5C" transform="matrix(1.00, 0.00, -0.00, -1.00, 91.0, 176.0)">c</text><text xml:space="preserve" font-family="ProximaNova-Light" font-size="20.0" fill="#5C5C5C" transform="matrix(1.00, 0.00, -0.00, -1.00, 100.9, 176.0)">a</text><text xml:space="preserve" font-family="ProximaNova-Light" font-size="20.0" fill="#5C5C5C" transform="matrix(1.00, 0.00, -0.00, -1.00, 111.3, 176.0)">n</text><text xml:space="preserve" font-family="ProximaNova-Light" font-size="20.0" fill="#5C5C5C" transform="matrix(1.00, 0.00, -0.00, -1.00, 122.1, 176.0)"> </text><text xml:space="preserve" font-family="ProximaNova-Light" font-size="20.0" fill="#5C5C5C" transform="matrix(1.00, 0.00, -0.00, -1.00, 127.3, 176.0)">s</text><text xml:space="preserve" font-family="ProximaNova-Light" font-size="20.0" fill="#5C5C5C" transform="matrix(1.00, 0.00, -0.00, -1.00, 136.5, 176.0)">t</text><text xml:space="preserve" font-family="ProximaNova-Light" font-size="20.0" fill="#5C5C5C" transform="matrix(1.00, 0.00, -0.00, -1.00, 142.0, 176.0)">i</text><text xml:space="preserve" font-family="ProximaNova-Light" font-size="20.0" fill="#5C5C5C" transform="matrix(1.00, 0.00, -0.00, -1.00, 146.2, 176.0)">l</text><text xml:space="preserve" font-family="ProximaNova-Light" font-size="20.0" fill="#5C5C5C" transform="matrix(1.00, 0.00, -0.00, -1.00, 150.5, 176.0)">l</text><text xml:space="preserve" font-family="ProximaNova-Light" font-size="20.0" fill="#5C5C5C" transform="matrix(1.00, 0.00, -0.00, -1.00, 154.8, 176.0)"> </text><text xml:space="preserve" font-family="ProximaNova-Light" font-size="20.0" fill="#5C5C5C" transform="matrix(1.00, 0.00, -0.00, -1.00, 5.5, 152.0)">f</text><text xml:space="preserve" font-family="ProximaNova-Light" font-size="20.0" fill="#5C5C5C" transform="matrix(1.00, 0.00, -0.00, -1.00, 10.8, 152.0)">a</text><text xml:space="preserve" font-family="ProximaNova-Light" font-size="20.0" fill="#5C5C5C" transform="matrix(1.00, 0.00, -0.00, -1.00, 21.2, 152.0)">v</text><text xml:space="preserve" font-family="ProximaNova-Light" font-size="20.0" fill="#5C5C5C" transform="matrix(1.00, 0.00, -0.00, -1.00, 30.8, 152.0)">o</text><text xml:space="preserve" font-family="ProximaNova-Light" font-size="20.0" fill="#5C5C5C" transform="matrix(1.00, 0.00, -0.00, -1.00, 42.2, 152.0)">r</text><text xml:space="preserve" font-family="ProximaNova-Light" font-size="20.0" fill="#5C5C5C" transform="matrix(1.00, 0.00, -0.00, -1.00, 48.6, 152.0)">i</text><text xml:space="preserve" font-family="ProximaNova-Light" font-size="20.0" fill="#5C5C5C" transform="matrix(1.00, 0.00, -0.00, -1.00, 52.9, 152.0)">t</text><text xml:space="preserve" font-family="ProximaNova-Light" font-size="20.0" fill="#5C5C5C" transform="matrix(1.00, 0.00, -0.00, -1.00, 58.4, 152.0)">e</text><text xml:space="preserve" font-family="ProximaNova-Light" font-size="20.0" fill="#5C5C5C" transform="matrix(1.00, 0.00, -0.00, -1.00, 69.7, 152.0)"> </text><text xml:space="preserve" font-family="ProximaNova-Light" font-size="20.0" fill="#5C5C5C" transform="matrix(1.00, 0.00, -0.00, -1.00, 74.9, 152.0)">c</text><text xml:space="preserve" font-family="ProximaNova-Light" font-size="20.0" fill="#5C5C5C" transform="matrix(1.00, 0.00, -0.00, -1.00, 84.8, 152.0)">a</text><text xml:space="preserve" font-family="ProximaNova-Light" font-size="20.0" fill="#5C5C5C" transform="matrix(1.00, 0.00, -0.00, -1.00, 95.2, 152.0)">n</text><text xml:space="preserve" font-family="ProximaNova-Light" font-size="20.0" fill="#5C5C5C" transform="matrix(1.00, 0.00, -0.00, -1.00, 106.0, 152.0)">d</text><text xml:space="preserve" font-family="ProximaNova-Light" font-size="20.0" fill="#5C5C5C" transform="matrix(1.00, 0.00, -0.00, -1.00, 117.4, 152.0)">i</text><text xml:space="preserve" font-family="ProximaNova-Light" font-size="20.0" fill="#5C5C5C" transform="matrix(1.00, 0.00, -0.00, -1.00, 121.7, 152.0)">d</text><text xml:space="preserve" font-family="ProximaNova-Light" font-size="20.0" fill="#5C5C5C" transform="matrix(1.00, 0.00, -0.00, -1.00, 133.1, 152.0)">a</text><text xml:space="preserve" font-family="ProximaNova-Light" font-size="20.0" fill="#5C5C5C" transform="matrix(1.00, 0.00, -0.00, -1.00, 143.5, 152.0)">t</text><text xml:space="preserve" font-family="ProximaNova-Light" font-size="20.0" fill="#5C5C5C" transform="matrix(1.00, 0.00, -0.00, -1.00, 149.0, 152.0)">e</text><text xml:space="preserve" font-family="ProximaNova-Light" font-size="20.0" fill="#5C5C5C" transform="matrix(1.00, 0.00, -0.00, -1.00, 160.3, 152.0)">s</text><text xml:space="preserve" font-family="ProximaNova-Light" font-size="20.0" fill="#5C5C5C" transform="matrix(1.00, 0.00, -0.00, -1.00, 23.2, 128.0)">t</text><text xml:space="preserve" font-family="ProximaNova-Light" font-size="20.0" fill="#5C5C5C" transform="matrix(1.00, 0.00, -0.00, -1.00, 28.7, 128.0)">o</text><text xml:space="preserve" font-family="ProximaNova-Light" font-size="20.0" fill="#5C5C5C" transform="matrix(1.00, 0.00, -0.00, -1.00, 40.1, 128.0)"> </text><text xml:space="preserve" font-family="ProximaNova-Light" font-size="20.0" fill="#5C5C5C" transform="matrix(1.00, 0.00, -0.00, -1.00, 45.3, 128.0)">c</text><text xml:space="preserve" font-family="ProximaNova-Light" font-size="20.0" fill="#5C5C5C" transform="matrix(1.00, 0.00, -0.00, -1.00, 55.2, 128.0)">o</text><text xml:space="preserve" font-family="ProximaNova-Light" font-size="20.0" fill="#5C5C5C" transform="matrix(1.00, 0.00, -0.00, -1.00, 66.6, 128.0)">n</text><text xml:space="preserve" font-family="ProximaNova-Light" font-size="20.0" fill="#5C5C5C" transform="matrix(1.00, 0.00, -0.00, -1.00, 77.4, 128.0)">t</text><text xml:space="preserve" font-family="ProximaNova-Light" font-size="20.0" fill="#5C5C5C" transform="matrix(1.00, 0.00, -0.00, -1.00, 82.9, 128.0)">a</text><text xml:space="preserve" font-family="ProximaNova-Light" font-size="20.0" fill="#5C5C5C" transform="matrix(1.00, 0.00, -0.00, -1.00, 93.3, 128.0)">c</text><text xml:space="preserve" font-family="ProximaNova-Light" font-size="20.0" fill="#5C5C5C" transform="matrix(1.00, 0.00, -0.00, -1.00, 103.2, 128.0)">t</text><text xml:space="preserve" font-family="ProximaNova-Light" font-size="20.0" fill="#5C5C5C" transform="matrix(1.00, 0.00, -0.00, -1.00, 108.7, 128.0)"> </text><text xml:space="preserve" font-family="ProximaNova-Light" font-size="20.0" fill="#5C5C5C" transform="matrix(1.00, 0.00, -0.00, -1.00, 113.9, 128.0)">l</text><text xml:space="preserve" font-family="ProximaNova-Light" font-size="20.0" fill="#5C5C5C" transform="matrix(1.00, 0.00, -0.00, -1.00, 118.2, 128.0)">a</text><text xml:space="preserve" font-family="ProximaNova-Light" font-size="20.0" fill="#5C5C5C" transform="matrix(1.00, 0.00, -0.00, -1.00, 128.6, 128.0)">t</text><text xml:space="preserve" font-family="ProximaNova-Light" font-size="20.0" fill="#5C5C5C" transform="matrix(1.00, 0.00, -0.00, -1.00, 134.1, 128.0)">e</text><text xml:space="preserve" font-family="ProximaNova-Light" font-size="20.0" fill="#5C5C5C" transform="matrix(1.00, 0.00, -0.00, -1.00, 145.4, 128.0)">r</text><text xml:space="preserve" font-family="ProximaNova-Light" font-size="20.0" fill="#5C5C5C" transform="matrix(1.00, 0.00, -0.00, -1.00, 151.8, 128.0)"> </text><text xml:space="preserve" font-family="ProximaNova-Light" font-size="20.0" fill="#5C5C5C" transform="matrix(1.00, 0.00, -0.00, -1.00, 9.4, 104.0)">a</text><text xml:space="preserve" font-family="ProximaNova-Light" font-size="20.0" fill="#5C5C5C" transform="matrix(1.00, 0.00, -0.00, -1.00, 19.8, 104.0)">f</text><text xml:space="preserve" font-family="ProximaNova-Light" font-size="20.0" fill="#5C5C5C" transform="matrix(1.00, 0.00, -0.00, -1.00, 25.1, 104.0)">t</text><text xml:space="preserve" font-family="ProximaNova-Light" font-size="20.0" fill="#5C5C5C" transform="matrix(1.00, 0.00, -0.00, -1.00, 30.6, 104.0)">e</text><text xml:space="preserve" font-family="ProximaNova-Light" font-size="20.0" fill="#5C5C5C" transform="matrix(1.00, 0.00, -0.00, -1.00, 42.0, 104.0)">r</text><text xml:space="preserve" font-family="ProximaNova-Light" font-size="20.0" fill="#5C5C5C" transform="matrix(1.00, 0.00, -0.00, -1.00, 48.3, 104.0)"> </text><text xml:space="preserve" font-family="ProximaNova-Light" font-size="20.0" fill="#5C5C5C" transform="matrix(1.00, 0.00, -0.00, -1.00, 53.5, 104.0)">y</text><text xml:space="preserve" font-family="ProximaNova-Light" font-size="20.0" fill="#5C5C5C" transform="matrix(1.00, 0.00, -0.00, -1.00, 63.1, 104.0)">o</text><text xml:space="preserve" font-family="ProximaNova-Light" font-size="20.0" fill="#5C5C5C" transform="matrix(1.00, 0.00, -0.00, -1.00, 74.5, 104.0)">u</text><text xml:space="preserve" font-family="ProximaNova-Light" font-size="20.0" fill="#5C5C5C" transform="matrix(1.00, 0.00, -0.00, -1.00, 85.3, 104.0)">r</text><text xml:space="preserve" font-family="ProximaNova-Light" font-size="20.0" fill="#5C5C5C" transform="matrix(1.00, 0.00, -0.00, -1.00, 91.7, 104.0)"> </text><text xml:space="preserve" font-family="ProximaNova-Light" font-size="20.0" fill="#5C5C5C" transform="matrix(1.00, 0.00, -0.00, -1.00, 96.9, 104.0)">a</text><text xml:space="preserve" font-family="ProximaNova-Light" font-size="20.0" fill="#5C5C5C" transform="matrix(1.00, 0.00, -0.00, -1.00, 107.3, 104.0)">c</text><text xml:space="preserve" font-family="ProximaNova-Light" font-size="20.0" fill="#5C5C5C" transform="matrix(1.00, 0.00, -0.00, -1.00, 117.2, 104.0)">c</text><text xml:space="preserve" font-family="ProximaNova-Light" font-size="20.0" fill="#5C5C5C" transform="matrix(1.00, 0.00, -0.00, -1.00, 127.0, 104.0)">o</text><text xml:space="preserve" font-family="ProximaNova-Light" font-size="20.0" fill="#5C5C5C" transform="matrix(1.00, 0.00, -0.00, -1.00, 138.5, 104.0)">u</text><text xml:space="preserve" font-family="ProximaNova-Light" font-size="20.0" fill="#5C5C5C" transform="matrix(1.00, 0.00, -0.00, -1.00, 149.3, 104.0)">n</text><text xml:space="preserve" font-family="ProximaNova-Light" font-size="20.0" fill="#5C5C5C" transform="matrix(1.00, 0.00, -0.00, -1.00, 160.1, 104.0)">t</text><text xml:space="preserve" font-family="ProximaNova-Light" font-size="20.0" fill="#5C5C5C" transform="matrix(1.00, 0.00, -0.00, -1.00, 165.6, 104.0)"> </text><text xml:space="preserve" font-family="ProximaNova-Light" font-size="20.0" fill="#5C5C5C" transform="matrix(1.00, 0.00, -0.00, -1.00, 0.9, 80.0)">h</text><text xml:space="preserve" font-family="ProximaNova-Light" font-size="20.0" fill="#5C5C5C" transform="matrix(1.00, 0.00, -0.00, -1.00, 11.7, 80.0)">a</text><text xml:space="preserve" font-family="ProximaNova-Light" font-size="20.0" fill="#5C5C5C" transform="matrix(1.00, 0.00, -0.00, -1.00, 22.1, 80.0)">s</text><text xml:space="preserve" font-family="ProximaNova-Light" font-size="20.0" fill="#5C5C5C" transform="matrix(1.00, 0.00, -0.00, -1.00, 31.3, 80.0)"> </text><text xml:space="preserve" font-family="ProximaNova-Light" font-size="20.0" fill="#5C5C5C" transform="matrix(1.00, 0.00, -0.00, -1.00, 36.4, 80.0)">b</text><text xml:space="preserve" font-family="ProximaNova-Light" font-size="20.0" fill="#5C5C5C" transform="matrix(1.00, 0.00, -0.00, -1.00, 47.9, 80.0)">e</text><text xml:space="preserve" font-family="ProximaNova-Light" font-size="20.0" fill="#5C5C5C" transform="matrix(1.00, 0.00, -0.00, -1.00, 59.2, 80.0)">e</text><text xml:space="preserve" font-family="ProximaNova-Light" font-size="20.0" fill="#5C5C5C" transform="matrix(1.00, 0.00, -0.00, -1.00, 70.5, 80.0)">n</text><text xml:space="preserve" font-family="ProximaNova-Light" font-size="20.0" fill="#5C5C5C" transform="matrix(1.00, 0.00, -0.00, -1.00, 81.3, 80.0)"> </text><text xml:space="preserve" font-family="ProximaNova-Light" font-size="20.0" fill="#5C5C5C" transform="matrix(1.00, 0.00, -0.00, -1.00, 86.5, 80.0)">a</text><text xml:space="preserve" font-family="ProximaNova-Light" font-size="20.0" fill="#5C5C5C" transform="matrix(1.00, 0.00, -0.00, -1.00, 96.9, 80.0)">p</text><text xml:space="preserve" font-family="ProximaNova-Light" font-size="20.0" fill="#5C5C5C" transform="matrix(1.00, 0.00, -0.00, -1.00, 108.3, 80.0)">p</text><text xml:space="preserve" font-family="ProximaNova-Light" font-size="20.0" fill="#5C5C5C" transform="matrix(1.00, 0.00, -0.00, -1.00, 119.6, 80.0)">r</text><text xml:space="preserve" font-family="ProximaNova-Light" font-size="20.0" fill="#5C5C5C" transform="matrix(1.00, 0.00, -0.00, -1.00, 126.0, 80.0)">o</text><text xml:space="preserve" font-family="ProximaNova-Light" font-size="20.0" fill="#5C5C5C" transform="matrix(1.00, 0.00, -0.00, -1.00, 137.4, 80.0)">v</text><text xml:space="preserve" font-family="ProximaNova-Light" font-size="20.0" fill="#5C5C5C" transform="matrix(1.00, 0.00, -0.00, -1.00, 147.0, 80.0)">e</text><text xml:space="preserve" font-family="ProximaNova-Light" font-size="20.0" fill="#5C5C5C" transform="matrix(1.00, 0.00, -0.00, -1.00, 158.3, 80.0)">d</text><text xml:space="preserve" font-family="ProximaNova-Light" font-size="20.0" fill="#5C5C5C" transform="matrix(1.00, 0.00, -0.00, -1.00, 169.8, 80.0)">!</text><text xml:space="preserve" font-family="ProximaNova-Light" font-size="20.0" fill="#5C5C5C" transform="matrix(1.00, 0.00, -0.00, -1.00, 174.1, 80.0)"> </text><text xml:space="preserve" font-family="ProximaNova-Light" font-size="11.9" fill="#5C5C5C" transform="matrix(1.00, 0.00, -0.00, -1.00, 48.0, 4.7)">O</text><text xml:space="preserve" font-family="ProximaNova-Light" font-size="11.9" fill="#5C5C5C" transform="matrix(1.00, 0.00, -0.00, -1.00, 57.1, 4.7)">k</text><text xml:space="preserve" font-family="ProximaNova-Light" font-size="11.9" fill="#5C5C5C" transform="matrix(1.00, 0.00, -0.00, -1.00, 63.1, 4.7)">a</text><text xml:space="preserve" font-family="ProximaNova-Light" font-size="11.9" fill="#5C5C5C" transform="matrix(1.00, 0.00, -0.00, -1.00, 69.3, 4.7)">y</text><text xml:space="preserve" font-family="ProximaNova-Light" font-size="11.9" fill="#5C5C5C" transform="matrix(1.00, 0.00, -0.00, -1.00, 74.3, 4.7)">,</text><text xml:space="preserve" font-family="ProximaNova-Light" font-size="11.9" fill="#5C5C5C" transform="matrix(1.00, 0.00, -0.00, -1.00, 76.9, 4.7)"> </text><text xml:space="preserve" font-family="ProximaNova-Bold" font-weight="bold" font-size="11.9" fill="#6CCEAC" transform="matrix(1.00, 0.00, -0.00, -1.00, 80.0, 4.7)">T</text><text xml:space="preserve" font-family="ProximaNova-Bold" font-weight="bold" font-size="11.9" fill="#6CCEAC" transform="matrix(1.00, 0.00, -0.00, -1.00, 86.9, 4.7)">H</text><text xml:space="preserve" font-family="ProximaNova-Bold" font-weight="bold" font-size="11.9" fill="#6CCEAC" transform="matrix(1.00, 0.00, -0.00, -1.00, 95.6, 4.7)">A</text><text xml:space="preserve" font-family="ProximaNova-Bold" font-weight="bold" font-size="11.9" fill="#6CCEAC" transform="matrix(1.00, 0.00, -0.00, -1.00, 103.7, 4.7)">N</text><text xml:space="preserve" font-family="ProximaNova-Bold" font-weight="bold" font-size="11.9" fill="#6CCEAC" transform="matrix(1.00, 0.00, -0.00, -1.00, 112.4, 4.7)">K</text><text xml:space="preserve" font-family="ProximaNova-Bold" font-weight="bold" font-size="11.9" fill="#6CCEAC" transform="matrix(1.00, 0.00, -0.00, -1.00, 119.9, 4.7)">S</text><text xml:space="preserve" font-family="ProximaNova-Bold" font-weight="bold" font-size="11.9" fill="#6CCEAC" transform="matrix(1.00, 0.00, -0.00, -1.00, 127.1, 4.7)">.</text></g></g></g></g></g></svg>