<?xml version="1.0" encoding="UTF-8" standalone="no"?><svg xmlns="http://www.w3.org/2000/svg" xmlns:xlink="http://www.w3.org/1999/xlink" clip-rule="evenodd" stroke-miterlimit="4.00" viewBox="0 0 227 74"><desc>SVG generated by Keynote</desc><defs></defs><g transform="matrix(1.00, 0.00, -0.00, -1.00, 0.0, 74.0)"><g><clipPath id="clip-7211"><path d="M 0.5 0.6 L 227.0 0.6 L 227.0 74.0 L 0.5 74.0 Z M 0.5 0.6 "></path></clipPath><g clip-path="url(#clip-7211)"><path d="M 1.5 16.6 L 1.5 58.0 C 1.5 66.3 8.2 73.0 16.5 73.0 L 211.0 73.0 C 219.3 73.0 226.0 66.3 226.0 58.0 L 226.0 16.6 C 226.0 8.4 219.3 1.6 211.0 1.6 L 16.5 1.6 C 8.2 1.6 1.5 8.4 1.5 16.6 Z M 1.5 16.6 " fill="#52575F"></path></g></g><g><clipPath id="clip-7212"><path d="M 17.0 15.7 L 201.2 15.7 L 201.2 62.7 L 17.0 62.7 Z M 17.0 15.7 "></path></clipPath><g clip-path="url(#clip-7212)"><text xml:space="preserve" font-family="Helvetica" font-size="11.0" fill="#FEFFFE" transform="matrix(1.00, 0.00, -0.00, -1.00, 21.0, 48.0)">F</text><text xml:space="preserve" font-family="Helvetica" font-size="11.0" fill="#FEFFFE" transform="matrix(1.00, 0.00, -0.00, -1.00, 27.7, 48.0)">r</text><text xml:space="preserve" font-family="Helvetica" font-size="11.0" fill="#FEFFFE" transform="matrix(1.00, 0.00, -0.00, -1.00, 31.4, 48.0)">o</text><text xml:space="preserve" font-family="Helvetica" font-size="11.0" fill="#FEFFFE" transform="matrix(1.00, 0.00, -0.00, -1.00, 37.5, 48.0)">m</text><text xml:space="preserve" font-family="Helvetica" font-size="11.0" fill="#FEFFFE" transform="matrix(1.00, 0.00, -0.00, -1.00, 46.7, 48.0)">:</text><text xml:space="preserve" font-family="Helvetica" font-size="11.0" fill="#FEFFFE" transform="matrix(1.00, 0.00, -0.00, -1.00, 49.7, 48.0)"> </text><text xml:space="preserve" font-family="Helvetica" font-size="11.0" fill="#FEFFFE" transform="matrix(1.00, 0.00, -0.00, -1.00, 52.8, 48.0)">V</text><text xml:space="preserve" font-family="Helvetica" font-size="11.0" fill="#FEFFFE" transform="matrix(1.00, 0.00, -0.00, -1.00, 59.9, 48.0)">i</text><text xml:space="preserve" font-family="Helvetica" font-size="11.0" fill="#FEFFFE" transform="matrix(1.00, 0.00, -0.00, -1.00, 62.4, 48.0)">r</text><text xml:space="preserve" font-family="Helvetica" font-size="11.0" fill="#FEFFFE" transform="matrix(1.00, 0.00, -0.00, -1.00, 66.0, 48.0)">t</text><text xml:space="preserve" font-family="Helvetica" font-size="11.0" fill="#FEFFFE" transform="matrix(1.00, 0.00, -0.00, -1.00, 69.1, 48.0)">u</text><text xml:space="preserve" font-family="Helvetica" font-size="11.0" fill="#FEFFFE" transform="matrix(1.00, 0.00, -0.00, -1.00, 75.2, 48.0)">a</text><text xml:space="preserve" font-family="Helvetica" font-size="11.0" fill="#FEFFFE" transform="matrix(1.00, 0.00, -0.00, -1.00, 81.3, 48.0)">l</text><text xml:space="preserve" font-family="Helvetica" font-size="11.0" fill="#FEFFFE" transform="matrix(1.00, 0.00, -0.00, -1.00, 83.8, 48.0)"> </text><text xml:space="preserve" font-family="Helvetica" font-size="11.0" fill="#FEFFFE" transform="matrix(1.00, 0.00, -0.00, -1.00, 86.8, 48.0)">J</text><text xml:space="preserve" font-family="Helvetica" font-size="11.0" fill="#FEFFFE" transform="matrix(1.00, 0.00, -0.00, -1.00, 92.3, 48.0)">o</text><text xml:space="preserve" font-family="Helvetica" font-size="11.0" fill="#FEFFFE" transform="matrix(1.00, 0.00, -0.00, -1.00, 98.4, 48.0)">b</text><text xml:space="preserve" font-family="Helvetica" font-size="11.0" fill="#FEFFFE" transform="matrix(1.00, 0.00, -0.00, -1.00, 104.6, 48.0)"> </text><text xml:space="preserve" font-family="Helvetica" font-size="11.0" fill="#FEFFFE" transform="matrix(1.00, 0.00, -0.00, -1.00, 107.6, 48.0)">S</text><text xml:space="preserve" font-family="Helvetica" font-size="11.0" fill="#FEFFFE" transform="matrix(1.00, 0.00, -0.00, -1.00, 114.9, 48.0)">c</text><text xml:space="preserve" font-family="Helvetica" font-size="11.0" fill="#FEFFFE" transform="matrix(1.00, 0.00, -0.00, -1.00, 120.4, 48.0)">o</text><text xml:space="preserve" font-family="Helvetica" font-size="11.0" fill="#FEFFFE" transform="matrix(1.00, 0.00, -0.00, -1.00, 126.6, 48.0)">u</text><text xml:space="preserve" font-family="Helvetica" font-size="11.0" fill="#FEFFFE" transform="matrix(1.00, 0.00, -0.00, -1.00, 132.7, 48.0)">t</text><text xml:space="preserve" font-family="Helvetica" font-size="11.0" fill="#FEFFFE" transform="matrix(1.00, 0.00, -0.00, -1.00, 21.0, 35.0)">S</text><text xml:space="preserve" font-family="Helvetica" font-size="11.0" fill="#FEFFFE" transform="matrix(1.00, 0.00, -0.00, -1.00, 28.3, 35.0)">u</text><text xml:space="preserve" font-family="Helvetica" font-size="11.0" fill="#FEFFFE" transform="matrix(1.00, 0.00, -0.00, -1.00, 34.5, 35.0)">b</text><text xml:space="preserve" font-family="Helvetica" font-size="11.0" fill="#FEFFFE" transform="matrix(1.00, 0.00, -0.00, -1.00, 40.6, 35.0)">j</text><text xml:space="preserve" font-family="Helvetica" font-size="11.0" fill="#FEFFFE" transform="matrix(1.00, 0.00, -0.00, -1.00, 43.0, 35.0)">e</text><text xml:space="preserve" font-family="Helvetica" font-size="11.0" fill="#FEFFFE" transform="matrix(1.00, 0.00, -0.00, -1.00, 49.1, 35.0)">c</text><text xml:space="preserve" font-family="Helvetica" font-size="11.0" fill="#FEFFFE" transform="matrix(1.00, 0.00, -0.00, -1.00, 54.6, 35.0)">t</text><text xml:space="preserve" font-family="Helvetica" font-size="11.0" fill="#FEFFFE" transform="matrix(1.00, 0.00, -0.00, -1.00, 57.7, 35.0)">:</text><text xml:space="preserve" font-family="Helvetica" font-size="11.0" fill="#FEFFFE" transform="matrix(1.00, 0.00, -0.00, -1.00, 60.8, 35.0)"> </text><text xml:space="preserve" font-family="Helvetica" font-size="11.0" fill="#FEFFFE" transform="matrix(1.00, 0.00, -0.00, -1.00, 63.8, 35.0)">O</text><text xml:space="preserve" font-family="Helvetica" font-size="11.0" fill="#FEFFFE" transform="matrix(1.00, 0.00, -0.00, -1.00, 72.4, 35.0)">h</text><text xml:space="preserve" font-family="Helvetica" font-size="11.0" fill="#FEFFFE" transform="matrix(1.00, 0.00, -0.00, -1.00, 78.5, 35.0)"> </text><text xml:space="preserve" font-family="Helvetica" font-size="11.0" fill="#FEFFFE" transform="matrix(1.00, 0.00, -0.00, -1.00, 81.5, 35.0)">S</text><text xml:space="preserve" font-family="Helvetica" font-size="11.0" fill="#FEFFFE" transform="matrix(1.00, 0.00, -0.00, -1.00, 88.9, 35.0)">n</text><text xml:space="preserve" font-family="Helvetica" font-size="11.0" fill="#FEFFFE" transform="matrix(1.00, 0.00, -0.00, -1.00, 95.0, 35.0)">a</text><text xml:space="preserve" font-family="Helvetica" font-size="11.0" fill="#FEFFFE" transform="matrix(1.00, 0.00, -0.00, -1.00, 101.1, 35.0)">p</text><text xml:space="preserve" font-family="Helvetica" font-size="11.0" fill="#FEFFFE" transform="matrix(1.00, 0.00, -0.00, -1.00, 107.2, 35.0)">!</text><text xml:space="preserve" font-family="Helvetica" font-size="11.0" fill="#FEFFFE" transform="matrix(1.00, 0.00, -0.00, -1.00, 110.3, 35.0)"> </text><text xml:space="preserve" font-family="Helvetica" font-size="11.0" fill="#FEFFFE" transform="matrix(1.00, 0.00, -0.00, -1.00, 113.1, 35.0)">Y</text><text xml:space="preserve" font-family="Helvetica" font-size="11.0" fill="#FEFFFE" transform="matrix(1.00, 0.00, -0.00, -1.00, 119.5, 35.0)">o</text><text xml:space="preserve" font-family="Helvetica" font-size="11.0" fill="#FEFFFE" transform="matrix(1.00, 0.00, -0.00, -1.00, 125.6, 35.0)">u</text><text xml:space="preserve" font-family="Helvetica" font-size="11.0" fill="#FEFFFE" transform="matrix(1.00, 0.00, -0.00, -1.00, 131.7, 35.0)">r</text><text xml:space="preserve" font-family="Helvetica" font-size="11.0" fill="#FEFFFE" transform="matrix(1.00, 0.00, -0.00, -1.00, 135.4, 35.0)"> </text><text xml:space="preserve" font-family="Helvetica" font-size="11.0" fill="#FEFFFE" transform="matrix(1.00, 0.00, -0.00, -1.00, 138.4, 35.0)">E</text><text xml:space="preserve" font-family="Helvetica" font-size="11.0" fill="#FEFFFE" transform="matrix(1.00, 0.00, -0.00, -1.00, 145.8, 35.0)">m</text><text xml:space="preserve" font-family="Helvetica" font-size="11.0" fill="#FEFFFE" transform="matrix(1.00, 0.00, -0.00, -1.00, 154.9, 35.0)">p</text><text xml:space="preserve" font-family="Helvetica" font-size="11.0" fill="#FEFFFE" transform="matrix(1.00, 0.00, -0.00, -1.00, 161.0, 35.0)">l</text><text xml:space="preserve" font-family="Helvetica" font-size="11.0" fill="#FEFFFE" transform="matrix(1.00, 0.00, -0.00, -1.00, 163.5, 35.0)">o</text><text xml:space="preserve" font-family="Helvetica" font-size="11.0" fill="#FEFFFE" transform="matrix(1.00, 0.00, -0.00, -1.00, 169.6, 35.0)">y</text><text xml:space="preserve" font-family="Helvetica" font-size="11.0" fill="#FEFFFE" transform="matrix(1.00, 0.00, -0.00, -1.00, 175.1, 35.0)">e</text><text xml:space="preserve" font-family="Helvetica" font-size="11.0" fill="#FEFFFE" transform="matrix(1.00, 0.00, -0.00, -1.00, 181.2, 35.0)">r</text><text xml:space="preserve" font-family="Helvetica" font-size="11.0" fill="#FEFFFE" transform="matrix(1.00, 0.00, -0.00, -1.00, 184.9, 35.0)"> </text><text xml:space="preserve" font-family="Helvetica" font-size="11.0" fill="#FEFFFE" transform="matrix(1.00, 0.00, -0.00, -1.00, 21.0, 22.0)">A</text><text xml:space="preserve" font-family="Helvetica" font-size="11.0" fill="#FEFFFE" transform="matrix(1.00, 0.00, -0.00, -1.00, 28.3, 22.0)">c</text><text xml:space="preserve" font-family="Helvetica" font-size="11.0" fill="#FEFFFE" transform="matrix(1.00, 0.00, -0.00, -1.00, 33.8, 22.0)">c</text><text xml:space="preserve" font-family="Helvetica" font-size="11.0" fill="#FEFFFE" transform="matrix(1.00, 0.00, -0.00, -1.00, 39.3, 22.0)">o</text><text xml:space="preserve" font-family="Helvetica" font-size="11.0" fill="#FEFFFE" transform="matrix(1.00, 0.00, -0.00, -1.00, 45.5, 22.0)">u</text><text xml:space="preserve" font-family="Helvetica" font-size="11.0" fill="#FEFFFE" transform="matrix(1.00, 0.00, -0.00, -1.00, 51.6, 22.0)">n</text><text xml:space="preserve" font-family="Helvetica" font-size="11.0" fill="#FEFFFE" transform="matrix(1.00, 0.00, -0.00, -1.00, 57.7, 22.0)">t</text><text xml:space="preserve" font-family="Helvetica" font-size="11.0" fill="#FEFFFE" transform="matrix(1.00, 0.00, -0.00, -1.00, 60.8, 22.0)"> </text><text xml:space="preserve" font-family="Helvetica" font-size="11.0" fill="#FEFFFE" transform="matrix(1.00, 0.00, -0.00, -1.00, 63.8, 22.0)">w</text><text xml:space="preserve" font-family="Helvetica" font-size="11.0" fill="#FEFFFE" transform="matrix(1.00, 0.00, -0.00, -1.00, 71.8, 22.0)">a</text><text xml:space="preserve" font-family="Helvetica" font-size="11.0" fill="#FEFFFE" transform="matrix(1.00, 0.00, -0.00, -1.00, 77.9, 22.0)">s</text><text xml:space="preserve" font-family="Helvetica" font-size="11.0" fill="#FEFFFE" transform="matrix(1.00, 0.00, -0.00, -1.00, 83.4, 22.0)"> </text><text xml:space="preserve" font-family="Helvetica" font-size="11.0" fill="#FEFFFE" transform="matrix(1.00, 0.00, -0.00, -1.00, 86.4, 22.0)">a</text><text xml:space="preserve" font-family="Helvetica" font-size="11.0" fill="#FEFFFE" transform="matrix(1.00, 0.00, -0.00, -1.00, 92.5, 22.0)">p</text><text xml:space="preserve" font-family="Helvetica" font-size="11.0" fill="#FEFFFE" transform="matrix(1.00, 0.00, -0.00, -1.00, 98.7, 22.0)">p</text><text xml:space="preserve" font-family="Helvetica" font-size="11.0" fill="#FEFFFE" transform="matrix(1.00, 0.00, -0.00, -1.00, 104.8, 22.0)">r</text><text xml:space="preserve" font-family="Helvetica" font-size="11.0" fill="#FEFFFE" transform="matrix(1.00, 0.00, -0.00, -1.00, 108.4, 22.0)">o</text><text xml:space="preserve" font-family="Helvetica" font-size="11.0" fill="#FEFFFE" transform="matrix(1.00, 0.00, -0.00, -1.00, 114.6, 22.0)">v</text><text xml:space="preserve" font-family="Helvetica" font-size="11.0" fill="#FEFFFE" transform="matrix(1.00, 0.00, -0.00, -1.00, 120.1, 22.0)">e</text><text xml:space="preserve" font-family="Helvetica" font-size="11.0" fill="#FEFFFE" transform="matrix(1.00, 0.00, -0.00, -1.00, 126.2, 22.0)">d</text><text xml:space="preserve" font-family="Helvetica" font-size="11.0" fill="#FEFFFE" transform="matrix(1.00, 0.00, -0.00, -1.00, 132.3, 22.0)">!</text></g></g></g></svg>