<?xml version="1.0" encoding="UTF-8" standalone="no"?><svg xmlns="http://www.w3.org/2000/svg" xmlns:xlink="http://www.w3.org/1999/xlink" clip-rule="evenodd" stroke-miterlimit="4.00" viewBox="0 0 23 23"><desc>SVG generated by Keynote</desc><defs></defs><g transform="matrix(1.00, 0.00, -0.00, -1.00, 0.0, 23.0)"><g><clipPath id="clip-7159"><path d="M -415.3 140.0 L 122.3 140.0 L 122.3 -541.0 L -415.3 -541.0 Z M -415.3 140.0 "></path></clipPath><g clip-path="url(#clip-7159)"><g><clipPath id="clip-7160"><path d="M 17.4 2.2 C 17.3 2.2 17.2 2.2 17.1 2.3 L 11.4 5.3 L 5.7 2.3 C 5.4 2.2 5.2 2.2 5.0 2.3 C 4.8 2.5 4.7 2.7 4.7 2.9 L 5.8 9.3 L 1.2 13.8 C 1.0 14.0 1.0 14.3 1.0 14.5 C 1.1 14.7 1.3 14.9 1.5 14.9 L 8.0 15.8 L 10.8 21.6 C 10.9 21.9 11.2 22.0 11.4 22.0 C 11.6 22.0 11.9 21.9 12.0 21.6 L 14.8 15.8 L 21.3 14.9 C 21.5 14.9 21.7 14.7 21.8 14.5 C 21.8 14.3 21.8 14.0 21.6 13.8 L 17.0 9.3 L 18.1 2.9 C 18.1 2.7 18.0 2.5 17.8 2.3 C 17.7 2.2 17.6 2.2 17.4 2.2 L 17.4 2.2 Z M 11.4 6.6 C 11.5 6.6 11.6 6.6 11.7 6.6 L 16.6 4.0 L 15.7 9.4 C 15.6 9.6 15.7 9.8 15.8 10.0 L 19.8 13.8 L 14.3 14.6 C 14.1 14.7 13.9 14.8 13.8 15.0 L 11.4 19.9 L 9.0 15.0 C 8.9 14.8 8.7 14.7 8.5 14.6 L 3.0 13.8 L 7.0 10.0 C 7.1 9.8 7.2 9.6 7.1 9.4 L 6.2 4.0 L 11.1 6.6 C 11.2 6.6 11.3 6.6 11.4 6.6 L 11.4 6.6 Z M 11.4 6.6 "></path></clipPath><g clip-path="url(#clip-7160)"><g><clipPath id="clip-7161"><path d="M 1.0 2.0 L 22.0 2.0 L 22.0 22.0 L 1.0 22.0 Z M 1.0 2.0 "></path></clipPath><g clip-path="url(#clip-7161)"><path d="M -1.6 24.5 L 24.4 24.5 L 24.4 -0.3 L -1.6 -0.3 Z M -1.6 24.5 " fill="#5DC69D"></path></g></g></g></g></g></g></g></svg>