<?xml version="1.0" encoding="UTF-8" standalone="no"?><svg xmlns="http://www.w3.org/2000/svg" xmlns:xlink="http://www.w3.org/1999/xlink" clip-rule="evenodd" stroke-miterlimit="4.00" viewBox="0 0 296 31"><desc>SVG generated by Keynote</desc><defs></defs><g transform="matrix(1.00, 0.00, -0.00, -1.00, 0.0, 31.0)"><text xml:space="preserve" font-family="ProximaNova-Regular" font-size="24.8" fill="#FEFFFE" transform="matrix(1.00, 0.00, -0.00, -1.00, 0.6, 8.1)">2</text><text xml:space="preserve" font-family="ProximaNova-Regular" font-size="24.8" fill="#FEFFFE" transform="matrix(1.00, 0.00, -0.00, -1.00, 15.2, 8.1)">.</text><text xml:space="preserve" font-family="ProximaNova-Regular" font-size="24.8" fill="#FEFFFE" transform="matrix(1.00, 0.00, -0.00, -1.00, 35.0, 8.0)">s</text><text xml:space="preserve" font-family="ProximaNova-Regular" font-size="24.8" fill="#FEFFFE" transform="matrix(1.00, 0.00, -0.00, -1.00, 46.6, 8.0)">i</text><text xml:space="preserve" font-family="ProximaNova-Regular" font-size="24.8" fill="#FEFFFE" transform="matrix(1.00, 0.00, -0.00, -1.00, 52.1, 8.0)">g</text><text xml:space="preserve" font-family="ProximaNova-Regular" font-size="24.8" fill="#FEFFFE" transform="matrix(1.00, 0.00, -0.00, -1.00, 66.4, 8.0)">n</text><text xml:space="preserve" font-family="ProximaNova-Regular" font-size="24.8" fill="#FEFFFE" transform="matrix(1.00, 0.00, -0.00, -1.00, 80.1, 8.0)">s</text><text xml:space="preserve" font-family="ProximaNova-Regular" font-size="24.8" fill="#FEFFFE" transform="matrix(1.00, 0.00, -0.00, -1.00, 91.6, 8.0)"> </text><text xml:space="preserve" font-family="ProximaNova-Regular" font-size="24.8" fill="#FEFFFE" transform="matrix(1.00, 0.00, -0.00, -1.00, 98.0, 8.0)">u</text><text xml:space="preserve" font-family="ProximaNova-Regular" font-size="24.8" fill="#FEFFFE" transform="matrix(1.00, 0.00, -0.00, -1.00, 111.7, 8.0)">p</text><text xml:space="preserve" font-family="ProximaNova-Regular" font-size="24.8" fill="#FEFFFE" transform="matrix(1.00, 0.00, -0.00, -1.00, 125.9, 8.0)"> </text><text xml:space="preserve" font-family="ProximaNova-Regular" font-size="24.8" fill="#FEFFFE" transform="matrix(1.00, 0.00, -0.00, -1.00, 132.3, 8.0)">f</text><text xml:space="preserve" font-family="ProximaNova-Regular" font-size="24.8" fill="#FEFFFE" transform="matrix(1.00, 0.00, -0.00, -1.00, 139.4, 8.0)">o</text><text xml:space="preserve" font-family="ProximaNova-Regular" font-size="24.8" fill="#FEFFFE" transform="matrix(1.00, 0.00, -0.00, -1.00, 153.6, 8.0)">r</text><text xml:space="preserve" font-family="ProximaNova-Regular" font-size="24.8" fill="#FEFFFE" transform="matrix(1.00, 0.00, -0.00, -1.00, 161.8, 8.0)"> </text><text xml:space="preserve" font-family="ProximaNova-Regular" font-size="24.8" fill="#FEFFFE" transform="matrix(1.00, 0.00, -0.00, -1.00, 168.2, 8.0)">a</text><text xml:space="preserve" font-family="ProximaNova-Regular" font-size="24.8" fill="#FEFFFE" transform="matrix(1.00, 0.00, -0.00, -1.00, 181.3, 8.0)">n</text><text xml:space="preserve" font-family="ProximaNova-Regular" font-size="24.8" fill="#FEFFFE" transform="matrix(1.00, 0.00, -0.00, -1.00, 195.0, 8.0)"> </text><text xml:space="preserve" font-family="ProximaNova-Regular" font-size="24.8" fill="#FEFFFE" transform="matrix(1.00, 0.00, -0.00, -1.00, 201.4, 8.0)">a</text><text xml:space="preserve" font-family="ProximaNova-Regular" font-size="24.8" fill="#FEFFFE" transform="matrix(1.00, 0.00, -0.00, -1.00, 214.5, 8.0)">c</text><text xml:space="preserve" font-family="ProximaNova-Regular" font-size="24.8" fill="#FEFFFE" transform="matrix(1.00, 0.00, -0.00, -1.00, 226.8, 8.0)">c</text><text xml:space="preserve" font-family="ProximaNova-Regular" font-size="24.8" fill="#FEFFFE" transform="matrix(1.00, 0.00, -0.00, -1.00, 239.1, 8.0)">o</text><text xml:space="preserve" font-family="ProximaNova-Regular" font-size="24.8" fill="#FEFFFE" transform="matrix(1.00, 0.00, -0.00, -1.00, 253.3, 8.0)">u</text><text xml:space="preserve" font-family="ProximaNova-Regular" font-size="24.8" fill="#FEFFFE" transform="matrix(1.00, 0.00, -0.00, -1.00, 267.0, 8.0)">n</text><text xml:space="preserve" font-family="ProximaNova-Regular" font-size="24.8" fill="#FEFFFE" transform="matrix(1.00, 0.00, -0.00, -1.00, 280.6, 8.0)">t</text><text xml:space="preserve" font-family="ProximaNova-Regular" font-size="24.8" fill="#FEFFFE" transform="matrix(1.00, 0.00, -0.00, -1.00, 287.9, 8.0)">,</text><text xml:space="preserve" font-family="ProximaNova-Regular" font-size="24.8" fill="#FEFFFE" transform="matrix(1.00, 0.00, -0.00, -1.00, 293.7, 8.0)"> </text></g></svg>