<?xml version="1.0" encoding="UTF-8" standalone="no"?><svg xmlns="http://www.w3.org/2000/svg" xmlns:xlink="http://www.w3.org/1999/xlink" clip-rule="evenodd" stroke-miterlimit="4.00" viewBox="0 0 257 32"><desc>SVG generated by Keynote</desc><defs></defs><g transform="matrix(1.00, 0.00, -0.00, -1.00, 0.0, 32.0)"><text xml:space="preserve" font-family="ProximaNova-Regular" font-size="24.8" fill="#FEFFFE" transform="matrix(1.00, 0.00, -0.00, -1.00, 0.6, 8.1)">4</text><text xml:space="preserve" font-family="ProximaNova-Regular" font-size="24.8" fill="#FEFFFE" transform="matrix(1.00, 0.00, -0.00, -1.00, 14.5, 8.1)">.</text><text xml:space="preserve" font-family="ProximaNova-Regular" font-size="24.8" fill="#FEFFFE" transform="matrix(1.00, 0.00, -0.00, -1.00, 35.0, 8.0)">s</text><text xml:space="preserve" font-family="ProximaNova-Regular" font-size="24.8" fill="#FEFFFE" transform="matrix(1.00, 0.00, -0.00, -1.00, 46.6, 8.0)">a</text><text xml:space="preserve" font-family="ProximaNova-Regular" font-size="24.8" fill="#FEFFFE" transform="matrix(1.00, 0.00, -0.00, -1.00, 59.6, 8.0)">v</text><text xml:space="preserve" font-family="ProximaNova-Regular" font-size="24.8" fill="#FEFFFE" transform="matrix(1.00, 0.00, -0.00, -1.00, 71.8, 8.0)">e</text><text xml:space="preserve" font-family="ProximaNova-Regular" font-size="24.8" fill="#FEFFFE" transform="matrix(1.00, 0.00, -0.00, -1.00, 85.8, 8.0)">s</text><text xml:space="preserve" font-family="ProximaNova-Regular" font-size="24.8" fill="#FEFFFE" transform="matrix(1.00, 0.00, -0.00, -1.00, 97.3, 8.0)"> </text><text xml:space="preserve" font-family="ProximaNova-Regular" font-size="24.8" fill="#FEFFFE" transform="matrix(1.00, 0.00, -0.00, -1.00, 103.8, 8.0)">t</text><text xml:space="preserve" font-family="ProximaNova-Regular" font-size="24.8" fill="#FEFFFE" transform="matrix(1.00, 0.00, -0.00, -1.00, 111.1, 8.0)">h</text><text xml:space="preserve" font-family="ProximaNova-Regular" font-size="24.8" fill="#FEFFFE" transform="matrix(1.00, 0.00, -0.00, -1.00, 124.8, 8.0)">e</text><text xml:space="preserve" font-family="ProximaNova-Regular" font-size="24.8" fill="#FEFFFE" transform="matrix(1.00, 0.00, -0.00, -1.00, 138.8, 8.0)"> </text><text xml:space="preserve" font-family="ProximaNova-Regular" font-size="24.8" fill="#FEFFFE" transform="matrix(1.00, 0.00, -0.00, -1.00, 145.2, 8.0)">j</text><text xml:space="preserve" font-family="ProximaNova-Regular" font-size="24.8" fill="#FEFFFE" transform="matrix(1.00, 0.00, -0.00, -1.00, 150.8, 8.0)">o</text><text xml:space="preserve" font-family="ProximaNova-Regular" font-size="24.8" fill="#FEFFFE" transform="matrix(1.00, 0.00, -0.00, -1.00, 165.0, 8.0)">b</text><text xml:space="preserve" font-family="ProximaNova-Regular" font-size="24.8" fill="#FEFFFE" transform="matrix(1.00, 0.00, -0.00, -1.00, 179.2, 8.0)"> </text><text xml:space="preserve" font-family="ProximaNova-Regular" font-size="24.8" fill="#FEFFFE" transform="matrix(1.00, 0.00, -0.00, -1.00, 185.7, 8.0)">l</text><text xml:space="preserve" font-family="ProximaNova-Regular" font-size="24.8" fill="#FEFFFE" transform="matrix(1.00, 0.00, -0.00, -1.00, 191.2, 8.0)">i</text><text xml:space="preserve" font-family="ProximaNova-Regular" font-size="24.8" fill="#FEFFFE" transform="matrix(1.00, 0.00, -0.00, -1.00, 196.8, 8.0)">s</text><text xml:space="preserve" font-family="ProximaNova-Regular" font-size="24.8" fill="#FEFFFE" transform="matrix(1.00, 0.00, -0.00, -1.00, 208.4, 8.0)">t</text><text xml:space="preserve" font-family="ProximaNova-Regular" font-size="24.8" fill="#FEFFFE" transform="matrix(1.00, 0.00, -0.00, -1.00, 215.7, 8.0)">i</text><text xml:space="preserve" font-family="ProximaNova-Regular" font-size="24.8" fill="#FEFFFE" transform="matrix(1.00, 0.00, -0.00, -1.00, 221.3, 8.0)">n</text><text xml:space="preserve" font-family="ProximaNova-Regular" font-size="24.8" fill="#FEFFFE" transform="matrix(1.00, 0.00, -0.00, -1.00, 235.0, 8.0)">g</text><text xml:space="preserve" font-family="ProximaNova-Regular" font-size="24.8" fill="#FEFFFE" transform="matrix(1.00, 0.00, -0.00, -1.00, 249.2, 8.0)">,</text><text xml:space="preserve" font-family="ProximaNova-Regular" font-size="24.8" fill="#FEFFFE" transform="matrix(1.00, 0.00, -0.00, -1.00, 254.9, 8.0)"> </text></g></svg>