<?xml version="1.0" encoding="UTF-8" standalone="no"?><svg xmlns="http://www.w3.org/2000/svg" xmlns:xlink="http://www.w3.org/1999/xlink" clip-rule="evenodd" stroke-miterlimit="4.00" viewBox="0 0 268 32"><desc>SVG generated by Keynote</desc><defs></defs><g transform="matrix(1.00, 0.00, -0.00, -1.00, 0.0, 32.0)"><text xml:space="preserve" font-family="ProximaNova-Regular" font-size="24.8" fill="#FEFFFE" transform="matrix(1.00, 0.00, -0.00, -1.00, 0.6, 8.2)">6</text><text xml:space="preserve" font-family="ProximaNova-Regular" font-size="24.8" fill="#FEFFFE" transform="matrix(1.00, 0.00, -0.00, -1.00, 15.3, 8.2)">.</text><text xml:space="preserve" font-family="ProximaNova-Regular" font-size="24.8" fill="#FEFFFE" transform="matrix(1.00, 0.00, -0.00, -1.00, 35.0, 8.0)">f</text><text xml:space="preserve" font-family="ProximaNova-Regular" font-size="24.8" fill="#FEFFFE" transform="matrix(1.00, 0.00, -0.00, -1.00, 42.0, 8.0)">a</text><text xml:space="preserve" font-family="ProximaNova-Regular" font-size="24.8" fill="#FEFFFE" transform="matrix(1.00, 0.00, -0.00, -1.00, 55.1, 8.0)">v</text><text xml:space="preserve" font-family="ProximaNova-Regular" font-size="24.8" fill="#FEFFFE" transform="matrix(1.00, 0.00, -0.00, -1.00, 67.3, 8.0)">o</text><text xml:space="preserve" font-family="ProximaNova-Regular" font-size="24.8" fill="#FEFFFE" transform="matrix(1.00, 0.00, -0.00, -1.00, 81.5, 8.0)">r</text><text xml:space="preserve" font-family="ProximaNova-Regular" font-size="24.8" fill="#FEFFFE" transform="matrix(1.00, 0.00, -0.00, -1.00, 89.7, 8.0)">i</text><text xml:space="preserve" font-family="ProximaNova-Regular" font-size="24.8" fill="#FEFFFE" transform="matrix(1.00, 0.00, -0.00, -1.00, 95.3, 8.0)">t</text><text xml:space="preserve" font-family="ProximaNova-Regular" font-size="24.8" fill="#FEFFFE" transform="matrix(1.00, 0.00, -0.00, -1.00, 102.6, 8.0)">e</text><text xml:space="preserve" font-family="ProximaNova-Regular" font-size="24.8" fill="#FEFFFE" transform="matrix(1.00, 0.00, -0.00, -1.00, 116.6, 8.0)">s</text><text xml:space="preserve" font-family="ProximaNova-Regular" font-size="24.8" fill="#FEFFFE" transform="matrix(1.00, 0.00, -0.00, -1.00, 128.1, 8.0)"> </text><text xml:space="preserve" font-family="ProximaNova-Regular" font-size="24.8" fill="#FEFFFE" transform="matrix(1.00, 0.00, -0.00, -1.00, 134.5, 8.0)">a</text><text xml:space="preserve" font-family="ProximaNova-Regular" font-size="24.8" fill="#FEFFFE" transform="matrix(1.00, 0.00, -0.00, -1.00, 147.6, 8.0)"> </text><text xml:space="preserve" font-family="ProximaNova-Regular" font-size="24.8" fill="#FEFFFE" transform="matrix(1.00, 0.00, -0.00, -1.00, 154.0, 8.0)">c</text><text xml:space="preserve" font-family="ProximaNova-Regular" font-size="24.8" fill="#FEFFFE" transform="matrix(1.00, 0.00, -0.00, -1.00, 166.3, 8.0)">a</text><text xml:space="preserve" font-family="ProximaNova-Regular" font-size="24.8" fill="#FEFFFE" transform="matrix(1.00, 0.00, -0.00, -1.00, 179.4, 8.0)">n</text><text xml:space="preserve" font-family="ProximaNova-Regular" font-size="24.8" fill="#FEFFFE" transform="matrix(1.00, 0.00, -0.00, -1.00, 193.1, 8.0)">d</text><text xml:space="preserve" font-family="ProximaNova-Regular" font-size="24.8" fill="#FEFFFE" transform="matrix(1.00, 0.00, -0.00, -1.00, 207.4, 8.0)">i</text><text xml:space="preserve" font-family="ProximaNova-Regular" font-size="24.8" fill="#FEFFFE" transform="matrix(1.00, 0.00, -0.00, -1.00, 213.0, 8.0)">d</text><text xml:space="preserve" font-family="ProximaNova-Regular" font-size="24.8" fill="#FEFFFE" transform="matrix(1.00, 0.00, -0.00, -1.00, 227.3, 8.0)">a</text><text xml:space="preserve" font-family="ProximaNova-Regular" font-size="24.8" fill="#FEFFFE" transform="matrix(1.00, 0.00, -0.00, -1.00, 240.4, 8.0)">t</text><text xml:space="preserve" font-family="ProximaNova-Regular" font-size="24.8" fill="#FEFFFE" transform="matrix(1.00, 0.00, -0.00, -1.00, 247.7, 8.0)">e</text><text xml:space="preserve" font-family="ProximaNova-Regular" font-size="24.8" fill="#FEFFFE" transform="matrix(1.00, 0.00, -0.00, -1.00, 261.5, 8.0)">.</text></g></svg>