<?xml version="1.0" encoding="UTF-8" standalone="no"?><svg xmlns="http://www.w3.org/2000/svg" xmlns:xlink="http://www.w3.org/1999/xlink" clip-rule="evenodd" stroke-miterlimit="4.00" viewBox="0 0 344 32"><desc>SVG generated by Keynote</desc><defs></defs><g transform="matrix(1.00, 0.00, -0.00, -1.00, 0.0, 32.0)"><text xml:space="preserve" font-family="ProximaNova-Regular" font-size="24.8" fill="#FEFFFE" transform="matrix(1.00, 0.00, -0.00, -1.00, 0.6, 8.2)">5</text><text xml:space="preserve" font-family="ProximaNova-Regular" font-size="24.8" fill="#FEFFFE" transform="matrix(1.00, 0.00, -0.00, -1.00, 15.3, 8.2)">.</text><text xml:space="preserve" font-family="ProximaNova-Regular" font-size="24.8" fill="#FEFFFE" transform="matrix(1.00, 0.00, -0.00, -1.00, 35.0, 8.0)">s</text><text xml:space="preserve" font-family="ProximaNova-Regular" font-size="24.8" fill="#FEFFFE" transform="matrix(1.00, 0.00, -0.00, -1.00, 46.6, 8.0)">e</text><text xml:space="preserve" font-family="ProximaNova-Regular" font-size="24.8" fill="#FEFFFE" transform="matrix(1.00, 0.00, -0.00, -1.00, 60.5, 8.0)">a</text><text xml:space="preserve" font-family="ProximaNova-Regular" font-size="24.8" fill="#FEFFFE" transform="matrix(1.00, 0.00, -0.00, -1.00, 73.6, 8.0)">r</text><text xml:space="preserve" font-family="ProximaNova-Regular" font-size="24.8" fill="#FEFFFE" transform="matrix(1.00, 0.00, -0.00, -1.00, 81.8, 8.0)">c</text><text xml:space="preserve" font-family="ProximaNova-Regular" font-size="24.8" fill="#FEFFFE" transform="matrix(1.00, 0.00, -0.00, -1.00, 94.1, 8.0)">h</text><text xml:space="preserve" font-family="ProximaNova-Regular" font-size="24.8" fill="#FEFFFE" transform="matrix(1.00, 0.00, -0.00, -1.00, 107.8, 8.0)">e</text><text xml:space="preserve" font-family="ProximaNova-Regular" font-size="24.8" fill="#FEFFFE" transform="matrix(1.00, 0.00, -0.00, -1.00, 121.8, 8.0)">s</text><text xml:space="preserve" font-family="ProximaNova-Regular" font-size="24.8" fill="#FEFFFE" transform="matrix(1.00, 0.00, -0.00, -1.00, 133.4, 8.0)"> </text><text xml:space="preserve" font-family="ProximaNova-Regular" font-size="24.8" fill="#FEFFFE" transform="matrix(1.00, 0.00, -0.00, -1.00, 139.8, 8.0)">f</text><text xml:space="preserve" font-family="ProximaNova-Regular" font-size="24.8" fill="#FEFFFE" transform="matrix(1.00, 0.00, -0.00, -1.00, 146.8, 8.0)">o</text><text xml:space="preserve" font-family="ProximaNova-Regular" font-size="24.8" fill="#FEFFFE" transform="matrix(1.00, 0.00, -0.00, -1.00, 161.0, 8.0)">r</text><text xml:space="preserve" font-family="ProximaNova-Regular" font-size="24.8" fill="#FEFFFE" transform="matrix(1.00, 0.00, -0.00, -1.00, 169.2, 8.0)"> </text><text xml:space="preserve" font-family="ProximaNova-Regular" font-size="24.8" fill="#FEFFFE" transform="matrix(1.00, 0.00, -0.00, -1.00, 175.6, 8.0)">c</text><text xml:space="preserve" font-family="ProximaNova-Regular" font-size="24.8" fill="#FEFFFE" transform="matrix(1.00, 0.00, -0.00, -1.00, 187.9, 8.0)">a</text><text xml:space="preserve" font-family="ProximaNova-Regular" font-size="24.8" fill="#FEFFFE" transform="matrix(1.00, 0.00, -0.00, -1.00, 201.0, 8.0)">n</text><text xml:space="preserve" font-family="ProximaNova-Regular" font-size="24.8" fill="#FEFFFE" transform="matrix(1.00, 0.00, -0.00, -1.00, 214.7, 8.0)">d</text><text xml:space="preserve" font-family="ProximaNova-Regular" font-size="24.8" fill="#FEFFFE" transform="matrix(1.00, 0.00, -0.00, -1.00, 229.0, 8.0)">i</text><text xml:space="preserve" font-family="ProximaNova-Regular" font-size="24.8" fill="#FEFFFE" transform="matrix(1.00, 0.00, -0.00, -1.00, 234.6, 8.0)">d</text><text xml:space="preserve" font-family="ProximaNova-Regular" font-size="24.8" fill="#FEFFFE" transform="matrix(1.00, 0.00, -0.00, -1.00, 248.8, 8.0)">a</text><text xml:space="preserve" font-family="ProximaNova-Regular" font-size="24.8" fill="#FEFFFE" transform="matrix(1.00, 0.00, -0.00, -1.00, 261.9, 8.0)">t</text><text xml:space="preserve" font-family="ProximaNova-Regular" font-size="24.8" fill="#FEFFFE" transform="matrix(1.00, 0.00, -0.00, -1.00, 269.2, 8.0)">e</text><text xml:space="preserve" font-family="ProximaNova-Regular" font-size="24.8" fill="#FEFFFE" transform="matrix(1.00, 0.00, -0.00, -1.00, 283.2, 8.0)">s</text><text xml:space="preserve" font-family="ProximaNova-Regular" font-size="24.8" fill="#FEFFFE" transform="matrix(1.00, 0.00, -0.00, -1.00, 294.8, 8.0)"> </text><text xml:space="preserve" font-family="ProximaNova-Regular" font-size="24.8" fill="#FEFFFE" transform="matrix(1.00, 0.00, -0.00, -1.00, 301.2, 8.0)">a</text><text xml:space="preserve" font-family="ProximaNova-Regular" font-size="24.8" fill="#FEFFFE" transform="matrix(1.00, 0.00, -0.00, -1.00, 314.3, 8.0)">n</text><text xml:space="preserve" font-family="ProximaNova-Regular" font-size="24.8" fill="#FEFFFE" transform="matrix(1.00, 0.00, -0.00, -1.00, 328.0, 8.0)">d</text><text xml:space="preserve" font-family="ProximaNova-Regular" font-size="24.8" fill="#FEFFFE" transform="matrix(1.00, 0.00, -0.00, -1.00, 342.2, 8.0)"> </text></g></svg>