<?xml version="1.0" encoding="UTF-8" standalone="no"?><svg xmlns="http://www.w3.org/2000/svg" xmlns:xlink="http://www.w3.org/1999/xlink" clip-rule="evenodd" stroke-miterlimit="4.00" viewBox="0 0 1024 768"><desc>SVG generated by Keynote</desc><defs></defs><g transform="matrix(1.00, 0.00, -0.00, -1.00, 0.0, 768.0)"><path d="M 0.0 768.0 L 1024.0 768.0 L 1024.0 0.0 L 0.0 0.0 Z M 0.0 768.0 " fill="#0177E2"></path><image xlink:href="../../394A620D-BE44-4D88-ACA4-1C582DF687B9/assets/5C9EAEBBFCA889D5DB9B012F06543616.png" width="141.00" height="23.00" transform="matrix(1.00, 0.00, -0.00, -1.04, 852.0, 745.0)"></image><text xml:space="preserve" font-family="LeagueGothic-Regular" font-size="100.0" fill="#FEFFFE" transform="matrix(1.00, 0.00, -0.00, -1.00, 199.0, 514.0)">U</text><text xml:space="preserve" font-family="LeagueGothic-Regular" font-size="100.0" fill="#FEFFFE" transform="matrix(1.00, 0.00, -0.00, -1.00, 235.6, 514.0)">s</text><text xml:space="preserve" font-family="LeagueGothic-Regular" font-size="100.0" fill="#FEFFFE" transform="matrix(1.00, 0.00, -0.00, -1.00, 266.4, 514.0)">e</text><text xml:space="preserve" font-family="LeagueGothic-Regular" font-size="100.0" fill="#FEFFFE" transform="matrix(1.00, 0.00, -0.00, -1.00, 298.4, 514.0)">r</text><text xml:space="preserve" font-family="LeagueGothic-Regular" font-size="100.0" fill="#FEFFFE" transform="matrix(1.00, 0.00, -0.00, -1.00, 323.0, 514.0)"> </text><text xml:space="preserve" font-family="LeagueGothic-Regular" font-size="100.0" fill="#FEFFFE" transform="matrix(1.00, 0.00, -0.00, -1.00, 338.4, 514.0)">F</text><text xml:space="preserve" font-family="LeagueGothic-Regular" font-size="100.0" fill="#FEFFFE" transform="matrix(1.00, 0.00, -0.00, -1.00, 368.5, 514.0)">l</text><text xml:space="preserve" font-family="LeagueGothic-Regular" font-size="100.0" fill="#FEFFFE" transform="matrix(1.00, 0.00, -0.00, -1.00, 386.4, 514.0)">o</text><text xml:space="preserve" font-family="LeagueGothic-Regular" font-size="100.0" fill="#FEFFFE" transform="matrix(1.00, 0.00, -0.00, -1.00, 418.0, 514.0)">w</text><text xml:space="preserve" font-family="LeagueGothic-Regular" font-size="100.0" fill="#FEFFFE" transform="matrix(1.00, 0.00, -0.00, -1.00, 462.2, 514.0)">:</text><text xml:space="preserve" font-family="LeagueGothic-Regular" font-size="100.0" fill="#FEFFFE" transform="matrix(1.00, 0.00, -0.00, -1.00, 479.9, 514.0)"> </text><text xml:space="preserve" font-family="LeagueGothic-Regular" font-size="100.0" fill="#FEFFFE" transform="matrix(1.00, 0.00, -0.00, -1.00, 495.3, 514.0)">J</text><text xml:space="preserve" font-family="LeagueGothic-Regular" font-size="100.0" fill="#FEFFFE" transform="matrix(1.00, 0.00, -0.00, -1.00, 516.0, 514.0)">o</text><text xml:space="preserve" font-family="LeagueGothic-Regular" font-size="100.0" fill="#FEFFFE" transform="matrix(1.00, 0.00, -0.00, -1.00, 548.1, 514.0)">b</text><text xml:space="preserve" font-family="LeagueGothic-Regular" font-size="100.0" fill="#FEFFFE" transform="matrix(1.00, 0.00, -0.00, -1.00, 581.6, 514.0)"> </text><text xml:space="preserve" font-family="LeagueGothic-Regular" font-size="100.0" fill="#FEFFFE" transform="matrix(1.00, 0.00, -0.00, -1.00, 597.0, 514.0)">P</text><text xml:space="preserve" font-family="LeagueGothic-Regular" font-size="100.0" fill="#FEFFFE" transform="matrix(1.00, 0.00, -0.00, -1.00, 632.2, 514.0)">r</text><text xml:space="preserve" font-family="LeagueGothic-Regular" font-size="100.0" fill="#FEFFFE" transform="matrix(1.00, 0.00, -0.00, -1.00, 656.4, 514.0)">o</text><text xml:space="preserve" font-family="LeagueGothic-Regular" font-size="100.0" fill="#FEFFFE" transform="matrix(1.00, 0.00, -0.00, -1.00, 688.0, 514.0)">v</text><text xml:space="preserve" font-family="LeagueGothic-Regular" font-size="100.0" fill="#FEFFFE" transform="matrix(1.00, 0.00, -0.00, -1.00, 717.4, 514.0)">i</text><text xml:space="preserve" font-family="LeagueGothic-Regular" font-size="100.0" fill="#FEFFFE" transform="matrix(1.00, 0.00, -0.00, -1.00, 735.5, 514.0)">d</text><text xml:space="preserve" font-family="LeagueGothic-Regular" font-size="100.0" fill="#FEFFFE" transform="matrix(1.00, 0.00, -0.00, -1.00, 769.0, 514.0)">e</text><text xml:space="preserve" font-family="LeagueGothic-Regular" font-size="100.0" fill="#FEFFFE" transform="matrix(1.00, 0.00, -0.00, -1.00, 801.0, 514.0)">r</text><text xml:space="preserve" font-family="ProximaNova-Regular" font-size="24.8" fill="#FEFFFE" transform="matrix(1.00, 0.00, -0.00, -1.00, 308.0, 430.0)">I</text><text xml:space="preserve" font-family="ProximaNova-Regular" font-size="24.8" fill="#FEFFFE" transform="matrix(1.00, 0.00, -0.00, -1.00, 313.9, 430.0)">n</text><text xml:space="preserve" font-family="ProximaNova-Regular" font-size="24.8" fill="#FEFFFE" transform="matrix(1.00, 0.00, -0.00, -1.00, 327.6, 430.0)"> </text><text xml:space="preserve" font-family="ProximaNova-Regular" font-size="24.8" fill="#FEFFFE" transform="matrix(1.00, 0.00, -0.00, -1.00, 334.0, 430.0)">t</text><text xml:space="preserve" font-family="ProximaNova-Regular" font-size="24.8" fill="#FEFFFE" transform="matrix(1.00, 0.00, -0.00, -1.00, 341.3, 430.0)">h</text><text xml:space="preserve" font-family="ProximaNova-Regular" font-size="24.8" fill="#FEFFFE" transform="matrix(1.00, 0.00, -0.00, -1.00, 355.0, 430.0)">i</text><text xml:space="preserve" font-family="ProximaNova-Regular" font-size="24.8" fill="#FEFFFE" transform="matrix(1.00, 0.00, -0.00, -1.00, 360.6, 430.0)">s</text><text xml:space="preserve" font-family="ProximaNova-Regular" font-size="24.8" fill="#FEFFFE" transform="matrix(1.00, 0.00, -0.00, -1.00, 372.2, 430.0)"> </text><text xml:space="preserve" font-family="ProximaNova-Regular" font-size="24.8" fill="#FEFFFE" transform="matrix(1.00, 0.00, -0.00, -1.00, 378.6, 430.0)">u</text><text xml:space="preserve" font-family="ProximaNova-Regular" font-size="24.8" fill="#FEFFFE" transform="matrix(1.00, 0.00, -0.00, -1.00, 392.3, 430.0)">s</text><text xml:space="preserve" font-family="ProximaNova-Regular" font-size="24.8" fill="#FEFFFE" transform="matrix(1.00, 0.00, -0.00, -1.00, 403.8, 430.0)">e</text><text xml:space="preserve" font-family="ProximaNova-Regular" font-size="24.8" fill="#FEFFFE" transform="matrix(1.00, 0.00, -0.00, -1.00, 417.8, 430.0)">r</text><text xml:space="preserve" font-family="ProximaNova-Regular" font-size="24.8" fill="#FEFFFE" transform="matrix(1.00, 0.00, -0.00, -1.00, 426.0, 430.0)"> </text><text xml:space="preserve" font-family="ProximaNova-Regular" font-size="24.8" fill="#FEFFFE" transform="matrix(1.00, 0.00, -0.00, -1.00, 432.4, 430.0)">ﬂ</text><text xml:space="preserve" font-family="ProximaNova-Regular" font-size="24.8" fill="#FEFFFE" transform="matrix(1.00, 0.00, -0.00, -1.00, 445.1, 430.0)">o</text><text xml:space="preserve" font-family="ProximaNova-Regular" font-size="24.8" fill="#FEFFFE" transform="matrix(1.00, 0.00, -0.00, -1.00, 459.3, 430.0)">w</text><text xml:space="preserve" font-family="ProximaNova-Regular" font-size="24.8" fill="#FEFFFE" transform="matrix(1.00, 0.00, -0.00, -1.00, 476.4, 430.0)">,</text><text xml:space="preserve" font-family="ProximaNova-Regular" font-size="24.8" fill="#FEFFFE" transform="matrix(1.00, 0.00, -0.00, -1.00, 482.1, 430.0)"> </text><text xml:space="preserve" font-family="ProximaNova-Regular" font-size="24.8" fill="#FEFFFE" transform="matrix(1.00, 0.00, -0.00, -1.00, 488.5, 430.0)">a</text><text xml:space="preserve" font-family="ProximaNova-Regular" font-size="24.8" fill="#FEFFFE" transform="matrix(1.00, 0.00, -0.00, -1.00, 501.6, 430.0)"> </text><text xml:space="preserve" font-family="ProximaNova-Regular" font-size="24.8" fill="#FEFFFE" transform="matrix(1.00, 0.00, -0.00, -1.00, 508.0, 430.0)">J</text><text xml:space="preserve" font-family="ProximaNova-Regular" font-size="24.8" fill="#FEFFFE" transform="matrix(1.00, 0.00, -0.00, -1.00, 519.8, 430.0)">o</text><text xml:space="preserve" font-family="ProximaNova-Regular" font-size="24.8" fill="#FEFFFE" transform="matrix(1.00, 0.00, -0.00, -1.00, 534.0, 430.0)">b</text><text xml:space="preserve" font-family="ProximaNova-Regular" font-size="24.8" fill="#FEFFFE" transform="matrix(1.00, 0.00, -0.00, -1.00, 548.3, 430.0)"> </text><text xml:space="preserve" font-family="ProximaNova-Regular" font-size="24.8" fill="#FEFFFE" transform="matrix(1.00, 0.00, -0.00, -1.00, 554.7, 430.0)">S</text><text xml:space="preserve" font-family="ProximaNova-Regular" font-size="24.8" fill="#FEFFFE" transform="matrix(1.00, 0.00, -0.00, -1.00, 569.3, 430.0)">e</text><text xml:space="preserve" font-family="ProximaNova-Regular" font-size="24.8" fill="#FEFFFE" transform="matrix(1.00, 0.00, -0.00, -1.00, 583.3, 430.0)">e</text><text xml:space="preserve" font-family="ProximaNova-Regular" font-size="24.8" fill="#FEFFFE" transform="matrix(1.00, 0.00, -0.00, -1.00, 597.3, 430.0)">k</text><text xml:space="preserve" font-family="ProximaNova-Regular" font-size="24.8" fill="#FEFFFE" transform="matrix(1.00, 0.00, -0.00, -1.00, 610.0, 430.0)">e</text><text xml:space="preserve" font-family="ProximaNova-Regular" font-size="24.8" fill="#FEFFFE" transform="matrix(1.00, 0.00, -0.00, -1.00, 623.9, 430.0)">r</text><text xml:space="preserve" font-family="ProximaNova-Regular" font-size="24.8" fill="#FEFFFE" transform="matrix(1.00, 0.00, -0.00, -1.00, 632.1, 430.0)"> </text><text xml:space="preserve" font-family="ProximaNova-Regular" font-size="24.8" fill="#FEFFFE" transform="matrix(1.00, 0.00, -0.00, -1.00, 307.6, 371.1)">1</text><text xml:space="preserve" font-family="ProximaNova-Regular" font-size="24.8" fill="#FEFFFE" transform="matrix(1.00, 0.00, -0.00, -1.00, 316.1, 371.1)">.</text><text xml:space="preserve" font-family="ProximaNova-Regular" font-size="24.8" fill="#FEFFFE" transform="matrix(1.00, 0.00, -0.00, -1.00, 342.0, 371.0)">e</text><text xml:space="preserve" font-family="ProximaNova-Regular" font-size="24.8" fill="#FEFFFE" transform="matrix(1.00, 0.00, -0.00, -1.00, 356.0, 371.0)">x</text><text xml:space="preserve" font-family="ProximaNova-Regular" font-size="24.8" fill="#FEFFFE" transform="matrix(1.00, 0.00, -0.00, -1.00, 368.1, 371.0)">p</text><text xml:space="preserve" font-family="ProximaNova-Regular" font-size="24.8" fill="#FEFFFE" transform="matrix(1.00, 0.00, -0.00, -1.00, 382.3, 371.0)">l</text><text xml:space="preserve" font-family="ProximaNova-Regular" font-size="24.8" fill="#FEFFFE" transform="matrix(1.00, 0.00, -0.00, -1.00, 387.9, 371.0)">o</text><text xml:space="preserve" font-family="ProximaNova-Regular" font-size="24.8" fill="#FEFFFE" transform="matrix(1.00, 0.00, -0.00, -1.00, 402.1, 371.0)">r</text><text xml:space="preserve" font-family="ProximaNova-Regular" font-size="24.8" fill="#FEFFFE" transform="matrix(1.00, 0.00, -0.00, -1.00, 410.3, 371.0)">e</text><text xml:space="preserve" font-family="ProximaNova-Regular" font-size="24.8" fill="#FEFFFE" transform="matrix(1.00, 0.00, -0.00, -1.00, 424.2, 371.0)">s</text><text xml:space="preserve" font-family="ProximaNova-Regular" font-size="24.8" fill="#FEFFFE" transform="matrix(1.00, 0.00, -0.00, -1.00, 435.8, 371.0)"> </text><text xml:space="preserve" font-family="ProximaNova-Regular" font-size="24.8" fill="#FEFFFE" transform="matrix(1.00, 0.00, -0.00, -1.00, 442.2, 371.0)">t</text><text xml:space="preserve" font-family="ProximaNova-Regular" font-size="24.8" fill="#FEFFFE" transform="matrix(1.00, 0.00, -0.00, -1.00, 449.5, 371.0)">h</text><text xml:space="preserve" font-family="ProximaNova-Regular" font-size="24.8" fill="#FEFFFE" transform="matrix(1.00, 0.00, -0.00, -1.00, 463.2, 371.0)">e</text><text xml:space="preserve" font-family="ProximaNova-Regular" font-size="24.8" fill="#FEFFFE" transform="matrix(1.00, 0.00, -0.00, -1.00, 477.2, 371.0)"> </text><text xml:space="preserve" font-family="ProximaNova-Regular" font-size="24.8" fill="#FEFFFE" transform="matrix(1.00, 0.00, -0.00, -1.00, 483.6, 371.0)">V</text><text xml:space="preserve" font-family="ProximaNova-Regular" font-size="24.8" fill="#FEFFFE" transform="matrix(1.00, 0.00, -0.00, -1.00, 497.6, 371.0)">J</text><text xml:space="preserve" font-family="ProximaNova-Regular" font-size="24.8" fill="#FEFFFE" transform="matrix(1.00, 0.00, -0.00, -1.00, 509.4, 371.0)">S</text><text xml:space="preserve" font-family="ProximaNova-Regular" font-size="24.8" fill="#FEFFFE" transform="matrix(1.00, 0.00, -0.00, -1.00, 524.0, 371.0)"> </text><text xml:space="preserve" font-family="ProximaNova-Regular" font-size="24.8" fill="#FEFFFE" transform="matrix(1.00, 0.00, -0.00, -1.00, 530.4, 371.0)">w</text><text xml:space="preserve" font-family="ProximaNova-Regular" font-size="24.8" fill="#FEFFFE" transform="matrix(1.00, 0.00, -0.00, -1.00, 548.6, 371.0)">e</text><text xml:space="preserve" font-family="ProximaNova-Regular" font-size="24.8" fill="#FEFFFE" transform="matrix(1.00, 0.00, -0.00, -1.00, 562.6, 371.0)">b</text><text xml:space="preserve" font-family="ProximaNova-Regular" font-size="24.8" fill="#FEFFFE" transform="matrix(1.00, 0.00, -0.00, -1.00, 576.9, 371.0)"> </text><text xml:space="preserve" font-family="ProximaNova-Regular" font-size="24.8" fill="#FEFFFE" transform="matrix(1.00, 0.00, -0.00, -1.00, 583.3, 371.0)">a</text><text xml:space="preserve" font-family="ProximaNova-Regular" font-size="24.8" fill="#FEFFFE" transform="matrix(1.00, 0.00, -0.00, -1.00, 596.4, 371.0)">p</text><text xml:space="preserve" font-family="ProximaNova-Regular" font-size="24.8" fill="#FEFFFE" transform="matrix(1.00, 0.00, -0.00, -1.00, 610.6, 371.0)">p</text><text xml:space="preserve" font-family="ProximaNova-Regular" font-size="24.8" fill="#FEFFFE" transform="matrix(1.00, 0.00, -0.00, -1.00, 624.7, 371.0)">,</text><text xml:space="preserve" font-family="ProximaNova-Regular" font-size="24.8" fill="#FEFFFE" transform="matrix(1.00, 0.00, -0.00, -1.00, 630.4, 371.0)"> </text><text xml:space="preserve" font-family="ProximaNova-Regular" font-size="24.8" fill="#FEFFFE" transform="matrix(1.00, 0.00, -0.00, -1.00, 307.6, 312.1)">2</text><text xml:space="preserve" font-family="ProximaNova-Regular" font-size="24.8" fill="#FEFFFE" transform="matrix(1.00, 0.00, -0.00, -1.00, 322.2, 312.1)">.</text><text xml:space="preserve" font-family="ProximaNova-Regular" font-size="24.8" fill="#FEFFFE" transform="matrix(1.00, 0.00, -0.00, -1.00, 342.0, 312.0)">s</text><text xml:space="preserve" font-family="ProximaNova-Regular" font-size="24.8" fill="#FEFFFE" transform="matrix(1.00, 0.00, -0.00, -1.00, 353.6, 312.0)">i</text><text xml:space="preserve" font-family="ProximaNova-Regular" font-size="24.8" fill="#FEFFFE" transform="matrix(1.00, 0.00, -0.00, -1.00, 359.1, 312.0)">g</text><text xml:space="preserve" font-family="ProximaNova-Regular" font-size="24.8" fill="#FEFFFE" transform="matrix(1.00, 0.00, -0.00, -1.00, 373.4, 312.0)">n</text><text xml:space="preserve" font-family="ProximaNova-Regular" font-size="24.8" fill="#FEFFFE" transform="matrix(1.00, 0.00, -0.00, -1.00, 387.1, 312.0)">s</text><text xml:space="preserve" font-family="ProximaNova-Regular" font-size="24.8" fill="#FEFFFE" transform="matrix(1.00, 0.00, -0.00, -1.00, 398.6, 312.0)"> </text><text xml:space="preserve" font-family="ProximaNova-Regular" font-size="24.8" fill="#FEFFFE" transform="matrix(1.00, 0.00, -0.00, -1.00, 405.0, 312.0)">u</text><text xml:space="preserve" font-family="ProximaNova-Regular" font-size="24.8" fill="#FEFFFE" transform="matrix(1.00, 0.00, -0.00, -1.00, 418.7, 312.0)">p</text><text xml:space="preserve" font-family="ProximaNova-Regular" font-size="24.8" fill="#FEFFFE" transform="matrix(1.00, 0.00, -0.00, -1.00, 432.9, 312.0)"> </text><text xml:space="preserve" font-family="ProximaNova-Regular" font-size="24.8" fill="#FEFFFE" transform="matrix(1.00, 0.00, -0.00, -1.00, 439.3, 312.0)">f</text><text xml:space="preserve" font-family="ProximaNova-Regular" font-size="24.8" fill="#FEFFFE" transform="matrix(1.00, 0.00, -0.00, -1.00, 446.4, 312.0)">o</text><text xml:space="preserve" font-family="ProximaNova-Regular" font-size="24.8" fill="#FEFFFE" transform="matrix(1.00, 0.00, -0.00, -1.00, 460.6, 312.0)">r</text><text xml:space="preserve" font-family="ProximaNova-Regular" font-size="24.8" fill="#FEFFFE" transform="matrix(1.00, 0.00, -0.00, -1.00, 468.8, 312.0)"> </text><text xml:space="preserve" font-family="ProximaNova-Regular" font-size="24.8" fill="#FEFFFE" transform="matrix(1.00, 0.00, -0.00, -1.00, 475.2, 312.0)">a</text><text xml:space="preserve" font-family="ProximaNova-Regular" font-size="24.8" fill="#FEFFFE" transform="matrix(1.00, 0.00, -0.00, -1.00, 488.3, 312.0)">n</text><text xml:space="preserve" font-family="ProximaNova-Regular" font-size="24.8" fill="#FEFFFE" transform="matrix(1.00, 0.00, -0.00, -1.00, 502.0, 312.0)"> </text><text xml:space="preserve" font-family="ProximaNova-Regular" font-size="24.8" fill="#FEFFFE" transform="matrix(1.00, 0.00, -0.00, -1.00, 508.4, 312.0)">a</text><text xml:space="preserve" font-family="ProximaNova-Regular" font-size="24.8" fill="#FEFFFE" transform="matrix(1.00, 0.00, -0.00, -1.00, 521.5, 312.0)">c</text><text xml:space="preserve" font-family="ProximaNova-Regular" font-size="24.8" fill="#FEFFFE" transform="matrix(1.00, 0.00, -0.00, -1.00, 533.8, 312.0)">c</text><text xml:space="preserve" font-family="ProximaNova-Regular" font-size="24.8" fill="#FEFFFE" transform="matrix(1.00, 0.00, -0.00, -1.00, 546.1, 312.0)">o</text><text xml:space="preserve" font-family="ProximaNova-Regular" font-size="24.8" fill="#FEFFFE" transform="matrix(1.00, 0.00, -0.00, -1.00, 560.3, 312.0)">u</text><text xml:space="preserve" font-family="ProximaNova-Regular" font-size="24.8" fill="#FEFFFE" transform="matrix(1.00, 0.00, -0.00, -1.00, 574.0, 312.0)">n</text><text xml:space="preserve" font-family="ProximaNova-Regular" font-size="24.8" fill="#FEFFFE" transform="matrix(1.00, 0.00, -0.00, -1.00, 587.6, 312.0)">t</text><text xml:space="preserve" font-family="ProximaNova-Regular" font-size="24.8" fill="#FEFFFE" transform="matrix(1.00, 0.00, -0.00, -1.00, 594.9, 312.0)">,</text><text xml:space="preserve" font-family="ProximaNova-Regular" font-size="24.8" fill="#FEFFFE" transform="matrix(1.00, 0.00, -0.00, -1.00, 600.7, 312.0)"> </text><text xml:space="preserve" font-family="ProximaNova-Regular" font-size="24.8" fill="#FEFFFE" transform="matrix(1.00, 0.00, -0.00, -1.00, 307.6, 253.1)">3</text><text xml:space="preserve" font-family="ProximaNova-Regular" font-size="24.8" fill="#FEFFFE" transform="matrix(1.00, 0.00, -0.00, -1.00, 321.5, 253.1)">.</text><text xml:space="preserve" font-family="ProximaNova-Regular" font-size="24.8" fill="#FEFFFE" transform="matrix(1.00, 0.00, -0.00, -1.00, 342.0, 253.0)">c</text><text xml:space="preserve" font-family="ProximaNova-Regular" font-size="24.8" fill="#FEFFFE" transform="matrix(1.00, 0.00, -0.00, -1.00, 354.3, 253.0)">r</text><text xml:space="preserve" font-family="ProximaNova-Regular" font-size="24.8" fill="#FEFFFE" transform="matrix(1.00, 0.00, -0.00, -1.00, 362.5, 253.0)">e</text><text xml:space="preserve" font-family="ProximaNova-Regular" font-size="24.8" fill="#FEFFFE" transform="matrix(1.00, 0.00, -0.00, -1.00, 376.5, 253.0)">a</text><text xml:space="preserve" font-family="ProximaNova-Regular" font-size="24.8" fill="#FEFFFE" transform="matrix(1.00, 0.00, -0.00, -1.00, 389.6, 253.0)">t</text><text xml:space="preserve" font-family="ProximaNova-Regular" font-size="24.8" fill="#FEFFFE" transform="matrix(1.00, 0.00, -0.00, -1.00, 396.9, 253.0)">e</text><text xml:space="preserve" font-family="ProximaNova-Regular" font-size="24.8" fill="#FEFFFE" transform="matrix(1.00, 0.00, -0.00, -1.00, 410.9, 253.0)">s</text><text xml:space="preserve" font-family="ProximaNova-Regular" font-size="24.8" fill="#FEFFFE" transform="matrix(1.00, 0.00, -0.00, -1.00, 422.4, 253.0)"> </text><text xml:space="preserve" font-family="ProximaNova-Regular" font-size="24.8" fill="#FEFFFE" transform="matrix(1.00, 0.00, -0.00, -1.00, 428.8, 253.0)">a</text><text xml:space="preserve" font-family="ProximaNova-Regular" font-size="24.8" fill="#FEFFFE" transform="matrix(1.00, 0.00, -0.00, -1.00, 441.9, 253.0)"> </text><text xml:space="preserve" font-family="ProximaNova-Regular" font-size="24.8" fill="#FEFFFE" transform="matrix(1.00, 0.00, -0.00, -1.00, 448.3, 253.0)">j</text><text xml:space="preserve" font-family="ProximaNova-Regular" font-size="24.8" fill="#FEFFFE" transform="matrix(1.00, 0.00, -0.00, -1.00, 453.9, 253.0)">o</text><text xml:space="preserve" font-family="ProximaNova-Regular" font-size="24.8" fill="#FEFFFE" transform="matrix(1.00, 0.00, -0.00, -1.00, 468.1, 253.0)">b</text><text xml:space="preserve" font-family="ProximaNova-Regular" font-size="24.8" fill="#FEFFFE" transform="matrix(1.00, 0.00, -0.00, -1.00, 482.4, 253.0)"> </text><text xml:space="preserve" font-family="ProximaNova-Regular" font-size="24.8" fill="#FEFFFE" transform="matrix(1.00, 0.00, -0.00, -1.00, 488.8, 253.0)">l</text><text xml:space="preserve" font-family="ProximaNova-Regular" font-size="24.8" fill="#FEFFFE" transform="matrix(1.00, 0.00, -0.00, -1.00, 494.4, 253.0)">i</text><text xml:space="preserve" font-family="ProximaNova-Regular" font-size="24.8" fill="#FEFFFE" transform="matrix(1.00, 0.00, -0.00, -1.00, 500.0, 253.0)">s</text><text xml:space="preserve" font-family="ProximaNova-Regular" font-size="24.8" fill="#FEFFFE" transform="matrix(1.00, 0.00, -0.00, -1.00, 511.5, 253.0)">t</text><text xml:space="preserve" font-family="ProximaNova-Regular" font-size="24.8" fill="#FEFFFE" transform="matrix(1.00, 0.00, -0.00, -1.00, 518.8, 253.0)">i</text><text xml:space="preserve" font-family="ProximaNova-Regular" font-size="24.8" fill="#FEFFFE" transform="matrix(1.00, 0.00, -0.00, -1.00, 524.4, 253.0)">n</text><text xml:space="preserve" font-family="ProximaNova-Regular" font-size="24.8" fill="#FEFFFE" transform="matrix(1.00, 0.00, -0.00, -1.00, 538.1, 253.0)">g</text><text xml:space="preserve" font-family="ProximaNova-Regular" font-size="24.8" fill="#FEFFFE" transform="matrix(1.00, 0.00, -0.00, -1.00, 552.4, 253.0)"> </text><text xml:space="preserve" font-family="ProximaNova-Regular" font-size="24.8" fill="#FEFFFE" transform="matrix(1.00, 0.00, -0.00, -1.00, 558.8, 253.0)">a</text><text xml:space="preserve" font-family="ProximaNova-Regular" font-size="24.8" fill="#FEFFFE" transform="matrix(1.00, 0.00, -0.00, -1.00, 571.9, 253.0)">s</text><text xml:space="preserve" font-family="ProximaNova-Regular" font-size="24.8" fill="#FEFFFE" transform="matrix(1.00, 0.00, -0.00, -1.00, 583.4, 253.0)"> </text><text xml:space="preserve" font-family="ProximaNova-Regular" font-size="24.8" fill="#FEFFFE" transform="matrix(1.00, 0.00, -0.00, -1.00, 589.8, 253.0)">a</text><text xml:space="preserve" font-family="ProximaNova-Regular" font-size="24.8" fill="#FEFFFE" transform="matrix(1.00, 0.00, -0.00, -1.00, 602.9, 253.0)"> </text><text xml:space="preserve" font-family="ProximaNova-Regular" font-size="24.8" fill="#FEFFFE" transform="matrix(1.00, 0.00, -0.00, -1.00, 609.3, 253.0)">n</text><text xml:space="preserve" font-family="ProximaNova-Regular" font-size="24.8" fill="#FEFFFE" transform="matrix(1.00, 0.00, -0.00, -1.00, 623.0, 253.0)">o</text><text xml:space="preserve" font-family="ProximaNova-Regular" font-size="24.8" fill="#FEFFFE" transform="matrix(1.00, 0.00, -0.00, -1.00, 637.2, 253.0)">n</text><text xml:space="preserve" font-family="ProximaNova-Regular" font-size="24.8" fill="#FEFFFE" transform="matrix(1.00, 0.00, -0.00, -1.00, 650.9, 253.0)">-</text><text xml:space="preserve" font-family="ProximaNova-Regular" font-size="24.8" fill="#FEFFFE" transform="matrix(1.00, 0.00, -0.00, -1.00, 658.4, 253.0)">a</text><text xml:space="preserve" font-family="ProximaNova-Regular" font-size="24.8" fill="#FEFFFE" transform="matrix(1.00, 0.00, -0.00, -1.00, 671.5, 253.0)">p</text><text xml:space="preserve" font-family="ProximaNova-Regular" font-size="24.8" fill="#FEFFFE" transform="matrix(1.00, 0.00, -0.00, -1.00, 685.7, 253.0)">p</text><text xml:space="preserve" font-family="ProximaNova-Regular" font-size="24.8" fill="#FEFFFE" transform="matrix(1.00, 0.00, -0.00, -1.00, 699.9, 253.0)">r</text><text xml:space="preserve" font-family="ProximaNova-Regular" font-size="24.8" fill="#FEFFFE" transform="matrix(1.00, 0.00, -0.00, -1.00, 708.1, 253.0)">o</text><text xml:space="preserve" font-family="ProximaNova-Regular" font-size="24.8" fill="#FEFFFE" transform="matrix(1.00, 0.00, -0.00, -1.00, 722.3, 253.0)">v</text><text xml:space="preserve" font-family="ProximaNova-Regular" font-size="24.8" fill="#FEFFFE" transform="matrix(1.00, 0.00, -0.00, -1.00, 734.4, 253.0)">e</text><text xml:space="preserve" font-family="ProximaNova-Regular" font-size="24.8" fill="#FEFFFE" transform="matrix(1.00, 0.00, -0.00, -1.00, 748.4, 253.0)">d</text><text xml:space="preserve" font-family="ProximaNova-Regular" font-size="24.8" fill="#FEFFFE" transform="matrix(1.00, 0.00, -0.00, -1.00, 762.7, 253.0)"> </text><text xml:space="preserve" font-family="ProximaNova-Regular" font-size="24.8" fill="#FEFFFE" transform="matrix(1.00, 0.00, -0.00, -1.00, 769.1, 253.0)">u</text><text xml:space="preserve" font-family="ProximaNova-Regular" font-size="24.8" fill="#FEFFFE" transform="matrix(1.00, 0.00, -0.00, -1.00, 782.8, 253.0)">s</text><text xml:space="preserve" font-family="ProximaNova-Regular" font-size="24.8" fill="#FEFFFE" transform="matrix(1.00, 0.00, -0.00, -1.00, 794.4, 253.0)">e</text><text xml:space="preserve" font-family="ProximaNova-Regular" font-size="24.8" fill="#FEFFFE" transform="matrix(1.00, 0.00, -0.00, -1.00, 808.3, 253.0)">r</text><text xml:space="preserve" font-family="ProximaNova-Regular" font-size="24.8" fill="#FEFFFE" transform="matrix(1.00, 0.00, -0.00, -1.00, 814.5, 253.0)">,</text><text xml:space="preserve" font-family="ProximaNova-Regular" font-size="24.8" fill="#FEFFFE" transform="matrix(1.00, 0.00, -0.00, -1.00, 820.2, 253.0)"> </text><text xml:space="preserve" font-family="ProximaNova-Regular" font-size="24.8" fill="#FEFFFE" transform="matrix(1.00, 0.00, -0.00, -1.00, 307.6, 194.1)">4</text><text xml:space="preserve" font-family="ProximaNova-Regular" font-size="24.8" fill="#FEFFFE" transform="matrix(1.00, 0.00, -0.00, -1.00, 321.5, 194.1)">.</text><text xml:space="preserve" font-family="ProximaNova-Regular" font-size="24.8" fill="#FEFFFE" transform="matrix(1.00, 0.00, -0.00, -1.00, 342.0, 194.0)">s</text><text xml:space="preserve" font-family="ProximaNova-Regular" font-size="24.8" fill="#FEFFFE" transform="matrix(1.00, 0.00, -0.00, -1.00, 353.6, 194.0)">a</text><text xml:space="preserve" font-family="ProximaNova-Regular" font-size="24.8" fill="#FEFFFE" transform="matrix(1.00, 0.00, -0.00, -1.00, 366.6, 194.0)">v</text><text xml:space="preserve" font-family="ProximaNova-Regular" font-size="24.8" fill="#FEFFFE" transform="matrix(1.00, 0.00, -0.00, -1.00, 378.8, 194.0)">e</text><text xml:space="preserve" font-family="ProximaNova-Regular" font-size="24.8" fill="#FEFFFE" transform="matrix(1.00, 0.00, -0.00, -1.00, 392.8, 194.0)">s</text><text xml:space="preserve" font-family="ProximaNova-Regular" font-size="24.8" fill="#FEFFFE" transform="matrix(1.00, 0.00, -0.00, -1.00, 404.3, 194.0)"> </text><text xml:space="preserve" font-family="ProximaNova-Regular" font-size="24.8" fill="#FEFFFE" transform="matrix(1.00, 0.00, -0.00, -1.00, 410.8, 194.0)">t</text><text xml:space="preserve" font-family="ProximaNova-Regular" font-size="24.8" fill="#FEFFFE" transform="matrix(1.00, 0.00, -0.00, -1.00, 418.1, 194.0)">h</text><text xml:space="preserve" font-family="ProximaNova-Regular" font-size="24.8" fill="#FEFFFE" transform="matrix(1.00, 0.00, -0.00, -1.00, 431.8, 194.0)">e</text><text xml:space="preserve" font-family="ProximaNova-Regular" font-size="24.8" fill="#FEFFFE" transform="matrix(1.00, 0.00, -0.00, -1.00, 445.8, 194.0)"> </text><text xml:space="preserve" font-family="ProximaNova-Regular" font-size="24.8" fill="#FEFFFE" transform="matrix(1.00, 0.00, -0.00, -1.00, 452.2, 194.0)">j</text><text xml:space="preserve" font-family="ProximaNova-Regular" font-size="24.8" fill="#FEFFFE" transform="matrix(1.00, 0.00, -0.00, -1.00, 457.8, 194.0)">o</text><text xml:space="preserve" font-family="ProximaNova-Regular" font-size="24.8" fill="#FEFFFE" transform="matrix(1.00, 0.00, -0.00, -1.00, 472.0, 194.0)">b</text><text xml:space="preserve" font-family="ProximaNova-Regular" font-size="24.8" fill="#FEFFFE" transform="matrix(1.00, 0.00, -0.00, -1.00, 486.2, 194.0)"> </text><text xml:space="preserve" font-family="ProximaNova-Regular" font-size="24.8" fill="#FEFFFE" transform="matrix(1.00, 0.00, -0.00, -1.00, 492.7, 194.0)">l</text><text xml:space="preserve" font-family="ProximaNova-Regular" font-size="24.8" fill="#FEFFFE" transform="matrix(1.00, 0.00, -0.00, -1.00, 498.2, 194.0)">i</text><text xml:space="preserve" font-family="ProximaNova-Regular" font-size="24.8" fill="#FEFFFE" transform="matrix(1.00, 0.00, -0.00, -1.00, 503.8, 194.0)">s</text><text xml:space="preserve" font-family="ProximaNova-Regular" font-size="24.8" fill="#FEFFFE" transform="matrix(1.00, 0.00, -0.00, -1.00, 515.4, 194.0)">t</text><text xml:space="preserve" font-family="ProximaNova-Regular" font-size="24.8" fill="#FEFFFE" transform="matrix(1.00, 0.00, -0.00, -1.00, 522.7, 194.0)">i</text><text xml:space="preserve" font-family="ProximaNova-Regular" font-size="24.8" fill="#FEFFFE" transform="matrix(1.00, 0.00, -0.00, -1.00, 528.3, 194.0)">n</text><text xml:space="preserve" font-family="ProximaNova-Regular" font-size="24.8" fill="#FEFFFE" transform="matrix(1.00, 0.00, -0.00, -1.00, 542.0, 194.0)">g</text><text xml:space="preserve" font-family="ProximaNova-Regular" font-size="24.8" fill="#FEFFFE" transform="matrix(1.00, 0.00, -0.00, -1.00, 556.2, 194.0)">,</text><text xml:space="preserve" font-family="ProximaNova-Regular" font-size="24.8" fill="#FEFFFE" transform="matrix(1.00, 0.00, -0.00, -1.00, 561.9, 194.0)"> </text><text xml:space="preserve" font-family="ProximaNova-Regular" font-size="24.8" fill="#FEFFFE" transform="matrix(1.00, 0.00, -0.00, -1.00, 307.6, 135.2)">5</text><text xml:space="preserve" font-family="ProximaNova-Regular" font-size="24.8" fill="#FEFFFE" transform="matrix(1.00, 0.00, -0.00, -1.00, 322.3, 135.2)">.</text><text xml:space="preserve" font-family="ProximaNova-Regular" font-size="24.8" fill="#FEFFFE" transform="matrix(1.00, 0.00, -0.00, -1.00, 342.0, 135.0)">s</text><text xml:space="preserve" font-family="ProximaNova-Regular" font-size="24.8" fill="#FEFFFE" transform="matrix(1.00, 0.00, -0.00, -1.00, 353.6, 135.0)">e</text><text xml:space="preserve" font-family="ProximaNova-Regular" font-size="24.8" fill="#FEFFFE" transform="matrix(1.00, 0.00, -0.00, -1.00, 367.5, 135.0)">a</text><text xml:space="preserve" font-family="ProximaNova-Regular" font-size="24.8" fill="#FEFFFE" transform="matrix(1.00, 0.00, -0.00, -1.00, 380.6, 135.0)">r</text><text xml:space="preserve" font-family="ProximaNova-Regular" font-size="24.8" fill="#FEFFFE" transform="matrix(1.00, 0.00, -0.00, -1.00, 388.8, 135.0)">c</text><text xml:space="preserve" font-family="ProximaNova-Regular" font-size="24.8" fill="#FEFFFE" transform="matrix(1.00, 0.00, -0.00, -1.00, 401.1, 135.0)">h</text><text xml:space="preserve" font-family="ProximaNova-Regular" font-size="24.8" fill="#FEFFFE" transform="matrix(1.00, 0.00, -0.00, -1.00, 414.8, 135.0)">e</text><text xml:space="preserve" font-family="ProximaNova-Regular" font-size="24.8" fill="#FEFFFE" transform="matrix(1.00, 0.00, -0.00, -1.00, 428.8, 135.0)">s</text><text xml:space="preserve" font-family="ProximaNova-Regular" font-size="24.8" fill="#FEFFFE" transform="matrix(1.00, 0.00, -0.00, -1.00, 440.4, 135.0)"> </text><text xml:space="preserve" font-family="ProximaNova-Regular" font-size="24.8" fill="#FEFFFE" transform="matrix(1.00, 0.00, -0.00, -1.00, 446.8, 135.0)">f</text><text xml:space="preserve" font-family="ProximaNova-Regular" font-size="24.8" fill="#FEFFFE" transform="matrix(1.00, 0.00, -0.00, -1.00, 453.8, 135.0)">o</text><text xml:space="preserve" font-family="ProximaNova-Regular" font-size="24.8" fill="#FEFFFE" transform="matrix(1.00, 0.00, -0.00, -1.00, 468.0, 135.0)">r</text><text xml:space="preserve" font-family="ProximaNova-Regular" font-size="24.8" fill="#FEFFFE" transform="matrix(1.00, 0.00, -0.00, -1.00, 476.2, 135.0)"> </text><text xml:space="preserve" font-family="ProximaNova-Regular" font-size="24.8" fill="#FEFFFE" transform="matrix(1.00, 0.00, -0.00, -1.00, 482.6, 135.0)">c</text><text xml:space="preserve" font-family="ProximaNova-Regular" font-size="24.8" fill="#FEFFFE" transform="matrix(1.00, 0.00, -0.00, -1.00, 494.9, 135.0)">a</text><text xml:space="preserve" font-family="ProximaNova-Regular" font-size="24.8" fill="#FEFFFE" transform="matrix(1.00, 0.00, -0.00, -1.00, 508.0, 135.0)">n</text><text xml:space="preserve" font-family="ProximaNova-Regular" font-size="24.8" fill="#FEFFFE" transform="matrix(1.00, 0.00, -0.00, -1.00, 521.7, 135.0)">d</text><text xml:space="preserve" font-family="ProximaNova-Regular" font-size="24.8" fill="#FEFFFE" transform="matrix(1.00, 0.00, -0.00, -1.00, 536.0, 135.0)">i</text><text xml:space="preserve" font-family="ProximaNova-Regular" font-size="24.8" fill="#FEFFFE" transform="matrix(1.00, 0.00, -0.00, -1.00, 541.6, 135.0)">d</text><text xml:space="preserve" font-family="ProximaNova-Regular" font-size="24.8" fill="#FEFFFE" transform="matrix(1.00, 0.00, -0.00, -1.00, 555.8, 135.0)">a</text><text xml:space="preserve" font-family="ProximaNova-Regular" font-size="24.8" fill="#FEFFFE" transform="matrix(1.00, 0.00, -0.00, -1.00, 568.9, 135.0)">t</text><text xml:space="preserve" font-family="ProximaNova-Regular" font-size="24.8" fill="#FEFFFE" transform="matrix(1.00, 0.00, -0.00, -1.00, 576.2, 135.0)">e</text><text xml:space="preserve" font-family="ProximaNova-Regular" font-size="24.8" fill="#FEFFFE" transform="matrix(1.00, 0.00, -0.00, -1.00, 590.2, 135.0)">s</text><text xml:space="preserve" font-family="ProximaNova-Regular" font-size="24.8" fill="#FEFFFE" transform="matrix(1.00, 0.00, -0.00, -1.00, 601.8, 135.0)"> </text><text xml:space="preserve" font-family="ProximaNova-Regular" font-size="24.8" fill="#FEFFFE" transform="matrix(1.00, 0.00, -0.00, -1.00, 608.2, 135.0)">a</text><text xml:space="preserve" font-family="ProximaNova-Regular" font-size="24.8" fill="#FEFFFE" transform="matrix(1.00, 0.00, -0.00, -1.00, 621.3, 135.0)">n</text><text xml:space="preserve" font-family="ProximaNova-Regular" font-size="24.8" fill="#FEFFFE" transform="matrix(1.00, 0.00, -0.00, -1.00, 635.0, 135.0)">d</text><text xml:space="preserve" font-family="ProximaNova-Regular" font-size="24.8" fill="#FEFFFE" transform="matrix(1.00, 0.00, -0.00, -1.00, 649.2, 135.0)"> </text><text xml:space="preserve" font-family="ProximaNova-Regular" font-size="24.8" fill="#FEFFFE" transform="matrix(1.00, 0.00, -0.00, -1.00, 307.6, 76.2)">6</text><text xml:space="preserve" font-family="ProximaNova-Regular" font-size="24.8" fill="#FEFFFE" transform="matrix(1.00, 0.00, -0.00, -1.00, 322.3, 76.2)">.</text><text xml:space="preserve" font-family="ProximaNova-Regular" font-size="24.8" fill="#FEFFFE" transform="matrix(1.00, 0.00, -0.00, -1.00, 342.0, 76.0)">f</text><text xml:space="preserve" font-family="ProximaNova-Regular" font-size="24.8" fill="#FEFFFE" transform="matrix(1.00, 0.00, -0.00, -1.00, 349.0, 76.0)">a</text><text xml:space="preserve" font-family="ProximaNova-Regular" font-size="24.8" fill="#FEFFFE" transform="matrix(1.00, 0.00, -0.00, -1.00, 362.1, 76.0)">v</text><text xml:space="preserve" font-family="ProximaNova-Regular" font-size="24.8" fill="#FEFFFE" transform="matrix(1.00, 0.00, -0.00, -1.00, 374.3, 76.0)">o</text><text xml:space="preserve" font-family="ProximaNova-Regular" font-size="24.8" fill="#FEFFFE" transform="matrix(1.00, 0.00, -0.00, -1.00, 388.5, 76.0)">r</text><text xml:space="preserve" font-family="ProximaNova-Regular" font-size="24.8" fill="#FEFFFE" transform="matrix(1.00, 0.00, -0.00, -1.00, 396.7, 76.0)">i</text><text xml:space="preserve" font-family="ProximaNova-Regular" font-size="24.8" fill="#FEFFFE" transform="matrix(1.00, 0.00, -0.00, -1.00, 402.3, 76.0)">t</text><text xml:space="preserve" font-family="ProximaNova-Regular" font-size="24.8" fill="#FEFFFE" transform="matrix(1.00, 0.00, -0.00, -1.00, 409.6, 76.0)">e</text><text xml:space="preserve" font-family="ProximaNova-Regular" font-size="24.8" fill="#FEFFFE" transform="matrix(1.00, 0.00, -0.00, -1.00, 423.6, 76.0)">s</text><text xml:space="preserve" font-family="ProximaNova-Regular" font-size="24.8" fill="#FEFFFE" transform="matrix(1.00, 0.00, -0.00, -1.00, 435.1, 76.0)"> </text><text xml:space="preserve" font-family="ProximaNova-Regular" font-size="24.8" fill="#FEFFFE" transform="matrix(1.00, 0.00, -0.00, -1.00, 441.5, 76.0)">a</text><text xml:space="preserve" font-family="ProximaNova-Regular" font-size="24.8" fill="#FEFFFE" transform="matrix(1.00, 0.00, -0.00, -1.00, 454.6, 76.0)"> </text><text xml:space="preserve" font-family="ProximaNova-Regular" font-size="24.8" fill="#FEFFFE" transform="matrix(1.00, 0.00, -0.00, -1.00, 461.0, 76.0)">c</text><text xml:space="preserve" font-family="ProximaNova-Regular" font-size="24.8" fill="#FEFFFE" transform="matrix(1.00, 0.00, -0.00, -1.00, 473.3, 76.0)">a</text><text xml:space="preserve" font-family="ProximaNova-Regular" font-size="24.8" fill="#FEFFFE" transform="matrix(1.00, 0.00, -0.00, -1.00, 486.4, 76.0)">n</text><text xml:space="preserve" font-family="ProximaNova-Regular" font-size="24.8" fill="#FEFFFE" transform="matrix(1.00, 0.00, -0.00, -1.00, 500.1, 76.0)">d</text><text xml:space="preserve" font-family="ProximaNova-Regular" font-size="24.8" fill="#FEFFFE" transform="matrix(1.00, 0.00, -0.00, -1.00, 514.4, 76.0)">i</text><text xml:space="preserve" font-family="ProximaNova-Regular" font-size="24.8" fill="#FEFFFE" transform="matrix(1.00, 0.00, -0.00, -1.00, 520.0, 76.0)">d</text><text xml:space="preserve" font-family="ProximaNova-Regular" font-size="24.8" fill="#FEFFFE" transform="matrix(1.00, 0.00, -0.00, -1.00, 534.3, 76.0)">a</text><text xml:space="preserve" font-family="ProximaNova-Regular" font-size="24.8" fill="#FEFFFE" transform="matrix(1.00, 0.00, -0.00, -1.00, 547.4, 76.0)">t</text><text xml:space="preserve" font-family="ProximaNova-Regular" font-size="24.8" fill="#FEFFFE" transform="matrix(1.00, 0.00, -0.00, -1.00, 554.7, 76.0)">e</text><text xml:space="preserve" font-family="ProximaNova-Regular" font-size="24.8" fill="#FEFFFE" transform="matrix(1.00, 0.00, -0.00, -1.00, 568.5, 76.0)">.</text><text xml:space="preserve" font-family="LeagueGothic-Regular" font-size="40.0" fill="#FEFFFE" transform="matrix(1.00, 0.00, -0.00, -1.00, 16.0, 713.0)">V</text><text xml:space="preserve" font-family="LeagueGothic-Regular" font-size="40.0" fill="#FEFFFE" transform="matrix(1.00, 0.00, -0.00, -1.00, 30.0, 713.0)">I</text><text xml:space="preserve" font-family="LeagueGothic-Regular" font-size="40.0" fill="#FEFFFE" transform="matrix(1.00, 0.00, -0.00, -1.00, 37.5, 713.0)">R</text><text xml:space="preserve" font-family="LeagueGothic-Regular" font-size="40.0" fill="#FEFFFE" transform="matrix(1.00, 0.00, -0.00, -1.00, 52.0, 713.0)">T</text><text xml:space="preserve" font-family="LeagueGothic-Regular" font-size="40.0" fill="#FEFFFE" transform="matrix(1.00, 0.00, -0.00, -1.00, 64.6, 713.0)">U</text><text xml:space="preserve" font-family="LeagueGothic-Regular" font-size="40.0" fill="#FEFFFE" transform="matrix(1.00, 0.00, -0.00, -1.00, 79.2, 713.0)">A</text><text xml:space="preserve" font-family="LeagueGothic-Regular" font-size="40.0" fill="#FEFFFE" transform="matrix(1.00, 0.00, -0.00, -1.00, 94.2, 713.0)">L</text><text xml:space="preserve" font-family="LeagueGothic-Regular" font-size="40.0" fill="#FEFFFE" transform="matrix(1.00, 0.00, -0.00, -1.00, 106.0, 713.0)"> </text><text xml:space="preserve" font-family="LeagueGothic-Regular" font-size="40.0" fill="#FEFFFE" transform="matrix(1.00, 0.00, -0.00, -1.00, 112.2, 713.0)">J</text><text xml:space="preserve" font-family="LeagueGothic-Regular" font-size="40.0" fill="#FEFFFE" transform="matrix(1.00, 0.00, -0.00, -1.00, 120.4, 713.0)">O</text><text xml:space="preserve" font-family="LeagueGothic-Regular" font-size="40.0" fill="#FEFFFE" transform="matrix(1.00, 0.00, -0.00, -1.00, 134.6, 713.0)">B</text><text xml:space="preserve" font-family="LeagueGothic-Regular" font-size="40.0" fill="#FEFFFE" transform="matrix(1.00, 0.00, -0.00, -1.00, 149.2, 713.0)"> </text><text xml:space="preserve" font-family="LeagueGothic-Regular" font-size="40.0" fill="#FEFFFE" transform="matrix(1.00, 0.00, -0.00, -1.00, 155.3, 713.0)">S</text><text xml:space="preserve" font-family="LeagueGothic-Regular" font-size="40.0" fill="#FEFFFE" transform="matrix(1.00, 0.00, -0.00, -1.00, 169.0, 713.0)">C</text><text xml:space="preserve" font-family="LeagueGothic-Regular" font-size="40.0" fill="#FEFFFE" transform="matrix(1.00, 0.00, -0.00, -1.00, 182.9, 713.0)">O</text><text xml:space="preserve" font-family="LeagueGothic-Regular" font-size="40.0" fill="#FEFFFE" transform="matrix(1.00, 0.00, -0.00, -1.00, 197.0, 713.0)">U</text><text xml:space="preserve" font-family="LeagueGothic-Regular" font-size="40.0" fill="#FEFFFE" transform="matrix(1.00, 0.00, -0.00, -1.00, 211.7, 713.0)">T</text><text xml:space="preserve" font-family="LeagueGothic-Regular" font-size="40.0" fill="#FEFFFE" transform="matrix(1.00, 0.00, -0.00, -1.00, 224.3, 713.0)"> </text><text xml:space="preserve" font-family="LeagueGothic-Regular" font-size="40.0" fill="#FEFFFE" transform="matrix(1.00, 0.00, -0.00, -1.00, 230.5, 713.0)">V</text><text xml:space="preserve" font-family="LeagueGothic-Regular" font-size="40.0" fill="#FEFFFE" transform="matrix(1.00, 0.00, -0.00, -1.00, 244.5, 713.0)">.</text><text xml:space="preserve" font-family="LeagueGothic-Regular" font-size="40.0" fill="#FEFFFE" transform="matrix(1.00, 0.00, -0.00, -1.00, 250.8, 713.0)">2</text></g></svg>