<?xml version="1.0" encoding="UTF-8" standalone="no"?><svg xmlns="http://www.w3.org/2000/svg" xmlns:xlink="http://www.w3.org/1999/xlink" clip-rule="evenodd" stroke-miterlimit="4.00" viewBox="0 0 218 246"><desc>SVG generated by Keynote</desc><defs></defs><g transform="matrix(1.00, 0.00, -0.00, -1.00, 0.0, 246.0)"><g><clipPath id="clip-6696"><path d="M -30.2 314.3 L 247.2 314.3 L 247.2 -373.9 L -30.2 -373.9 Z M -30.2 314.3 "></path></clipPath><g clip-path="url(#clip-6696)"><g><clipPath id="clip-6697"><path d="M 1.9 119.0 L 216.0 119.0 L 216.0 86.0 L 1.9 86.0 L 1.9 119.0 Z M 1.9 119.0 "></path></clipPath><g clip-path="url(#clip-6697)"><g><clipPath id="clip-6698"><path d="M 1.0 1.0 L 216.0 1.0 L 216.0 244.0 L 1.0 244.0 Z M 1.0 1.0 "></path></clipPath><g clip-path="url(#clip-6698)"><path d="M -2.5 123.4 L 220.3 123.4 L 220.3 81.7 L -2.5 81.7 Z M -2.5 123.4 " fill="#FFFFFF"></path></g></g></g></g></g></g><g><clipPath id="clip-6699"><path d="M -30.2 314.3 L 247.2 314.3 L 247.2 -373.9 L -30.2 -373.9 Z M -30.2 314.3 "></path></clipPath><g clip-path="url(#clip-6699)"><g><clipPath id="clip-6700"><path d="M 1.9 76.5 L 216.0 76.5 L 216.0 43.5 L 1.9 43.5 L 1.9 76.5 Z M 1.9 76.5 "></path></clipPath><g clip-path="url(#clip-6700)"><g><clipPath id="clip-6701"><path d="M 1.0 1.0 L 216.0 1.0 L 216.0 244.0 L 1.0 244.0 Z M 1.0 1.0 "></path></clipPath><g clip-path="url(#clip-6701)"><path d="M -2.5 80.8 L 220.3 80.8 L 220.3 39.2 L -2.5 39.2 Z M -2.5 80.8 " fill="#FFFFFF"></path></g></g></g></g></g></g><g><clipPath id="clip-6702"><path d="M -30.2 314.3 L 247.2 314.3 L 247.2 -373.9 L -30.2 -373.9 Z M -30.2 314.3 "></path></clipPath><g clip-path="url(#clip-6702)"><g><clipPath id="clip-6703"><path d="M 1.0 1.0 L 216.0 1.0 L 216.0 244.0 L 1.0 244.0 Z M 1.0 1.0 "></path></clipPath><g clip-path="url(#clip-6703)"><text xml:space="preserve" font-family="ProximaNova-Light" font-size="15.3" fill="#5C5C5C" transform="matrix(0.87, 0.00, -0.00, -0.87, 14.0, 98.2)">J</text><text xml:space="preserve" font-family="ProximaNova-Light" font-size="15.3" fill="#5C5C5C" transform="matrix(0.87, 0.00, -0.00, -0.87, 20.2, 98.2)">o</text><text xml:space="preserve" font-family="ProximaNova-Light" font-size="15.3" fill="#5C5C5C" transform="matrix(0.87, 0.00, -0.00, -0.87, 27.8, 98.2)">b</text><text xml:space="preserve" font-family="ProximaNova-Light" font-size="15.3" fill="#5C5C5C" transform="matrix(0.87, 0.00, -0.00, -0.87, 35.4, 98.2)"> </text><text xml:space="preserve" font-family="ProximaNova-Light" font-size="15.3" fill="#5C5C5C" transform="matrix(0.87, 0.00, -0.00, -0.87, 38.8, 98.2)">T</text><text xml:space="preserve" font-family="ProximaNova-Light" font-size="15.3" fill="#5C5C5C" transform="matrix(0.87, 0.00, -0.00, -0.87, 46.3, 98.2)">i</text><text xml:space="preserve" font-family="ProximaNova-Light" font-size="15.3" fill="#5C5C5C" transform="matrix(0.87, 0.00, -0.00, -0.87, 49.1, 98.2)">t</text><text xml:space="preserve" font-family="ProximaNova-Light" font-size="15.3" fill="#5C5C5C" transform="matrix(0.87, 0.00, -0.00, -0.87, 52.8, 98.2)">l</text><text xml:space="preserve" font-family="ProximaNova-Light" font-size="15.3" fill="#5C5C5C" transform="matrix(0.87, 0.00, -0.00, -0.87, 55.6, 98.2)">e</text><text xml:space="preserve" font-family="ProximaNova-Light" font-size="15.3" fill="#5C5C5C" transform="matrix(0.87, 0.00, -0.00, -0.87, 63.1, 98.2)">/</text><text xml:space="preserve" font-family="ProximaNova-Light" font-size="15.3" fill="#5C5C5C" transform="matrix(0.87, 0.00, -0.00, -0.87, 66.9, 98.2)">K</text><text xml:space="preserve" font-family="ProximaNova-Light" font-size="15.3" fill="#5C5C5C" transform="matrix(0.87, 0.00, -0.00, -0.87, 74.7, 98.2)">e</text><text xml:space="preserve" font-family="ProximaNova-Light" font-size="15.3" fill="#5C5C5C" transform="matrix(0.87, 0.00, -0.00, -0.87, 82.2, 98.2)">y</text><text xml:space="preserve" font-family="ProximaNova-Light" font-size="15.3" fill="#5C5C5C" transform="matrix(0.87, 0.00, -0.00, -0.87, 88.6, 98.2)">w</text><text xml:space="preserve" font-family="ProximaNova-Light" font-size="15.3" fill="#5C5C5C" transform="matrix(0.87, 0.00, -0.00, -0.87, 98.1, 98.2)">o</text><text xml:space="preserve" font-family="ProximaNova-Light" font-size="15.3" fill="#5C5C5C" transform="matrix(0.87, 0.00, -0.00, -0.87, 105.7, 98.2)">r</text><text xml:space="preserve" font-family="ProximaNova-Light" font-size="15.3" fill="#5C5C5C" transform="matrix(0.87, 0.00, -0.00, -0.87, 109.9, 98.2)">d</text><text xml:space="preserve" font-family="ProximaNova-Light" font-size="15.3" fill="#5C5C5C" transform="matrix(0.87, 0.00, -0.00, -0.87, 117.5, 98.2)">s</text><text xml:space="preserve" font-family="ProximaNova-Light" font-size="15.3" fill="#5C5C5C" transform="matrix(0.87, 0.00, -0.00, -0.87, 14.0, 55.7)">N</text><text xml:space="preserve" font-family="ProximaNova-Light" font-size="15.3" fill="#5C5C5C" transform="matrix(0.87, 0.00, -0.00, -0.87, 23.3, 55.7)">a</text><text xml:space="preserve" font-family="ProximaNova-Light" font-size="15.3" fill="#5C5C5C" transform="matrix(0.87, 0.00, -0.00, -0.87, 30.2, 55.7)">s</text><text xml:space="preserve" font-family="ProximaNova-Light" font-size="15.3" fill="#5C5C5C" transform="matrix(0.87, 0.00, -0.00, -0.87, 36.3, 55.7)">h</text><text xml:space="preserve" font-family="ProximaNova-Light" font-size="15.3" fill="#5C5C5C" transform="matrix(0.87, 0.00, -0.00, -0.87, 43.4, 55.7)">v</text><text xml:space="preserve" font-family="ProximaNova-Light" font-size="15.3" fill="#5C5C5C" transform="matrix(0.87, 0.00, -0.00, -0.87, 49.8, 55.7)">i</text><text xml:space="preserve" font-family="ProximaNova-Light" font-size="15.3" fill="#5C5C5C" transform="matrix(0.87, 0.00, -0.00, -0.87, 52.7, 55.7)">l</text><text xml:space="preserve" font-family="ProximaNova-Light" font-size="15.3" fill="#5C5C5C" transform="matrix(0.87, 0.00, -0.00, -0.87, 55.5, 55.7)">l</text><text xml:space="preserve" font-family="ProximaNova-Light" font-size="15.3" fill="#5C5C5C" transform="matrix(0.87, 0.00, -0.00, -0.87, 58.3, 55.7)">e</text><text xml:space="preserve" font-family="ProximaNova-Light" font-size="15.3" fill="#5C5C5C" transform="matrix(0.87, 0.00, -0.00, -0.87, 150.1, 55.7)">T</text><text xml:space="preserve" font-family="ProximaNova-Light" font-size="15.3" fill="#5C5C5C" transform="matrix(0.87, 0.00, -0.00, -0.87, 157.6, 55.7)">N</text><path d="M 1.0 0.0 L 1.0 38.0 " fill="none" stroke="#969696" stroke-width="0.50" stroke-miterlimit="0.00" stroke-linecap="square" transform="matrix(0.87, 0.00, 0.00, -0.87, 135.4, 76.5)"></path></g></g></g></g><g><clipPath id="clip-6704"><path d="M -30.2 314.3 L 247.2 314.3 L 247.2 -373.9 L -30.2 -373.9 Z M -30.2 314.3 "></path></clipPath><g clip-path="url(#clip-6704)"><g><clipPath id="clip-6705"><path d="M 1.9 34.0 L 216.0 34.0 L 216.0 1.0 L 1.9 1.0 L 1.9 34.0 Z M 1.9 34.0 "></path></clipPath><g clip-path="url(#clip-6705)"><g><clipPath id="clip-6706"><path d="M 1.0 1.0 L 216.0 1.0 L 216.0 244.0 L 1.0 244.0 Z M 1.0 1.0 "></path></clipPath><g clip-path="url(#clip-6706)"><path d="M -2.5 38.3 L 220.3 38.3 L 220.3 -3.3 L -2.5 -3.3 Z M -2.5 38.3 " fill="#5DC69C"></path></g></g></g></g></g></g><g><clipPath id="clip-6707"><path d="M -30.2 314.3 L 247.2 314.3 L 247.2 -373.9 L -30.2 -373.9 Z M -30.2 314.3 "></path></clipPath><g clip-path="url(#clip-6707)"><g><clipPath id="clip-6708"><path d="M 1.0 1.0 L 216.0 1.0 L 216.0 244.0 L 1.0 244.0 Z M 1.0 1.0 "></path></clipPath><g clip-path="url(#clip-6708)"><text xml:space="preserve" font-family="ProximaNova-Light" font-size="17.0" fill="#FEFFFF" transform="matrix(0.87, 0.00, -0.00, -0.87, 54.5, 11.4)">F</text><text xml:space="preserve" font-family="ProximaNova-Light" font-size="17.0" fill="#FEFFFF" transform="matrix(0.87, 0.00, -0.00, -0.87, 62.5, 11.4)">i</text><text xml:space="preserve" font-family="ProximaNova-Light" font-size="17.0" fill="#FEFFFF" transform="matrix(0.87, 0.00, -0.00, -0.87, 65.6, 11.4)">n</text><text xml:space="preserve" font-family="ProximaNova-Light" font-size="17.0" fill="#FEFFFF" transform="matrix(0.87, 0.00, -0.00, -0.87, 73.6, 11.4)">d</text><text xml:space="preserve" font-family="ProximaNova-Light" font-size="17.0" fill="#FEFFFF" transform="matrix(0.87, 0.00, -0.00, -0.87, 82.0, 11.4)"> </text><text xml:space="preserve" font-family="ProximaNova-Light" font-size="17.0" fill="#FEFFFF" transform="matrix(0.87, 0.00, -0.00, -0.87, 85.8, 11.4)">C</text><text xml:space="preserve" font-family="ProximaNova-Light" font-size="17.0" fill="#FEFFFF" transform="matrix(0.87, 0.00, -0.00, -0.87, 95.7, 11.4)">a</text><text xml:space="preserve" font-family="ProximaNova-Light" font-size="17.0" fill="#FEFFFF" transform="matrix(0.87, 0.00, -0.00, -0.87, 103.4, 11.4)">n</text><text xml:space="preserve" font-family="ProximaNova-Light" font-size="17.0" fill="#FEFFFF" transform="matrix(0.87, 0.00, -0.00, -0.87, 111.4, 11.4)">d</text><text xml:space="preserve" font-family="ProximaNova-Light" font-size="17.0" fill="#FEFFFF" transform="matrix(0.87, 0.00, -0.00, -0.87, 119.8, 11.4)">i</text><text xml:space="preserve" font-family="ProximaNova-Light" font-size="17.0" fill="#FEFFFF" transform="matrix(0.87, 0.00, -0.00, -0.87, 122.9, 11.4)">d</text><text xml:space="preserve" font-family="ProximaNova-Light" font-size="17.0" fill="#FEFFFF" transform="matrix(0.87, 0.00, -0.00, -0.87, 131.3, 11.4)">a</text><text xml:space="preserve" font-family="ProximaNova-Light" font-size="17.0" fill="#FEFFFF" transform="matrix(0.87, 0.00, -0.00, -0.87, 139.0, 11.4)">t</text><text xml:space="preserve" font-family="ProximaNova-Light" font-size="17.0" fill="#FEFFFF" transform="matrix(0.87, 0.00, -0.00, -0.87, 143.1, 11.4)">e</text><text xml:space="preserve" font-family="ProximaNova-Light" font-size="17.0" fill="#FEFFFF" transform="matrix(0.87, 0.00, -0.00, -0.87, 151.4, 11.4)">s</text><text xml:space="preserve" font-family="AlternateGotNo1D" font-size="30.6" fill="#ABABAB" transform="matrix(0.87, 0.00, -0.00, -0.87, 1.4, 226.6)">S</text><text xml:space="preserve" font-family="AlternateGotNo1D" font-size="30.6" fill="#ABABAB" transform="matrix(0.87, 0.00, -0.00, -0.87, 10.0, 226.6)">E</text><text xml:space="preserve" font-family="AlternateGotNo1D" font-size="30.6" fill="#ABABAB" transform="matrix(0.87, 0.00, -0.00, -0.87, 17.8, 226.6)">A</text><text xml:space="preserve" font-family="AlternateGotNo1D" font-size="30.6" fill="#ABABAB" transform="matrix(0.87, 0.00, -0.00, -0.87, 27.2, 226.6)">R</text><text xml:space="preserve" font-family="AlternateGotNo1D" font-size="30.6" fill="#ABABAB" transform="matrix(0.87, 0.00, -0.00, -0.87, 36.4, 226.6)">C</text><text xml:space="preserve" font-family="AlternateGotNo1D" font-size="30.6" fill="#ABABAB" transform="matrix(0.87, 0.00, -0.00, -0.87, 45.4, 226.6)">H</text><text xml:space="preserve" font-family="AlternateGotNo1D" font-size="30.6" fill="#ABABAB" transform="matrix(0.87, 0.00, -0.00, -0.87, 54.5, 226.6)"> </text><text xml:space="preserve" font-family="AlternateGotNo1D" font-size="30.6" fill="#ABABAB" transform="matrix(0.87, 0.00, -0.00, -0.87, 59.1, 226.6)">F</text><text xml:space="preserve" font-family="AlternateGotNo1D" font-size="30.6" fill="#ABABAB" transform="matrix(0.87, 0.00, -0.00, -0.87, 66.5, 226.6)">O</text><text xml:space="preserve" font-family="AlternateGotNo1D" font-size="30.6" fill="#ABABAB" transform="matrix(0.87, 0.00, -0.00, -0.87, 75.5, 226.6)">R</text><text xml:space="preserve" font-family="AlternateGotNo1D" font-size="30.6" fill="#ABABAB" transform="matrix(0.87, 0.00, -0.00, -0.87, 84.7, 226.6)"> </text><text xml:space="preserve" font-family="AlternateGotNo1D" font-size="30.6" fill="#ABABAB" transform="matrix(0.87, 0.00, -0.00, -0.87, 89.3, 226.6)">C</text><text xml:space="preserve" font-family="AlternateGotNo1D" font-size="30.6" fill="#ABABAB" transform="matrix(0.87, 0.00, -0.00, -0.87, 98.3, 226.6)">A</text><text xml:space="preserve" font-family="AlternateGotNo1D" font-size="30.6" fill="#ABABAB" transform="matrix(0.87, 0.00, -0.00, -0.87, 107.7, 226.6)">N</text><text xml:space="preserve" font-family="AlternateGotNo1D" font-size="30.6" fill="#ABABAB" transform="matrix(0.87, 0.00, -0.00, -0.87, 117.7, 226.6)">D</text><text xml:space="preserve" font-family="AlternateGotNo1D" font-size="30.6" fill="#ABABAB" transform="matrix(0.87, 0.00, -0.00, -0.87, 126.8, 226.6)">I</text><text xml:space="preserve" font-family="AlternateGotNo1D" font-size="30.6" fill="#ABABAB" transform="matrix(0.87, 0.00, -0.00, -0.87, 131.3, 226.6)">D</text><text xml:space="preserve" font-family="AlternateGotNo1D" font-size="30.6" fill="#ABABAB" transform="matrix(0.87, 0.00, -0.00, -0.87, 140.4, 226.6)">A</text><text xml:space="preserve" font-family="AlternateGotNo1D" font-size="30.6" fill="#ABABAB" transform="matrix(0.87, 0.00, -0.00, -0.87, 149.8, 226.6)">T</text><text xml:space="preserve" font-family="AlternateGotNo1D" font-size="30.6" fill="#ABABAB" transform="matrix(0.87, 0.00, -0.00, -0.87, 157.3, 226.6)">E</text><text xml:space="preserve" font-family="AlternateGotNo1D" font-size="30.6" fill="#ABABAB" transform="matrix(0.87, 0.00, -0.00, -0.87, 165.1, 226.6)">S</text></g></g></g></g></g></svg>