<?xml version="1.0" encoding="UTF-8" standalone="no"?><svg xmlns="http://www.w3.org/2000/svg" xmlns:xlink="http://www.w3.org/1999/xlink" clip-rule="evenodd" stroke-miterlimit="4.00" viewBox="0 0 113 16"><desc>SVG generated by Keynote</desc><defs></defs><g transform="matrix(1.00, 0.00, -0.00, -1.00, 0.0, 16.0)"><text xml:space="preserve" font-family="ProximaNova-Regular" font-size="14.0" fill="#000000" transform="matrix(1.00, 0.00, -0.00, -1.00, 1.0, 4.0)">P</text><text xml:space="preserve" font-family="ProximaNova-Regular" font-size="14.0" fill="#000000" transform="matrix(1.00, 0.00, -0.00, -1.00, 9.2, 4.0)">h</text><text xml:space="preserve" font-family="ProximaNova-Regular" font-size="14.0" fill="#000000" transform="matrix(1.00, 0.00, -0.00, -1.00, 16.9, 4.0)">y</text><text xml:space="preserve" font-family="ProximaNova-Regular" font-size="14.0" fill="#000000" transform="matrix(1.00, 0.00, -0.00, -1.00, 23.8, 4.0)">s</text><text xml:space="preserve" font-family="ProximaNova-Regular" font-size="14.0" fill="#000000" transform="matrix(1.00, 0.00, -0.00, -1.00, 30.3, 4.0)">i</text><text xml:space="preserve" font-family="ProximaNova-Regular" font-size="14.0" fill="#000000" transform="matrix(1.00, 0.00, -0.00, -1.00, 33.5, 4.0)">c</text><text xml:space="preserve" font-family="ProximaNova-Regular" font-size="14.0" fill="#000000" transform="matrix(1.00, 0.00, -0.00, -1.00, 40.4, 4.0)">a</text><text xml:space="preserve" font-family="ProximaNova-Regular" font-size="14.0" fill="#000000" transform="matrix(1.00, 0.00, -0.00, -1.00, 47.8, 4.0)">l</text><text xml:space="preserve" font-family="ProximaNova-Regular" font-size="14.0" fill="#000000" transform="matrix(1.00, 0.00, -0.00, -1.00, 50.9, 4.0)"> </text><text xml:space="preserve" font-family="ProximaNova-Regular" font-size="14.0" fill="#000000" transform="matrix(1.00, 0.00, -0.00, -1.00, 54.5, 4.0)">T</text><text xml:space="preserve" font-family="ProximaNova-Regular" font-size="14.0" fill="#000000" transform="matrix(1.00, 0.00, -0.00, -1.00, 62.5, 4.0)">h</text><text xml:space="preserve" font-family="ProximaNova-Regular" font-size="14.0" fill="#000000" transform="matrix(1.00, 0.00, -0.00, -1.00, 70.2, 4.0)">e</text><text xml:space="preserve" font-family="ProximaNova-Regular" font-size="14.0" fill="#000000" transform="matrix(1.00, 0.00, -0.00, -1.00, 78.1, 4.0)">r</text><text xml:space="preserve" font-family="ProximaNova-Regular" font-size="14.0" fill="#000000" transform="matrix(1.00, 0.00, -0.00, -1.00, 82.7, 4.0)">a</text><text xml:space="preserve" font-family="ProximaNova-Regular" font-size="14.0" fill="#000000" transform="matrix(1.00, 0.00, -0.00, -1.00, 90.1, 4.0)">p</text><text xml:space="preserve" font-family="ProximaNova-Regular" font-size="14.0" fill="#000000" transform="matrix(1.00, 0.00, -0.00, -1.00, 98.1, 4.0)">i</text><text xml:space="preserve" font-family="ProximaNova-Regular" font-size="14.0" fill="#000000" transform="matrix(1.00, 0.00, -0.00, -1.00, 101.3, 4.0)">s</text><text xml:space="preserve" font-family="ProximaNova-Regular" font-size="14.0" fill="#000000" transform="matrix(1.00, 0.00, -0.00, -1.00, 107.8, 4.0)">t</text></g></svg>