<?xml version="1.0" encoding="UTF-8" standalone="no"?><svg xmlns="http://www.w3.org/2000/svg" xmlns:xlink="http://www.w3.org/1999/xlink" clip-rule="evenodd" stroke-miterlimit="4.00" viewBox="0 0 259 38"><desc>SVG generated by Keynote</desc><defs></defs><g transform="matrix(1.00, 0.00, -0.00, -1.00, 0.0, 38.0)"><g><clipPath id="clip-6709"><path d="M 1.0 36.0 L 257.8 36.0 L 257.8 -2057.5 L 1.0 -2057.5 Z M 1.0 36.0 "></path></clipPath><g clip-path="url(#clip-6709)"><g><clipPath id="clip-6710"><path d="M 1.0 1.0 L 257.0 1.0 L 257.0 36.0 L 1.0 36.0 Z M 1.0 1.0 "></path></clipPath><g clip-path="url(#clip-6710)"><text xml:space="preserve" font-family="AlternateGotNo1D" font-size="20.4" fill="#FEFFFF" transform="matrix(0.80, 0.00, -0.00, -0.81, 28.3, 12.4)">V</text><text xml:space="preserve" font-family="AlternateGotNo1D" font-size="20.4" fill="#FEFFFF" transform="matrix(0.80, 0.00, -0.00, -0.81, 33.5, 12.4)">I</text><text xml:space="preserve" font-family="AlternateGotNo1D" font-size="20.4" fill="#FEFFFF" transform="matrix(0.80, 0.00, -0.00, -0.81, 36.3, 12.4)">R</text><text xml:space="preserve" font-family="AlternateGotNo1D" font-size="20.4" fill="#FEFFFF" transform="matrix(0.80, 0.00, -0.00, -0.81, 42.0, 12.4)">T</text><text xml:space="preserve" font-family="AlternateGotNo1D" font-size="20.4" fill="#FEFFFF" transform="matrix(0.80, 0.00, -0.00, -0.81, 46.7, 12.4)">U</text><text xml:space="preserve" font-family="AlternateGotNo1D" font-size="20.4" fill="#FEFFFF" transform="matrix(0.80, 0.00, -0.00, -0.81, 52.3, 12.4)">A</text><text xml:space="preserve" font-family="AlternateGotNo1D" font-size="20.4" fill="#FEFFFF" transform="matrix(0.80, 0.00, -0.00, -0.81, 58.0, 12.4)">L</text><text xml:space="preserve" font-family="AlternateGotNo1D" font-size="20.4" fill="#FEFFFF" transform="matrix(0.80, 0.00, -0.00, -0.81, 62.6, 12.4)"> </text><text xml:space="preserve" font-family="AlternateGotNo1D" font-size="20.4" fill="#FEFFFF" transform="matrix(0.80, 0.00, -0.00, -0.81, 65.5, 12.4)">J</text><text xml:space="preserve" font-family="AlternateGotNo1D" font-size="20.4" fill="#FEFFFF" transform="matrix(0.80, 0.00, -0.00, -0.81, 68.8, 12.4)">O</text><text xml:space="preserve" font-family="AlternateGotNo1D" font-size="20.4" fill="#FEFFFF" transform="matrix(0.80, 0.00, -0.00, -0.81, 74.4, 12.4)">B</text><text xml:space="preserve" font-family="AlternateGotNo1D" font-size="20.4" fill="#FEFFFF" transform="matrix(0.80, 0.00, -0.00, -0.81, 80.1, 12.4)"> </text><text xml:space="preserve" font-family="AlternateGotNo1D" font-size="20.4" fill="#FEFFFF" transform="matrix(0.80, 0.00, -0.00, -0.81, 82.9, 12.4)">S</text><text xml:space="preserve" font-family="AlternateGotNo1D" font-size="20.4" fill="#FEFFFF" transform="matrix(0.80, 0.00, -0.00, -0.81, 88.3, 12.4)">C</text><text xml:space="preserve" font-family="AlternateGotNo1D" font-size="20.4" fill="#FEFFFF" transform="matrix(0.80, 0.00, -0.00, -0.81, 93.8, 12.4)">O</text><text xml:space="preserve" font-family="AlternateGotNo1D" font-size="20.4" fill="#FEFFFF" transform="matrix(0.80, 0.00, -0.00, -0.81, 99.4, 12.4)">U</text><text xml:space="preserve" font-family="AlternateGotNo1D" font-size="20.4" fill="#FEFFFF" transform="matrix(0.80, 0.00, -0.00, -0.81, 105.0, 12.4)">T</text></g></g></g></g><g><clipPath id="clip-6711"><path d="M 1.0 36.0 L 257.8 36.0 L 257.8 -2057.5 L 1.0 -2057.5 Z M 1.0 36.0 "></path></clipPath><g clip-path="url(#clip-6711)"><g><clipPath id="clip-6712"><path d="M 1.0 36.0 L 257.0 36.0 L 257.0 1.0 L 1.0 1.0 L 1.0 36.0 Z M 1.0 36.0 "></path></clipPath><g clip-path="url(#clip-6712)"><g><clipPath id="clip-6713"><path d="M 1.0 1.0 L 257.0 1.0 L 257.0 36.0 L 1.0 36.0 Z M 1.0 1.0 "></path></clipPath><g clip-path="url(#clip-6713)"><path d="M -3.0 40.1 L 261.0 40.1 L 261.0 -3.1 L -3.0 -3.1 Z M -3.0 40.1 " fill="#D7D7D7"></path></g></g></g></g></g></g><g><clipPath id="clip-6714"><path d="M 1.0 36.0 L 257.8 36.0 L 257.8 -2057.5 L 1.0 -2057.5 Z M 1.0 36.0 "></path></clipPath><g clip-path="url(#clip-6714)"><g><clipPath id="clip-6715"><path d="M 57.6 20.6 C 57.8 19.8 58.0 19.0 58.0 18.1 C 58.0 13.6 54.4 10.0 50.0 10.0 C 45.5 10.0 41.9 13.6 41.9 18.1 C 41.9 19.0 42.1 19.8 42.3 20.6 L 50.0 12.8 L 57.6 20.6 "></path></clipPath><g clip-path="url(#clip-6715)"><g><clipPath id="clip-6716"><path d="M 1.0 1.0 L 257.0 1.0 L 257.0 36.0 L 1.0 36.0 Z M 1.0 1.0 "></path></clipPath><g clip-path="url(#clip-6716)"><path d="M 37.9 24.7 L 62.0 24.7 L 62.0 5.9 L 37.9 5.9 Z M 37.9 24.7 " fill="#000000"></path></g></g></g></g></g></g><g><clipPath id="clip-6717"><path d="M 1.0 36.0 L 257.8 36.0 L 257.8 -2057.5 L 1.0 -2057.5 Z M 1.0 36.0 "></path></clipPath><g clip-path="url(#clip-6717)"><g><clipPath id="clip-6718"><path d="M 56.1 23.0 L 50.0 16.2 L 43.8 23.0 C 45.2 25.0 47.5 26.2 50.0 26.2 C 52.5 26.2 54.7 25.0 56.1 23.0 "></path></clipPath><g clip-path="url(#clip-6718)"><g><clipPath id="clip-6719"><path d="M 1.0 1.0 L 257.0 1.0 L 257.0 36.0 L 1.0 36.0 Z M 1.0 1.0 "></path></clipPath><g clip-path="url(#clip-6719)"><path d="M 39.8 30.3 L 60.1 30.3 L 60.1 12.1 L 39.8 12.1 Z M 39.8 30.3 " fill="#000000"></path></g></g></g></g></g></g><g><clipPath id="clip-6720"><path d="M 1.0 36.0 L 257.8 36.0 L 257.8 -2057.5 L 1.0 -2057.5 Z M 1.0 36.0 "></path></clipPath><g clip-path="url(#clip-6720)"><g><clipPath id="clip-6721"><path d="M 30.1 14.3 L 11.3 14.3 C 10.9 14.3 10.6 13.7 10.6 13.0 C 10.6 12.2 10.9 11.6 11.3 11.6 L 30.1 11.6 C 30.4 11.6 30.7 12.2 30.7 13.0 C 30.7 13.7 30.4 14.3 30.1 14.3 "></path></clipPath><g clip-path="url(#clip-6721)"><g><clipPath id="clip-6722"><path d="M 1.0 1.0 L 257.0 1.0 L 257.0 36.0 L 1.0 36.0 Z M 1.0 1.0 "></path></clipPath><g clip-path="url(#clip-6722)"><path d="M 6.6 18.4 L 34.7 18.4 L 34.7 7.5 L 6.6 7.5 Z M 6.6 18.4 " fill="#000000"></path></g></g></g></g></g></g><g><clipPath id="clip-6723"><path d="M 1.0 36.0 L 257.8 36.0 L 257.8 -2057.5 L 1.0 -2057.5 Z M 1.0 36.0 "></path></clipPath><g clip-path="url(#clip-6723)"><g><clipPath id="clip-6724"><path d="M 30.1 19.9 L 11.3 19.9 C 10.9 19.9 10.6 19.3 10.6 18.5 C 10.6 17.7 10.9 17.1 11.3 17.1 L 30.1 17.1 C 30.4 17.1 30.7 17.7 30.7 18.5 C 30.7 19.3 30.4 19.9 30.1 19.9 "></path></clipPath><g clip-path="url(#clip-6724)"><g><clipPath id="clip-6725"><path d="M 1.0 1.0 L 257.0 1.0 L 257.0 36.0 L 1.0 36.0 Z M 1.0 1.0 "></path></clipPath><g clip-path="url(#clip-6725)"><path d="M 6.6 24.0 L 34.7 24.0 L 34.7 13.0 L 6.6 13.0 Z M 6.6 24.0 " fill="#000000"></path></g></g></g></g></g></g><g><clipPath id="clip-6726"><path d="M 1.0 36.0 L 257.8 36.0 L 257.8 -2057.5 L 1.0 -2057.5 Z M 1.0 36.0 "></path></clipPath><g clip-path="url(#clip-6726)"><g><clipPath id="clip-6727"><path d="M 30.1 25.4 L 11.3 25.4 C 10.9 25.4 10.6 24.8 10.6 24.0 C 10.6 23.3 10.9 22.7 11.3 22.7 L 30.1 22.7 C 30.4 22.7 30.7 23.3 30.7 24.0 C 30.7 24.8 30.4 25.4 30.1 25.4 "></path></clipPath><g clip-path="url(#clip-6727)"><g><clipPath id="clip-6728"><path d="M 1.0 1.0 L 257.0 1.0 L 257.0 36.0 L 1.0 36.0 Z M 1.0 1.0 "></path></clipPath><g clip-path="url(#clip-6728)"><path d="M 6.6 29.5 L 34.7 29.5 L 34.7 18.6 L 6.6 18.6 Z M 6.6 29.5 " fill="#000000"></path></g></g></g></g></g></g><g><clipPath id="clip-6729"><path d="M 1.0 36.0 L 257.8 36.0 L 257.8 -2057.5 L 1.0 -2057.5 Z M 1.0 36.0 "></path></clipPath><g clip-path="url(#clip-6729)"><g><clipPath id="clip-6730"><path d="M 1.0 1.0 L 257.0 1.0 L 257.0 36.0 L 1.0 36.0 Z M 1.0 1.0 "></path></clipPath><g clip-path="url(#clip-6730)"><text xml:space="preserve" font-family="ProximaNova-Bold" font-weight="bold" font-size="14.0" fill="#FEFFFF" transform="matrix(0.80, 0.00, -0.00, -0.81, 186.1, 14.0)">L</text><text xml:space="preserve" font-family="ProximaNova-Bold" font-weight="bold" font-size="14.0" fill="#FEFFFF" transform="matrix(0.80, 0.00, -0.00, -0.81, 192.0, 14.0)">I</text><text xml:space="preserve" font-family="ProximaNova-Bold" font-weight="bold" font-size="14.0" fill="#FEFFFF" transform="matrix(0.80, 0.00, -0.00, -0.81, 195.1, 14.0)">V</text><text xml:space="preserve" font-family="ProximaNova-Bold" font-weight="bold" font-size="14.0" fill="#FEFFFF" transform="matrix(0.80, 0.00, -0.00, -0.81, 202.8, 14.0)">E</text><text xml:space="preserve" font-family="ProximaNova-Bold" font-weight="bold" font-size="14.0" fill="#FEFFFF" transform="matrix(0.80, 0.00, -0.00, -0.81, 209.3, 14.0)"> </text><text xml:space="preserve" font-family="ProximaNova-Bold" font-weight="bold" font-size="14.0" fill="#FEFFFF" transform="matrix(0.80, 0.00, -0.00, -0.81, 212.2, 14.0)">E</text><text xml:space="preserve" font-family="ProximaNova-Bold" font-weight="bold" font-size="14.0" fill="#FEFFFF" transform="matrix(0.80, 0.00, -0.00, -0.81, 218.7, 14.0)">V</text><text xml:space="preserve" font-family="ProximaNova-Bold" font-weight="bold" font-size="14.0" fill="#FEFFFF" transform="matrix(0.80, 0.00, -0.00, -0.81, 226.4, 14.0)">E</text><text xml:space="preserve" font-family="ProximaNova-Bold" font-weight="bold" font-size="14.0" fill="#FEFFFF" transform="matrix(0.80, 0.00, -0.00, -0.81, 233.0, 14.0)">N</text><text xml:space="preserve" font-family="ProximaNova-Bold" font-weight="bold" font-size="14.0" fill="#FEFFFF" transform="matrix(0.80, 0.00, -0.00, -0.81, 241.2, 14.0)">T</text></g></g></g></g><g><clipPath id="clip-6731"><path d="M 1.0 36.0 L 257.8 36.0 L 257.8 -2057.5 L 1.0 -2057.5 Z M 1.0 36.0 "></path></clipPath><g clip-path="url(#clip-6731)"><g><clipPath id="clip-6732"><path d="M 173.3 11.6 C 176.8 11.6 179.7 14.5 179.7 18.1 C 179.7 21.7 176.8 24.6 173.3 24.6 C 169.7 24.6 166.9 21.7 166.9 18.1 C 166.9 14.5 169.7 11.6 173.3 11.6 Z M 173.3 11.6 "></path></clipPath><g clip-path="url(#clip-6732)"><g><clipPath id="clip-6733"><path d="M 1.0 1.0 L 257.0 1.0 L 257.0 36.0 L 1.0 36.0 Z M 1.0 1.0 "></path></clipPath><g clip-path="url(#clip-6733)"><path d="M 162.8 28.7 L 183.7 28.7 L 183.7 7.5 L 162.8 7.5 Z M 162.8 28.7 " fill="#5DC69D"></path></g></g></g></g></g></g></g></svg>