<?xml version="1.0" encoding="UTF-8" standalone="no"?><svg xmlns="http://www.w3.org/2000/svg" xmlns:xlink="http://www.w3.org/1999/xlink" clip-rule="evenodd" stroke-miterlimit="4.00" viewBox="0 0 710 531"><desc>SVG generated by Keynote</desc><defs></defs><g transform="matrix(1.00, 0.00, -0.00, -1.00, 0.0, 531.0)"><g><clipPath id="clip-1957"><path d="M 2.0 814.5 L 708.0 814.5 L 708.0 -677.9 L 2.0 -677.9 Z M 2.0 814.5 "></path></clipPath><g clip-path="url(#clip-1957)"><g><clipPath id="clip-1958"><path d="M 2.0 530.0 L 708.0 530.0 L 708.0 288.3 L 2.0 288.3 L 2.0 530.0 Z M 2.0 530.0 "></path></clipPath><g clip-path="url(#clip-1958)"><g><clipPath id="clip-1959"><path d="M 2.0 1.0 L 708.0 1.0 L 708.0 530.0 L 2.0 530.0 Z M 2.0 1.0 "></path></clipPath><g clip-path="url(#clip-1959)"><path d="M -1.4 533.5 L 711.4 533.5 L 711.4 284.8 L -1.4 284.8 Z M -1.4 533.5 " fill="#F6F6F6"></path></g></g></g></g></g></g><g><clipPath id="clip-1960"><path d="M 2.0 814.5 L 708.0 814.5 L 708.0 -677.9 L 2.0 -677.9 Z M 2.0 814.5 "></path></clipPath><g clip-path="url(#clip-1960)"><g><clipPath id="clip-1961"><path d="M 2.0 1.0 L 708.0 1.0 L 708.0 530.0 L 2.0 530.0 Z M 2.0 1.0 "></path></clipPath><g clip-path="url(#clip-1961)"><text xml:space="preserve" font-family="ProximaNova-Light" font-size="36.0" fill="#5C5C5C" transform="matrix(0.69, 0.00, -0.00, -0.69, 79.2, 452.7)">T</text><text xml:space="preserve" font-family="ProximaNova-Light" font-size="36.0" fill="#5C5C5C" transform="matrix(0.69, 0.00, -0.00, -0.69, 93.2, 452.7)">h</text><text xml:space="preserve" font-family="ProximaNova-Light" font-size="36.0" fill="#5C5C5C" transform="matrix(0.69, 0.00, -0.00, -0.69, 106.6, 452.7)">e</text><text xml:space="preserve" font-family="ProximaNova-Light" font-size="36.0" fill="#5C5C5C" transform="matrix(0.69, 0.00, -0.00, -0.69, 120.7, 452.7)"> </text><text xml:space="preserve" font-family="ProximaNova-Light" font-size="36.0" fill="#5C5C5C" transform="matrix(0.69, 0.00, -0.00, -0.69, 127.1, 452.7)">n</text><text xml:space="preserve" font-family="ProximaNova-Light" font-size="36.0" fill="#5C5C5C" transform="matrix(0.69, 0.00, -0.00, -0.69, 140.5, 452.7)">e</text><text xml:space="preserve" font-family="ProximaNova-Light" font-size="36.0" fill="#5C5C5C" transform="matrix(0.69, 0.00, -0.00, -0.69, 154.6, 452.7)">x</text><text xml:space="preserve" font-family="ProximaNova-Light" font-size="36.0" fill="#5C5C5C" transform="matrix(0.69, 0.00, -0.00, -0.69, 166.5, 452.7)">t</text><text xml:space="preserve" font-family="ProximaNova-Light" font-size="36.0" fill="#5C5C5C" transform="matrix(0.69, 0.00, -0.00, -0.69, 173.3, 452.7)"> </text><text xml:space="preserve" font-family="ProximaNova-Light" font-size="36.0" fill="#5C5C5C" transform="matrix(0.69, 0.00, -0.00, -0.69, 179.7, 452.7)">V</text><text xml:space="preserve" font-family="ProximaNova-Light" font-size="36.0" fill="#5C5C5C" transform="matrix(0.69, 0.00, -0.00, -0.69, 195.8, 452.7)">i</text><text xml:space="preserve" font-family="ProximaNova-Light" font-size="36.0" fill="#5C5C5C" transform="matrix(0.69, 0.00, -0.00, -0.69, 201.1, 452.7)">r</text><text xml:space="preserve" font-family="ProximaNova-Light" font-size="36.0" fill="#5C5C5C" transform="matrix(0.69, 0.00, -0.00, -0.69, 209.0, 452.7)">t</text><text xml:space="preserve" font-family="ProximaNova-Light" font-size="36.0" fill="#5C5C5C" transform="matrix(0.69, 0.00, -0.00, -0.69, 215.8, 452.7)">u</text><text xml:space="preserve" font-family="ProximaNova-Light" font-size="36.0" fill="#5C5C5C" transform="matrix(0.69, 0.00, -0.00, -0.69, 229.2, 452.7)">a</text><text xml:space="preserve" font-family="ProximaNova-Light" font-size="36.0" fill="#5C5C5C" transform="matrix(0.69, 0.00, -0.00, -0.69, 242.1, 452.7)">l</text><text xml:space="preserve" font-family="ProximaNova-Light" font-size="36.0" fill="#5C5C5C" transform="matrix(0.69, 0.00, -0.00, -0.69, 247.5, 452.7)"> </text><text xml:space="preserve" font-family="ProximaNova-Light" font-size="36.0" fill="#5C5C5C" transform="matrix(0.69, 0.00, -0.00, -0.69, 253.9, 452.7)">J</text><text xml:space="preserve" font-family="ProximaNova-Light" font-size="36.0" fill="#5C5C5C" transform="matrix(0.69, 0.00, -0.00, -0.69, 265.5, 452.7)">o</text><text xml:space="preserve" font-family="ProximaNova-Light" font-size="36.0" fill="#5C5C5C" transform="matrix(0.69, 0.00, -0.00, -0.69, 279.7, 452.7)">b</text><text xml:space="preserve" font-family="ProximaNova-Light" font-size="36.0" fill="#5C5C5C" transform="matrix(0.69, 0.00, -0.00, -0.69, 293.9, 452.7)"> </text><text xml:space="preserve" font-family="ProximaNova-Light" font-size="36.0" fill="#5C5C5C" transform="matrix(0.69, 0.00, -0.00, -0.69, 300.3, 452.7)">F</text><text xml:space="preserve" font-family="ProximaNova-Light" font-size="36.0" fill="#5C5C5C" transform="matrix(0.69, 0.00, -0.00, -0.69, 313.8, 452.7)">a</text><text xml:space="preserve" font-family="ProximaNova-Light" font-size="36.0" fill="#5C5C5C" transform="matrix(0.69, 0.00, -0.00, -0.69, 326.7, 452.7)">i</text><text xml:space="preserve" font-family="ProximaNova-Light" font-size="36.0" fill="#5C5C5C" transform="matrix(0.69, 0.00, -0.00, -0.69, 332.0, 452.7)">r</text><text xml:space="preserve" font-family="ProximaNova-Light" font-size="36.0" fill="#5C5C5C" transform="matrix(0.69, 0.00, -0.00, -0.69, 339.9, 452.7)"> </text><text xml:space="preserve" font-family="ProximaNova-Light" font-size="36.0" fill="#5C5C5C" transform="matrix(0.69, 0.00, -0.00, -0.69, 346.3, 452.7)">i</text><text xml:space="preserve" font-family="ProximaNova-Light" font-size="36.0" fill="#5C5C5C" transform="matrix(0.69, 0.00, -0.00, -0.69, 351.6, 452.7)">s</text><text xml:space="preserve" font-family="ProximaNova-Light" font-size="36.0" fill="#5C5C5C" transform="matrix(0.69, 0.00, -0.00, -0.69, 363.0, 452.7)"> </text><text xml:space="preserve" font-family="ProximaNova-Bold" font-weight="bold" font-size="36.0" fill="#5C5C5C" transform="matrix(0.69, 0.00, -0.00, -0.69, 369.4, 452.7)">S</text><text xml:space="preserve" font-family="ProximaNova-Bold" font-weight="bold" font-size="36.0" fill="#5C5C5C" transform="matrix(0.69, 0.00, -0.00, -0.69, 384.3, 452.7)">E</text><text xml:space="preserve" font-family="ProximaNova-Bold" font-weight="bold" font-size="36.0" fill="#5C5C5C" transform="matrix(0.69, 0.00, -0.00, -0.69, 398.8, 452.7)">P</text><text xml:space="preserve" font-family="ProximaNova-Bold" font-weight="bold" font-size="36.0" fill="#5C5C5C" transform="matrix(0.69, 0.00, -0.00, -0.69, 414.3, 452.7)">T</text><text xml:space="preserve" font-family="ProximaNova-Bold" font-weight="bold" font-size="36.0" fill="#5C5C5C" transform="matrix(0.69, 0.00, -0.00, -0.69, 428.7, 452.7)">E</text><text xml:space="preserve" font-family="ProximaNova-Bold" font-weight="bold" font-size="36.0" fill="#5C5C5C" transform="matrix(0.69, 0.00, -0.00, -0.69, 443.2, 452.7)">M</text><text xml:space="preserve" font-family="ProximaNova-Bold" font-weight="bold" font-size="36.0" fill="#5C5C5C" transform="matrix(0.69, 0.00, -0.00, -0.69, 464.4, 452.7)">B</text><text xml:space="preserve" font-family="ProximaNova-Bold" font-weight="bold" font-size="36.0" fill="#5C5C5C" transform="matrix(0.69, 0.00, -0.00, -0.69, 480.9, 452.7)">E</text><text xml:space="preserve" font-family="ProximaNova-Bold" font-weight="bold" font-size="36.0" fill="#5C5C5C" transform="matrix(0.69, 0.00, -0.00, -0.69, 495.4, 452.7)">R</text><text xml:space="preserve" font-family="ProximaNova-Bold" font-weight="bold" font-size="36.0" fill="#5C5C5C" transform="matrix(0.69, 0.00, -0.00, -0.69, 511.3, 452.7)"> </text><text xml:space="preserve" font-family="ProximaNova-Bold" font-weight="bold" font-size="36.0" fill="#5C5C5C" transform="matrix(0.69, 0.00, -0.00, -0.69, 517.7, 452.7)">1</text><text xml:space="preserve" font-family="ProximaNova-Bold" font-weight="bold" font-size="36.0" fill="#5C5C5C" transform="matrix(0.69, 0.00, -0.00, -0.69, 527.9, 452.7)">0</text><text xml:space="preserve" font-family="ProximaNova-Bold" font-weight="bold" font-size="36.0" fill="#5C5C5C" transform="matrix(0.69, 0.00, -0.00, -0.69, 542.7, 452.7)">,</text><text xml:space="preserve" font-family="ProximaNova-Bold" font-weight="bold" font-size="36.0" fill="#5C5C5C" transform="matrix(0.69, 0.00, -0.00, -0.69, 549.1, 452.7)"> </text><text xml:space="preserve" font-family="ProximaNova-Bold" font-weight="bold" font-size="36.0" fill="#5C5C5C" transform="matrix(0.69, 0.00, -0.00, -0.69, 555.4, 452.7)">2</text><text xml:space="preserve" font-family="ProximaNova-Bold" font-weight="bold" font-size="36.0" fill="#5C5C5C" transform="matrix(0.69, 0.00, -0.00, -0.69, 570.3, 452.7)">0</text><text xml:space="preserve" font-family="ProximaNova-Bold" font-weight="bold" font-size="36.0" fill="#5C5C5C" transform="matrix(0.69, 0.00, -0.00, -0.69, 585.7, 452.7)">1</text><text xml:space="preserve" font-family="ProximaNova-Bold" font-weight="bold" font-size="36.0" fill="#5C5C5C" transform="matrix(0.69, 0.00, -0.00, -0.69, 595.9, 452.7)">5</text><text xml:space="preserve" font-family="ProximaNova-Bold" font-weight="bold" font-size="36.0" fill="#5C5C5C" transform="matrix(0.69, 0.00, -0.00, -0.69, 611.0, 452.7)">.</text><text xml:space="preserve" font-family="ProximaNova-Bold" font-weight="bold" font-size="20.0" fill="#5C5C5C" transform="matrix(0.69, 0.00, -0.00, -0.69, 79.2, 397.4)">R</text><text xml:space="preserve" font-family="ProximaNova-Bold" font-weight="bold" font-size="20.0" fill="#5C5C5C" transform="matrix(0.69, 0.00, -0.00, -0.69, 87.7, 397.4)">e</text><text xml:space="preserve" font-family="ProximaNova-Bold" font-weight="bold" font-size="20.0" fill="#5C5C5C" transform="matrix(0.69, 0.00, -0.00, -0.69, 95.3, 397.4)">c</text><text xml:space="preserve" font-family="ProximaNova-Bold" font-weight="bold" font-size="20.0" fill="#5C5C5C" transform="matrix(0.69, 0.00, -0.00, -0.69, 102.2, 397.4)">e</text><text xml:space="preserve" font-family="ProximaNova-Bold" font-weight="bold" font-size="20.0" fill="#5C5C5C" transform="matrix(0.69, 0.00, -0.00, -0.69, 109.8, 397.4)">i</text><text xml:space="preserve" font-family="ProximaNova-Bold" font-weight="bold" font-size="20.0" fill="#5C5C5C" transform="matrix(0.69, 0.00, -0.00, -0.69, 113.3, 397.4)">v</text><text xml:space="preserve" font-family="ProximaNova-Bold" font-weight="bold" font-size="20.0" fill="#5C5C5C" transform="matrix(0.69, 0.00, -0.00, -0.69, 120.4, 397.4)">e</text><text xml:space="preserve" font-family="ProximaNova-Bold" font-weight="bold" font-size="20.0" fill="#5C5C5C" transform="matrix(0.69, 0.00, -0.00, -0.69, 128.0, 397.4)"> </text><text xml:space="preserve" font-family="ProximaNova-Bold" font-weight="bold" font-size="20.0" fill="#5C5C5C" transform="matrix(0.69, 0.00, -0.00, -0.69, 131.5, 397.4)">a</text><text xml:space="preserve" font-family="ProximaNova-Bold" font-weight="bold" font-size="20.0" fill="#5C5C5C" transform="matrix(0.69, 0.00, -0.00, -0.69, 139.0, 397.4)"> </text><text xml:space="preserve" font-family="ProximaNova-Bold" font-weight="bold" font-size="20.0" fill="#5C5C5C" transform="matrix(0.69, 0.00, -0.00, -0.69, 142.5, 397.4)">r</text><text xml:space="preserve" font-family="ProximaNova-Bold" font-weight="bold" font-size="20.0" fill="#5C5C5C" transform="matrix(0.69, 0.00, -0.00, -0.69, 147.5, 397.4)">e</text><text xml:space="preserve" font-family="ProximaNova-Bold" font-weight="bold" font-size="20.0" fill="#5C5C5C" transform="matrix(0.69, 0.00, -0.00, -0.69, 155.1, 397.4)">m</text><text xml:space="preserve" font-family="ProximaNova-Bold" font-weight="bold" font-size="20.0" fill="#5C5C5C" transform="matrix(0.69, 0.00, -0.00, -0.69, 166.9, 397.4)">i</text><text xml:space="preserve" font-family="ProximaNova-Bold" font-weight="bold" font-size="20.0" fill="#5C5C5C" transform="matrix(0.69, 0.00, -0.00, -0.69, 170.4, 397.4)">n</text><text xml:space="preserve" font-family="ProximaNova-Bold" font-weight="bold" font-size="20.0" fill="#5C5C5C" transform="matrix(0.69, 0.00, -0.00, -0.69, 178.3, 397.4)">d</text><text xml:space="preserve" font-family="ProximaNova-Bold" font-weight="bold" font-size="20.0" fill="#5C5C5C" transform="matrix(0.69, 0.00, -0.00, -0.69, 186.4, 397.4)">e</text><text xml:space="preserve" font-family="ProximaNova-Bold" font-weight="bold" font-size="20.0" fill="#5C5C5C" transform="matrix(0.69, 0.00, -0.00, -0.69, 194.1, 397.4)">r</text><text xml:space="preserve" font-family="ProximaNova-Bold" font-weight="bold" font-size="20.0" fill="#5C5C5C" transform="matrix(0.69, 0.00, -0.00, -0.69, 199.0, 397.4)"> </text><text xml:space="preserve" font-family="ProximaNova-Bold" font-weight="bold" font-size="20.0" fill="#5C5C5C" transform="matrix(0.69, 0.00, -0.00, -0.69, 202.5, 397.4)">a</text><text xml:space="preserve" font-family="ProximaNova-Bold" font-weight="bold" font-size="20.0" fill="#5C5C5C" transform="matrix(0.69, 0.00, -0.00, -0.69, 210.0, 397.4)">b</text><text xml:space="preserve" font-family="ProximaNova-Bold" font-weight="bold" font-size="20.0" fill="#5C5C5C" transform="matrix(0.69, 0.00, -0.00, -0.69, 218.1, 397.4)">o</text><text xml:space="preserve" font-family="ProximaNova-Bold" font-weight="bold" font-size="20.0" fill="#5C5C5C" transform="matrix(0.69, 0.00, -0.00, -0.69, 226.0, 397.4)">u</text><text xml:space="preserve" font-family="ProximaNova-Bold" font-weight="bold" font-size="20.0" fill="#5C5C5C" transform="matrix(0.69, 0.00, -0.00, -0.69, 234.0, 397.4)">t</text><text xml:space="preserve" font-family="ProximaNova-Bold" font-weight="bold" font-size="20.0" fill="#5C5C5C" transform="matrix(0.69, 0.00, -0.00, -0.69, 238.7, 397.4)"> </text><text xml:space="preserve" font-family="ProximaNova-Bold" font-weight="bold" font-size="20.0" fill="#5C5C5C" transform="matrix(0.69, 0.00, -0.00, -0.69, 242.2, 397.4)">u</text><text xml:space="preserve" font-family="ProximaNova-Bold" font-weight="bold" font-size="20.0" fill="#5C5C5C" transform="matrix(0.69, 0.00, -0.00, -0.69, 250.2, 397.4)">p</text><text xml:space="preserve" font-family="ProximaNova-Bold" font-weight="bold" font-size="20.0" fill="#5C5C5C" transform="matrix(0.69, 0.00, -0.00, -0.69, 258.2, 397.4)">c</text><text xml:space="preserve" font-family="ProximaNova-Bold" font-weight="bold" font-size="20.0" fill="#5C5C5C" transform="matrix(0.69, 0.00, -0.00, -0.69, 265.1, 397.4)">o</text><text xml:space="preserve" font-family="ProximaNova-Bold" font-weight="bold" font-size="20.0" fill="#5C5C5C" transform="matrix(0.69, 0.00, -0.00, -0.69, 273.0, 397.4)">m</text><text xml:space="preserve" font-family="ProximaNova-Bold" font-weight="bold" font-size="20.0" fill="#5C5C5C" transform="matrix(0.69, 0.00, -0.00, -0.69, 284.8, 397.4)">i</text><text xml:space="preserve" font-family="ProximaNova-Bold" font-weight="bold" font-size="20.0" fill="#5C5C5C" transform="matrix(0.69, 0.00, -0.00, -0.69, 288.3, 397.4)">n</text><text xml:space="preserve" font-family="ProximaNova-Bold" font-weight="bold" font-size="20.0" fill="#5C5C5C" transform="matrix(0.69, 0.00, -0.00, -0.69, 296.2, 397.4)">g</text><text xml:space="preserve" font-family="ProximaNova-Bold" font-weight="bold" font-size="20.0" fill="#5C5C5C" transform="matrix(0.69, 0.00, -0.00, -0.69, 304.3, 397.4)"> </text><text xml:space="preserve" font-family="ProximaNova-Bold" font-weight="bold" font-size="20.0" fill="#5C5C5C" transform="matrix(0.69, 0.00, -0.00, -0.69, 307.8, 397.4)">e</text><text xml:space="preserve" font-family="ProximaNova-Bold" font-weight="bold" font-size="20.0" fill="#5C5C5C" transform="matrix(0.69, 0.00, -0.00, -0.69, 315.5, 397.4)">v</text><text xml:space="preserve" font-family="ProximaNova-Bold" font-weight="bold" font-size="20.0" fill="#5C5C5C" transform="matrix(0.69, 0.00, -0.00, -0.69, 322.5, 397.4)">e</text><text xml:space="preserve" font-family="ProximaNova-Bold" font-weight="bold" font-size="20.0" fill="#5C5C5C" transform="matrix(0.69, 0.00, -0.00, -0.69, 330.2, 397.4)">n</text><text xml:space="preserve" font-family="ProximaNova-Bold" font-weight="bold" font-size="20.0" fill="#5C5C5C" transform="matrix(0.69, 0.00, -0.00, -0.69, 338.1, 397.4)">t</text><text xml:space="preserve" font-family="ProximaNova-Bold" font-weight="bold" font-size="20.0" fill="#5C5C5C" transform="matrix(0.69, 0.00, -0.00, -0.69, 342.8, 397.4)">s</text><text xml:space="preserve" font-family="ProximaNova-Bold" font-weight="bold" font-size="20.0" fill="#5C5C5C" transform="matrix(0.69, 0.00, -0.00, -0.69, 349.4, 397.4)">.</text></g></g></g></g><g><clipPath id="clip-1962"><path d="M 2.0 814.5 L 708.0 814.5 L 708.0 -677.9 L 2.0 -677.9 Z M 2.0 814.5 "></path></clipPath><g clip-path="url(#clip-1962)"><g><clipPath id="clip-1963"><path d="M 79.2 384.3 L 486.0 384.3 L 486.0 353.2 L 79.2 353.2 L 79.2 384.3 Z M 79.2 384.3 "></path></clipPath><g clip-path="url(#clip-1963)"><g><clipPath id="clip-1964"><path d="M 2.0 1.0 L 708.0 1.0 L 708.0 530.0 L 2.0 530.0 Z M 2.0 1.0 "></path></clipPath><g clip-path="url(#clip-1964)"><path d="M 75.8 387.7 L 489.4 387.7 L 489.4 349.8 L 75.8 349.8 Z M 75.8 387.7 " fill="#FFFFFF"></path></g></g></g></g></g></g><g><clipPath id="clip-1965"><path d="M 2.0 814.5 L 708.0 814.5 L 708.0 -677.9 L 2.0 -677.9 Z M 2.0 814.5 "></path></clipPath><g clip-path="url(#clip-1965)"><g><clipPath id="clip-1966"><path d="M 492.9 384.3 L 630.8 384.3 L 630.8 353.2 L 492.9 353.2 L 492.9 384.3 Z M 492.9 384.3 "></path></clipPath><g clip-path="url(#clip-1966)"><g><clipPath id="clip-1967"><path d="M 2.0 1.0 L 708.0 1.0 L 708.0 530.0 L 2.0 530.0 Z M 2.0 1.0 "></path></clipPath><g clip-path="url(#clip-1967)"><path d="M 489.4 387.7 L 634.2 387.7 L 634.2 349.8 L 489.4 349.8 Z M 489.4 387.7 " fill="#5DC69C"></path></g></g></g></g></g></g><g><clipPath id="clip-1968"><path d="M 2.0 814.5 L 708.0 814.5 L 708.0 -677.9 L 2.0 -677.9 Z M 2.0 814.5 "></path></clipPath><g clip-path="url(#clip-1968)"><g><clipPath id="clip-1969"><path d="M 83.4 63.2 L 221.2 63.2 L 221.2 32.1 L 83.4 32.1 L 83.4 63.2 Z M 83.4 63.2 "></path></clipPath><g clip-path="url(#clip-1969)"><g><clipPath id="clip-1970"><path d="M 2.0 1.0 L 708.0 1.0 L 708.0 530.0 L 2.0 530.0 Z M 2.0 1.0 "></path></clipPath><g clip-path="url(#clip-1970)"><path d="M 79.9 66.6 L 224.7 66.6 L 224.7 28.6 L 79.9 28.6 Z M 79.9 66.6 " fill="#5DC69C"></path></g></g></g></g></g></g><g><clipPath id="clip-1971"><path d="M 2.0 814.5 L 708.0 814.5 L 708.0 -677.9 L 2.0 -677.9 Z M 2.0 814.5 "></path></clipPath><g clip-path="url(#clip-1971)"><g><clipPath id="clip-1972"><path d="M 2.0 1.0 L 708.0 1.0 L 708.0 530.0 L 2.0 530.0 Z M 2.0 1.0 "></path></clipPath><g clip-path="url(#clip-1972)"><text xml:space="preserve" font-family="ProximaNova-Light" font-size="20.0" fill="#5C5C5C" transform="matrix(0.69, 0.00, -0.00, -0.69, 89.6, 364.3)">E</text><text xml:space="preserve" font-family="ProximaNova-Light" font-size="20.0" fill="#5C5C5C" transform="matrix(0.69, 0.00, -0.00, -0.69, 97.3, 364.3)">m</text><text xml:space="preserve" font-family="ProximaNova-Light" font-size="20.0" fill="#5C5C5C" transform="matrix(0.69, 0.00, -0.00, -0.69, 108.2, 364.3)">a</text><text xml:space="preserve" font-family="ProximaNova-Light" font-size="20.0" fill="#5C5C5C" transform="matrix(0.69, 0.00, -0.00, -0.69, 115.4, 364.3)">i</text><text xml:space="preserve" font-family="ProximaNova-Light" font-size="20.0" fill="#5C5C5C" transform="matrix(0.69, 0.00, -0.00, -0.69, 118.4, 364.3)">l</text><text xml:space="preserve" font-family="ProximaNova-Light" font-size="20.0" fill="#5C5C5C" transform="matrix(0.69, 0.00, -0.00, -0.69, 121.3, 364.3)"> </text><text xml:space="preserve" font-family="ProximaNova-Light" font-size="20.0" fill="#5C5C5C" transform="matrix(0.69, 0.00, -0.00, -0.69, 124.9, 364.3)">a</text><text xml:space="preserve" font-family="ProximaNova-Light" font-size="20.0" fill="#5C5C5C" transform="matrix(0.69, 0.00, -0.00, -0.69, 132.1, 364.3)">d</text><text xml:space="preserve" font-family="ProximaNova-Light" font-size="20.0" fill="#5C5C5C" transform="matrix(0.69, 0.00, -0.00, -0.69, 139.9, 364.3)">d</text><text xml:space="preserve" font-family="ProximaNova-Light" font-size="20.0" fill="#5C5C5C" transform="matrix(0.69, 0.00, -0.00, -0.69, 147.8, 364.3)">r</text><text xml:space="preserve" font-family="ProximaNova-Light" font-size="20.0" fill="#5C5C5C" transform="matrix(0.69, 0.00, -0.00, -0.69, 152.2, 364.3)">e</text><text xml:space="preserve" font-family="ProximaNova-Light" font-size="20.0" fill="#5C5C5C" transform="matrix(0.69, 0.00, -0.00, -0.69, 160.0, 364.3)">s</text><text xml:space="preserve" font-family="ProximaNova-Light" font-size="20.0" fill="#5C5C5C" transform="matrix(0.69, 0.00, -0.00, -0.69, 166.3, 364.3)">s</text><text xml:space="preserve" font-family="ProximaNova-Light" font-size="20.0" fill="#FEFFFF" transform="matrix(0.69, 0.00, -0.00, -0.69, 528.3, 364.3)">R</text><text xml:space="preserve" font-family="ProximaNova-Light" font-size="20.0" fill="#FEFFFF" transform="matrix(0.69, 0.00, -0.00, -0.69, 536.1, 364.3)">e</text><text xml:space="preserve" font-family="ProximaNova-Light" font-size="20.0" fill="#FEFFFF" transform="matrix(0.69, 0.00, -0.00, -0.69, 543.9, 364.3)">m</text><text xml:space="preserve" font-family="ProximaNova-Light" font-size="20.0" fill="#FEFFFF" transform="matrix(0.69, 0.00, -0.00, -0.69, 554.8, 364.3)">i</text><text xml:space="preserve" font-family="ProximaNova-Light" font-size="20.0" fill="#FEFFFF" transform="matrix(0.69, 0.00, -0.00, -0.69, 557.7, 364.3)">n</text><text xml:space="preserve" font-family="ProximaNova-Light" font-size="20.0" fill="#FEFFFF" transform="matrix(0.69, 0.00, -0.00, -0.69, 565.2, 364.3)">d</text><text xml:space="preserve" font-family="ProximaNova-Light" font-size="20.0" fill="#FEFFFF" transform="matrix(0.69, 0.00, -0.00, -0.69, 573.1, 364.3)"> </text><text xml:space="preserve" font-family="ProximaNova-Light" font-size="20.0" fill="#FEFFFF" transform="matrix(0.69, 0.00, -0.00, -0.69, 576.6, 364.3)">M</text><text xml:space="preserve" font-family="ProximaNova-Light" font-size="20.0" fill="#FEFFFF" transform="matrix(0.69, 0.00, -0.00, -0.69, 587.5, 364.3)">e</text><text xml:space="preserve" font-family="ProximaNova-Light" font-size="20.0" fill="#FEFFFF" transform="matrix(0.69, 0.00, -0.00, -0.69, 129.7, 43.1)">E</text><text xml:space="preserve" font-family="ProximaNova-Light" font-size="20.0" fill="#FEFFFF" transform="matrix(0.69, 0.00, -0.00, -0.69, 137.5, 43.1)">x</text><text xml:space="preserve" font-family="ProximaNova-Light" font-size="20.0" fill="#FEFFFF" transform="matrix(0.69, 0.00, -0.00, -0.69, 144.1, 43.1)">p</text><text xml:space="preserve" font-family="ProximaNova-Light" font-size="20.0" fill="#FEFFFF" transform="matrix(0.69, 0.00, -0.00, -0.69, 151.9, 43.1)">l</text><text xml:space="preserve" font-family="ProximaNova-Light" font-size="20.0" fill="#FEFFFF" transform="matrix(0.69, 0.00, -0.00, -0.69, 154.8, 43.1)">o</text><text xml:space="preserve" font-family="ProximaNova-Light" font-size="20.0" fill="#FEFFFF" transform="matrix(0.69, 0.00, -0.00, -0.69, 162.7, 43.1)">r</text><text xml:space="preserve" font-family="ProximaNova-Light" font-size="20.0" fill="#FEFFFF" transform="matrix(0.69, 0.00, -0.00, -0.69, 167.1, 43.1)">e</text><text xml:space="preserve" font-family="ProximaNova-Bold" font-weight="bold" font-size="20.0" fill="#5C5C5C" transform="matrix(0.69, 0.00, -0.00, -0.69, 83.4, 170.2)">V</text><text xml:space="preserve" font-family="ProximaNova-Bold" font-weight="bold" font-size="20.0" fill="#5C5C5C" transform="matrix(0.69, 0.00, -0.00, -0.69, 92.8, 170.2)">i</text><text xml:space="preserve" font-family="ProximaNova-Bold" font-weight="bold" font-size="20.0" fill="#5C5C5C" transform="matrix(0.69, 0.00, -0.00, -0.69, 96.3, 170.2)">r</text><text xml:space="preserve" font-family="ProximaNova-Bold" font-weight="bold" font-size="20.0" fill="#5C5C5C" transform="matrix(0.69, 0.00, -0.00, -0.69, 101.2, 170.2)">t</text><text xml:space="preserve" font-family="ProximaNova-Bold" font-weight="bold" font-size="20.0" fill="#5C5C5C" transform="matrix(0.69, 0.00, -0.00, -0.69, 105.9, 170.2)">u</text><text xml:space="preserve" font-family="ProximaNova-Bold" font-weight="bold" font-size="20.0" fill="#5C5C5C" transform="matrix(0.69, 0.00, -0.00, -0.69, 113.9, 170.2)">a</text><text xml:space="preserve" font-family="ProximaNova-Bold" font-weight="bold" font-size="20.0" fill="#5C5C5C" transform="matrix(0.69, 0.00, -0.00, -0.69, 121.4, 170.2)">l</text><text xml:space="preserve" font-family="ProximaNova-Bold" font-weight="bold" font-size="20.0" fill="#5C5C5C" transform="matrix(0.69, 0.00, -0.00, -0.69, 124.9, 170.2)"> </text><text xml:space="preserve" font-family="ProximaNova-Bold" font-weight="bold" font-size="20.0" fill="#5C5C5C" transform="matrix(0.69, 0.00, -0.00, -0.69, 128.4, 170.2)">J</text><text xml:space="preserve" font-family="ProximaNova-Bold" font-weight="bold" font-size="20.0" fill="#5C5C5C" transform="matrix(0.69, 0.00, -0.00, -0.69, 135.1, 170.2)">o</text><text xml:space="preserve" font-family="ProximaNova-Bold" font-weight="bold" font-size="20.0" fill="#5C5C5C" transform="matrix(0.69, 0.00, -0.00, -0.69, 143.0, 170.2)">b</text><text xml:space="preserve" font-family="ProximaNova-Bold" font-weight="bold" font-size="20.0" fill="#5C5C5C" transform="matrix(0.69, 0.00, -0.00, -0.69, 151.1, 170.2)"> </text><text xml:space="preserve" font-family="ProximaNova-Bold" font-weight="bold" font-size="20.0" fill="#5C5C5C" transform="matrix(0.69, 0.00, -0.00, -0.69, 154.6, 170.2)">S</text><text xml:space="preserve" font-family="ProximaNova-Bold" font-weight="bold" font-size="20.0" fill="#5C5C5C" transform="matrix(0.69, 0.00, -0.00, -0.69, 162.9, 170.2)">c</text><text xml:space="preserve" font-family="ProximaNova-Bold" font-weight="bold" font-size="20.0" fill="#5C5C5C" transform="matrix(0.69, 0.00, -0.00, -0.69, 169.8, 170.2)">o</text><text xml:space="preserve" font-family="ProximaNova-Bold" font-weight="bold" font-size="20.0" fill="#5C5C5C" transform="matrix(0.69, 0.00, -0.00, -0.69, 177.7, 170.2)">u</text><text xml:space="preserve" font-family="ProximaNova-Bold" font-weight="bold" font-size="20.0" fill="#5C5C5C" transform="matrix(0.69, 0.00, -0.00, -0.69, 185.7, 170.2)">t</text><text xml:space="preserve" font-family="ProximaNova-Bold" font-weight="bold" font-size="20.0" fill="#5C5C5C" transform="matrix(0.69, 0.00, -0.00, -0.69, 190.3, 170.2)"> </text><text xml:space="preserve" font-family="ProximaNova-Bold" font-weight="bold" font-size="20.0" fill="#5C5C5C" transform="matrix(0.69, 0.00, -0.00, -0.69, 83.4, 150.9)">c</text><text xml:space="preserve" font-family="ProximaNova-Bold" font-weight="bold" font-size="20.0" fill="#5C5C5C" transform="matrix(0.69, 0.00, -0.00, -0.69, 90.2, 150.9)">o</text><text xml:space="preserve" font-family="ProximaNova-Bold" font-weight="bold" font-size="20.0" fill="#5C5C5C" transform="matrix(0.69, 0.00, -0.00, -0.69, 98.2, 150.9)">n</text><text xml:space="preserve" font-family="ProximaNova-Bold" font-weight="bold" font-size="20.0" fill="#5C5C5C" transform="matrix(0.69, 0.00, -0.00, -0.69, 106.1, 150.9)">n</text><text xml:space="preserve" font-family="ProximaNova-Bold" font-weight="bold" font-size="20.0" fill="#5C5C5C" transform="matrix(0.69, 0.00, -0.00, -0.69, 114.1, 150.9)">e</text><text xml:space="preserve" font-family="ProximaNova-Bold" font-weight="bold" font-size="20.0" fill="#5C5C5C" transform="matrix(0.69, 0.00, -0.00, -0.69, 121.7, 150.9)">c</text><text xml:space="preserve" font-family="ProximaNova-Bold" font-weight="bold" font-size="20.0" fill="#5C5C5C" transform="matrix(0.69, 0.00, -0.00, -0.69, 128.6, 150.9)">t</text><text xml:space="preserve" font-family="ProximaNova-Bold" font-weight="bold" font-size="20.0" fill="#5C5C5C" transform="matrix(0.69, 0.00, -0.00, -0.69, 133.3, 150.9)">s</text><text xml:space="preserve" font-family="ProximaNova-Bold" font-weight="bold" font-size="20.0" fill="#5C5C5C" transform="matrix(0.69, 0.00, -0.00, -0.69, 139.9, 150.9)"> </text><text xml:space="preserve" font-family="ProximaNova-Bold" font-weight="bold" font-size="20.0" fill="#5C5C5C" transform="matrix(0.69, 0.00, -0.00, -0.69, 143.4, 150.9)">v</text><text xml:space="preserve" font-family="ProximaNova-Bold" font-weight="bold" font-size="20.0" fill="#5C5C5C" transform="matrix(0.69, 0.00, -0.00, -0.69, 150.5, 150.9)">e</text><text xml:space="preserve" font-family="ProximaNova-Bold" font-weight="bold" font-size="20.0" fill="#5C5C5C" transform="matrix(0.69, 0.00, -0.00, -0.69, 158.1, 150.9)">t</text><text xml:space="preserve" font-family="ProximaNova-Bold" font-weight="bold" font-size="20.0" fill="#5C5C5C" transform="matrix(0.69, 0.00, -0.00, -0.69, 162.8, 150.9)">e</text><text xml:space="preserve" font-family="ProximaNova-Bold" font-weight="bold" font-size="20.0" fill="#5C5C5C" transform="matrix(0.69, 0.00, -0.00, -0.69, 170.4, 150.9)">r</text><text xml:space="preserve" font-family="ProximaNova-Bold" font-weight="bold" font-size="20.0" fill="#5C5C5C" transform="matrix(0.69, 0.00, -0.00, -0.69, 175.3, 150.9)">a</text><text xml:space="preserve" font-family="ProximaNova-Bold" font-weight="bold" font-size="20.0" fill="#5C5C5C" transform="matrix(0.69, 0.00, -0.00, -0.69, 182.8, 150.9)">n</text><text xml:space="preserve" font-family="ProximaNova-Bold" font-weight="bold" font-size="20.0" fill="#5C5C5C" transform="matrix(0.69, 0.00, -0.00, -0.69, 190.8, 150.9)">s</text><text xml:space="preserve" font-family="ProximaNova-Bold" font-weight="bold" font-size="20.0" fill="#5C5C5C" transform="matrix(0.69, 0.00, -0.00, -0.69, 197.4, 150.9)"> </text><text xml:space="preserve" font-family="ProximaNova-Bold" font-weight="bold" font-size="20.0" fill="#5C5C5C" transform="matrix(0.69, 0.00, -0.00, -0.69, 200.9, 150.9)">a</text><text xml:space="preserve" font-family="ProximaNova-Bold" font-weight="bold" font-size="20.0" fill="#5C5C5C" transform="matrix(0.69, 0.00, -0.00, -0.69, 208.4, 150.9)">n</text><text xml:space="preserve" font-family="ProximaNova-Bold" font-weight="bold" font-size="20.0" fill="#5C5C5C" transform="matrix(0.69, 0.00, -0.00, -0.69, 216.4, 150.9)">d</text><text xml:space="preserve" font-family="ProximaNova-Bold" font-weight="bold" font-size="20.0" fill="#5C5C5C" transform="matrix(0.69, 0.00, -0.00, -0.69, 224.5, 150.9)"> </text><text xml:space="preserve" font-family="ProximaNova-Bold" font-weight="bold" font-size="20.0" fill="#5C5C5C" transform="matrix(0.69, 0.00, -0.00, -0.69, 83.4, 131.5)">m</text><text xml:space="preserve" font-family="ProximaNova-Bold" font-weight="bold" font-size="20.0" fill="#5C5C5C" transform="matrix(0.69, 0.00, -0.00, -0.69, 95.1, 131.5)">i</text><text xml:space="preserve" font-family="ProximaNova-Bold" font-weight="bold" font-size="20.0" fill="#5C5C5C" transform="matrix(0.69, 0.00, -0.00, -0.69, 98.6, 131.5)">l</text><text xml:space="preserve" font-family="ProximaNova-Bold" font-weight="bold" font-size="20.0" fill="#5C5C5C" transform="matrix(0.69, 0.00, -0.00, -0.69, 102.1, 131.5)">i</text><text xml:space="preserve" font-family="ProximaNova-Bold" font-weight="bold" font-size="20.0" fill="#5C5C5C" transform="matrix(0.69, 0.00, -0.00, -0.69, 105.6, 131.5)">t</text><text xml:space="preserve" font-family="ProximaNova-Bold" font-weight="bold" font-size="20.0" fill="#5C5C5C" transform="matrix(0.69, 0.00, -0.00, -0.69, 110.2, 131.5)">a</text><text xml:space="preserve" font-family="ProximaNova-Bold" font-weight="bold" font-size="20.0" fill="#5C5C5C" transform="matrix(0.69, 0.00, -0.00, -0.69, 117.7, 131.5)">r</text><text xml:space="preserve" font-family="ProximaNova-Bold" font-weight="bold" font-size="20.0" fill="#5C5C5C" transform="matrix(0.69, 0.00, -0.00, -0.69, 122.7, 131.5)">y</text><text xml:space="preserve" font-family="ProximaNova-Bold" font-weight="bold" font-size="20.0" fill="#5C5C5C" transform="matrix(0.69, 0.00, -0.00, -0.69, 129.8, 131.5)"> </text><text xml:space="preserve" font-family="ProximaNova-Bold" font-weight="bold" font-size="20.0" fill="#5C5C5C" transform="matrix(0.69, 0.00, -0.00, -0.69, 133.3, 131.5)">s</text><text xml:space="preserve" font-family="ProximaNova-Bold" font-weight="bold" font-size="20.0" fill="#5C5C5C" transform="matrix(0.69, 0.00, -0.00, -0.69, 139.9, 131.5)">p</text><text xml:space="preserve" font-family="ProximaNova-Bold" font-weight="bold" font-size="20.0" fill="#5C5C5C" transform="matrix(0.69, 0.00, -0.00, -0.69, 147.9, 131.5)">o</text><text xml:space="preserve" font-family="ProximaNova-Bold" font-weight="bold" font-size="20.0" fill="#5C5C5C" transform="matrix(0.69, 0.00, -0.00, -0.69, 155.8, 131.5)">u</text><text xml:space="preserve" font-family="ProximaNova-Bold" font-weight="bold" font-size="20.0" fill="#5C5C5C" transform="matrix(0.69, 0.00, -0.00, -0.69, 163.8, 131.5)">s</text><text xml:space="preserve" font-family="ProximaNova-Bold" font-weight="bold" font-size="20.0" fill="#5C5C5C" transform="matrix(0.69, 0.00, -0.00, -0.69, 170.4, 131.5)">e</text><text xml:space="preserve" font-family="ProximaNova-Bold" font-weight="bold" font-size="20.0" fill="#5C5C5C" transform="matrix(0.69, 0.00, -0.00, -0.69, 178.0, 131.5)">s</text><text xml:space="preserve" font-family="ProximaNova-Bold" font-weight="bold" font-size="20.0" fill="#5C5C5C" transform="matrix(0.69, 0.00, -0.00, -0.69, 184.6, 131.5)"> </text><text xml:space="preserve" font-family="ProximaNova-Bold" font-weight="bold" font-size="20.0" fill="#5C5C5C" transform="matrix(0.69, 0.00, -0.00, -0.69, 188.1, 131.5)">w</text><text xml:space="preserve" font-family="ProximaNova-Bold" font-weight="bold" font-size="20.0" fill="#5C5C5C" transform="matrix(0.69, 0.00, -0.00, -0.69, 198.7, 131.5)">i</text><text xml:space="preserve" font-family="ProximaNova-Bold" font-weight="bold" font-size="20.0" fill="#5C5C5C" transform="matrix(0.69, 0.00, -0.00, -0.69, 202.2, 131.5)">t</text><text xml:space="preserve" font-family="ProximaNova-Bold" font-weight="bold" font-size="20.0" fill="#5C5C5C" transform="matrix(0.69, 0.00, -0.00, -0.69, 206.9, 131.5)">h</text><text xml:space="preserve" font-family="ProximaNova-Bold" font-weight="bold" font-size="20.0" fill="#5C5C5C" transform="matrix(0.69, 0.00, -0.00, -0.69, 214.9, 131.5)"> </text><text xml:space="preserve" font-family="ProximaNova-Bold" font-weight="bold" font-size="20.0" fill="#5C5C5C" transform="matrix(0.69, 0.00, -0.00, -0.69, 83.4, 112.2)">e</text><text xml:space="preserve" font-family="ProximaNova-Bold" font-weight="bold" font-size="20.0" fill="#5C5C5C" transform="matrix(0.69, 0.00, -0.00, -0.69, 91.0, 112.2)">m</text><text xml:space="preserve" font-family="ProximaNova-Bold" font-weight="bold" font-size="20.0" fill="#5C5C5C" transform="matrix(0.69, 0.00, -0.00, -0.69, 102.7, 112.2)">p</text><text xml:space="preserve" font-family="ProximaNova-Bold" font-weight="bold" font-size="20.0" fill="#5C5C5C" transform="matrix(0.69, 0.00, -0.00, -0.69, 110.8, 112.2)">l</text><text xml:space="preserve" font-family="ProximaNova-Bold" font-weight="bold" font-size="20.0" fill="#5C5C5C" transform="matrix(0.69, 0.00, -0.00, -0.69, 114.3, 112.2)">o</text><text xml:space="preserve" font-family="ProximaNova-Bold" font-weight="bold" font-size="20.0" fill="#5C5C5C" transform="matrix(0.69, 0.00, -0.00, -0.69, 122.2, 112.2)">y</text><text xml:space="preserve" font-family="ProximaNova-Bold" font-weight="bold" font-size="20.0" fill="#5C5C5C" transform="matrix(0.69, 0.00, -0.00, -0.69, 129.2, 112.2)">e</text><text xml:space="preserve" font-family="ProximaNova-Bold" font-weight="bold" font-size="20.0" fill="#5C5C5C" transform="matrix(0.69, 0.00, -0.00, -0.69, 136.9, 112.2)">r</text><text xml:space="preserve" font-family="ProximaNova-Bold" font-weight="bold" font-size="20.0" fill="#5C5C5C" transform="matrix(0.69, 0.00, -0.00, -0.69, 141.8, 112.2)">s</text><text xml:space="preserve" font-family="ProximaNova-Bold" font-weight="bold" font-size="20.0" fill="#5C5C5C" transform="matrix(0.69, 0.00, -0.00, -0.69, 148.4, 112.2)"> </text><text xml:space="preserve" font-family="ProximaNova-Bold" font-weight="bold" font-size="20.0" fill="#5C5C5C" transform="matrix(0.69, 0.00, -0.00, -0.69, 151.9, 112.2)">l</text><text xml:space="preserve" font-family="ProximaNova-Bold" font-weight="bold" font-size="20.0" fill="#5C5C5C" transform="matrix(0.69, 0.00, -0.00, -0.69, 155.4, 112.2)">o</text><text xml:space="preserve" font-family="ProximaNova-Bold" font-weight="bold" font-size="20.0" fill="#5C5C5C" transform="matrix(0.69, 0.00, -0.00, -0.69, 163.3, 112.2)">o</text><text xml:space="preserve" font-family="ProximaNova-Bold" font-weight="bold" font-size="20.0" fill="#5C5C5C" transform="matrix(0.69, 0.00, -0.00, -0.69, 171.3, 112.2)">k</text><text xml:space="preserve" font-family="ProximaNova-Bold" font-weight="bold" font-size="20.0" fill="#5C5C5C" transform="matrix(0.69, 0.00, -0.00, -0.69, 178.6, 112.2)">i</text><text xml:space="preserve" font-family="ProximaNova-Bold" font-weight="bold" font-size="20.0" fill="#5C5C5C" transform="matrix(0.69, 0.00, -0.00, -0.69, 182.1, 112.2)">n</text><text xml:space="preserve" font-family="ProximaNova-Bold" font-weight="bold" font-size="20.0" fill="#5C5C5C" transform="matrix(0.69, 0.00, -0.00, -0.69, 190.1, 112.2)">g</text><text xml:space="preserve" font-family="ProximaNova-Bold" font-weight="bold" font-size="20.0" fill="#5C5C5C" transform="matrix(0.69, 0.00, -0.00, -0.69, 198.2, 112.2)"> </text><text xml:space="preserve" font-family="ProximaNova-Bold" font-weight="bold" font-size="20.0" fill="#5C5C5C" transform="matrix(0.69, 0.00, -0.00, -0.69, 201.7, 112.2)">f</text><text xml:space="preserve" font-family="ProximaNova-Bold" font-weight="bold" font-size="20.0" fill="#5C5C5C" transform="matrix(0.69, 0.00, -0.00, -0.69, 206.2, 112.2)">o</text><text xml:space="preserve" font-family="ProximaNova-Bold" font-weight="bold" font-size="20.0" fill="#5C5C5C" transform="matrix(0.69, 0.00, -0.00, -0.69, 214.1, 112.2)">r</text><text xml:space="preserve" font-family="ProximaNova-Bold" font-weight="bold" font-size="20.0" fill="#5C5C5C" transform="matrix(0.69, 0.00, -0.00, -0.69, 219.1, 112.2)"> </text><text xml:space="preserve" font-family="ProximaNova-Bold" font-weight="bold" font-size="20.0" fill="#5C5C5C" transform="matrix(0.69, 0.00, -0.00, -0.69, 83.4, 92.8)">s</text><text xml:space="preserve" font-family="ProximaNova-Bold" font-weight="bold" font-size="20.0" fill="#5C5C5C" transform="matrix(0.69, 0.00, -0.00, -0.69, 89.9, 92.8)">t</text><text xml:space="preserve" font-family="ProximaNova-Bold" font-weight="bold" font-size="20.0" fill="#5C5C5C" transform="matrix(0.69, 0.00, -0.00, -0.69, 94.6, 92.8)">r</text><text xml:space="preserve" font-family="ProximaNova-Bold" font-weight="bold" font-size="20.0" fill="#5C5C5C" transform="matrix(0.69, 0.00, -0.00, -0.69, 99.6, 92.8)">o</text><text xml:space="preserve" font-family="ProximaNova-Bold" font-weight="bold" font-size="20.0" fill="#5C5C5C" transform="matrix(0.69, 0.00, -0.00, -0.69, 107.5, 92.8)">n</text><text xml:space="preserve" font-family="ProximaNova-Bold" font-weight="bold" font-size="20.0" fill="#5C5C5C" transform="matrix(0.69, 0.00, -0.00, -0.69, 115.5, 92.8)">g</text><text xml:space="preserve" font-family="ProximaNova-Bold" font-weight="bold" font-size="20.0" fill="#5C5C5C" transform="matrix(0.69, 0.00, -0.00, -0.69, 123.5, 92.8)"> </text><text xml:space="preserve" font-family="ProximaNova-Bold" font-weight="bold" font-size="20.0" fill="#5C5C5C" transform="matrix(0.69, 0.00, -0.00, -0.69, 127.1, 92.8)">c</text><text xml:space="preserve" font-family="ProximaNova-Bold" font-weight="bold" font-size="20.0" fill="#5C5C5C" transform="matrix(0.69, 0.00, -0.00, -0.69, 133.9, 92.8)">a</text><text xml:space="preserve" font-family="ProximaNova-Bold" font-weight="bold" font-size="20.0" fill="#5C5C5C" transform="matrix(0.69, 0.00, -0.00, -0.69, 141.4, 92.8)">n</text><text xml:space="preserve" font-family="ProximaNova-Bold" font-weight="bold" font-size="20.0" fill="#5C5C5C" transform="matrix(0.69, 0.00, -0.00, -0.69, 149.4, 92.8)">d</text><text xml:space="preserve" font-family="ProximaNova-Bold" font-weight="bold" font-size="20.0" fill="#5C5C5C" transform="matrix(0.69, 0.00, -0.00, -0.69, 157.5, 92.8)">i</text><text xml:space="preserve" font-family="ProximaNova-Bold" font-weight="bold" font-size="20.0" fill="#5C5C5C" transform="matrix(0.69, 0.00, -0.00, -0.69, 161.0, 92.8)">d</text><text xml:space="preserve" font-family="ProximaNova-Bold" font-weight="bold" font-size="20.0" fill="#5C5C5C" transform="matrix(0.69, 0.00, -0.00, -0.69, 169.1, 92.8)">a</text><text xml:space="preserve" font-family="ProximaNova-Bold" font-weight="bold" font-size="20.0" fill="#5C5C5C" transform="matrix(0.69, 0.00, -0.00, -0.69, 176.5, 92.8)">t</text><text xml:space="preserve" font-family="ProximaNova-Bold" font-weight="bold" font-size="20.0" fill="#5C5C5C" transform="matrix(0.69, 0.00, -0.00, -0.69, 181.2, 92.8)">e</text><text xml:space="preserve" font-family="ProximaNova-Bold" font-weight="bold" font-size="20.0" fill="#5C5C5C" transform="matrix(0.69, 0.00, -0.00, -0.69, 188.8, 92.8)">s</text><text xml:space="preserve" font-family="ProximaNova-Bold" font-weight="bold" font-size="20.0" fill="#5C5C5C" transform="matrix(0.69, 0.00, -0.00, -0.69, 195.4, 92.8)">.</text><text xml:space="preserve" font-family="ProximaNova-Bold" font-weight="bold" font-size="20.0" fill="#5C5C5C" transform="matrix(0.69, 0.00, -0.00, -0.69, 198.9, 92.8)"> </text></g></g></g></g><g><clipPath id="clip-1973"><path d="M 2.0 814.5 L 708.0 814.5 L 708.0 -677.9 L 2.0 -677.9 Z M 2.0 814.5 "></path></clipPath><g clip-path="url(#clip-1973)"><g><clipPath id="clip-1974"><path d="M 627.8 12.5 L 596.0 12.5 C 596.3 13.6 596.5 14.7 596.5 15.9 L 596.5 189.4 C 596.5 195.2 591.8 199.9 586.1 199.9 L 326.0 199.9 C 320.2 199.9 315.5 195.2 315.5 189.4 L 315.5 15.9 C 315.5 14.7 315.7 13.6 316.1 12.5 L 284.2 12.5 C 283.9 12.5 283.6 12.3 283.6 12.0 L 283.6 6.6 C 283.6 6.5 283.6 6.0 284.0 5.7 C 284.1 5.7 284.2 5.6 284.3 5.5 L 284.3 5.5 C 286.7 3.9 292.7 1.5 299.4 1.5 L 612.7 1.5 C 619.3 1.5 625.3 3.9 627.7 5.5 L 627.7 5.5 C 627.8 5.6 627.9 5.7 628.1 5.8 C 628.4 6.0 628.4 6.4 628.4 6.6 L 628.4 12.0 C 628.4 12.3 628.1 12.5 627.8 12.5 L 627.8 12.5 Z M 316.3 15.9 L 316.3 189.4 C 316.3 194.8 320.6 199.2 326.0 199.2 L 586.1 199.2 C 591.4 199.2 595.8 194.8 595.8 189.4 L 595.8 15.9 C 595.8 14.7 595.6 13.6 595.2 12.5 L 566.7 12.5 L 566.7 12.7 L 565.8 16.4 L 591.2 16.4 C 593.2 16.4 594.8 18.1 594.8 20.1 L 594.8 189.6 C 594.8 194.3 591.0 198.2 586.2 198.2 L 325.9 198.2 C 321.1 198.2 317.2 194.3 317.2 189.6 L 317.2 20.1 C 317.2 18.1 318.8 16.4 320.8 16.4 L 345.4 16.4 L 344.5 12.5 L 316.9 12.5 C 316.5 13.6 316.3 14.7 316.3 15.9 L 316.3 15.9 Z M 431.6 12.5 L 345.2 12.5 L 346.1 16.4 L 565.1 16.4 L 566.0 12.5 L 431.6 12.5 L 431.6 12.5 Z M 479.6 11.8 C 479.4 10.6 478.3 8.6 476.2 8.6 L 435.8 8.6 C 433.7 8.6 432.6 10.6 432.4 11.8 L 479.6 11.8 L 479.6 11.8 Z M 320.8 17.2 C 319.2 17.2 317.9 18.5 317.9 20.1 L 317.9 189.6 C 317.9 193.9 321.5 197.5 325.9 197.5 L 586.2 197.5 C 590.6 197.5 594.1 193.9 594.1 189.6 L 594.1 20.1 C 594.1 18.5 592.8 17.2 591.2 17.2 L 320.8 17.2 L 320.8 17.2 Z M 284.4 11.8 L 431.6 11.8 C 431.9 10.3 433.3 7.9 435.8 7.9 L 476.2 7.9 C 478.7 7.9 480.2 10.3 480.4 11.8 L 627.6 11.8 L 627.6 6.6 C 627.6 6.5 627.6 6.4 627.6 6.4 C 627.5 6.3 627.4 6.2 627.3 6.2 L 284.7 6.2 C 284.6 6.2 284.5 6.3 284.5 6.3 C 284.4 6.4 284.4 6.4 284.4 6.6 L 284.4 11.8 L 284.4 11.8 Z M 612.7 2.2 L 299.4 2.2 C 293.7 2.2 288.6 4.0 285.8 5.5 L 626.2 5.5 C 623.4 4.0 618.3 2.2 612.7 2.2 L 612.7 2.2 Z M 612.7 2.2 "></path></clipPath><g clip-path="url(#clip-1974)"><g><clipPath id="clip-1975"><path d="M 2.0 1.0 L 708.0 1.0 L 708.0 530.0 L 2.0 530.0 Z M 2.0 1.0 "></path></clipPath><g clip-path="url(#clip-1975)"><path d="M 280.2 203.3 L 631.8 203.3 L 631.8 -2.0 L 280.2 -2.0 Z M 280.2 203.3 " fill="#221F1F"></path></g></g></g></g></g></g><g><clipPath id="clip-1976"><path d="M 2.0 814.5 L 708.0 814.5 L 708.0 -677.9 L 2.0 -677.9 Z M 2.0 814.5 "></path></clipPath><g clip-path="url(#clip-1976)"><g><clipPath id="clip-1977"><path d="M 587.1 188.8 L 325.0 188.8 C 324.5 188.8 324.0 188.4 324.0 187.9 L 324.0 23.9 C 324.0 23.4 324.5 23.0 325.0 23.0 L 587.1 23.0 C 587.6 23.0 588.0 23.4 588.0 23.9 L 588.0 187.9 C 588.0 188.4 587.6 188.8 587.1 188.8 L 587.1 188.8 Z M 325.0 187.9 L 587.1 187.9 L 587.1 23.9 L 325.0 23.9 L 325.0 187.9 Z M 325.0 187.9 "></path></clipPath><g clip-path="url(#clip-1977)"><g><clipPath id="clip-1978"><path d="M 2.0 1.0 L 708.0 1.0 L 708.0 530.0 L 2.0 530.0 Z M 2.0 1.0 "></path></clipPath><g clip-path="url(#clip-1978)"><path d="M 320.6 192.2 L 591.4 192.2 L 591.4 19.5 L 320.6 19.5 Z M 320.6 192.2 " fill="#221F1F"></path></g></g></g></g></g></g><g><clipPath id="clip-1979"><path d="M 2.0 814.5 L 708.0 814.5 L 708.0 -677.9 L 2.0 -677.9 Z M 2.0 814.5 "></path></clipPath><g clip-path="url(#clip-1979)"><g><clipPath id="clip-1980"><path d="M 455.7 191.4 C 456.4 191.4 457.0 192.0 457.0 192.7 C 457.0 193.4 456.4 194.0 455.7 194.0 C 455.0 194.0 454.4 193.4 454.4 192.7 C 454.4 192.0 455.0 191.4 455.7 191.4 L 455.7 191.4 Z M 455.7 193.4 C 456.0 193.4 456.3 193.1 456.3 192.7 C 456.3 192.4 456.0 192.1 455.7 192.1 C 455.3 192.1 455.0 192.4 455.0 192.7 C 455.0 193.1 455.3 193.4 455.7 193.4 L 455.7 193.4 Z M 455.7 193.4 "></path></clipPath><g clip-path="url(#clip-1980)"><g><clipPath id="clip-1981"><path d="M 2.0 1.0 L 708.0 1.0 L 708.0 530.0 L 2.0 530.0 Z M 2.0 1.0 "></path></clipPath><g clip-path="url(#clip-1981)"><path d="M 450.9 197.5 L 460.4 197.5 L 460.4 188.0 L 450.9 188.0 Z M 450.9 197.5 " fill="#221F1F"></path></g></g></g></g></g></g><g><clipPath id="clip-1982"><path d="M 2.0 814.5 L 708.0 814.5 L 708.0 -677.9 L 2.0 -677.9 Z M 2.0 814.5 "></path></clipPath><g clip-path="url(#clip-1982)"><g><clipPath id="clip-1983"><path d="M 401.7 2.1 L 401.7 2.1 C 401.8 2.1 401.9 2.1 401.9 2.1 C 402.8 2.1 403.4 2.3 403.5 2.6 C 403.6 2.7 403.5 2.9 403.4 3.0 C 403.1 3.4 401.7 3.4 401.4 3.4 C 401.4 3.4 401.3 3.4 401.3 3.4 C 400.3 3.4 399.8 3.2 399.7 3.0 C 399.6 2.8 399.6 2.6 399.8 2.5 C 400.1 2.1 401.5 2.1 401.7 2.1 "></path></clipPath><g clip-path="url(#clip-1983)"><g><clipPath id="clip-1984"><path d="M 2.0 1.0 L 708.0 1.0 L 708.0 530.0 L 2.0 530.0 Z M 2.0 1.0 "></path></clipPath><g clip-path="url(#clip-1984)"><path d="M 396.2 6.9 L 407.0 6.9 L 407.0 -1.3 L 396.2 -1.3 Z M 396.2 6.9 " fill="#221F1F"></path></g></g></g></g></g></g><g><clipPath id="clip-1985"><path d="M 2.0 814.5 L 708.0 814.5 L 708.0 -677.9 L 2.0 -677.9 Z M 2.0 814.5 "></path></clipPath><g clip-path="url(#clip-1985)"><g><clipPath id="clip-1986"><path d="M 508.8 2.1 C 508.8 2.1 508.9 2.1 509.0 2.1 C 509.2 2.1 510.6 2.1 511.0 2.5 C 511.1 2.6 511.1 2.8 511.0 3.0 C 510.9 3.2 510.4 3.4 509.5 3.4 C 509.4 3.4 509.3 3.4 509.3 3.4 C 509.0 3.4 507.7 3.4 507.3 3.0 C 507.2 2.9 507.1 2.7 507.2 2.6 C 507.3 2.3 507.9 2.1 508.8 2.1 "></path></clipPath><g clip-path="url(#clip-1986)"><g><clipPath id="clip-1987"><path d="M 2.0 1.0 L 708.0 1.0 L 708.0 530.0 L 2.0 530.0 Z M 2.0 1.0 "></path></clipPath><g clip-path="url(#clip-1987)"><path d="M 503.7 6.9 L 514.5 6.9 L 514.5 -1.3 L 503.7 -1.3 Z M 503.7 6.9 " fill="#221F1F"></path></g></g></g></g></g></g><g><clipPath id="clip-1988"><path d="M 2.0 814.5 L 708.0 814.5 L 708.0 -677.9 L 2.0 -677.9 Z M 2.0 814.5 "></path></clipPath><g clip-path="url(#clip-1988)"><g><clipPath id="clip-1989"><path d="M 586.7 188.1 L 325.3 188.1 L 325.3 24.3 L 586.7 24.3 L 586.7 188.1 "></path></clipPath><g clip-path="url(#clip-1989)"><g><clipPath id="clip-1990"><path d="M 2.0 1.0 L 708.0 1.0 L 708.0 530.0 L 2.0 530.0 Z M 2.0 1.0 "></path></clipPath><g clip-path="url(#clip-1990)"><path d="M 321.9 191.6 L 590.1 191.6 L 590.1 20.9 L 321.9 20.9 Z M 321.9 191.6 " fill="#E9E8E8"></path></g></g></g></g></g></g><g><clipPath id="clip-1991"><path d="M 2.0 814.5 L 708.0 814.5 L 708.0 -677.9 L 2.0 -677.9 Z M 2.0 814.5 "></path></clipPath><g clip-path="url(#clip-1991)"><g><clipPath id="clip-1992"><path d="M 586.7 188.1 L 325.3 188.1 L 586.7 188.1 L 586.7 24.3 L 586.7 24.3 L 586.7 188.1 "></path></clipPath><g clip-path="url(#clip-1992)"><g><clipPath id="clip-1993"><path d="M 2.0 1.0 L 708.0 1.0 L 708.0 530.0 L 2.0 530.0 Z M 2.0 1.0 "></path></clipPath><g clip-path="url(#clip-1993)"><path d="M 321.9 191.6 L 590.1 191.6 L 590.1 20.9 L 321.9 20.9 Z M 321.9 191.6 " fill="#221F1F"></path></g></g></g></g></g></g></g></svg>