<?xml version="1.0" encoding="UTF-8" standalone="no"?><svg xmlns="http://www.w3.org/2000/svg" xmlns:xlink="http://www.w3.org/1999/xlink" clip-rule="evenodd" stroke-miterlimit="4.00" viewBox="0 0 741 36"><desc>SVG generated by Keynote</desc><defs></defs><g transform="matrix(1.00, 0.00, -0.00, -1.00, 0.0, 36.0)"><text xml:space="preserve" font-family="ProximaNova-Regular" font-size="36.0" fill="#FEFFFE" transform="matrix(1.00, 0.00, -0.00, -1.00, 0.0, 9.0)">H</text><text xml:space="preserve" font-family="ProximaNova-Regular" font-size="36.0" fill="#FEFFFE" transform="matrix(1.00, 0.00, -0.00, -1.00, 25.6, 9.0)">i</text><text xml:space="preserve" font-family="ProximaNova-Regular" font-size="36.0" fill="#FEFFFE" transform="matrix(1.00, 0.00, -0.00, -1.00, 33.7, 9.0)">g</text><text xml:space="preserve" font-family="ProximaNova-Regular" font-size="36.0" fill="#FEFFFE" transform="matrix(1.00, 0.00, -0.00, -1.00, 54.4, 9.0)">h</text><text xml:space="preserve" font-family="ProximaNova-Regular" font-size="36.0" fill="#FEFFFE" transform="matrix(1.00, 0.00, -0.00, -1.00, 74.3, 9.0)">l</text><text xml:space="preserve" font-family="ProximaNova-Regular" font-size="36.0" fill="#FEFFFE" transform="matrix(1.00, 0.00, -0.00, -1.00, 82.4, 9.0)">i</text><text xml:space="preserve" font-family="ProximaNova-Regular" font-size="36.0" fill="#FEFFFE" transform="matrix(1.00, 0.00, -0.00, -1.00, 90.5, 9.0)">g</text><text xml:space="preserve" font-family="ProximaNova-Regular" font-size="36.0" fill="#FEFFFE" transform="matrix(1.00, 0.00, -0.00, -1.00, 111.1, 9.0)">h</text><text xml:space="preserve" font-family="ProximaNova-Regular" font-size="36.0" fill="#FEFFFE" transform="matrix(1.00, 0.00, -0.00, -1.00, 131.0, 9.0)">t</text><text xml:space="preserve" font-family="ProximaNova-Regular" font-size="36.0" fill="#FEFFFE" transform="matrix(1.00, 0.00, -0.00, -1.00, 141.6, 9.0)">e</text><text xml:space="preserve" font-family="ProximaNova-Regular" font-size="36.0" fill="#FEFFFE" transform="matrix(1.00, 0.00, -0.00, -1.00, 161.9, 9.0)">d</text><text xml:space="preserve" font-family="ProximaNova-Regular" font-size="36.0" fill="#FEFFFE" transform="matrix(1.00, 0.00, -0.00, -1.00, 182.6, 9.0)"> </text><text xml:space="preserve" font-family="ProximaNova-Regular" font-size="36.0" fill="#FEFFFE" transform="matrix(1.00, 0.00, -0.00, -1.00, 191.8, 9.0)">S</text><text xml:space="preserve" font-family="ProximaNova-Regular" font-size="36.0" fill="#FEFFFE" transform="matrix(1.00, 0.00, -0.00, -1.00, 212.9, 9.0)">e</text><text xml:space="preserve" font-family="ProximaNova-Regular" font-size="36.0" fill="#FEFFFE" transform="matrix(1.00, 0.00, -0.00, -1.00, 233.2, 9.0)">a</text><text xml:space="preserve" font-family="ProximaNova-Regular" font-size="36.0" fill="#FEFFFE" transform="matrix(1.00, 0.00, -0.00, -1.00, 252.2, 9.0)">r</text><text xml:space="preserve" font-family="ProximaNova-Regular" font-size="36.0" fill="#FEFFFE" transform="matrix(1.00, 0.00, -0.00, -1.00, 264.1, 9.0)">c</text><text xml:space="preserve" font-family="ProximaNova-Regular" font-size="36.0" fill="#FEFFFE" transform="matrix(1.00, 0.00, -0.00, -1.00, 281.9, 9.0)">h</text><text xml:space="preserve" font-family="ProximaNova-Regular" font-size="36.0" fill="#FEFFFE" transform="matrix(1.00, 0.00, -0.00, -1.00, 301.8, 9.0)"> </text><text xml:space="preserve" font-family="ProximaNova-Regular" font-size="36.0" fill="#FEFFFE" transform="matrix(1.00, 0.00, -0.00, -1.00, 311.0, 9.0)">R</text><text xml:space="preserve" font-family="ProximaNova-Regular" font-size="36.0" fill="#FEFFFE" transform="matrix(1.00, 0.00, -0.00, -1.00, 331.8, 9.0)">e</text><text xml:space="preserve" font-family="ProximaNova-Regular" font-size="36.0" fill="#FEFFFE" transform="matrix(1.00, 0.00, -0.00, -1.00, 352.1, 9.0)">s</text><text xml:space="preserve" font-family="ProximaNova-Regular" font-size="36.0" fill="#FEFFFE" transform="matrix(1.00, 0.00, -0.00, -1.00, 368.9, 9.0)">u</text><text xml:space="preserve" font-family="ProximaNova-Regular" font-size="36.0" fill="#FEFFFE" transform="matrix(1.00, 0.00, -0.00, -1.00, 388.7, 9.0)">l</text><text xml:space="preserve" font-family="ProximaNova-Regular" font-size="36.0" fill="#FEFFFE" transform="matrix(1.00, 0.00, -0.00, -1.00, 396.8, 9.0)">t</text><text xml:space="preserve" font-family="ProximaNova-Regular" font-size="36.0" fill="#FEFFFE" transform="matrix(1.00, 0.00, -0.00, -1.00, 407.4, 9.0)">s</text><text xml:space="preserve" font-family="ProximaNova-Regular" font-size="36.0" fill="#FEFFFE" transform="matrix(1.00, 0.00, -0.00, -1.00, 424.1, 9.0)"> </text><text xml:space="preserve" font-family="ProximaNova-Regular" font-size="36.0" fill="#FEFFFE" transform="matrix(1.00, 0.00, -0.00, -1.00, 433.4, 9.0)">f</text><text xml:space="preserve" font-family="ProximaNova-Regular" font-size="36.0" fill="#FEFFFE" transform="matrix(1.00, 0.00, -0.00, -1.00, 443.6, 9.0)">o</text><text xml:space="preserve" font-family="ProximaNova-Regular" font-size="36.0" fill="#FEFFFE" transform="matrix(1.00, 0.00, -0.00, -1.00, 464.2, 9.0)">r</text><text xml:space="preserve" font-family="ProximaNova-Regular" font-size="36.0" fill="#FEFFFE" transform="matrix(1.00, 0.00, -0.00, -1.00, 476.1, 9.0)"> </text><text xml:space="preserve" font-family="ProximaNova-Regular" font-size="36.0" fill="#FEFFFE" transform="matrix(1.00, 0.00, -0.00, -1.00, 485.4, 9.0)">V</text><text xml:space="preserve" font-family="ProximaNova-Regular" font-size="36.0" fill="#FEFFFE" transform="matrix(1.00, 0.00, -0.00, -1.00, 509.0, 9.0)">E</text><text xml:space="preserve" font-family="ProximaNova-Regular" font-size="36.0" fill="#FEFFFE" transform="matrix(1.00, 0.00, -0.00, -1.00, 529.5, 9.0)">A</text><text xml:space="preserve" font-family="ProximaNova-Regular" font-size="36.0" fill="#FEFFFE" transform="matrix(1.00, 0.00, -0.00, -1.00, 551.9, 9.0)">C</text><text xml:space="preserve" font-family="ProximaNova-Regular" font-size="36.0" fill="#FEFFFE" transform="matrix(1.00, 0.00, -0.00, -1.00, 576.2, 9.0)"> </text><text xml:space="preserve" font-family="ProximaNova-Regular" font-size="36.0" fill="#FEFFFE" transform="matrix(1.00, 0.00, -0.00, -1.00, 585.5, 9.0)">M</text><text xml:space="preserve" font-family="ProximaNova-Regular" font-size="36.0" fill="#FEFFFE" transform="matrix(1.00, 0.00, -0.00, -1.00, 614.6, 9.0)">e</text><text xml:space="preserve" font-family="ProximaNova-Regular" font-size="36.0" fill="#FEFFFE" transform="matrix(1.00, 0.00, -0.00, -1.00, 634.9, 9.0)">m</text><text xml:space="preserve" font-family="ProximaNova-Regular" font-size="36.0" fill="#FEFFFE" transform="matrix(1.00, 0.00, -0.00, -1.00, 664.0, 9.0)">b</text><text xml:space="preserve" font-family="ProximaNova-Regular" font-size="36.0" fill="#FEFFFE" transform="matrix(1.00, 0.00, -0.00, -1.00, 684.7, 9.0)">e</text><text xml:space="preserve" font-family="ProximaNova-Regular" font-size="36.0" fill="#FEFFFE" transform="matrix(1.00, 0.00, -0.00, -1.00, 705.0, 9.0)">r</text><text xml:space="preserve" font-family="ProximaNova-Regular" font-size="36.0" fill="#FEFFFE" transform="matrix(1.00, 0.00, -0.00, -1.00, 716.8, 9.0)">s</text><text xml:space="preserve" font-family="ProximaNova-Regular" font-size="36.0" fill="#FEFFFE" transform="matrix(1.00, 0.00, -0.00, -1.00, 733.6, 9.0)">.</text></g></svg>