<?xml version="1.0" encoding="UTF-8" standalone="no"?><svg xmlns="http://www.w3.org/2000/svg" xmlns:xlink="http://www.w3.org/1999/xlink" clip-rule="evenodd" stroke-miterlimit="4.00" viewBox="0 0 710 38"><desc>SVG generated by Keynote</desc><defs></defs><g transform="matrix(1.00, 0.00, -0.00, -1.00, 0.0, 38.0)"><g><clipPath id="clip-2445"><path d="M 2.0 37.0 L 708.0 37.0 L 708.0 -1488.4 L 2.0 -1488.4 Z M 2.0 37.0 "></path></clipPath><g clip-path="url(#clip-2445)"><g><clipPath id="clip-2446"><path d="M 2.0 36.3 L 708.0 36.3 L 708.0 1.0 L 2.0 1.0 L 2.0 36.3 Z M 2.0 36.3 "></path></clipPath><g clip-path="url(#clip-2446)"><g><clipPath id="clip-2447"><path d="M 2.0 1.0 L 708.0 1.0 L 708.0 37.0 L 2.0 37.0 Z M 2.0 1.0 "></path></clipPath><g clip-path="url(#clip-2447)"><path d="M -1.4 39.8 L 711.4 39.8 L 711.4 -2.5 L -1.4 -2.5 Z M -1.4 39.8 " fill="#D7D7D7"></path></g></g></g></g></g></g><g><clipPath id="clip-2448"><path d="M 2.0 37.0 L 708.0 37.0 L 708.0 -1488.4 L 2.0 -1488.4 Z M 2.0 37.0 "></path></clipPath><g clip-path="url(#clip-2448)"><g><clipPath id="clip-2449"><path d="M 79.1 24.3 C 79.6 22.6 79.9 20.7 79.9 18.8 C 79.9 9.0 72.0 1.0 62.3 1.0 C 52.6 1.0 44.7 9.0 44.7 18.8 C 44.7 20.7 45.0 22.6 45.6 24.3 L 62.3 7.3 L 79.1 24.3 "></path></clipPath><g clip-path="url(#clip-2449)"><g><clipPath id="clip-2450"><path d="M 2.0 1.0 L 708.0 1.0 L 708.0 37.0 L 2.0 37.0 Z M 2.0 1.0 "></path></clipPath><g clip-path="url(#clip-2450)"><path d="M 41.3 27.8 L 83.4 27.8 L 83.4 -2.5 L 41.3 -2.5 Z M 41.3 27.8 " fill="#FFFEFE"></path></g></g></g></g></g></g><g><clipPath id="clip-2451"><path d="M 2.0 37.0 L 708.0 37.0 L 708.0 -1488.4 L 2.0 -1488.4 Z M 2.0 37.0 "></path></clipPath><g clip-path="url(#clip-2451)"><g><clipPath id="clip-2452"><path d="M 76.5 29.9 L 62.7 15.1 L 48.9 29.9 C 52.1 34.2 57.1 37.0 62.7 37.0 C 68.3 37.0 73.2 34.2 76.5 29.9 "></path></clipPath><g clip-path="url(#clip-2452)"><g><clipPath id="clip-2453"><path d="M 2.0 1.0 L 708.0 1.0 L 708.0 37.0 L 2.0 37.0 Z M 2.0 1.0 "></path></clipPath><g clip-path="url(#clip-2453)"><path d="M 45.4 40.5 L 79.9 40.5 L 79.9 11.6 L 45.4 11.6 Z M 45.4 40.5 " fill="#FFFEFE"></path></g></g></g></g></g></g><g><clipPath id="clip-2454"><path d="M 2.0 37.0 L 708.0 37.0 L 708.0 -1488.4 L 2.0 -1488.4 Z M 2.0 37.0 "></path></clipPath><g clip-path="url(#clip-2454)"><g><clipPath id="clip-2455"><path d="M 2.0 1.0 L 708.0 1.0 L 708.0 37.0 L 2.0 37.0 Z M 2.0 1.0 "></path></clipPath><g clip-path="url(#clip-2455)"><text xml:space="preserve" font-family="AlternateGotNo1D" font-size="24.0" fill="#FEFFFF" transform="matrix(0.69, 0.00, -0.00, -0.71, 90.9, 12.3)">V</text><text xml:space="preserve" font-family="AlternateGotNo1D" font-size="24.0" fill="#FEFFFF" transform="matrix(0.69, 0.00, -0.00, -0.71, 96.4, 12.3)">I</text><text xml:space="preserve" font-family="AlternateGotNo1D" font-size="24.0" fill="#FEFFFF" transform="matrix(0.69, 0.00, -0.00, -0.71, 99.2, 12.3)">R</text><text xml:space="preserve" font-family="AlternateGotNo1D" font-size="24.0" fill="#FEFFFF" transform="matrix(0.69, 0.00, -0.00, -0.71, 105.1, 12.3)">T</text><text xml:space="preserve" font-family="AlternateGotNo1D" font-size="24.0" fill="#FEFFFF" transform="matrix(0.69, 0.00, -0.00, -0.71, 110.0, 12.3)">U</text><text xml:space="preserve" font-family="AlternateGotNo1D" font-size="24.0" fill="#FEFFFF" transform="matrix(0.69, 0.00, -0.00, -0.71, 115.6, 12.3)">A</text><text xml:space="preserve" font-family="AlternateGotNo1D" font-size="24.0" fill="#FEFFFF" transform="matrix(0.69, 0.00, -0.00, -0.71, 121.5, 12.3)">L</text><text xml:space="preserve" font-family="AlternateGotNo1D" font-size="24.0" fill="#FEFFFF" transform="matrix(0.69, 0.00, -0.00, -0.71, 126.1, 12.3)"> </text><text xml:space="preserve" font-family="AlternateGotNo1D" font-size="24.0" fill="#FEFFFF" transform="matrix(0.69, 0.00, -0.00, -0.71, 129.0, 12.3)">J</text><text xml:space="preserve" font-family="AlternateGotNo1D" font-size="24.0" fill="#FEFFFF" transform="matrix(0.69, 0.00, -0.00, -0.71, 132.3, 12.3)">O</text><text xml:space="preserve" font-family="AlternateGotNo1D" font-size="24.0" fill="#FEFFFF" transform="matrix(0.69, 0.00, -0.00, -0.71, 138.0, 12.3)">B</text><text xml:space="preserve" font-family="AlternateGotNo1D" font-size="24.0" fill="#FEFFFF" transform="matrix(0.69, 0.00, -0.00, -0.71, 143.8, 12.3)"> </text><text xml:space="preserve" font-family="AlternateGotNo1D" font-size="24.0" fill="#FEFFFF" transform="matrix(0.69, 0.00, -0.00, -0.71, 146.6, 12.3)">S</text><text xml:space="preserve" font-family="AlternateGotNo1D" font-size="24.0" fill="#FEFFFF" transform="matrix(0.69, 0.00, -0.00, -0.71, 152.1, 12.3)">C</text><text xml:space="preserve" font-family="AlternateGotNo1D" font-size="24.0" fill="#FEFFFF" transform="matrix(0.69, 0.00, -0.00, -0.71, 157.7, 12.3)">O</text><text xml:space="preserve" font-family="AlternateGotNo1D" font-size="24.0" fill="#FEFFFF" transform="matrix(0.69, 0.00, -0.00, -0.71, 163.4, 12.3)">U</text><text xml:space="preserve" font-family="AlternateGotNo1D" font-size="24.0" fill="#FEFFFF" transform="matrix(0.69, 0.00, -0.00, -0.71, 169.3, 12.3)">T</text></g></g></g></g><g><clipPath id="clip-2456"><path d="M 2.0 37.0 L 708.0 37.0 L 708.0 -1488.4 L 2.0 -1488.4 Z M 2.0 37.0 "></path></clipPath><g clip-path="url(#clip-2456)"><g><clipPath id="clip-2457"><path d="M 32.7 14.8 L 14.3 14.8 C 14.0 14.8 13.7 14.3 13.7 13.6 C 13.7 12.9 14.0 12.3 14.3 12.3 L 32.7 12.3 C 33.0 12.3 33.3 12.9 33.3 13.6 C 33.3 14.3 33.0 14.8 32.7 14.8 "></path></clipPath><g clip-path="url(#clip-2457)"><g><clipPath id="clip-2458"><path d="M 2.0 1.0 L 708.0 1.0 L 708.0 37.0 L 2.0 37.0 Z M 2.0 1.0 "></path></clipPath><g clip-path="url(#clip-2458)"><path d="M 10.3 18.4 L 36.7 18.4 L 36.7 8.8 L 10.3 8.8 Z M 10.3 18.4 " fill="#000000"></path></g></g></g></g></g></g><g><clipPath id="clip-2459"><path d="M 2.0 37.0 L 708.0 37.0 L 708.0 -1488.4 L 2.0 -1488.4 Z M 2.0 37.0 "></path></clipPath><g clip-path="url(#clip-2459)"><g><clipPath id="clip-2460"><path d="M 32.7 19.9 L 14.3 19.9 C 14.0 19.9 13.7 19.3 13.7 18.6 C 13.7 17.9 14.0 17.4 14.3 17.4 L 32.7 17.4 C 33.0 17.4 33.3 17.9 33.3 18.6 C 33.3 19.3 33.0 19.9 32.7 19.9 "></path></clipPath><g clip-path="url(#clip-2460)"><g><clipPath id="clip-2461"><path d="M 2.0 1.0 L 708.0 1.0 L 708.0 37.0 L 2.0 37.0 Z M 2.0 1.0 "></path></clipPath><g clip-path="url(#clip-2461)"><path d="M 10.3 23.4 L 36.7 23.4 L 36.7 13.8 L 10.3 13.8 Z M 10.3 23.4 " fill="#000000"></path></g></g></g></g></g></g><g><clipPath id="clip-2462"><path d="M 2.0 37.0 L 708.0 37.0 L 708.0 -1488.4 L 2.0 -1488.4 Z M 2.0 37.0 "></path></clipPath><g clip-path="url(#clip-2462)"><g><clipPath id="clip-2463"><path d="M 32.7 25.0 L 14.3 25.0 C 14.0 25.0 13.7 24.4 13.7 23.7 C 13.7 23.0 14.0 22.5 14.3 22.5 L 32.7 22.5 C 33.0 22.5 33.3 23.0 33.3 23.7 C 33.3 24.4 33.0 25.0 32.7 25.0 "></path></clipPath><g clip-path="url(#clip-2463)"><g><clipPath id="clip-2464"><path d="M 2.0 1.0 L 708.0 1.0 L 708.0 37.0 L 2.0 37.0 Z M 2.0 1.0 "></path></clipPath><g clip-path="url(#clip-2464)"><path d="M 10.3 28.5 L 36.7 28.5 L 36.7 18.9 L 10.3 18.9 Z M 10.3 28.5 " fill="#000000"></path></g></g></g></g></g></g><g><clipPath id="clip-2465"><path d="M 2.0 37.0 L 708.0 37.0 L 708.0 -1488.4 L 2.0 -1488.4 Z M 2.0 37.0 "></path></clipPath><g clip-path="url(#clip-2465)"><g><clipPath id="clip-2466"><path d="M 2.0 1.0 L 708.0 1.0 L 708.0 37.0 L 2.0 37.0 Z M 2.0 1.0 "></path></clipPath><g clip-path="url(#clip-2466)"><text xml:space="preserve" font-family="ProximaNova-Light" font-size="13.0" fill="#5C5C5C" transform="matrix(0.69, 0.00, -0.00, -0.71, 626.3, 15.1)">S</text><text xml:space="preserve" font-family="ProximaNova-Light" font-size="13.0" fill="#5C5C5C" transform="matrix(0.69, 0.00, -0.00, -0.71, 631.5, 15.1)">I</text><text xml:space="preserve" font-family="ProximaNova-Light" font-size="13.0" fill="#5C5C5C" transform="matrix(0.69, 0.00, -0.00, -0.71, 633.5, 15.1)">G</text><text xml:space="preserve" font-family="ProximaNova-Light" font-size="13.0" fill="#5C5C5C" transform="matrix(0.69, 0.00, -0.00, -0.71, 639.9, 15.1)">N</text><text xml:space="preserve" font-family="ProximaNova-Light" font-size="13.0" fill="#5C5C5C" transform="matrix(0.69, 0.00, -0.00, -0.71, 646.1, 15.1)"> </text><text xml:space="preserve" font-family="ProximaNova-Light" font-size="13.0" fill="#5C5C5C" transform="matrix(0.69, 0.00, -0.00, -0.71, 648.4, 15.1)">U</text><text xml:space="preserve" font-family="ProximaNova-Light" font-size="13.0" fill="#5C5C5C" transform="matrix(0.69, 0.00, -0.00, -0.71, 654.6, 15.1)">P</text><text xml:space="preserve" font-family="ProximaNova-Light" font-size="13.0" fill="#5C5C5C" transform="matrix(0.69, 0.00, -0.00, -0.71, 659.7, 15.1)"> </text><text xml:space="preserve" font-family="ProximaNova-Light" font-size="13.0" fill="#5C5C5C" transform="matrix(0.69, 0.00, -0.00, -0.71, 662.0, 15.1)">|</text><text xml:space="preserve" font-family="ProximaNova-Light" font-size="13.0" fill="#5C5C5C" transform="matrix(0.69, 0.00, -0.00, -0.71, 663.9, 15.1)"> </text><text xml:space="preserve" font-family="ProximaNova-Light" font-size="13.0" fill="#5C5C5C" transform="matrix(0.69, 0.00, -0.00, -0.71, 666.2, 15.1)">L</text><text xml:space="preserve" font-family="ProximaNova-Light" font-size="13.0" fill="#5C5C5C" transform="matrix(0.69, 0.00, -0.00, -0.71, 670.4, 15.1)">O</text><text xml:space="preserve" font-family="ProximaNova-Light" font-size="13.0" fill="#5C5C5C" transform="matrix(0.69, 0.00, -0.00, -0.71, 677.3, 15.1)">G</text><text xml:space="preserve" font-family="ProximaNova-Light" font-size="13.0" fill="#5C5C5C" transform="matrix(0.69, 0.00, -0.00, -0.71, 683.6, 15.1)"> </text><text xml:space="preserve" font-family="ProximaNova-Light" font-size="13.0" fill="#5C5C5C" transform="matrix(0.69, 0.00, -0.00, -0.71, 685.9, 15.1)">I</text><text xml:space="preserve" font-family="ProximaNova-Light" font-size="13.0" fill="#5C5C5C" transform="matrix(0.69, 0.00, -0.00, -0.71, 687.9, 15.1)">N</text></g></g></g></g></g></svg>