<?xml version="1.0" encoding="UTF-8" standalone="no"?><svg xmlns="http://www.w3.org/2000/svg" xmlns:xlink="http://www.w3.org/1999/xlink" clip-rule="evenodd" stroke-miterlimit="4.00" viewBox="0 0 1024 768"><desc>SVG generated by Keynote</desc><defs></defs><g transform="matrix(1.00, 0.00, -0.00, -1.00, 0.0, 768.0)"><path d="M 0.0 768.0 L 1024.0 768.0 L 1024.0 0.0 L 0.0 0.0 Z M 0.0 768.0 " fill="#0177E2"></path><g opacity="0.72"><g><clipPath id="clip-99"><path d="M 851.0 720.0 L 994.0 720.0 L 994.0 747.0 L 851.0 747.0 Z M 851.0 720.0 "></path></clipPath><g clip-path="url(#clip-99)"><image xlink:href="../../394A620D-BE44-4D88-ACA4-1C582DF687B9/assets/5C9EAEBBFCA889D5DB9B012F06543616.png" width="141.00" height="23.00" transform="matrix(1.00, 0.00, -0.00, -1.04, 852.0, 745.0)"></image></g></g></g><text xml:space="preserve" font-family="LeagueGothic-Regular" font-size="40.0" fill="#FEFFFE" transform="matrix(1.00, 0.00, -0.00, -1.00, 16.0, 713.0)">V</text><text xml:space="preserve" font-family="LeagueGothic-Regular" font-size="40.0" fill="#FEFFFE" transform="matrix(1.00, 0.00, -0.00, -1.00, 30.0, 713.0)">I</text><text xml:space="preserve" font-family="LeagueGothic-Regular" font-size="40.0" fill="#FEFFFE" transform="matrix(1.00, 0.00, -0.00, -1.00, 37.5, 713.0)">R</text><text xml:space="preserve" font-family="LeagueGothic-Regular" font-size="40.0" fill="#FEFFFE" transform="matrix(1.00, 0.00, -0.00, -1.00, 52.0, 713.0)">T</text><text xml:space="preserve" font-family="LeagueGothic-Regular" font-size="40.0" fill="#FEFFFE" transform="matrix(1.00, 0.00, -0.00, -1.00, 64.6, 713.0)">U</text><text xml:space="preserve" font-family="LeagueGothic-Regular" font-size="40.0" fill="#FEFFFE" transform="matrix(1.00, 0.00, -0.00, -1.00, 79.2, 713.0)">A</text><text xml:space="preserve" font-family="LeagueGothic-Regular" font-size="40.0" fill="#FEFFFE" transform="matrix(1.00, 0.00, -0.00, -1.00, 94.2, 713.0)">L</text><text xml:space="preserve" font-family="LeagueGothic-Regular" font-size="40.0" fill="#FEFFFE" transform="matrix(1.00, 0.00, -0.00, -1.00, 106.0, 713.0)"> </text><text xml:space="preserve" font-family="LeagueGothic-Regular" font-size="40.0" fill="#FEFFFE" transform="matrix(1.00, 0.00, -0.00, -1.00, 112.2, 713.0)">J</text><text xml:space="preserve" font-family="LeagueGothic-Regular" font-size="40.0" fill="#FEFFFE" transform="matrix(1.00, 0.00, -0.00, -1.00, 120.4, 713.0)">O</text><text xml:space="preserve" font-family="LeagueGothic-Regular" font-size="40.0" fill="#FEFFFE" transform="matrix(1.00, 0.00, -0.00, -1.00, 134.6, 713.0)">B</text><text xml:space="preserve" font-family="LeagueGothic-Regular" font-size="40.0" fill="#FEFFFE" transform="matrix(1.00, 0.00, -0.00, -1.00, 149.2, 713.0)"> </text><text xml:space="preserve" font-family="LeagueGothic-Regular" font-size="40.0" fill="#FEFFFE" transform="matrix(1.00, 0.00, -0.00, -1.00, 155.3, 713.0)">S</text><text xml:space="preserve" font-family="LeagueGothic-Regular" font-size="40.0" fill="#FEFFFE" transform="matrix(1.00, 0.00, -0.00, -1.00, 169.0, 713.0)">C</text><text xml:space="preserve" font-family="LeagueGothic-Regular" font-size="40.0" fill="#FEFFFE" transform="matrix(1.00, 0.00, -0.00, -1.00, 182.9, 713.0)">O</text><text xml:space="preserve" font-family="LeagueGothic-Regular" font-size="40.0" fill="#FEFFFE" transform="matrix(1.00, 0.00, -0.00, -1.00, 197.0, 713.0)">U</text><text xml:space="preserve" font-family="LeagueGothic-Regular" font-size="40.0" fill="#FEFFFE" transform="matrix(1.00, 0.00, -0.00, -1.00, 211.7, 713.0)">T</text><text xml:space="preserve" font-family="LeagueGothic-Regular" font-size="40.0" fill="#FEFFFE" transform="matrix(1.00, 0.00, -0.00, -1.00, 224.3, 713.0)"> </text><text xml:space="preserve" font-family="LeagueGothic-Regular" font-size="40.0" fill="#FEFFFE" transform="matrix(1.00, 0.00, -0.00, -1.00, 230.5, 713.0)">V</text><text xml:space="preserve" font-family="LeagueGothic-Regular" font-size="40.0" fill="#FEFFFE" transform="matrix(1.00, 0.00, -0.00, -1.00, 244.5, 713.0)">.</text><text xml:space="preserve" font-family="LeagueGothic-Regular" font-size="40.0" fill="#FEFFFE" transform="matrix(1.00, 0.00, -0.00, -1.00, 250.8, 713.0)">2</text><text xml:space="preserve" font-family="LeagueGothic-Regular" font-size="80.0" fill="#FEFFFE" transform="matrix(1.00, 0.00, -0.00, -1.00, 54.0, 577.0)">T</text><text xml:space="preserve" font-family="LeagueGothic-Regular" font-size="80.0" fill="#FEFFFE" transform="matrix(1.00, 0.00, -0.00, -1.00, 78.9, 577.0)">w</text><text xml:space="preserve" font-family="LeagueGothic-Regular" font-size="80.0" fill="#FEFFFE" transform="matrix(1.00, 0.00, -0.00, -1.00, 114.0, 577.0)">o</text><text xml:space="preserve" font-family="LeagueGothic-Regular" font-size="80.0" fill="#FEFFFE" transform="matrix(1.00, 0.00, -0.00, -1.00, 139.7, 577.0)"> </text><text xml:space="preserve" font-family="LeagueGothic-Regular" font-size="80.0" fill="#FEFFFE" transform="matrix(1.00, 0.00, -0.00, -1.00, 152.0, 577.0)">W</text><text xml:space="preserve" font-family="LeagueGothic-Regular" font-size="80.0" fill="#FEFFFE" transform="matrix(1.00, 0.00, -0.00, -1.00, 192.5, 577.0)">a</text><text xml:space="preserve" font-family="LeagueGothic-Regular" font-size="80.0" fill="#FEFFFE" transform="matrix(1.00, 0.00, -0.00, -1.00, 218.0, 577.0)">y</text><text xml:space="preserve" font-family="LeagueGothic-Regular" font-size="80.0" fill="#FEFFFE" transform="matrix(1.00, 0.00, -0.00, -1.00, 242.8, 577.0)"> </text><text xml:space="preserve" font-family="LeagueGothic-Regular" font-size="80.0" fill="#FEFFFE" transform="matrix(1.00, 0.00, -0.00, -1.00, 255.1, 577.0)">M</text><text xml:space="preserve" font-family="LeagueGothic-Regular" font-size="80.0" fill="#FEFFFE" transform="matrix(1.00, 0.00, -0.00, -1.00, 293.8, 577.0)">e</text><text xml:space="preserve" font-family="LeagueGothic-Regular" font-size="80.0" fill="#FEFFFE" transform="matrix(1.00, 0.00, -0.00, -1.00, 319.3, 577.0)">s</text><text xml:space="preserve" font-family="LeagueGothic-Regular" font-size="80.0" fill="#FEFFFE" transform="matrix(1.00, 0.00, -0.00, -1.00, 343.9, 577.0)">s</text><text xml:space="preserve" font-family="LeagueGothic-Regular" font-size="80.0" fill="#FEFFFE" transform="matrix(1.00, 0.00, -0.00, -1.00, 368.6, 577.0)">a</text><text xml:space="preserve" font-family="LeagueGothic-Regular" font-size="80.0" fill="#FEFFFE" transform="matrix(1.00, 0.00, -0.00, -1.00, 394.4, 577.0)">g</text><text xml:space="preserve" font-family="LeagueGothic-Regular" font-size="80.0" fill="#FEFFFE" transform="matrix(1.00, 0.00, -0.00, -1.00, 421.8, 577.0)">i</text><text xml:space="preserve" font-family="LeagueGothic-Regular" font-size="80.0" fill="#FEFFFE" transform="matrix(1.00, 0.00, -0.00, -1.00, 436.2, 577.0)">n</text><text xml:space="preserve" font-family="LeagueGothic-Regular" font-size="80.0" fill="#FEFFFE" transform="matrix(1.00, 0.00, -0.00, -1.00, 463.2, 577.0)">g</text></g></svg>